<?xml version="1.0" standalone="no"?>
<!DOCTYPE svg PUBLIC "-//W3C//DTD SVG 1.1//EN" "http://www.w3.org/Graphics/SVG/1.1/DTD/svg11.dtd" >
<svg xmlns="http://www.w3.org/2000/svg" xmlns:xlink="http://www.w3.org/1999/xlink" version="1.1">
<metadata>
Created by FontForge 20170731 at Mon Dec 13 23:56:30 2021
 By Aleksey,,,
(c) 2021 Microsoft Corporation. All Rights Reserved.
</metadata>
<defs>
<font id="CascadiaCodePL-Regular" horiz-adv-x="1200" >
  <font-face 
    font-family="Cascadia Code PL"
    font-weight="400"
    font-stretch="normal"
    units-per-em="2048"
    panose-1="0 0 0 0 0 0 0 0 0 0"
    ascent="1638"
    descent="-410"
    x-height="1060"
    cap-height="1420"
    bbox="-980 -989 4520 2304"
    underline-thickness="100"
    underline-position="-250"
    unicode-range="U+000D-FFFD"
  />
<missing-glyph 
d="M128 0v1420h944v-1420h-944zM860 190v1040h-520v-1040h520z" />
    <glyph glyph-name="uni0620.init" unicode="&#x620;" 
d="M-12 -6q-33 0 -33 114q0 53 14 75.5t31 22.5q217 0 362 5.5t233.5 19.5t134 39t60.5 63t15 93q0 74 -17 165t-42 195l189 35q34 -117 52 -217.5t18 -186.5q0 -94 -22 -165t-82.5 -120t-173.5 -79.5t-294 -44.5t-445 -14zM729 -196q-76 0 -124 46t-48 125q0 78 49.5 124.5
t122.5 46.5q74 0 123.5 -44.5t49.5 -126.5q0 -81 -49.5 -126t-123.5 -45zM729 -82q58 0 58 57t-57 57q-26 0 -43 -15.5t-17 -41.5q0 -28 17.5 -42.5t41.5 -14.5z" />
    <glyph glyph-name="uni0620.medi" unicode="&#x620;" 
d="M-12 -6l12 212q177 0 280.5 5t154 20t66 45t16.5 81l8 330l197 4l-5 -324q0 -73 12 -107t48 -44t109 -10h314q38 0 56.5 -26.5t18.5 -64.5q0 -70 -25.5 -95.5t-61.5 -25.5h-325q-136 0 -198 41t-84 116h-25q-30 -59 -89 -93.5t-172 -49t-307 -14.5zM349 -236
q-76 0 -124 46t-48 125q0 78 49.5 124.5t122.5 46.5q74 0 123.5 -44.5t49.5 -126.5q0 -81 -49.5 -126t-123.5 -45zM349 -122q58 0 58 57t-57 57q-26 0 -43 -15.5t-17 -41.5q0 -28 17.5 -42.5t41.5 -14.5z" />
    <glyph glyph-name="uni0620.fina" unicode="&#x620;" 
d="M497 -410q-180 0 -281.5 51t-143.5 141.5t-42 207.5q0 64 11.5 140t32.5 144h178q-11 -73 -19 -129.5t-8 -115.5q0 -79 23.5 -131.5t88 -78t187.5 -25.5q224 0 334.5 45.5t110.5 106.5q0 35 -38.5 49.5t-147.5 25.5l35 195q92 -6 198.5 -8t183.5 -2q54 0 78 -26.5
t24 -72.5q0 -51 -29 -82t-85 -31q-23 0 -46 1q5 -21 5 -45q0 -97 -75 -179t-219.5 -131.5t-355.5 -49.5zM564 -787q-76 0 -124 46t-48 125q0 78 49.5 124.5t122.5 46.5q74 0 123.5 -44.5t49.5 -126.5q0 -81 -49.5 -126t-123.5 -45zM564 -673q58 0 58 57t-57 57
q-26 0 -43 -15.5t-17 -41.5q0 -28 17.5 -42.5t41.5 -14.5z" />
    <glyph glyph-name="uniFE82" unicode="&#x622;" arabic-form="final" 
d="M1188 -7h-39h-38q-126 0 -230 1t-201 9q-140 12 -218 50.5t-110 118t-34 214.5l-8 812h206l8 -747q1 -95 15 -145.5t56.5 -71t129.5 -24.5t180 -4.5t217 -0.5h38.5h39.5q31 0 43 -22.5t12 -62.5q0 -59 -17.5 -93t-49.5 -34zM493 1264q-54 0 -100 17t-83.5 33.5
t-68.5 16.5q-37 0 -63 -16t-66 -45l-9 123q41 46 77 67.5t79 21.5q46 0 84 -16.5t76.5 -33.5t84.5 -17q56 0 106.5 23.5t105.5 57.5l10 -135q-52 -47 -116 -72t-117 -25z" />
    <glyph glyph-name="uniFE84" unicode="&#x623;" arabic-form="final" 
d="M1188 -7h-39h-38q-126 0 -230 1t-201 9q-140 12 -218 50.5t-110 118t-34 214.5l-8 812h206l8 -747q1 -95 15 -145.5t56.5 -71t129.5 -24.5t180 -4.5t217 -0.5h38.5h39.5q31 0 43 -22.5t12 -62.5q0 -59 -17.5 -93t-49.5 -34zM216 1238l-11 120l94 24v13q-72 25 -72 121
q0 85 60 130.5t154 45.5q42 0 72 -7t55 -17l-6 -114q-54 7 -94 7q-66 0 -90.5 -16t-24.5 -55q0 -38 18 -52t54 -14q29 0 82.5 9.5t98.5 17.5l14 -125z" />
    <glyph glyph-name="uniFE86" unicode="&#x624;" arabic-form="final" 
d="M426 -480q-71 0 -142.5 12t-123.5 34l15 182q59 -12 112.5 -19t120.5 -7q168 0 281 60.5t150 211.5h-190q-175 0 -236.5 78t-61.5 235q0 111 40.5 204.5t114.5 150t174 56.5q169 0 255.5 -137.5t94.5 -375.5l170 1q46 0 65.5 -22.5t19.5 -85.5q0 -58 -25 -81t-70 -23
h-172q-38 -229 -188.5 -351.5t-403.5 -122.5zM854 203q-6 162 -49.5 232.5t-127.5 70.5q-69 0 -109.5 -49t-40.5 -129q0 -75 32.5 -100t133.5 -25h81h80zM470 804l-11 120l94 24v13q-72 25 -72 121q0 85 60 130.5t154 45.5q42 0 72 -7t55 -17l-6 -114q-54 7 -94 7
q-66 0 -90.5 -16t-24.5 -55q0 -38 18 -52t54 -14q29 0 82.5 9.5t98.5 17.5l14 -125z" />
    <glyph glyph-name="uniFE88" unicode="&#x625;" arabic-form="final" 
d="M1188 -6h-39h-38q-126 0 -230 1t-201 9q-140 12 -218.5 50.5t-110.5 117.5t-33 214l-8 1034h206l8 -969q1 -95 15 -145.5t56.5 -70.5t129.5 -24t180 -4.5t217 -0.5h38.5h39.5q55 0 55 -95q0 -64 -18 -90.5t-49 -26.5zM263 -568l-11 120l94 24v13q-72 25 -72 121
q0 85 60 130.5t154 45.5q42 0 72 -7t55 -17l-6 -114q-54 7 -94 7q-66 0 -90.5 -16t-24.5 -55q0 -38 18 -52t54 -14q29 0 82.5 9.5t98.5 17.5l14 -125z" />
    <glyph glyph-name="uniFE8B" unicode="&#x626;" arabic-form="initial" 
d="M-12 -6q-33 0 -33 114q0 53 14 75.5t31 22.5q217 0 362 5.5t233.5 19.5t134 39t60.5 63t15 93q0 74 -17 165t-42 195l189 35q34 -117 52 -217.5t18 -186.5q0 -94 -22 -165t-82.5 -120t-173.5 -79.5t-294 -44.5t-445 -14zM635 911l-11 120l94 24v13q-72 25 -72 121
q0 85 60 130.5t154 45.5q42 0 72 -7t55 -17l-6 -114q-54 7 -94 7q-66 0 -90.5 -16t-24.5 -55q0 -38 18 -52t54 -14q29 0 82.5 9.5t98.5 17.5l14 -125z" />
    <glyph glyph-name="uniFE8C" unicode="&#x626;" arabic-form="medial" 
d="M-12 -6l12 212q177 0 280.5 5t154 20t66 45t16.5 81l8 330l197 4l-5 -324q0 -73 12 -107t48 -44t109 -10h314q38 0 56.5 -26.5t18.5 -64.5q0 -70 -25.5 -95.5t-61.5 -25.5h-325q-136 0 -198 41t-84 116h-25q-30 -59 -89 -93.5t-172 -49t-307 -14.5zM430 789l-11 120
l94 24v13q-72 25 -72 121q0 85 60 130.5t154 45.5q42 0 72 -7t55 -17l-6 -114q-54 7 -94 7q-66 0 -90.5 -16t-24.5 -55q0 -38 18 -52t54 -14q29 0 82.5 9.5t98.5 17.5l14 -125z" />
    <glyph glyph-name="uniFE8A" unicode="&#x626;" arabic-form="final" 
d="M497 -410q-180 0 -281.5 51t-143.5 141.5t-42 207.5q0 64 11.5 140t32.5 144h178q-11 -73 -19 -129.5t-8 -115.5q0 -79 23.5 -131.5t88 -78t187.5 -25.5q224 0 334.5 45.5t110.5 106.5q0 35 -38.5 49.5t-147.5 25.5l35 195q92 -6 198.5 -8t183.5 -2q54 0 78 -26.5
t24 -72.5q0 -51 -29 -82t-85 -31q-23 0 -46 1q5 -21 5 -45q0 -97 -75 -179t-219.5 -131.5t-355.5 -49.5zM-26 364l-11 120l94 24v13q-72 25 -72 121q0 85 60 130.5t154 45.5q42 0 72 -7t55 -17l-6 -114q-54 7 -94 7q-66 0 -90.5 -16t-24.5 -55q0 -38 18 -52t54 -14
q29 0 82.5 9.5t98.5 17.5l14 -125z" />
    <glyph glyph-name="uniFE8E" unicode="&#x627;" arabic-form="final" 
d="M1188 -6h-39h-38q-126 0 -230 1t-201 9q-140 12 -218.5 50.5t-110.5 117.5t-33 214l-8 1034h206l8 -969q1 -95 15 -145.5t56.5 -70.5t129.5 -24t180 -4.5t217 -0.5h38.5h39.5q55 0 55 -95q0 -64 -18 -90.5t-49 -26.5z" />
    <glyph glyph-name="uniFE91" unicode="&#x628;" arabic-form="initial" 
d="M-12 -6q-33 0 -33 114q0 53 14 75.5t31 22.5q217 0 362 5.5t233.5 19.5t134 39t60.5 63t15 93q0 74 -17 165t-42 195l189 35q34 -117 52 -217.5t18 -186.5q0 -94 -22 -165t-82.5 -120t-173.5 -79.5t-294 -44.5t-445 -14zM770 -429l-161 161l161 162l161 -162z" />
    <glyph glyph-name="uniFE92" unicode="&#x628;" arabic-form="medial" 
d="M-12 -6l12 212q177 0 280.5 5t154 20t66 45t16.5 81l8 330l197 4l-5 -324q0 -73 12 -107t48 -44t109 -10h314q38 0 56.5 -26.5t18.5 -64.5q0 -70 -25.5 -95.5t-61.5 -25.5h-325q-136 0 -198 41t-84 116h-25q-30 -59 -89 -93.5t-172 -49t-307 -14.5zM590 -429l-161 161
l161 162l161 -162z" />
    <glyph glyph-name="uniFE90" unicode="&#x628;" arabic-form="final" 
d="M529 -6q-194 0 -307.5 40t-162.5 130t-49 240q0 77 14.5 148t29.5 113h178q-13 -88 -20 -140t-7 -114q0 -78 29 -123t99.5 -63.5t195.5 -18.5q139 0 218.5 7t117 22t48.5 39.5t12 60.5l10 332l187 4l-6 -352q-1 -76 18 -94.5t66 -18.5q38 0 56.5 -19t18.5 -72
q0 -70 -25.5 -95.5t-61.5 -25.5q-75 0 -125 34.5t-74 121.5l-25 -1q-16 -23 -36.5 -49.5t-63 -50.5t-122 -39.5t-213.5 -15.5zM580 -429l-161 161l161 162l161 -162z" />
    <glyph glyph-name="uniFE94" unicode="&#x629;" arabic-form="final" 
d="M574 157q-186 0 -287.5 68t-101.5 221q0 167 156.5 261t466.5 166l-2 114h206l4 -627q1 -68 15.5 -101t54 -43t114.5 -10q42 0 58.5 -19.5t16.5 -71.5q0 -60 -18 -90.5t-69 -30.5q-131 0 -210 22.5t-116 76.5t-44 149h-26q-22 -49 -77 -67t-141 -18zM810 675
q-231 -44 -338.5 -93t-107.5 -117q0 -59 58 -77.5t191 -18.5q42 0 97.5 3.5t104.5 8.5zM854 1050l-125 125l-125 -125l-155 154l155 156l125 -126l125 126l155 -156z" />
    <glyph glyph-name="uniFE97" unicode="&#x62a;" arabic-form="initial" 
d="M-12 -6q-33 0 -33 114q0 53 14 75.5t31 22.5q217 0 362 5.5t233.5 19.5t134 39t60.5 63t15 93q0 74 -17 165t-42 195l189 35q34 -117 52 -217.5t18 -186.5q0 -94 -22 -165t-82.5 -120t-173.5 -79.5t-294 -44.5t-445 -14zM960 927l-125 125l-125 -125l-155 154l155 156
l125 -126l125 126l155 -156z" />
    <glyph glyph-name="uniFE98" unicode="&#x62a;" arabic-form="medial" 
d="M-12 -6l12 212q177 0 280.5 5t154 20t66 45t16.5 81l8 330l197 4l-5 -324q0 -73 12 -107t48 -44t109 -10h314q38 0 56.5 -26.5t18.5 -64.5q0 -70 -25.5 -95.5t-61.5 -25.5h-325q-136 0 -198 41t-84 116h-25q-30 -59 -89 -93.5t-172 -49t-307 -14.5zM755 805l-125 125
l-125 -125l-155 154l155 156l125 -126l125 126l155 -156z" />
    <glyph glyph-name="uniFE96" unicode="&#x62a;" arabic-form="final" 
d="M529 -6q-194 0 -307.5 40t-162.5 130t-49 240q0 77 14.5 148t29.5 113h178q-13 -88 -20 -140t-7 -114q0 -78 29 -123t99.5 -63.5t195.5 -18.5q139 0 218.5 7t117 22t48.5 39.5t12 60.5l10 332l187 4l-6 -352q-1 -76 18 -94.5t66 -18.5q38 0 56.5 -19t18.5 -72
q0 -70 -25.5 -95.5t-61.5 -25.5q-75 0 -125 34.5t-74 121.5l-25 -1q-16 -23 -36.5 -49.5t-63 -50.5t-122 -39.5t-213.5 -15.5zM715 675l-125 125l-125 -125l-155 154l155 156l125 -126l125 126l155 -156z" />
    <glyph glyph-name="uniFE9B" unicode="&#x62b;" arabic-form="initial" 
d="M-12 -6q-33 0 -33 114q0 53 14 75.5t31 22.5q217 0 362 5.5t233.5 19.5t134 39t60.5 63t15 93q0 74 -17 165t-42 195l189 35q34 -117 52 -217.5t18 -186.5q0 -94 -22 -165t-82.5 -120t-173.5 -79.5t-294 -44.5t-445 -14zM960 927l-125 125l-125 -125l-155 154l155 156
l125 -126l125 126l155 -156zM836 1187l-148 148l148 149l148 -149z" />
    <glyph glyph-name="uniFE9C" unicode="&#x62b;" arabic-form="medial" 
d="M-12 -6l12 212q177 0 280.5 5t154 20t66 45t16.5 81l8 330l197 4l-5 -324q0 -73 12 -107t48 -44t109 -10h314q38 0 56.5 -26.5t18.5 -64.5q0 -70 -25.5 -95.5t-61.5 -25.5h-325q-136 0 -198 41t-84 116h-25q-30 -59 -89 -93.5t-172 -49t-307 -14.5zM755 805l-125 125
l-125 -125l-155 154l155 156l125 -126l125 126l155 -156zM631 1065l-148 148l148 149l148 -149z" />
    <glyph glyph-name="uniFE9A" unicode="&#x62b;" arabic-form="final" 
d="M529 -6q-194 0 -307.5 40t-162.5 130t-49 240q0 77 14.5 148t29.5 113h178q-13 -88 -20 -140t-7 -114q0 -78 29 -123t99.5 -63.5t195.5 -18.5q139 0 218.5 7t117 22t48.5 39.5t12 60.5l10 332l187 4l-6 -352q-1 -76 18 -94.5t66 -18.5q38 0 56.5 -19t18.5 -72
q0 -70 -25.5 -95.5t-61.5 -25.5q-75 0 -125 34.5t-74 121.5l-25 -1q-16 -23 -36.5 -49.5t-63 -50.5t-122 -39.5t-213.5 -15.5zM715 675l-125 125l-125 -125l-155 154l155 156l125 -126l125 126l155 -156zM591 935l-148 148l148 149l148 -149z" />
    <glyph glyph-name="uniFE9F" unicode="&#x62c;" arabic-form="initial" 
d="M-20 -6q-24 0 -37 25t-13 86q0 101 70 101q116 0 216.5 22.5t202.5 66.5t222 106q61 32 104 54t82 39v18q-47 3 -90 12.5t-111 31.5q-81 27 -147 52t-143 25q-55 0 -95.5 -11t-100.5 -40l-8 161q47 49 107 72t118 23q74 0 137.5 -26t134.5 -61.5t164 -63.5
q64 -19 116 -27.5t107.5 -10t129.5 0.5l-3 -201q-50 -12 -93 -26t-92.5 -35.5t-119.5 -59.5q-121 -65 -221.5 -125t-196.5 -107t-202 -74.5t-238 -27.5zM680 -329l-161 161l161 162l161 -162z" />
    <glyph glyph-name="uniFEA0" unicode="&#x62c;" arabic-form="medial" 
d="M1188 -6q-138 0 -214 37t-110 109t-46 177q-116 -64 -214 -122t-192 -103.5t-198.5 -71.5t-233.5 -26q-24 0 -37 25t-13 86q0 101 70 101q116 0 216.5 22.5t202.5 66.5t222 106q61 32 104 54t82 39v18q-47 3 -90 12.5t-111 31.5q-81 27 -147 52t-143 25q-55 0 -95.5 -11
t-100.5 -40l-8 161q47 49 107 72t118 23q74 0 137.5 -26t134.5 -61.5t164 -63.5q64 -19 116 -27.5t107.5 -10t129.5 0.5l-3 -201q-43 -11 -80.5 -22t-78.5 -28q8 -75 27 -117t62.5 -59t126.5 -17q38 0 56.5 -12.5t18.5 -58.5q0 -85 -25.5 -113t-61.5 -28zM680 -329l-161 161
l161 162l161 -162z" />
    <glyph glyph-name="uniFE9E" unicode="&#x62c;" arabic-form="final" 
d="M1188 -6q-140 0 -217.5 37t-111.5 127t-45 247q-279 -84 -432.5 -203t-153.5 -321q0 -110 45 -180t154.5 -102.5t300.5 -32.5q122 0 228 17t190 30l-2 -175q-45 -19 -117.5 -36.5t-158 -29t-170.5 -11.5q-337 0 -500.5 109t-163.5 371q0 203 93.5 338.5t266.5 222.5
t410 146v14q-44 4 -91.5 14.5t-103.5 26.5q-79 23 -141.5 40.5t-131.5 17.5q-70 0 -131.5 -25t-114.5 -63l-18 153q59 77 136.5 108.5t155.5 31.5q74 0 139 -23t135.5 -55t162.5 -60q63 -19 114 -27.5t105 -10t126 0.5l-3 -201q-87 -20 -160 -38q8 -114 24.5 -166t60.5 -66
t132 -14q38 0 56.5 -12.5t18.5 -58.5q0 -85 -25.5 -113t-61.5 -28zM615 -237l-161 161l161 162l161 -162z" />
    <glyph glyph-name="uniFEA3" unicode="&#x62d;" arabic-form="initial" 
d="M-20 -6q-24 0 -37 25t-13 86q0 101 70 101q116 0 216.5 22.5t202.5 66.5t222 106q61 32 104 54t82 39v18q-47 3 -90 12.5t-111 31.5q-81 27 -147 52t-143 25q-55 0 -95.5 -11t-100.5 -40l-8 161q47 49 107 72t118 23q74 0 137.5 -26t134.5 -61.5t164 -63.5
q64 -19 116 -27.5t107.5 -10t129.5 0.5l-3 -201q-50 -12 -93 -26t-92.5 -35.5t-119.5 -59.5q-121 -65 -221.5 -125t-196.5 -107t-202 -74.5t-238 -27.5z" />
    <glyph glyph-name="uniFEA4" unicode="&#x62d;" arabic-form="medial" 
d="M1188 -6q-138 0 -214 37t-110 109t-46 177q-116 -64 -214 -122t-192 -103.5t-198.5 -71.5t-233.5 -26q-24 0 -37 25t-13 86q0 101 70 101q116 0 216.5 22.5t202.5 66.5t222 106q61 32 104 54t82 39v18q-47 3 -90 12.5t-111 31.5q-81 27 -147 52t-143 25q-55 0 -95.5 -11
t-100.5 -40l-8 161q47 49 107 72t118 23q74 0 137.5 -26t134.5 -61.5t164 -63.5q64 -19 116 -27.5t107.5 -10t129.5 0.5l-3 -201q-43 -11 -80.5 -22t-78.5 -28q8 -75 27 -117t62.5 -59t126.5 -17q38 0 56.5 -12.5t18.5 -58.5q0 -85 -25.5 -113t-61.5 -28z" />
    <glyph glyph-name="uniFEA2" unicode="&#x62d;" arabic-form="final" 
d="M1188 -6q-140 0 -217.5 37t-111.5 127t-45 247q-279 -84 -432.5 -203t-153.5 -321q0 -110 45 -180t154.5 -102.5t300.5 -32.5q122 0 228 17t190 30l-2 -175q-45 -19 -117.5 -36.5t-158 -29t-170.5 -11.5q-337 0 -500.5 109t-163.5 371q0 203 93.5 338.5t266.5 222.5
t410 146v14q-44 4 -91.5 14.5t-103.5 26.5q-79 23 -141.5 40.5t-131.5 17.5q-70 0 -131.5 -25t-114.5 -63l-18 153q59 77 136.5 108.5t155.5 31.5q74 0 139 -23t135.5 -55t162.5 -60q63 -19 114 -27.5t105 -10t126 0.5l-3 -201q-87 -20 -160 -38q8 -114 24.5 -166t60.5 -66
t132 -14q38 0 56.5 -12.5t18.5 -58.5q0 -85 -25.5 -113t-61.5 -28z" />
    <glyph glyph-name="uniFEA7" unicode="&#x62e;" arabic-form="initial" 
d="M-20 -6q-24 0 -37 25t-13 86q0 101 70 101q116 0 216.5 22.5t202.5 66.5t222 106q61 32 104 54t82 39v18q-47 3 -90 12.5t-111 31.5q-81 27 -147 52t-143 25q-55 0 -95.5 -11t-100.5 -40l-8 161q47 49 107 72t118 23q74 0 137.5 -26t134.5 -61.5t164 -63.5
q64 -19 116 -27.5t107.5 -10t129.5 0.5l-3 -201q-50 -12 -93 -26t-92.5 -35.5t-119.5 -59.5q-121 -65 -221.5 -125t-196.5 -107t-202 -74.5t-238 -27.5zM566 943l-161 161l161 162l161 -162z" />
    <glyph glyph-name="uniFEA8" unicode="&#x62e;" arabic-form="medial" 
d="M1188 -6q-138 0 -214 37t-110 109t-46 177q-116 -64 -214 -122t-192 -103.5t-198.5 -71.5t-233.5 -26q-24 0 -37 25t-13 86q0 101 70 101q116 0 216.5 22.5t202.5 66.5t222 106q61 32 104 54t82 39v18q-47 3 -90 12.5t-111 31.5q-81 27 -147 52t-143 25q-55 0 -95.5 -11
t-100.5 -40l-8 161q47 49 107 72t118 23q74 0 137.5 -26t134.5 -61.5t164 -63.5q64 -19 116 -27.5t107.5 -10t129.5 0.5l-3 -201q-43 -11 -80.5 -22t-78.5 -28q8 -75 27 -117t62.5 -59t126.5 -17q38 0 56.5 -12.5t18.5 -58.5q0 -85 -25.5 -113t-61.5 -28zM566 943l-161 161
l161 162l161 -162z" />
    <glyph glyph-name="uniFEA6" unicode="&#x62e;" arabic-form="final" 
d="M1188 -6q-140 0 -217.5 37t-111.5 127t-45 247q-279 -84 -432.5 -203t-153.5 -321q0 -110 45 -180t154.5 -102.5t300.5 -32.5q122 0 228 17t190 30l-2 -175q-45 -19 -117.5 -36.5t-158 -29t-170.5 -11.5q-337 0 -500.5 109t-163.5 371q0 203 93.5 338.5t266.5 222.5
t410 146v14q-44 4 -91.5 14.5t-103.5 26.5q-79 23 -141.5 40.5t-131.5 17.5q-70 0 -131.5 -25t-114.5 -63l-18 153q59 77 136.5 108.5t155.5 31.5q74 0 139 -23t135.5 -55t162.5 -60q63 -19 114 -27.5t105 -10t126 0.5l-3 -201q-87 -20 -160 -38q8 -114 24.5 -166t60.5 -66
t132 -14q38 0 56.5 -12.5t18.5 -58.5q0 -85 -25.5 -113t-61.5 -28zM566 973l-161 161l161 162l161 -162z" />
    <glyph glyph-name="uniFEAA" unicode="&#x62f;" arabic-form="final" 
d="M458 -6q-70 0 -143 6.5t-142 25.5l18 200q70 -13 132 -20t135 -7q81 0 160.5 16.5t158.5 58.5l-231 629l192 64l207 -547q30 -79 60 -126t75.5 -67.5t119.5 -20.5q38 0 56.5 -16t18.5 -77q0 -70 -25.5 -94.5t-61.5 -24.5q-112 1 -185.5 25.5t-127.5 94.5
q-81 -60 -191 -90t-226 -30z" />
    <glyph glyph-name="uniFEAC" unicode="&#x630;" arabic-form="final" 
d="M458 -6q-70 0 -143 6.5t-142 25.5l18 200q70 -13 132 -20t135 -7q81 0 160.5 16.5t158.5 58.5l-231 629l192 64l207 -547q30 -79 60 -126t75.5 -67.5t119.5 -20.5q38 0 56.5 -16t18.5 -77q0 -70 -25.5 -94.5t-61.5 -24.5q-112 1 -185.5 25.5t-127.5 94.5
q-81 -60 -191 -90t-226 -30zM636 1093l-161 161l161 162l161 -162z" />
    <glyph glyph-name="uniFEAE" unicode="&#x631;" arabic-form="final" 
d="M917 23q-32 -250 -200.5 -372t-434.5 -122q-80 0 -131 6t-106 20l13 192q57 -7 97 -11.5t107 -4.5q215 0 336 92t121 278q0 64 -48.5 171t-107.5 231l186 91q59 -121 91 -196.5t63 -122.5q17 -25 46 -40t87.5 -22t163.5 -7q38 0 56.5 -19t18.5 -72q0 -70 -25.5 -95.5
t-61.5 -25.5q-100 0 -162 5.5t-109 23.5z" />
    <glyph glyph-name="uniFEB0" unicode="&#x632;" arabic-form="final" 
d="M917 23q-32 -250 -200.5 -372t-434.5 -122q-80 0 -131 6t-106 20l13 192q57 -7 97 -11.5t107 -4.5q215 0 336 92t121 278q0 64 -48.5 171t-107.5 231l186 91q59 -121 91 -196.5t63 -122.5q17 -25 46 -40t87.5 -22t163.5 -7q38 0 56.5 -19t18.5 -72q0 -70 -25.5 -95.5
t-61.5 -25.5q-100 0 -162 5.5t-109 23.5zM630 704l-161 161l161 162l161 -162z" />
    <glyph glyph-name="uniFEB3" unicode="&#x633;" arabic-form="initial" 
d="M-12 -6l12 212q101 0 145 18t51 73q7 48 13 125.5t13 174.5l178 2q-5 -95 -10.5 -186t-16.5 -178q-2 -15 -4 -28q59 -20 111 -20q50 0 69.5 16.5t23.5 62.5q6 60 8 153t3 197l178 6q2 -104 1 -204t-9 -186l-4 -36q35 -9 76 -9q54 0 74.5 23t20.5 94t-11 150.5t-25 177.5
l181 21q20 -101 32 -192t12 -169q0 -151 -60 -224.5t-205 -73.5q-77 0 -125 19.5t-79 56.5h-16q-18 -39 -66.5 -57.5t-102.5 -18.5q-72 0 -122.5 16t-104.5 60h-23q-23 -39 -71.5 -57.5t-146.5 -18.5z" />
    <glyph glyph-name="uniFEB4" unicode="&#x633;" arabic-form="medial" 
d="M456 -6q-72 0 -120 16t-101 60h-25q-31 -39 -81.5 -57.5t-140.5 -18.5l12 212q101 0 145 18t51 73q7 48 13 125.5t13 174.5l178 2q-5 -95 -10.5 -186t-16.5 -178q-2 -14 -5 -28q60 -20 112 -20q50 0 69.5 16.5t23.5 62.5q6 60 8 153t3 197l178 6q2 -104 1 -204t-9 -186
q-2 -17 -4 -35q37 -10 76 -10q54 0 74 23t20 94t1.5 148t2.5 183l181 12q1 -75 1 -143.5t-1 -126.5v-49.5v-45.5q0 -46 17.5 -61t77.5 -15q38 0 56.5 -26.5t18.5 -64.5q0 -70 -25.5 -95.5t-61.5 -25.5q-55 0 -98 16t-70 60h-26q-19 -41 -61.5 -58.5t-97.5 -17.5
q-69 0 -113 20.5t-73 55.5h-24q-18 -39 -66.5 -57.5t-102.5 -18.5z" />
    <glyph glyph-name="uniFEB2" unicode="&#x633;" arabic-form="final" 
d="M285 -357q-155 0 -215 98t-60 288q0 95 8.5 209.5t21.5 205.5h160q-5 -94 -9.5 -191.5t-4.5 -181.5q0 -134 19.5 -179t77.5 -45q40 0 62.5 22t32 79.5t9.5 164.5q0 113 -5 235.5t-13 242.5l169 10q8 -94 15 -207.5t8 -202.5q24 -4 54 -4q35 0 49 11.5t15 37.5
q4 59 1.5 164t-7.5 209l166 8q3 -67 6 -145t3 -152t-4 -128q25 -5 52 -5q37 0 50 18.5t13 76.5q0 71 -4.5 160t-10.5 193l165 5q5 -101 8.5 -190.5t3.5 -167.5q0 -50 17 -63t62 -13q38 0 56.5 -26.5t18.5 -64.5q0 -70 -25.5 -95.5t-61.5 -25.5q-61 0 -99.5 20t-60.5 56h-26
q-17 -40 -48 -58t-69 -18q-41 0 -76.5 15.5t-61.5 59.5h-24q-30 -75 -122 -75q-26 0 -45 2q-13 -185 -72 -269t-199 -84z" />
    <glyph glyph-name="uniFEB7" unicode="&#x634;" arabic-form="initial" 
d="M-12 -6l12 212q101 0 145 18t51 73q7 48 13 125.5t13 174.5l178 2q-5 -95 -10.5 -186t-16.5 -178q-2 -15 -4 -28q59 -20 111 -20q50 0 69.5 16.5t23.5 62.5q6 60 8 153t3 197l178 6q2 -104 1 -204t-9 -186l-4 -36q35 -9 76 -9q54 0 74.5 23t20.5 94t-11 150.5t-25 177.5
l181 21q20 -101 32 -192t12 -169q0 -151 -60 -224.5t-205 -73.5q-77 0 -125 19.5t-79 56.5h-16q-18 -39 -66.5 -57.5t-102.5 -18.5q-72 0 -122.5 16t-104.5 60h-23q-23 -39 -71.5 -57.5t-146.5 -18.5zM805 745l-125 125l-125 -125l-155 154l155 156l125 -126l125 126
l155 -156zM681 1005l-148 148l148 149l148 -149z" />
    <glyph glyph-name="uniFEB8" unicode="&#x634;" arabic-form="medial" 
d="M456 -6q-72 0 -120 16t-101 60h-25q-31 -39 -81.5 -57.5t-140.5 -18.5l12 212q101 0 145 18t51 73q7 48 13 125.5t13 174.5l178 2q-5 -95 -10.5 -186t-16.5 -178q-2 -14 -5 -28q60 -20 112 -20q50 0 69.5 16.5t23.5 62.5q6 60 8 153t3 197l178 6q2 -104 1 -204t-9 -186
q-2 -17 -4 -35q37 -10 76 -10q54 0 74 23t20 94t1.5 148t2.5 183l181 12q1 -75 1 -143.5t-1 -126.5v-49.5v-45.5q0 -46 17.5 -61t77.5 -15q38 0 56.5 -26.5t18.5 -64.5q0 -70 -25.5 -95.5t-61.5 -25.5q-55 0 -98 16t-70 60h-26q-19 -41 -61.5 -58.5t-97.5 -17.5
q-69 0 -113 20.5t-73 55.5h-24q-18 -39 -66.5 -57.5t-102.5 -18.5zM805 745l-125 125l-125 -125l-155 154l155 156l125 -126l125 126l155 -156zM681 1005l-148 148l148 149l148 -149z" />
    <glyph glyph-name="uniFEB6" unicode="&#x634;" arabic-form="final" 
d="M285 -357q-155 0 -215 98t-60 288q0 95 8.5 209.5t21.5 205.5h160q-5 -94 -9.5 -191.5t-4.5 -181.5q0 -134 19.5 -179t77.5 -45q40 0 62.5 22t32 79.5t9.5 164.5q0 113 -5 235.5t-13 242.5l169 10q8 -94 15 -207.5t8 -202.5q24 -4 54 -4q35 0 49 11.5t15 37.5
q4 59 1.5 164t-7.5 209l166 8q3 -67 6 -145t3 -152t-4 -128q25 -5 52 -5q37 0 50 18.5t13 76.5q0 71 -4.5 160t-10.5 193l165 5q5 -101 8.5 -190.5t3.5 -167.5q0 -50 17 -63t62 -13q38 0 56.5 -26.5t18.5 -64.5q0 -70 -25.5 -95.5t-61.5 -25.5q-61 0 -99.5 20t-60.5 56h-26
q-17 -40 -48 -58t-69 -18q-41 0 -76.5 15.5t-61.5 59.5h-24q-30 -75 -122 -75q-26 0 -45 2q-13 -185 -72 -269t-199 -84zM886 745l-125 125l-125 -125l-155 154l155 156l125 -126l125 126l155 -156zM762 1005l-148 148l148 149l148 -149z" />
    <glyph glyph-name="uniFEBB" unicode="&#x635;" arabic-form="initial" 
d="M614 -6q-137 0 -216.5 5t-120.5 24.5t-63 61.5h-25q-27 -49 -75 -70t-126 -21l12 212q40 0 58 17.5t24.5 80t9.5 195.5l154 2q-2 -86 -6 -155t-12 -123q12 -2 24 -3q90 180 183.5 319.5t188.5 219t187 79.5q84 0 161 -53t126.5 -156.5t49.5 -253.5q0 -113 -47 -199
t-163 -134t-324 -48zM436 208q75 -2 196 -2q117 0 185 14t99.5 39t40.5 58.5t9 71.5q0 58 -24 111.5t-63 88t-85 34.5q-72 0 -160.5 -107t-197.5 -308z" />
    <glyph glyph-name="uniFEBC" unicode="&#x635;" arabic-form="medial" 
d="M1189 -7q-72 0 -111 17t-61 62h-19q-62 -37 -156.5 -57.5t-227.5 -20.5q-137 0 -216.5 5t-120.5 24.5t-63 61.5h-25q-27 -49 -75 -70t-126 -21l12 212q40 0 58 17.5t24.5 80t9.5 195.5l154 2q-2 -86 -6 -155t-12 -123q12 -2 24 -3q90 180 183.5 319.5t188.5 219t187 79.5
q84 0 161 -53t126.5 -156.5t49.5 -253.5q0 -46 -7 -87t-22 -78q20 -3 39.5 -4t41.5 -1q42 0 61 -19t19 -70q0 -123 -91 -123zM436 208q75 -2 196 -2q117 0 185 14t99.5 39t40.5 58.5t9 71.5q0 58 -24 111.5t-63 88t-85 34.5q-72 0 -160.5 -107t-197.5 -308z" />
    <glyph glyph-name="uniFEBA" unicode="&#x635;" arabic-form="final" 
d="M1189 -6q-49 0 -72 16.5t-37 60.5q-93 -78 -320 -78q-57 0 -111 4.5t-102 15.5q-12 -203 -73 -286.5t-210 -83.5q-103 0 -158 43.5t-75.5 129.5t-20.5 213q0 95 8.5 209t21.5 205h160q-6 -94 -10 -191t-4 -181q0 -134 15.5 -179t73.5 -45q40 0 62 18t31 74.5t9 173.5
q0 76 -2 136t-6 122t-10 142l172 9q5 -74 10 -137.5t8 -125.5q92 306 179 441.5t196 135.5q75 0 132.5 -68.5t89.5 -174.5t32 -219q0 -100 -18 -167q19 -1 40 -1q47 0 63.5 -19.5t16.5 -70.5q0 -122 -91 -122zM693 205q43 -2 90 -2q98 0 144 13t59 48t13 100q0 63 -14 123
t-36.5 98.5t-49.5 38.5q-26 0 -54.5 -33.5t-65 -124t-86.5 -261.5z" />
    <glyph glyph-name="uniFEBF" unicode="&#x636;" arabic-form="initial" 
d="M614 -6q-137 0 -216.5 5t-120.5 24.5t-63 61.5h-25q-27 -49 -75 -70t-126 -21l12 212q40 0 58 17.5t24.5 80t9.5 195.5l154 2q-2 -86 -6 -155t-12 -123q12 -2 24 -3q90 180 183.5 319.5t188.5 219t187 79.5q84 0 161 -53t126.5 -156.5t49.5 -253.5q0 -113 -47 -199
t-163 -134t-324 -48zM436 208q75 -2 196 -2q117 0 185 14t99.5 39t40.5 58.5t9 71.5q0 58 -24 111.5t-63 88t-85 34.5q-72 0 -160.5 -107t-197.5 -308zM780 974l-161 161l161 162l161 -162z" />
    <glyph glyph-name="uniFEC0" unicode="&#x636;" arabic-form="medial" 
d="M1189 -7q-72 0 -111 17t-61 62h-19q-62 -37 -156.5 -57.5t-227.5 -20.5q-137 0 -216.5 5t-120.5 24.5t-63 61.5h-25q-27 -49 -75 -70t-126 -21l12 212q40 0 58 17.5t24.5 80t9.5 195.5l154 2q-2 -86 -6 -155t-12 -123q12 -2 24 -3q90 180 183.5 319.5t188.5 219t187 79.5
q84 0 161 -53t126.5 -156.5t49.5 -253.5q0 -46 -7 -87t-22 -78q20 -3 39.5 -4t41.5 -1q42 0 61 -19t19 -70q0 -123 -91 -123zM436 208q75 -2 196 -2q117 0 185 14t99.5 39t40.5 58.5t9 71.5q0 58 -24 111.5t-63 88t-85 34.5q-72 0 -160.5 -107t-197.5 -308zM780 974
l-161 161l161 162l161 -162z" />
    <glyph glyph-name="uniFEBE" unicode="&#x636;" arabic-form="final" 
d="M1189 -6q-49 0 -72 16.5t-37 60.5q-93 -78 -320 -78q-57 0 -111 4.5t-102 15.5q-12 -203 -73 -286.5t-210 -83.5q-103 0 -158 43.5t-75.5 129.5t-20.5 213q0 95 8.5 209t21.5 205h160q-6 -94 -10 -191t-4 -181q0 -134 15.5 -179t73.5 -45q40 0 62 18t31 74.5t9 173.5
q0 76 -2 136t-6 122t-10 142l172 9q5 -74 10 -137.5t8 -125.5q92 306 179 441.5t196 135.5q75 0 132.5 -68.5t89.5 -174.5t32 -219q0 -100 -18 -167q19 -1 40 -1q47 0 63.5 -19.5t16.5 -70.5q0 -122 -91 -122zM693 205q43 -2 90 -2q98 0 144 13t59 48t13 100q0 63 -14 123
t-36.5 98.5t-49.5 38.5q-26 0 -54.5 -33.5t-65 -124t-86.5 -261.5zM880 984l-161 161l161 162l161 -162z" />
    <glyph glyph-name="uniFEC3" unicode="&#x637;" arabic-form="initial" 
d="M-12 -6l12 212h133q18 28 33 51l-16 1163h206l9 -686q1 -65 -9.5 -115t-36.5 -103l14 -10q118 165 218.5 248.5t216.5 83.5q102 0 188.5 -53t139 -154t52.5 -246q0 -128 -56 -215.5t-195.5 -131.5t-390.5 -44h-518zM326 206h201q189 0 282 19.5t123.5 56t30.5 86.5
q0 111 -57.5 187.5t-158.5 76.5q-70 0 -136 -56t-135.5 -152.5t-149.5 -217.5z" />
    <glyph glyph-name="uniFEC4" unicode="&#x637;" arabic-form="medial" 
d="M1189 -6q-79 0 -124.5 16.5t-67.5 61.5h-18q-75 -39 -190.5 -58.5t-282.5 -19.5h-518l12 212h133q18 28 33 51l-16 1163h206l9 -686q1 -65 -9.5 -115t-36.5 -103l14 -10q118 165 218.5 248.5t216.5 83.5q102 0 188.5 -53t139 -154t52.5 -246q0 -50 -7.5 -93.5
t-24.5 -80.5q21 -3 41 -4t43 -1q42 0 61 -19.5t19 -70.5q0 -122 -91 -122zM326 206h201q189 0 282 19.5t123.5 56t30.5 86.5q0 111 -57.5 187.5t-158.5 76.5q-70 0 -136 -56t-135.5 -152.5t-149.5 -217.5z" />
    <glyph glyph-name="uniFEC2" unicode="&#x637;" arabic-form="final" 
d="M1189 -6q-79 0 -124.5 16.5t-67.5 61.5h-18q-75 -39 -190.5 -58.5t-282.5 -19.5q-130 0 -251.5 7t-251.5 44l16 186q65 -6 124 -10q12 19 23 36l-16 1163h206l9 -686q1 -65 -9.5 -115t-36.5 -103l14 -10q118 165 218.5 248.5t216.5 83.5q102 0 188.5 -53t139 -154
t52.5 -246q0 -50 -7.5 -93.5t-24.5 -80.5q21 -3 41 -4t43 -1q42 0 61 -19.5t19 -70.5q0 -122 -91 -122zM329 210q98 -4 198 -4q189 0 282 19.5t123.5 56t30.5 86.5q0 111 -57.5 187.5t-158.5 76.5q-69 0 -135 -55.5t-135 -151t-148 -215.5z" />
    <glyph glyph-name="uniFEC7" unicode="&#x638;" arabic-form="initial" 
d="M-12 -6l12 212h133q18 28 33 51l-16 1163h206l9 -686q1 -65 -9.5 -115t-36.5 -103l14 -10q118 165 218.5 248.5t216.5 83.5q102 0 188.5 -53t139 -154t52.5 -246q0 -128 -56 -215.5t-195.5 -131.5t-390.5 -44h-518zM326 206h201q189 0 282 19.5t123.5 56t30.5 86.5
q0 111 -57.5 187.5t-158.5 76.5q-70 0 -136 -56t-135.5 -152.5t-149.5 -217.5zM760 954l-161 161l161 162l161 -162z" />
    <glyph glyph-name="uniFEC8" unicode="&#x638;" arabic-form="medial" 
d="M1189 -6q-79 0 -124.5 16.5t-67.5 61.5h-18q-75 -39 -190.5 -58.5t-282.5 -19.5h-518l12 212h133q18 28 33 51l-16 1163h206l9 -686q1 -65 -9.5 -115t-36.5 -103l14 -10q118 165 218.5 248.5t216.5 83.5q102 0 188.5 -53t139 -154t52.5 -246q0 -50 -7.5 -93.5
t-24.5 -80.5q21 -3 41 -4t43 -1q42 0 61 -19.5t19 -70.5q0 -122 -91 -122zM326 206h201q189 0 282 19.5t123.5 56t30.5 86.5q0 111 -57.5 187.5t-158.5 76.5q-70 0 -136 -56t-135.5 -152.5t-149.5 -217.5zM760 954l-161 161l161 162l161 -162z" />
    <glyph glyph-name="uniFEC6" unicode="&#x638;" arabic-form="final" 
d="M1189 -6q-79 0 -124.5 16.5t-67.5 61.5h-18q-75 -39 -190.5 -58.5t-282.5 -19.5q-130 0 -251.5 7t-251.5 44l16 186q65 -6 124 -10q12 19 23 36l-16 1163h206l9 -686q1 -65 -9.5 -115t-36.5 -103l14 -10q118 165 218.5 248.5t216.5 83.5q102 0 188.5 -53t139 -154
t52.5 -246q0 -50 -7.5 -93.5t-24.5 -80.5q21 -3 41 -4t43 -1q42 0 61 -19.5t19 -70.5q0 -122 -91 -122zM329 210q98 -4 198 -4q189 0 282 19.5t123.5 56t30.5 86.5q0 111 -57.5 187.5t-158.5 76.5q-69 0 -135 -55.5t-135 -151t-148 -215.5zM760 954l-161 161l161 162
l161 -162z" />
    <glyph glyph-name="uniFECB" unicode="&#x639;" arabic-form="initial" 
d="M-17 -6l17 212q139 0 222 1t161 4v20q-46 22 -76 74t-30 143q0 172 107.5 259.5t288.5 87.5q71 0 148.5 -17t141.5 -45l-17 -172q-55 12 -111 21t-122 9q-114 0 -171.5 -40.5t-57.5 -138.5q0 -75 21 -111.5t69.5 -47.5t128.5 -11q55 0 145.5 11t198.5 30l19 -188
q-168 -49 -353.5 -70t-371.5 -26t-358 -5z" />
    <glyph glyph-name="uniFECC" unicode="&#x639;" arabic-form="medial" 
d="M-16 -6l16 212q208 0 390 30q-43 44 -88 95t-107 120v215q88 33 201 58.5t228 25.5q392 0 392 -261q0 -80 -46.5 -149.5t-125.5 -125.5q63 -5 151.5 -6.5t206.5 -1.5q79 0 98.5 -20.5t19.5 -76.5q0 -62 -26.5 -88.5t-107.5 -26.5q-155 0 -267 6.5t-195 26t-151 57.5
q-133 -44 -285.5 -67t-303.5 -23zM621 294q84 31 133 70.5t49 86.5q0 38 -38.5 62.5t-151.5 24.5q-59 0 -113 -7.5t-106 -19.5q77 -78 128 -128.5t99 -88.5z" />
    <glyph glyph-name="uniFECA" unicode="&#x639;" arabic-form="final" 
d="M610 -639q-259 0 -381 86t-122 262q0 128 87 230.5t269 226.5q-67 61 -124 124.5t-144 160.5v215q88 33 201 58.5t228 25.5q391 0 391 -255q0 -77 -42 -144t-135 -137q65 -5 154.5 -6.5t209.5 -1.5q79 0 98.5 -20.5t19.5 -76.5q0 -62 -26.5 -88.5t-107.5 -26.5
q-212 0 -345 13t-229 58q-157 -102 -234 -174.5t-77 -155.5q0 -91 69.5 -130t253.5 -39q137 0 253.5 16.5t188.5 30.5l-2 -175q-79 -31 -205.5 -54t-248.5 -23zM638 280q91 60 128 97t37 74q0 38 -38.5 62.5t-151.5 24.5q-59 0 -113 -7.5t-106 -19.5q84 -85 137.5 -137.5
t106.5 -93.5z" />
    <glyph glyph-name="uniFECF" unicode="&#x63a;" arabic-form="initial" 
d="M-17 -6l17 212q139 0 222 1t161 4v20q-46 22 -76 74t-30 143q0 172 107.5 259.5t288.5 87.5q71 0 148.5 -17t141.5 -45l-17 -172q-55 12 -111 21t-122 9q-114 0 -171.5 -40.5t-57.5 -138.5q0 -75 21 -111.5t69.5 -47.5t128.5 -11q55 0 145.5 11t198.5 30l19 -188
q-168 -49 -353.5 -70t-371.5 -26t-358 -5zM671 914l-161 161l161 162l161 -162z" />
    <glyph glyph-name="uniFED0" unicode="&#x63a;" arabic-form="medial" 
d="M-16 -6l16 212q208 0 390 30q-43 44 -88 95t-107 120v215q88 33 201 58.5t228 25.5q392 0 392 -261q0 -80 -46.5 -149.5t-125.5 -125.5q63 -5 151.5 -6.5t206.5 -1.5q79 0 98.5 -20.5t19.5 -76.5q0 -62 -26.5 -88.5t-107.5 -26.5q-155 0 -267 6.5t-195 26t-151 57.5
q-133 -44 -285.5 -67t-303.5 -23zM621 294q84 31 133 70.5t49 86.5q0 38 -38.5 62.5t-151.5 24.5q-59 0 -113 -7.5t-106 -19.5q77 -78 128 -128.5t99 -88.5zM610 884l-161 161l161 162l161 -162z" />
    <glyph glyph-name="uniFECE" unicode="&#x63a;" arabic-form="final" 
d="M610 -639q-259 0 -381 86t-122 262q0 128 87 230.5t269 226.5q-67 61 -124 124.5t-144 160.5v215q88 33 201 58.5t228 25.5q391 0 391 -255q0 -77 -42 -144t-135 -137q65 -5 154.5 -6.5t209.5 -1.5q79 0 98.5 -20.5t19.5 -76.5q0 -62 -26.5 -88.5t-107.5 -26.5
q-212 0 -345 13t-229 58q-157 -102 -234 -174.5t-77 -155.5q0 -91 69.5 -130t253.5 -39q137 0 253.5 16.5t188.5 30.5l-2 -175q-79 -31 -205.5 -54t-248.5 -23zM638 280q91 60 128 97t37 74q0 38 -38.5 62.5t-151.5 24.5q-59 0 -113 -7.5t-106 -19.5q84 -85 137.5 -137.5
t106.5 -93.5zM610 884l-161 161l161 162l161 -162z" />
    <glyph glyph-name="uni063B.init" unicode="&#x63b;" 
d="M-12 -6l12 212h397q132 0 175 26t43 78q0 43 -34.5 100t-114 149.5t-213.5 243.5l16 186l720 454l5 -219l-552 -337q144 -151 226.5 -255t116.5 -181t34 -147q0 -163 -114 -236.5t-336 -73.5h-381zM542 1252l-145 145l145 145l145 -145zM305 1119l-145 145l145 146
l145 -146z" />
    <glyph glyph-name="uni063B.medi" unicode="&#x63b;" 
d="M1188 -6q-178 0 -281 27t-179 100h-31q-20 -45 -58.5 -73t-110.5 -41t-194 -13h-346l12 212h343q97 0 151 4t80.5 17t39.5 39l-360 537l26 186l720 454l5 -219l-561 -342l323 -485q57 -85 111.5 -125.5t129.5 -53t192 -12.5q28 0 41.5 -27t13.5 -59q0 -74 -22 -100
t-45 -26zM557 1252l-145 145l145 145l145 -145zM320 1119l-145 145l145 146l145 -146z" />
    <glyph glyph-name="uni063B.fina" unicode="&#x63b;" 
d="M1188 -7q-99 0 -163 41.5t-129 136.5h-15q-41 -85 -144.5 -132t-294.5 -47q-225 0 -332.5 88t-107.5 290q0 69 7 128.5t24 127.5h170q-7 -60 -11 -97t-4 -90q0 -98 20.5 -148.5t83.5 -68.5t190 -18q130 0 208.5 32.5t110.5 83.5l-308 483l26 186l700 454l5 -219
l-544 -342l351 -559q44 -70 82.5 -94t86.5 -24q28 0 41.5 -25t13.5 -63q0 -71 -19 -97.5t-48 -26.5zM783 1252l-145 145l145 145l145 -145zM546 1119l-145 145l145 146l145 -146z" />
    <glyph glyph-name="uni063C.init" unicode="&#x63c;" 
d="M-12 -6l12 212h397q132 0 175 26t43 78q0 43 -34.5 100t-114 149.5t-213.5 243.5l16 186l720 454l5 -219l-552 -337q144 -151 226.5 -255t116.5 -181t34 -147q0 -163 -114 -236.5t-336 -73.5h-381zM694 -77l155 -154l-155 -156l-125 126l-125 -126l-155 156l155 154
l125 -125zM570 -337l148 -148l-148 -149l-148 149z" />
    <glyph glyph-name="uni063C.medi" unicode="&#x63c;" 
d="M1188 -6q-178 0 -281 27t-179 100h-31q-20 -45 -58.5 -73t-110.5 -41t-194 -13h-346l12 212h343q97 0 151 4t80.5 17t39.5 39l-360 537l26 186l720 454l5 -219l-561 -342l323 -485q57 -85 111.5 -125.5t129.5 -53t192 -12.5q28 0 41.5 -27t13.5 -59q0 -74 -22 -100
t-45 -26zM774 -77l155 -154l-155 -156l-125 126l-125 -126l-155 156l155 154l125 -125zM650 -337l148 -148l-148 -149l-148 149z" />
    <glyph glyph-name="uni063C.fina" unicode="&#x63c;" 
d="M1188 -7q-99 0 -163 41.5t-129 136.5h-15q-41 -85 -144.5 -132t-294.5 -47q-225 0 -332.5 88t-107.5 290q0 69 7 128.5t24 127.5h170q-7 -60 -11 -97t-4 -90q0 -98 20.5 -148.5t83.5 -68.5t190 -18q130 0 208.5 32.5t110.5 83.5l-308 483l26 186l700 454l5 -219
l-544 -342l351 -559q44 -70 82.5 -94t86.5 -24q28 0 41.5 -25t13.5 -63q0 -71 -19 -97.5t-48 -26.5zM680 -77l155 -154l-155 -156l-125 126l-125 -126l-155 156l155 154l125 -125zM556 -337l148 -148l-148 -149l-148 149z" />
    <glyph glyph-name="uni063D.init" unicode="&#x63d;" 
d="M-12 -6q-33 0 -33 114q0 53 14 75.5t31 22.5q217 0 362 5.5t233.5 19.5t134 39t60.5 63t15 93q0 74 -17 165t-42 195l189 35q34 -117 52 -217.5t18 -186.5q0 -94 -22 -165t-82.5 -120t-173.5 -79.5t-294 -44.5t-445 -14zM895 1246l142 -301l-124 -20l-76 194h-10
l-72 -194l-122 15l135 306h127zM895 -425l-125 125l-125 -125l-155 154l155 156l125 -126l125 126l155 -156z" />
    <glyph glyph-name="uni063D.medi" unicode="&#x63d;" 
d="M-12 -6l12 212q177 0 280.5 5t154 20t66 45t16.5 81l8 330l197 4l-5 -324q0 -73 12 -107t48 -44t109 -10h314q38 0 56.5 -26.5t18.5 -64.5q0 -70 -25.5 -95.5t-61.5 -25.5h-325q-136 0 -198 41t-84 116h-25q-30 -59 -89 -93.5t-172 -49t-307 -14.5zM690 1124l142 -301
l-124 -20l-76 194h-10l-72 -194l-122 15l135 306h127zM715 -425l-125 125l-125 -125l-155 154l155 156l125 -126l125 126l155 -156z" />
    <glyph glyph-name="uni063D.fina" unicode="&#x63d;" 
d="M497 -410q-180 0 -281.5 51t-143.5 141.5t-42 207.5q0 64 11.5 140t32.5 144h178q-11 -73 -19 -129.5t-8 -115.5q0 -79 23.5 -131.5t88 -78t187.5 -25.5q224 0 334.5 45.5t110.5 106.5q0 35 -38.5 49.5t-147.5 25.5l35 195q92 -6 198.5 -8t183.5 -2q54 0 78 -26.5
t24 -72.5q0 -51 -29 -82t-85 -31q-23 0 -46 1q5 -21 5 -45q0 -97 -75 -179t-219.5 -131.5t-355.5 -49.5zM411 777l142 -301l-124 -20l-76 194h-10l-72 -194l-122 15l135 306h127z" />
    <glyph glyph-name="uni063E.init" unicode="&#x63e;" 
d="M-12 -6q-33 0 -33 114q0 53 14 75.5t31 22.5q217 0 362 5.5t233.5 19.5t134 39t60.5 63t15 93q0 74 -17 165t-42 195l189 35q34 -117 52 -217.5t18 -186.5q0 -94 -22 -165t-82.5 -120t-173.5 -79.5t-294 -44.5t-445 -14zM960 927l-125 125l-125 -125l-155 154l155 156
l125 -126l125 126l155 -156zM895 -425l-125 125l-125 -125l-155 154l155 156l125 -126l125 126l155 -156z" />
    <glyph glyph-name="uni063E.medi" unicode="&#x63e;" 
d="M-12 -6l12 212q177 0 280.5 5t154 20t66 45t16.5 81l8 330l197 4l-5 -324q0 -73 12 -107t48 -44t109 -10h314q38 0 56.5 -26.5t18.5 -64.5q0 -70 -25.5 -95.5t-61.5 -25.5h-325q-136 0 -198 41t-84 116h-25q-30 -59 -89 -93.5t-172 -49t-307 -14.5zM755 805l-125 125
l-125 -125l-155 154l155 156l125 -126l125 126l155 -156zM715 -425l-125 125l-125 -125l-155 154l155 156l125 -126l125 126l155 -156z" />
    <glyph glyph-name="uni063E.fina" unicode="&#x63e;" 
d="M497 -410q-180 0 -281.5 51t-143.5 141.5t-42 207.5q0 64 11.5 140t32.5 144h178q-11 -73 -19 -129.5t-8 -115.5q0 -79 23.5 -131.5t88 -78t187.5 -25.5q224 0 334.5 45.5t110.5 106.5q0 35 -38.5 49.5t-147.5 25.5l35 195q92 -6 198.5 -8t183.5 -2q54 0 78 -26.5
t24 -72.5q0 -51 -29 -82t-85 -31q-23 0 -46 1q5 -21 5 -45q0 -97 -75 -179t-219.5 -131.5t-355.5 -49.5zM465 363l-125 125l-125 -125l-155 154l155 156l125 -126l125 126l155 -156z" />
    <glyph glyph-name="uni063F.init" unicode="&#x63f;" 
d="M-12 -6q-33 0 -33 114q0 53 14 75.5t31 22.5q217 0 362 5.5t233.5 19.5t134 39t60.5 63t15 93q0 74 -17 165t-42 195l189 35q34 -117 52 -217.5t18 -186.5q0 -94 -22 -165t-82.5 -120t-173.5 -79.5t-294 -44.5t-445 -14zM960 927l-125 125l-125 -125l-155 154l155 156
l125 -126l125 126l155 -156zM836 1187l-148 148l148 149l148 -149zM895 -425l-125 125l-125 -125l-155 154l155 156l125 -126l125 126l155 -156z" />
    <glyph glyph-name="uni063F.medi" unicode="&#x63f;" 
d="M-12 -6l12 212q177 0 280.5 5t154 20t66 45t16.5 81l8 330l197 4l-5 -324q0 -73 12 -107t48 -44t109 -10h314q38 0 56.5 -26.5t18.5 -64.5q0 -70 -25.5 -95.5t-61.5 -25.5h-325q-136 0 -198 41t-84 116h-25q-30 -59 -89 -93.5t-172 -49t-307 -14.5zM755 805l-125 125
l-125 -125l-155 154l155 156l125 -126l125 126l155 -156zM631 1065l-148 148l148 149l148 -149zM715 -425l-125 125l-125 -125l-155 154l155 156l125 -126l125 126l155 -156z" />
    <glyph glyph-name="uni063F.fina" unicode="&#x63f;" 
d="M497 -410q-180 0 -281.5 51t-143.5 141.5t-42 207.5q0 64 11.5 140t32.5 144h178q-11 -73 -19 -129.5t-8 -115.5q0 -79 23.5 -131.5t88 -78t187.5 -25.5q224 0 334.5 45.5t110.5 106.5q0 35 -38.5 49.5t-147.5 25.5l35 195q92 -6 198.5 -8t183.5 -2q54 0 78 -26.5
t24 -72.5q0 -51 -29 -82t-85 -31q-23 0 -46 1q5 -21 5 -45q0 -97 -75 -179t-219.5 -131.5t-355.5 -49.5zM465 363l-125 125l-125 -125l-155 154l155 156l125 -126l125 126l155 -156zM341 623l-148 148l148 149l148 -149z" />
    <glyph glyph-name="uniFED3" unicode="&#x641;" arabic-form="initial" 
d="M-17 -6l16 212h139.5h120.5q138 -1 229 0t152 7t110 21q44 13 64 40.5t24 114.5l-26 -1q-22 -31 -68 -50t-123 -19q-140 0 -202 59t-62 204q0 103 38.5 190t108 139.5t161.5 52.5q111 0 187 -64.5t115.5 -176t39.5 -252.5q0 -154 -43 -262.5t-149 -151.5
q-124 -47 -311 -55t-470 -8h-25.5h-25.5zM838 525q-10 125 -57.5 176t-114.5 51t-100 -44.5t-33 -103.5q0 -57 22.5 -80.5t98.5 -23.5q58 0 100 6t84 19zM665 1071l-161 161l161 162l161 -162z" />
    <glyph glyph-name="uniFED4" unicode="&#x641;" arabic-form="medial" 
d="M-16 -6l16 212q203 0 340 9q-68 96 -68 246q0 158 89 259t239 101q135 0 224.5 -90.5t89.5 -257.5q0 -163 -75 -257q72 -5 162 -7.5t201 -2.5q56 0 82 -22t26 -78q0 -63 -33 -87.5t-92 -24.5q-188 0 -340.5 13.5t-266.5 49.5q-118 -37 -269.5 -50t-324.5 -13zM604 256
q64 26 89.5 78.5t25.5 114.5q0 79 -33 119.5t-90 40.5q-59 0 -94 -39.5t-35 -119.5q0 -73 29.5 -120t107.5 -74zM601 928l-161 161l161 162l161 -162z" />
    <glyph glyph-name="uniFED2" unicode="&#x641;" arabic-form="final" 
d="M459 -6q-159 0 -257.5 37.5t-144.5 125t-46 237.5q0 77 14 153t30 118h178q-14 -96 -20.5 -151t-6.5 -117q0 -78 22.5 -119.5t81.5 -57t169 -15.5q43 0 80 2q-33 48 -51 111t-18 143q0 158 89 259t239 101q135 0 224.5 -90.5t89.5 -257.5q0 -168 -82 -264q65 -3 152 -3
q56 0 82 -22t26 -78q0 -63 -33 -87.5t-92 -24.5q-109 0 -212 11.5t-191 42.5q-79 -27 -160.5 -40.5t-162.5 -13.5zM808 251q2 1 3 1q71 24 98.5 74.5t27.5 122.5q0 79 -33 119.5t-90 40.5q-59 0 -94 -39.5t-35 -119.5q0 -148 123 -199zM821 928l-161 161l161 162l161 -162z
" />
    <glyph glyph-name="uniFED7" unicode="&#x642;" arabic-form="initial" 
d="M-17 -6l16 212h139.5h120.5q138 -1 229 0t152 7t110 21q44 13 64 40.5t24 114.5l-26 -1q-22 -31 -68 -50t-123 -19q-140 0 -202 59t-62 204q0 103 38.5 190t108 139.5t161.5 52.5q111 0 187 -64.5t115.5 -176t39.5 -252.5q0 -154 -43 -262.5t-149 -151.5
q-124 -47 -311 -55t-470 -8h-25.5h-25.5zM838 525q-10 125 -57.5 176t-114.5 51t-100 -44.5t-33 -103.5q0 -57 22.5 -80.5t98.5 -23.5q58 0 100 6t84 19zM790 1052l-125 125l-125 -125l-155 154l155 156l125 -126l125 126l155 -156z" />
    <glyph glyph-name="uniFED8" unicode="&#x642;" arabic-form="medial" 
d="M-16 -6l16 212q203 0 340 9q-68 96 -68 246q0 158 89 259t239 101q135 0 224.5 -90.5t89.5 -257.5q0 -163 -75 -257q72 -5 162 -7.5t201 -2.5q56 0 82 -22t26 -78q0 -63 -33 -87.5t-92 -24.5q-188 0 -340.5 13.5t-266.5 49.5q-118 -37 -269.5 -50t-324.5 -13zM604 256
q64 26 89.5 78.5t25.5 114.5q0 79 -33 119.5t-90 40.5q-59 0 -94 -39.5t-35 -119.5q0 -73 29.5 -120t107.5 -74zM726 909l-125 125l-125 -125l-155 154l155 156l125 -126l125 126l155 -156z" />
    <glyph glyph-name="uniFED6" unicode="&#x642;" arabic-form="final" 
d="M578 -443q-292 0 -420 120t-128 353q0 95 13 190.5t35 178.5h178q-14 -104 -22.5 -181.5t-8.5 -155.5q0 -114 36 -179.5t117 -93t215 -27.5q119 0 192.5 14t116.5 50q31 27 48 67t24 98h-182q-102 0 -168 27t-98.5 95t-32.5 191q0 118 39 211.5t111 148t169 54.5
q173 0 256 -141t87 -371h45q50 0 67.5 -23.5t17.5 -79.5q0 -60 -18.5 -86t-77.5 -26h-45q-18 -142 -77 -238.5t-176.5 -146t-312.5 -49.5zM983 203q-3 163 -47 233t-123 70q-73 0 -108.5 -48.5t-35.5 -127.5q0 -86 30 -110t121 -24q40 0 81 2t82 5zM936 806l-125 125
l-125 -125l-155 154l155 156l125 -126l125 126l155 -156z" />
    <glyph glyph-name="uniFEDB" unicode="&#x643;" arabic-form="initial" 
d="M-12 -6l12 212h397q132 0 175 26t43 78q0 43 -34.5 100t-114 149.5t-213.5 243.5l16 186l720 454l5 -219l-552 -337q144 -151 226.5 -255t116.5 -181t34 -147q0 -163 -114 -236.5t-336 -73.5h-381z" />
    <glyph glyph-name="uniFEDC" unicode="&#x643;" arabic-form="medial" 
d="M1188 -6q-178 0 -281 27t-179 100h-31q-20 -45 -58.5 -73t-110.5 -41t-194 -13h-346l12 212h343q97 0 151 4t80.5 17t39.5 39l-360 537l26 186l720 454l5 -219l-561 -342l323 -485q57 -85 111.5 -125.5t129.5 -53t192 -12.5q28 0 41.5 -27t13.5 -59q0 -74 -22 -100
t-45 -26z" />
    <glyph glyph-name="uniFEDA" unicode="&#x643;" arabic-form="final" 
d="M505 -8q-180 0 -288 28.5t-156 100t-48 199.5q0 57 8.5 123.5t22.5 119.5h171q-7 -45 -11.5 -95.5t-4.5 -96.5q0 -58 18.5 -95t81.5 -54.5t194 -17.5q143 0 229 9t129.5 30t57.5 56.5t12 87.5l-27 1033h206l17 -1083v-11q1 -77 13.5 -98.5t69.5 -21.5q38 0 56.5 -19
t18.5 -72q0 -70 -25.5 -95.5t-61.5 -25.5q-143 0 -191 125h-17q-44 -66 -158.5 -96.5t-316.5 -30.5zM472 499q-44 0 -82.5 4t-65.5 10l-5 122q40 -7 75.5 -11t71.5 -4q51 0 68.5 5t17.5 13q0 11 -15 18.5t-62 33.5q-84 47 -84 119q0 53 65.5 116t222.5 91l7 -139
q-82 -12 -118 -26.5t-36 -25.5q0 -13 72 -53q58 -31 76 -59.5t18 -63.5q0 -52 -32.5 -85t-84.5 -49t-109 -16z" />
    <glyph glyph-name="uniFEDF" unicode="&#x644;" arabic-form="initial" 
d="M-12 -6q-58 0 -58 111q0 59 20 80t50 21q215 0 355 5t221 18t119 37t48 62t9 92l-20 1000h206l27 -970q3 -103 -14 -179.5t-71.5 -129.5t-162.5 -85.5t-286 -47t-443 -14.5z" />
    <glyph glyph-name="uniFEE0" unicode="&#x644;" arabic-form="medial" 
d="M-12 -6q-58 0 -58 111q0 59 20 80t50 21q179 0 295 2.5t183 11.5t98.5 30t39 57t6.5 93l-20 1020h206l25 -1011q2 -68 12.5 -108.5t45.5 -61t108.5 -27t200.5 -6.5q75 0 75 -101q0 -63 -21.5 -87t-65.5 -24q-150 0 -245.5 12t-150.5 47.5t-84 105.5h-23
q-27 -54 -67.5 -86.5t-114.5 -49.5t-198 -23t-317 -6z" />
    <glyph glyph-name="uniFEDE" unicode="&#x644;" arabic-form="final" 
d="M1188 -6q-93 0 -136 42q-34 -211 -160 -302t-357 -91q-254 0 -370 114.5t-116 337.5q0 188 64 389h178q-22 -109 -34 -192t-12 -160q0 -152 69 -214.5t243 -62.5q135 0 200.5 32.5t86 98t17.5 165.5l-32 1269h206l29 -1112v0q2 -67 25 -84.5t111 -17.5q38 0 56.5 -19
t18.5 -72q0 -70 -25.5 -95.5t-61.5 -25.5z" />
    <glyph glyph-name="uniFEE3" unicode="&#x645;" arabic-form="initial" 
d="M-18 -6q-27 0 -39.5 27t-12.5 94q0 50 17.5 70t52.5 20q66 0 113 18.5t96 71t120 154.5q78 112 136.5 174.5t110.5 88.5t109 26q93 0 169 -69.5t121 -181t45 -236.5q0 -135 -77.5 -196t-213.5 -61q-86 0 -164.5 18t-134.5 54t-76 91h-25q-48 -62 -92.5 -97.5
t-103.5 -50.5t-151 -15zM430 301q64 -44 129 -69.5t153 -25.5q124 0 124 78q0 51 -24 109t-63 99.5t-85 41.5q-61 0 -109 -61t-123 -170z" />
    <glyph glyph-name="uniFEE4" unicode="&#x645;" arabic-form="medial" 
d="M-18 -6q-27 0 -39.5 27t-12.5 94q0 42 17.5 66.5t52.5 24.5q83 0 141 34t107 124q71 129 128 212t114.5 123t129.5 40q89 0 167.5 -65t169.5 -232q55 -101 91.5 -151.5t70.5 -67.5t81 -17q38 0 56.5 -11.5t18.5 -79.5q0 -85 -25.5 -103t-61.5 -18q-106 0 -167 32t-107 96
h-21q-23 -67 -91.5 -97.5t-219.5 -30.5q-144 0 -212.5 39.5t-88.5 107.5h-20q-37 -88 -101.5 -117.5t-177.5 -29.5zM847 234q-11 21 -22.5 43t-23.5 46q-49 95 -95.5 153.5t-104.5 58.5q-47 0 -89 -43.5t-68.5 -100t-26.5 -96.5q0 -48 43 -68.5t145 -20.5q68 0 125.5 5
t116.5 23z" />
    <glyph glyph-name="uniFEE2" unicode="&#x645;" arabic-form="final" 
d="M135 -654l-8 531q-2 109 33.5 183.5t116.5 111.5q33 165 84 293t118.5 201t147.5 73q81 0 140 -50.5t115.5 -144t128.5 -222.5q42 -75 80.5 -95.5t108.5 -20.5q38 0 56.5 -19t18.5 -72q0 -70 -25.5 -95.5t-61.5 -25.5q-102 0 -162.5 23.5t-104.5 79.5h-26l-18 -108
q-122 2 -222 3.5t-187 1.5q-80 0 -113 -36t-32 -130l6 -482h-194zM862 195q-93 171 -141.5 251.5t-101.5 80.5q-58 0 -100.5 -88t-78.5 -233h26q111 0 214 -2.5t182 -8.5z" />
    <glyph glyph-name="uniFEE7" unicode="&#x646;" arabic-form="initial" 
d="M-12 -6q-33 0 -33 114q0 53 14 75.5t31 22.5q217 0 362 5.5t233.5 19.5t134 39t60.5 63t15 93q0 74 -17 165t-42 195l189 35q34 -117 52 -217.5t18 -186.5q0 -94 -22 -165t-82.5 -120t-173.5 -79.5t-294 -44.5t-445 -14zM835 946l-161 161l161 162l161 -162z" />
    <glyph glyph-name="uniFEE8" unicode="&#x646;" arabic-form="medial" 
d="M-12 -6l12 212q177 0 280.5 5t154 20t66 45t16.5 81l8 330l197 4l-5 -324q0 -73 12 -107t48 -44t109 -10h314q38 0 56.5 -26.5t18.5 -64.5q0 -70 -25.5 -95.5t-61.5 -25.5h-325q-136 0 -198 41t-84 116h-25q-30 -59 -89 -93.5t-172 -49t-307 -14.5zM630 824l-161 161
l161 162l161 -162z" />
    <glyph glyph-name="uniFEE6" unicode="&#x646;" arabic-form="final" 
d="M538 -357q-232 0 -344 103.5t-112 343.5q0 80 12.5 186.5t43.5 207.5h178q-17 -96 -28 -186t-11 -176q0 -149 60 -208t209 -59q113 0 181.5 24.5t100 91t31.5 191.5q0 90 -15 191t-32 201l194 27q12 -64 20.5 -121.5t14.5 -92.5q13 -72 23 -106t39 -44.5t97 -10.5
q53 0 69 -22.5t16 -75.5q0 -54 -16.5 -84t-80.5 -30q-47 0 -82.5 9t-61.5 34q-23 -192 -137.5 -293t-368.5 -101zM562 618l-161 161l161 162l161 -162z" />
    <glyph glyph-name="uniFEEB" unicode="&#x647;" arabic-form="initial" 
d="M-12 -6q-29 0 -43.5 22.5t-14.5 98.5q0 59 18.5 75t51.5 16q66 0 112 1.5t83 4.5q-29 47 -45.5 105t-16.5 128q0 108 46.5 186t120.5 118l40 155q255 -65 412 -129t239 -131.5t111 -142t29 -161.5q0 -88 -33.5 -167t-120.5 -129t-248 -50q-87 0 -167 12.5t-149 38.5
q-94 -29 -202 -40t-223 -11zM448 252q73 28 102.5 77t29.5 118q0 81 -33.5 121.5t-91.5 40.5t-93 -40t-35 -118q0 -143 121 -199zM689 207q32 -1 68 -1q105 0 142 39.5t37 99.5v6q0 30 -7.5 67t-47 79t-133.5 86q24 -67 24 -138q0 -78 -20.5 -135t-62.5 -103z" />
    <glyph glyph-name="uniFEEC" unicode="&#x647;" arabic-form="medial" 
d="M659 -491q-174 0 -285.5 123t-127.5 363q-55 -1 -119 -1h-139q-31 0 -44.5 24t-13.5 97q0 57 19.5 73.5t50.5 16.5h136.5t116.5 1q19 149 73.5 270.5t124 215t135.5 159.5l175 28q76 -132 118.5 -260.5t42.5 -268.5q0 -81 -27 -141q138 -4 305 -4q50 0 75 -13.5t25 -72.5
q0 -82 -26 -103.5t-86 -21.5q-63 0 -139.5 3.5t-144.5 16.5q33 -47 47 -103t14 -106q0 -145 -86 -220.5t-220 -75.5zM637 33q-95 -22 -210 -31q7 -114 43.5 -178t87.5 -90t102 -26q119 0 119 107q0 58 -32.5 116.5t-109.5 101.5zM438 211q87 5 153 16q87 14 116 44t29 79
q0 141 -79 313q-82 -93 -139.5 -205.5t-79.5 -246.5z" />
    <glyph glyph-name="uniFEEA" unicode="&#x647;" arabic-form="final" 
d="M574 157q-186 0 -287.5 68t-101.5 221q0 167 156.5 261t466.5 166l-2 114h206l4 -627q1 -68 15.5 -101t54 -43t114.5 -10q42 0 58.5 -19.5t16.5 -71.5q0 -60 -18 -90.5t-69 -30.5q-131 0 -210 22.5t-116 76.5t-44 149h-26q-22 -49 -77 -67t-141 -18zM810 675
q-231 -44 -338.5 -93t-107.5 -117q0 -59 58 -77.5t191 -18.5q42 0 97.5 3.5t104.5 8.5z" />
    <glyph glyph-name="uniFEEE" unicode="&#x648;" arabic-form="final" 
d="M426 -480q-71 0 -142.5 12t-123.5 34l15 182q59 -12 112.5 -19t120.5 -7q168 0 281 60.5t150 211.5h-190q-175 0 -236.5 78t-61.5 235q0 111 40.5 204.5t114.5 150t174 56.5q169 0 255.5 -137.5t94.5 -375.5l170 1q46 0 65.5 -22.5t19.5 -85.5q0 -58 -25 -81t-70 -23
h-172q-38 -229 -188.5 -351.5t-403.5 -122.5zM854 203q-6 162 -49.5 232.5t-127.5 70.5q-69 0 -109.5 -49t-40.5 -129q0 -75 32.5 -100t133.5 -25h81h80z" />
    <glyph glyph-name="uniFBE8" unicode="&#x649;" 
d="M-12 -6q-33 0 -33 114q0 53 14 75.5t31 22.5q217 0 362 5.5t233.5 19.5t134 39t60.5 63t15 93q0 74 -17 165t-42 195l189 35q34 -117 52 -217.5t18 -186.5q0 -94 -22 -165t-82.5 -120t-173.5 -79.5t-294 -44.5t-445 -14z" />
    <glyph glyph-name="uniFBE9" unicode="&#x649;" 
d="M-12 -6l12 212q177 0 280.5 5t154 20t66 45t16.5 81l8 330l197 4l-5 -324q0 -73 12 -107t48 -44t109 -10h314q38 0 56.5 -26.5t18.5 -64.5q0 -70 -25.5 -95.5t-61.5 -25.5h-325q-136 0 -198 41t-84 116h-25q-30 -59 -89 -93.5t-172 -49t-307 -14.5z" />
    <glyph glyph-name="uniFEF0" unicode="&#x649;" arabic-form="final" 
d="M497 -410q-180 0 -281.5 51t-143.5 141.5t-42 207.5q0 64 11.5 140t32.5 144h178q-11 -73 -19 -129.5t-8 -115.5q0 -79 23.5 -131.5t88 -78t187.5 -25.5q224 0 334.5 45.5t110.5 106.5q0 35 -38.5 49.5t-147.5 25.5l35 195q92 -6 198.5 -8t183.5 -2q54 0 78 -26.5
t24 -72.5q0 -51 -29 -82t-85 -31q-23 0 -46 1q5 -21 5 -45q0 -97 -75 -179t-219.5 -131.5t-355.5 -49.5z" />
    <glyph glyph-name="uniFEF3" unicode="&#x64a;" arabic-form="initial" 
d="M-12 -6q-33 0 -33 114q0 53 14 75.5t31 22.5q217 0 362 5.5t233.5 19.5t134 39t60.5 63t15 93q0 74 -17 165t-42 195l189 35q34 -117 52 -217.5t18 -186.5q0 -94 -22 -165t-82.5 -120t-173.5 -79.5t-294 -44.5t-445 -14zM895 -425l-125 125l-125 -125l-155 154l155 156
l125 -126l125 126l155 -156z" />
    <glyph glyph-name="uniFEF4" unicode="&#x64a;" arabic-form="medial" 
d="M-12 -6l12 212q177 0 280.5 5t154 20t66 45t16.5 81l8 330l197 4l-5 -324q0 -73 12 -107t48 -44t109 -10h314q38 0 56.5 -26.5t18.5 -64.5q0 -70 -25.5 -95.5t-61.5 -25.5h-325q-136 0 -198 41t-84 116h-25q-30 -59 -89 -93.5t-172 -49t-307 -14.5zM715 -425l-125 125
l-125 -125l-155 154l155 156l125 -126l125 126l155 -156z" />
    <glyph glyph-name="uniFEF2" unicode="&#x64a;" arabic-form="final" 
d="M497 -410q-180 0 -281.5 51t-143.5 141.5t-42 207.5q0 64 11.5 140t32.5 144h178q-11 -73 -19 -129.5t-8 -115.5q0 -79 23.5 -131.5t88 -78t187.5 -25.5q224 0 334.5 45.5t110.5 106.5q0 35 -38.5 49.5t-147.5 25.5l35 195q92 -6 198.5 -8t183.5 -2q54 0 78 -26.5
t24 -72.5q0 -51 -29 -82t-85 -31q-23 0 -46 1q5 -21 5 -45q0 -97 -75 -179t-219.5 -131.5t-355.5 -49.5zM640 -780l-125 125l-125 -125l-155 154l155 156l125 -126l125 126l155 -156z" />
    <glyph glyph-name="uni066E.init" unicode="&#x66e;" 
d="M-12 -6q-33 0 -33 114q0 53 14 75.5t31 22.5q217 0 362 5.5t233.5 19.5t134 39t60.5 63t15 93q0 74 -17 165t-42 195l189 35q34 -117 52 -217.5t18 -186.5q0 -94 -22 -165t-82.5 -120t-173.5 -79.5t-294 -44.5t-445 -14z" />
    <glyph glyph-name="uni066E.medi" unicode="&#x66e;" 
d="M-12 -6l12 212q177 0 280.5 5t154 20t66 45t16.5 81l8 330l197 4l-5 -324q0 -73 12 -107t48 -44t109 -10h314q38 0 56.5 -26.5t18.5 -64.5q0 -70 -25.5 -95.5t-61.5 -25.5h-325q-136 0 -198 41t-84 116h-25q-30 -59 -89 -93.5t-172 -49t-307 -14.5z" />
    <glyph glyph-name="uni066E.fina" unicode="&#x66e;" 
d="M529 -6q-194 0 -307.5 40t-162.5 130t-49 240q0 77 14.5 148t29.5 113h178q-13 -88 -20 -140t-7 -114q0 -78 29 -123t99.5 -63.5t195.5 -18.5q139 0 218.5 7t117 22t48.5 39.5t12 60.5l10 332l187 4l-6 -352q-1 -76 18 -94.5t66 -18.5q38 0 56.5 -19t18.5 -72
q0 -70 -25.5 -95.5t-61.5 -25.5q-75 0 -125 34.5t-74 121.5l-25 -1q-16 -23 -36.5 -49.5t-63 -50.5t-122 -39.5t-213.5 -15.5z" />
    <glyph glyph-name="uni066F.init" unicode="&#x66f;" 
d="M-17 -6l16 212h139.5h120.5q138 -1 229 0t152 7t110 21q44 13 64 40.5t24 114.5l-26 -1q-22 -31 -68 -50t-123 -19q-140 0 -202 59t-62 204q0 103 38.5 190t108 139.5t161.5 52.5q111 0 187 -64.5t115.5 -176t39.5 -252.5q0 -154 -43 -262.5t-149 -151.5
q-124 -47 -311 -55t-470 -8h-25.5h-25.5zM838 525q-10 125 -57.5 176t-114.5 51t-100 -44.5t-33 -103.5q0 -57 22.5 -80.5t98.5 -23.5q58 0 100 6t84 19z" />
    <glyph glyph-name="uni066F.medi" unicode="&#x66f;" 
d="M-16 -6l16 212q203 0 340 9q-68 96 -68 246q0 158 89 259t239 101q135 0 224.5 -90.5t89.5 -257.5q0 -163 -75 -257q72 -5 162 -7.5t201 -2.5q56 0 82 -22t26 -78q0 -63 -33 -87.5t-92 -24.5q-188 0 -340.5 13.5t-266.5 49.5q-118 -37 -269.5 -50t-324.5 -13zM604 256
q64 26 89.5 78.5t25.5 114.5q0 79 -33 119.5t-90 40.5q-59 0 -94 -39.5t-35 -119.5q0 -73 29.5 -120t107.5 -74z" />
    <glyph glyph-name="uni066F.fina" unicode="&#x66f;" 
d="M578 -443q-292 0 -420 120t-128 353q0 95 13 190.5t35 178.5h178q-14 -104 -22.5 -181.5t-8.5 -155.5q0 -114 36 -179.5t117 -93t215 -27.5q119 0 192.5 14t116.5 50q31 27 48 67t24 98h-182q-102 0 -168 27t-98.5 95t-32.5 191q0 118 39 211.5t111 148t169 54.5
q173 0 256 -141t87 -371h45q50 0 67.5 -23.5t17.5 -79.5q0 -60 -18.5 -86t-77.5 -26h-45q-18 -142 -77 -238.5t-176.5 -146t-312.5 -49.5zM983 203q-3 163 -47 233t-123 70q-73 0 -108.5 -48.5t-35.5 -127.5q0 -86 30 -110t121 -24q40 0 81 2t82 5z" />
    <glyph glyph-name="uniFB51" unicode="&#x671;" arabic-form="final" 
d="M1188 -7h-39h-38q-126 0 -230 1t-201 9q-140 12 -218 50.5t-110 118t-34 214.5l-8 812h206l8 -747q1 -95 15 -145.5t56.5 -71t129.5 -24.5t180 -4.5t217 -0.5h38.5h39.5q31 0 43 -22.5t12 -62.5q0 -59 -17.5 -93t-49.5 -34zM470 1251q-54 0 -98 14t-81 27.5t-72 13.5
q-44 0 -78.5 -14t-72.5 -37l-7 123q29 31 67.5 52t80.5 21q28 0 61 -8q58 91 121 144t131 53q80 0 133 -55t53 -141q0 -100 -68.5 -146.5t-169.5 -46.5zM376 1407q26 -8 54 -14t60 -6q50 0 69 14t19 36q0 26 -20 46.5t-52 20.5q-62 0 -130 -97z" />
    <glyph glyph-name="uni0672.fina" unicode="&#x672;" 
d="M1188 -7h-39h-38q-126 0 -230 1t-201 9q-140 12 -218 50.5t-110 118t-34 214.5l-8 812h206l8 -747q1 -95 15 -145.5t56.5 -71t129.5 -24.5t180 -4.5t217 -0.5h38.5h39.5q31 0 43 -22.5t12 -62.5q0 -59 -17.5 -93t-49.5 -34zM100 1236l-19 104q23 24 48 39.5t57 15.5
q36 0 72 -14.5t77 -14.5q14 0 24 2l-1 12q-40 14 -62 45t-22 88q0 85 54 134t154 49q37 0 72.5 -7.5t60.5 -16.5l-6 -114q-23 3 -47 5t-41 2q-70 0 -97.5 -17t-27.5 -53q0 -38 18 -54.5t64 -16.5q29 0 79 11t96 21l14 -126q-51 -17 -110.5 -37t-115 -34t-96.5 -14
q-46 0 -80 15.5t-68 15.5q-28 0 -49.5 -12t-47.5 -28z" />
    <glyph glyph-name="uni0673.fina" unicode="&#x673;" 
d="M1188 -6h-39h-38q-126 0 -230 1t-201 9q-140 12 -218.5 50.5t-110.5 117.5t-33 214l-8 1034h206l8 -969q1 -95 15 -145.5t56.5 -70.5t129.5 -24t180 -4.5t217 -0.5h38.5h39.5q55 0 55 -95q0 -64 -18 -90.5t-49 -26.5zM108 -562l-19 104q23 24 48 39.5t57 15.5
q36 0 72 -14.5t77 -14.5q14 0 24 2l-1 12q-40 14 -62 45t-22 88q0 85 54 134t154 49q37 0 72.5 -7.5t60.5 -16.5l-6 -114q-23 3 -47 5t-41 2q-70 0 -97.5 -17t-27.5 -53q0 -38 18 -54.5t64 -16.5q29 0 79 11t96 21l14 -126q-51 -17 -110.5 -37t-115 -34t-96.5 -14
q-46 0 -80 15.5t-68 15.5q-28 0 -49.5 -12t-47.5 -28z" />
    <glyph glyph-name="uni0675.fina" unicode="&#x675;" 
d="M1188 -6h-39h-38q-126 0 -230 1t-201 9q-140 12 -218.5 50.5t-110.5 117.5t-33 214l-8 1034h206l8 -969q1 -95 15 -145.5t56.5 -70.5t129.5 -24t180 -4.5t217 -0.5h38.5h39.5q55 0 55 -95q0 -64 -18 -90.5t-49 -26.5zM629 1089l-11 120l94 24v13q-72 25 -72 121
q0 85 60 130.5t154 45.5q42 0 72 -7t55 -17l-6 -114q-54 7 -94 7q-66 0 -90.5 -16t-24.5 -55q0 -38 18 -52t54 -14q29 0 82.5 9.5t98.5 17.5l14 -125z" />
    <glyph glyph-name="uni0676.fina" unicode="&#x676;" 
d="M426 -480q-71 0 -142.5 12t-123.5 34l15 182q59 -12 112.5 -19t120.5 -7q168 0 281 60.5t150 211.5h-190q-175 0 -236.5 78t-61.5 235q0 111 40.5 204.5t114.5 150t174 56.5q169 0 255.5 -137.5t94.5 -375.5l170 1q46 0 65.5 -22.5t19.5 -85.5q0 -58 -25 -81t-70 -23
h-172q-38 -229 -188.5 -351.5t-403.5 -122.5zM854 203q-6 162 -49.5 232.5t-127.5 70.5q-69 0 -109.5 -49t-40.5 -129q0 -75 32.5 -100t133.5 -25h81h80zM803 798l-11 120l94 24v13q-72 25 -72 121q0 85 60 130.5t154 45.5q42 0 72 -7t55 -17l-6 -114q-54 7 -94 7
q-66 0 -90.5 -16t-24.5 -55q0 -38 18 -52t54 -14q29 0 82.5 9.5t98.5 17.5l14 -125z" />
    <glyph glyph-name="uni0677.fina" unicode="&#x677;" 
d="M426 -480q-71 0 -142.5 12t-123.5 34l15 182q59 -12 112.5 -19t120.5 -7q168 0 281 60.5t150 211.5h-190q-175 0 -236.5 78t-61.5 235q0 111 40.5 204.5t114.5 150t174 56.5q169 0 255.5 -137.5t94.5 -375.5l170 1q46 0 65.5 -22.5t19.5 -85.5q0 -58 -25 -81t-70 -23
h-172q-38 -229 -188.5 -351.5t-403.5 -122.5zM210 734l3 129q67 13 119 27t92 28q-27 23 -43.5 57t-16.5 78q0 76 50 120.5t116 44.5q72 0 117 -43.5t45 -126.5q0 -86 -66 -146t-175.5 -100t-240.5 -68zM738 798l-10 110l87 23v11q-66 23 -66 112q0 78 55 120t141 42
q39 0 66.5 -6.5t50.5 -15.5l-5 -105q-50 6 -87 6q-60 0 -83 -14.5t-23 -50.5q0 -35 17 -48t50 -13q26 0 75.5 8.5t90.5 16.5l13 -115zM854 203q-6 162 -49.5 232.5t-127.5 70.5q-69 0 -109.5 -49t-40.5 -129q0 -75 32.5 -100t133.5 -25h81h80zM521 962q36 22 49.5 43.5
t13.5 41.5q0 31 -16 46t-42 15q-60 0 -60 -62q0 -57 55 -84z" />
    <glyph glyph-name="uni0678.init" unicode="&#x678;" 
d="M-12 -6q-33 0 -33 114q0 53 14 75.5t31 22.5q217 0 362 5.5t233.5 19.5t134 39t60.5 63t15 93q0 74 -17 165t-42 195l189 35q34 -117 52 -217.5t18 -186.5q0 -94 -22 -165t-82.5 -120t-173.5 -79.5t-294 -44.5t-445 -14zM952 915l-11 120l94 24v13q-72 25 -72 121
q0 85 60 130.5t154 45.5q42 0 72 -7t55 -17l-6 -114q-54 7 -94 7q-66 0 -90.5 -16t-24.5 -55q0 -38 18 -52t54 -14q29 0 82.5 9.5t98.5 17.5l14 -125z" />
    <glyph glyph-name="uni0678.medi" unicode="&#x678;" 
d="M-12 -6l12 212q177 0 280.5 5t154 20t66 45t16.5 81l8 330l197 4l-5 -324q0 -73 12 -107t48 -44t109 -10h314q38 0 56.5 -26.5t18.5 -64.5q0 -70 -25.5 -95.5t-61.5 -25.5h-325q-136 0 -198 41t-84 116h-25q-30 -59 -89 -93.5t-172 -49t-307 -14.5zM760 797l-11 120
l94 24v13q-72 25 -72 121q0 85 60 130.5t154 45.5q42 0 72 -7t55 -17l-6 -114q-54 7 -94 7q-66 0 -90.5 -16t-24.5 -55q0 -38 18 -52t54 -14q29 0 82.5 9.5t98.5 17.5l14 -125z" />
    <glyph glyph-name="uni0678.fina" unicode="&#x678;" 
d="M497 -410q-180 0 -281.5 51t-143.5 141.5t-42 207.5q0 64 11.5 140t32.5 144h178q-11 -73 -19 -129.5t-8 -115.5q0 -79 23.5 -131.5t88 -78t187.5 -25.5q224 0 334.5 45.5t110.5 106.5q0 35 -38.5 49.5t-147.5 25.5l35 195q92 -6 198.5 -8t183.5 -2q54 0 78 -26.5
t24 -72.5q0 -51 -29 -82t-85 -31q-23 0 -46 1q5 -21 5 -45q0 -97 -75 -179t-219.5 -131.5t-355.5 -49.5zM372 381l-11 120l94 24v13q-72 25 -72 121q0 85 60 130.5t154 45.5q42 0 72 -7t55 -17l-6 -114q-54 7 -94 7q-66 0 -90.5 -16t-24.5 -55q0 -38 18 -52t54 -14
q29 0 82.5 9.5t98.5 17.5l14 -125z" />
    <glyph glyph-name="uniFB68" unicode="&#x679;" arabic-form="initial" 
d="M-12 -6q-33 0 -33 114q0 53 14 75.5t31 22.5q217 0 362 5.5t233.5 19.5t134 39t60.5 63t15 93q0 74 -17 165t-42 195l189 35q34 -117 52 -217.5t18 -186.5q0 -94 -22 -165t-82.5 -120t-173.5 -79.5t-294 -44.5t-445 -14zM812 1061q-69 0 -132.5 7.5t-110.5 16.5l-5 120
q16 -1 41.5 -3.5t54.5 -5.5l-8 333h118l3 -104q1 -44 -23 -81l9 -6q40 55 83.5 86t89.5 31q68 0 117.5 -58t49.5 -145q0 -99 -69 -145t-218 -46zM771 1188q31 -2 50 -2q84 0 116 11.5t32 45.5q0 31 -16.5 55t-46.5 24q-31 0 -63 -32t-72 -102z" />
    <glyph glyph-name="uniFB69" unicode="&#x679;" arabic-form="medial" 
d="M-12 -6l12 212q177 0 280.5 5t154 20t66 45t16.5 81l8 330l197 4l-5 -324q0 -73 12 -107t48 -44t109 -10h314q38 0 56.5 -26.5t18.5 -64.5q0 -70 -25.5 -95.5t-61.5 -25.5h-325q-136 0 -198 41t-84 116h-25q-30 -59 -89 -93.5t-172 -49t-307 -14.5zM610 939
q-69 0 -132.5 7.5t-110.5 16.5l-5 120q16 -1 41.5 -3.5t54.5 -5.5l-8 333h118l3 -104q1 -44 -23 -81l9 -6q40 55 83.5 86t89.5 31q68 0 117.5 -58t49.5 -145q0 -99 -69 -145t-218 -46zM569 1066q31 -2 50 -2q84 0 116 11.5t32 45.5q0 31 -16.5 55t-46.5 24q-31 0 -63 -32
t-72 -102z" />
    <glyph glyph-name="uniFB67" unicode="&#x679;" arabic-form="final" 
d="M529 -6q-194 0 -307.5 40t-162.5 130t-49 240q0 77 14.5 148t29.5 113h178q-13 -88 -20 -140t-7 -114q0 -78 29 -123t99.5 -63.5t195.5 -18.5q139 0 218.5 7t117 22t48.5 39.5t12 60.5l10 332l187 4l-6 -352q-1 -76 18 -94.5t66 -18.5q38 0 56.5 -19t18.5 -72
q0 -70 -25.5 -95.5t-61.5 -25.5q-75 0 -125 34.5t-74 121.5l-25 -1q-16 -23 -36.5 -49.5t-63 -50.5t-122 -39.5t-213.5 -15.5zM570 909q-69 0 -132.5 7.5t-110.5 16.5l-5 120q16 -1 41.5 -3.5t54.5 -5.5l-8 333h118l3 -104q1 -44 -23 -81l9 -6q40 55 83.5 86t89.5 31
q68 0 117.5 -58t49.5 -145q0 -99 -69 -145t-218 -46zM529 1036q31 -2 50 -2q84 0 116 11.5t32 45.5q0 31 -16.5 55t-46.5 24q-31 0 -63 -32t-72 -102z" />
    <glyph glyph-name="uniFB60" unicode="&#x67a;" arabic-form="initial" 
d="M-12 -6q-33 0 -33 114q0 53 14 75.5t31 22.5q217 0 362 5.5t233.5 19.5t134 39t60.5 63t15 93q0 74 -17 165t-42 195l189 35q34 -117 52 -217.5t18 -186.5q0 -94 -22 -165t-82.5 -120t-173.5 -79.5t-294 -44.5t-445 -14zM832 910l-155 155l124 124l-121 121l155 155
l155 -155l-124 -124l121 -121z" />
    <glyph glyph-name="uniFB61" unicode="&#x67a;" arabic-form="medial" 
d="M-12 -6l12 212q177 0 280.5 5t154 20t66 45t16.5 81l8 330l197 4l-5 -324q0 -73 12 -107t48 -44t109 -10h314q38 0 56.5 -26.5t18.5 -64.5q0 -70 -25.5 -95.5t-61.5 -25.5h-325q-136 0 -198 41t-84 116h-25q-30 -59 -89 -93.5t-172 -49t-307 -14.5zM627 788l-155 155
l124 124l-121 121l155 155l155 -155l-124 -124l121 -121z" />
    <glyph glyph-name="uniFB5F" unicode="&#x67a;" arabic-form="final" 
d="M529 -6q-194 0 -307.5 40t-162.5 130t-49 240q0 77 14.5 148t29.5 113h178q-13 -88 -20 -140t-7 -114q0 -78 29 -123t99.5 -63.5t195.5 -18.5q139 0 218.5 7t117 22t48.5 39.5t12 60.5l10 332l187 4l-6 -352q-1 -76 18 -94.5t66 -18.5q38 0 56.5 -19t18.5 -72
q0 -70 -25.5 -95.5t-61.5 -25.5q-75 0 -125 34.5t-74 121.5l-25 -1q-16 -23 -36.5 -49.5t-63 -50.5t-122 -39.5t-213.5 -15.5zM587 658l-155 155l124 124l-121 121l155 155l155 -155l-124 -124l121 -121z" />
    <glyph glyph-name="uniFB54" unicode="&#x67b;" arabic-form="initial" 
d="M-12 -6q-33 0 -33 114q0 53 14 75.5t31 22.5q217 0 362 5.5t233.5 19.5t134 39t60.5 63t15 93q0 74 -17 165t-42 195l189 35q34 -117 52 -217.5t18 -186.5q0 -94 -22 -165t-82.5 -120t-173.5 -79.5t-294 -44.5t-445 -14zM767 -652l-155 155l124 124l-121 121l155 155
l155 -155l-124 -124l121 -121z" />
    <glyph glyph-name="uniFB55" unicode="&#x67b;" arabic-form="medial" 
d="M-12 -6l12 212q177 0 280.5 5t154 20t66 45t16.5 81l8 330l197 4l-5 -324q0 -73 12 -107t48 -44t109 -10h314q38 0 56.5 -26.5t18.5 -64.5q0 -70 -25.5 -95.5t-61.5 -25.5h-325q-136 0 -198 41t-84 116h-25q-30 -59 -89 -93.5t-172 -49t-307 -14.5zM587 -652l-155 155
l124 124l-121 121l155 155l155 -155l-124 -124l121 -121z" />
    <glyph glyph-name="uniFB53" unicode="&#x67b;" arabic-form="final" 
d="M529 -6q-194 0 -307.5 40t-162.5 130t-49 240q0 77 14.5 148t29.5 113h178q-13 -88 -20 -140t-7 -114q0 -78 29 -123t99.5 -63.5t195.5 -18.5q139 0 218.5 7t117 22t48.5 39.5t12 60.5l10 332l187 4l-6 -352q-1 -76 18 -94.5t66 -18.5q38 0 56.5 -19t18.5 -72
q0 -70 -25.5 -95.5t-61.5 -25.5q-75 0 -125 34.5t-74 121.5l-25 -1q-16 -23 -36.5 -49.5t-63 -50.5t-122 -39.5t-213.5 -15.5zM577 -652l-155 155l124 124l-121 121l155 155l155 -155l-124 -124l121 -121z" />
    <glyph glyph-name="uni067C.init" unicode="&#x67c;" 
d="M-12 -6q-33 0 -33 114q0 53 14 75.5t31 22.5q217 0 362 5.5t233.5 19.5t134 39t60.5 63t15 93q0 74 -17 165t-42 195l189 35q34 -117 52 -217.5t18 -186.5q0 -94 -22 -165t-82.5 -120t-173.5 -79.5t-294 -44.5t-445 -14zM960 927l-125 125l-125 -125l-155 154l155 156
l125 -126l125 126l155 -156zM729 -196q-76 0 -124 46t-48 125q0 78 49.5 124.5t122.5 46.5q74 0 123.5 -44.5t49.5 -126.5q0 -81 -49.5 -126t-123.5 -45zM729 -82q58 0 58 57t-57 57q-26 0 -43 -15.5t-17 -41.5q0 -28 17.5 -42.5t41.5 -14.5z" />
    <glyph glyph-name="uni067C.medi" unicode="&#x67c;" 
d="M-12 -6l12 212q177 0 280.5 5t154 20t66 45t16.5 81l8 330l197 4l-5 -324q0 -73 12 -107t48 -44t109 -10h314q38 0 56.5 -26.5t18.5 -64.5q0 -70 -25.5 -95.5t-61.5 -25.5h-325q-136 0 -198 41t-84 116h-25q-30 -59 -89 -93.5t-172 -49t-307 -14.5zM755 805l-125 125
l-125 -125l-155 154l155 156l125 -126l125 126l155 -156zM349 -236q-76 0 -124 46t-48 125q0 78 49.5 124.5t122.5 46.5q74 0 123.5 -44.5t49.5 -126.5q0 -81 -49.5 -126t-123.5 -45zM349 -122q58 0 58 57t-57 57q-26 0 -43 -15.5t-17 -41.5q0 -28 17.5 -42.5t41.5 -14.5z
" />
    <glyph glyph-name="uni067C.fina" unicode="&#x67c;" 
d="M529 -6q-194 0 -307.5 40t-162.5 130t-49 240q0 77 14.5 148t29.5 113h178q-13 -88 -20 -140t-7 -114q0 -78 29 -123t99.5 -63.5t195.5 -18.5q139 0 218.5 7t117 22t48.5 39.5t12 60.5l10 332l187 4l-6 -352q-1 -76 18 -94.5t66 -18.5q38 0 56.5 -19t18.5 -72
q0 -70 -25.5 -95.5t-61.5 -25.5q-75 0 -125 34.5t-74 121.5l-25 -1q-16 -23 -36.5 -49.5t-63 -50.5t-122 -39.5t-213.5 -15.5zM715 675l-125 125l-125 -125l-155 154l155 156l125 -126l125 126l155 -156zM579 -236q-76 0 -124 46t-48 125q0 78 49.5 124.5t122.5 46.5
q74 0 123.5 -44.5t49.5 -126.5q0 -81 -49.5 -126t-123.5 -45zM579 -122q58 0 58 57t-57 57q-26 0 -43 -15.5t-17 -41.5q0 -28 17.5 -42.5t41.5 -14.5z" />
    <glyph glyph-name="uni067D.init" unicode="&#x67d;" 
d="M-12 -6q-33 0 -33 114q0 53 14 75.5t31 22.5q217 0 362 5.5t233.5 19.5t134 39t60.5 63t15 93q0 74 -17 165t-42 195l189 35q34 -117 52 -217.5t18 -186.5q0 -94 -22 -165t-82.5 -120t-173.5 -79.5t-294 -44.5t-445 -14zM960 1483l155 -154l-155 -156l-125 126l-125 -126
l-155 156l155 154l125 -125zM836 1223l148 -148l-148 -149l-148 149z" />
    <glyph glyph-name="uni067D.medi" unicode="&#x67d;" 
d="M-12 -6l12 212q177 0 280.5 5t154 20t66 45t16.5 81l8 330l197 4l-5 -324q0 -73 12 -107t48 -44t109 -10h314q38 0 56.5 -26.5t18.5 -64.5q0 -70 -25.5 -95.5t-61.5 -25.5h-325q-136 0 -198 41t-84 116h-25q-30 -59 -89 -93.5t-172 -49t-307 -14.5zM755 1361l155 -154
l-155 -156l-125 126l-125 -126l-155 156l155 154l125 -125zM631 1101l148 -148l-148 -149l-148 149z" />
    <glyph glyph-name="uni067D.fina" unicode="&#x67d;" 
d="M529 -6q-194 0 -307.5 40t-162.5 130t-49 240q0 77 14.5 148t29.5 113h178q-13 -88 -20 -140t-7 -114q0 -78 29 -123t99.5 -63.5t195.5 -18.5q139 0 218.5 7t117 22t48.5 39.5t12 60.5l10 332l187 4l-6 -352q-1 -76 18 -94.5t66 -18.5q38 0 56.5 -19t18.5 -72
q0 -70 -25.5 -95.5t-61.5 -25.5q-75 0 -125 34.5t-74 121.5l-25 -1q-16 -23 -36.5 -49.5t-63 -50.5t-122 -39.5t-213.5 -15.5zM715 1231l155 -154l-155 -156l-125 126l-125 -126l-155 156l155 154l125 -125zM591 971l148 -148l-148 -149l-148 149z" />
    <glyph glyph-name="uniFB58" unicode="&#x67e;" arabic-form="initial" 
d="M-12 -6q-33 0 -33 114q0 53 14 75.5t31 22.5q217 0 362 5.5t233.5 19.5t134 39t60.5 63t15 93q0 74 -17 165t-42 195l189 35q34 -117 52 -217.5t18 -186.5q0 -94 -22 -165t-82.5 -120t-173.5 -79.5t-294 -44.5t-445 -14zM897 -77l155 -154l-155 -156l-125 126l-125 -126
l-155 156l155 154l125 -125zM773 -337l148 -148l-148 -149l-148 149z" />
    <glyph glyph-name="uniFB59" unicode="&#x67e;" arabic-form="medial" 
d="M-12 -6l12 212q177 0 280.5 5t154 20t66 45t16.5 81l8 330l197 4l-5 -324q0 -73 12 -107t48 -44t109 -10h314q38 0 56.5 -26.5t18.5 -64.5q0 -70 -25.5 -95.5t-61.5 -25.5h-325q-136 0 -198 41t-84 116h-25q-30 -59 -89 -93.5t-172 -49t-307 -14.5zM717 -77l155 -154
l-155 -156l-125 126l-125 -126l-155 156l155 154l125 -125zM593 -337l148 -148l-148 -149l-148 149z" />
    <glyph glyph-name="uniFB57" unicode="&#x67e;" arabic-form="final" 
d="M529 -6q-194 0 -307.5 40t-162.5 130t-49 240q0 77 14.5 148t29.5 113h178q-13 -88 -20 -140t-7 -114q0 -78 29 -123t99.5 -63.5t195.5 -18.5q139 0 218.5 7t117 22t48.5 39.5t12 60.5l10 332l187 4l-6 -352q-1 -76 18 -94.5t66 -18.5q38 0 56.5 -19t18.5 -72
q0 -70 -25.5 -95.5t-61.5 -25.5q-75 0 -125 34.5t-74 121.5l-25 -1q-16 -23 -36.5 -49.5t-63 -50.5t-122 -39.5t-213.5 -15.5zM707 -77l155 -154l-155 -156l-125 126l-125 -126l-155 156l155 154l125 -125zM583 -337l148 -148l-148 -149l-148 149z" />
    <glyph glyph-name="uniFB64" unicode="&#x67f;" arabic-form="initial" 
d="M-12 -6q-33 0 -33 114q0 53 14 75.5t31 22.5q217 0 362 5.5t233.5 19.5t134 39t60.5 63t15 93q0 74 -17 165t-42 195l189 35q34 -117 52 -217.5t18 -186.5q0 -94 -22 -165t-82.5 -120t-173.5 -79.5t-294 -44.5t-445 -14zM721 925l-133 133l114 116l-112 111l134 135
l111 -112l112 113l133 -135l-114 -114l112 -113l-134 -133l-111 111zM832 1080l94 95l-90 89l-94 -93z" />
    <glyph glyph-name="uniFB65" unicode="&#x67f;" arabic-form="medial" 
d="M-12 -6l12 212q177 0 280.5 5t154 20t66 45t16.5 81l8 330l197 4l-5 -324q0 -73 12 -107t48 -44t109 -10h314q38 0 56.5 -26.5t18.5 -64.5q0 -70 -25.5 -95.5t-61.5 -25.5h-325q-136 0 -198 41t-84 116h-25q-30 -59 -89 -93.5t-172 -49t-307 -14.5zM516 803l-133 133
l114 116l-112 111l134 135l111 -112l112 113l133 -135l-114 -114l112 -113l-134 -133l-111 111zM627 958l94 95l-90 89l-94 -93z" />
    <glyph glyph-name="uniFB63" unicode="&#x67f;" arabic-form="final" 
d="M529 -6q-194 0 -307.5 40t-162.5 130t-49 240q0 77 14.5 148t29.5 113h178q-13 -88 -20 -140t-7 -114q0 -78 29 -123t99.5 -63.5t195.5 -18.5q139 0 218.5 7t117 22t48.5 39.5t12 60.5l10 332l187 4l-6 -352q-1 -76 18 -94.5t66 -18.5q38 0 56.5 -19t18.5 -72
q0 -70 -25.5 -95.5t-61.5 -25.5q-75 0 -125 34.5t-74 121.5l-25 -1q-16 -23 -36.5 -49.5t-63 -50.5t-122 -39.5t-213.5 -15.5zM476 673l-133 133l114 116l-112 111l134 135l111 -112l112 113l133 -135l-114 -114l112 -113l-134 -133l-111 111zM587 828l94 95l-90 89l-94 -93
z" />
    <glyph glyph-name="uniFB5C" unicode="&#x680;" arabic-form="initial" 
d="M-12 -6q-33 0 -33 114q0 53 14 75.5t31 22.5q217 0 362 5.5t233.5 19.5t134 39t60.5 63t15 93q0 74 -17 165t-42 195l189 35q34 -117 52 -217.5t18 -186.5q0 -94 -22 -165t-82.5 -120t-173.5 -79.5t-294 -44.5t-445 -14zM647 -640l-145 144l125 126l-122 121l145 146
l121 -122l122 123l145 -146l-125 -124l122 -123l-145 -144l-121 120zM768 -472l102 103l-98 97l-102 -101z" />
    <glyph glyph-name="uniFB5D" unicode="&#x680;" arabic-form="medial" 
d="M-12 -6l12 212q177 0 280.5 5t154 20t66 45t16.5 81l8 330l197 4l-5 -324q0 -73 12 -107t48 -44t109 -10h314q38 0 56.5 -26.5t18.5 -64.5q0 -70 -25.5 -95.5t-61.5 -25.5h-325q-136 0 -198 41t-84 116h-25q-30 -59 -89 -93.5t-172 -49t-307 -14.5zM467 -640l-145 144
l125 126l-122 121l145 146l121 -122l122 123l145 -146l-125 -124l122 -123l-145 -144l-121 120zM588 -472l102 103l-98 97l-102 -101z" />
    <glyph glyph-name="uniFB5B" unicode="&#x680;" arabic-form="final" 
d="M529 -6q-194 0 -307.5 40t-162.5 130t-49 240q0 77 14.5 148t29.5 113h178q-13 -88 -20 -140t-7 -114q0 -78 29 -123t99.5 -63.5t195.5 -18.5q139 0 218.5 7t117 22t48.5 39.5t12 60.5l10 332l187 4l-6 -352q-1 -76 18 -94.5t66 -18.5q38 0 56.5 -19t18.5 -72
q0 -70 -25.5 -95.5t-61.5 -25.5q-75 0 -125 34.5t-74 121.5l-25 -1q-16 -23 -36.5 -49.5t-63 -50.5t-122 -39.5t-213.5 -15.5zM457 -640l-145 144l125 126l-122 121l145 146l121 -122l122 123l145 -146l-125 -124l122 -123l-145 -144l-121 120zM578 -472l102 103l-98 97
l-102 -101z" />
    <glyph glyph-name="uni0681.init" unicode="&#x681;" 
d="M-20 -6q-24 0 -37 25t-13 86q0 101 70 101q116 0 216.5 22.5t202.5 66.5t222 106q61 32 104 54t82 39v18q-47 3 -90 12.5t-111 31.5q-81 27 -147 52t-143 25q-55 0 -95.5 -11t-100.5 -40l-8 161q47 49 107 72t118 23q74 0 137.5 -26t134.5 -61.5t164 -63.5
q64 -19 116 -27.5t107.5 -10t129.5 0.5l-3 -201q-50 -12 -93 -26t-92.5 -35.5t-119.5 -59.5q-121 -65 -221.5 -125t-196.5 -107t-202 -74.5t-238 -27.5zM366 908l-11 120l94 24v13q-72 25 -72 121q0 85 60 130.5t154 45.5q42 0 72 -7t55 -17l-6 -114q-54 7 -94 7
q-66 0 -90.5 -16t-24.5 -55q0 -38 18 -52t54 -14q29 0 82.5 9.5t98.5 17.5l14 -125z" />
    <glyph glyph-name="uni0681.medi" unicode="&#x681;" 
d="M1188 -6q-138 0 -214 37t-110 109t-46 177q-116 -64 -214 -122t-192 -103.5t-198.5 -71.5t-233.5 -26q-24 0 -37 25t-13 86q0 101 70 101q116 0 216.5 22.5t202.5 66.5t222 106q61 32 104 54t82 39v18q-47 3 -90 12.5t-111 31.5q-81 27 -147 52t-143 25q-55 0 -95.5 -11
t-100.5 -40l-8 161q47 49 107 72t118 23q74 0 137.5 -26t134.5 -61.5t164 -63.5q64 -19 116 -27.5t107.5 -10t129.5 0.5l-3 -201q-43 -11 -80.5 -22t-78.5 -28q8 -75 27 -117t62.5 -59t126.5 -17q38 0 56.5 -12.5t18.5 -58.5q0 -85 -25.5 -113t-61.5 -28zM366 908l-11 120
l94 24v13q-72 25 -72 121q0 85 60 130.5t154 45.5q42 0 72 -7t55 -17l-6 -114q-54 7 -94 7q-66 0 -90.5 -16t-24.5 -55q0 -38 18 -52t54 -14q29 0 82.5 9.5t98.5 17.5l14 -125z" />
    <glyph glyph-name="uni0681.fina" unicode="&#x681;" 
d="M1188 -6q-140 0 -217.5 37t-111.5 127t-45 247q-279 -84 -432.5 -203t-153.5 -321q0 -110 45 -180t154.5 -102.5t300.5 -32.5q122 0 228 17t190 30l-2 -175q-45 -19 -117.5 -36.5t-158 -29t-170.5 -11.5q-337 0 -500.5 109t-163.5 371q0 203 93.5 338.5t266.5 222.5
t410 146v14q-44 4 -91.5 14.5t-103.5 26.5q-79 23 -141.5 40.5t-131.5 17.5q-70 0 -131.5 -25t-114.5 -63l-18 153q59 77 136.5 108.5t155.5 31.5q74 0 139 -23t135.5 -55t162.5 -60q63 -19 114 -27.5t105 -10t126 0.5l-3 -201q-87 -20 -160 -38q8 -114 24.5 -166t60.5 -66
t132 -14q38 0 56.5 -12.5t18.5 -58.5q0 -85 -25.5 -113t-61.5 -28zM366 938l-11 120l94 24v13q-72 25 -72 121q0 85 60 130.5t154 45.5q42 0 72 -7t55 -17l-6 -114q-54 7 -94 7q-66 0 -90.5 -16t-24.5 -55q0 -38 18 -52t54 -14q29 0 82.5 9.5t98.5 17.5l14 -125z" />
    <glyph glyph-name="uni0682.init" unicode="&#x682;" 
d="M-20 -6q-24 0 -37 25t-13 86q0 101 70 101q116 0 216.5 22.5t202.5 66.5t222 106q61 32 104 54t82 39v18q-47 3 -90 12.5t-111 31.5q-81 27 -147 52t-143 25q-55 0 -95.5 -11t-100.5 -40l-8 161q47 49 107 72t118 23q74 0 137.5 -26t134.5 -61.5t164 -63.5
q64 -19 116 -27.5t107.5 -10t129.5 0.5l-3 -201q-50 -12 -93 -26t-92.5 -35.5t-119.5 -59.5q-121 -65 -221.5 -125t-196.5 -107t-202 -74.5t-238 -27.5zM563 907l-155 155l124 124l-121 121l155 155l155 -155l-124 -124l121 -121z" />
    <glyph glyph-name="uni0682.medi" unicode="&#x682;" 
d="M1188 -6q-138 0 -214 37t-110 109t-46 177q-116 -64 -214 -122t-192 -103.5t-198.5 -71.5t-233.5 -26q-24 0 -37 25t-13 86q0 101 70 101q116 0 216.5 22.5t202.5 66.5t222 106q61 32 104 54t82 39v18q-47 3 -90 12.5t-111 31.5q-81 27 -147 52t-143 25q-55 0 -95.5 -11
t-100.5 -40l-8 161q47 49 107 72t118 23q74 0 137.5 -26t134.5 -61.5t164 -63.5q64 -19 116 -27.5t107.5 -10t129.5 0.5l-3 -201q-43 -11 -80.5 -22t-78.5 -28q8 -75 27 -117t62.5 -59t126.5 -17q38 0 56.5 -12.5t18.5 -58.5q0 -85 -25.5 -113t-61.5 -28zM563 907l-155 155
l124 124l-121 121l155 155l155 -155l-124 -124l121 -121z" />
    <glyph glyph-name="uni0682.fina" unicode="&#x682;" 
d="M1188 -6q-140 0 -217.5 37t-111.5 127t-45 247q-279 -84 -432.5 -203t-153.5 -321q0 -110 45 -180t154.5 -102.5t300.5 -32.5q122 0 228 17t190 30l-2 -175q-45 -19 -117.5 -36.5t-158 -29t-170.5 -11.5q-337 0 -500.5 109t-163.5 371q0 203 93.5 338.5t266.5 222.5
t410 146v14q-44 4 -91.5 14.5t-103.5 26.5q-79 23 -141.5 40.5t-131.5 17.5q-70 0 -131.5 -25t-114.5 -63l-18 153q59 77 136.5 108.5t155.5 31.5q74 0 139 -23t135.5 -55t162.5 -60q63 -19 114 -27.5t105 -10t126 0.5l-3 -201q-87 -20 -160 -38q8 -114 24.5 -166t60.5 -66
t132 -14q38 0 56.5 -12.5t18.5 -58.5q0 -85 -25.5 -113t-61.5 -28zM563 937l-155 155l124 124l-121 121l155 155l155 -155l-124 -124l121 -121z" />
    <glyph glyph-name="uniFB78" unicode="&#x683;" arabic-form="initial" 
d="M-20 -6q-24 0 -37 25t-13 86q0 101 70 101q116 0 216.5 22.5t202.5 66.5t222 106q61 32 104 54t82 39v18q-47 3 -90 12.5t-111 31.5q-81 27 -147 52t-143 25q-55 0 -95.5 -11t-100.5 -40l-8 161q47 49 107 72t118 23q74 0 137.5 -26t134.5 -61.5t164 -63.5
q64 -19 116 -27.5t107.5 -10t129.5 0.5l-3 -201q-50 -12 -93 -26t-92.5 -35.5t-119.5 -59.5q-121 -65 -221.5 -125t-196.5 -107t-202 -74.5t-238 -27.5zM805 -325l-125 125l-125 -125l-155 154l155 156l125 -126l125 126l155 -156z" />
    <glyph glyph-name="uniFB79" unicode="&#x683;" arabic-form="medial" 
d="M1188 -6q-138 0 -214 37t-110 109t-46 177q-116 -64 -214 -122t-192 -103.5t-198.5 -71.5t-233.5 -26q-24 0 -37 25t-13 86q0 101 70 101q116 0 216.5 22.5t202.5 66.5t222 106q61 32 104 54t82 39v18q-47 3 -90 12.5t-111 31.5q-81 27 -147 52t-143 25q-55 0 -95.5 -11
t-100.5 -40l-8 161q47 49 107 72t118 23q74 0 137.5 -26t134.5 -61.5t164 -63.5q64 -19 116 -27.5t107.5 -10t129.5 0.5l-3 -201q-43 -11 -80.5 -22t-78.5 -28q8 -75 27 -117t62.5 -59t126.5 -17q38 0 56.5 -12.5t18.5 -58.5q0 -85 -25.5 -113t-61.5 -28zM805 -325l-125 125
l-125 -125l-155 154l155 156l125 -126l125 126l155 -156z" />
    <glyph glyph-name="uniFB77" unicode="&#x683;" arabic-form="final" 
d="M1188 -6q-140 0 -217.5 37t-111.5 127t-45 247q-279 -84 -432.5 -203t-153.5 -321q0 -110 45 -180t154.5 -102.5t300.5 -32.5q122 0 228 17t190 30l-2 -175q-45 -19 -117.5 -36.5t-158 -29t-170.5 -11.5q-337 0 -500.5 109t-163.5 371q0 203 93.5 338.5t266.5 222.5
t410 146v14q-44 4 -91.5 14.5t-103.5 26.5q-79 23 -141.5 40.5t-131.5 17.5q-70 0 -131.5 -25t-114.5 -63l-18 153q59 77 136.5 108.5t155.5 31.5q74 0 139 -23t135.5 -55t162.5 -60q63 -19 114 -27.5t105 -10t126 0.5l-3 -201q-87 -20 -160 -38q8 -114 24.5 -166t60.5 -66
t132 -14q38 0 56.5 -12.5t18.5 -58.5q0 -85 -25.5 -113t-61.5 -28zM737 -227l-125 125l-125 -125l-155 154l155 156l125 -126l125 126l155 -156z" />
    <glyph glyph-name="uniFB74" unicode="&#x684;" arabic-form="initial" 
d="M-20 -6q-24 0 -37 25t-13 86q0 101 70 101q116 0 216.5 22.5t202.5 66.5t222 106q61 32 104 54t82 39v18q-47 3 -90 12.5t-111 31.5q-81 27 -147 52t-143 25q-55 0 -95.5 -11t-100.5 -40l-8 161q47 49 107 72t118 23q74 0 137.5 -26t134.5 -61.5t164 -63.5
q64 -19 116 -27.5t107.5 -10t129.5 0.5l-3 -201q-50 -12 -93 -26t-92.5 -35.5t-119.5 -59.5q-121 -65 -221.5 -125t-196.5 -107t-202 -74.5t-238 -27.5zM677 -552l-155 155l124 124l-121 121l155 155l155 -155l-124 -124l121 -121z" />
    <glyph glyph-name="uniFB75" unicode="&#x684;" arabic-form="medial" 
d="M1188 -6q-138 0 -214 37t-110 109t-46 177q-116 -64 -214 -122t-192 -103.5t-198.5 -71.5t-233.5 -26q-24 0 -37 25t-13 86q0 101 70 101q116 0 216.5 22.5t202.5 66.5t222 106q61 32 104 54t82 39v18q-47 3 -90 12.5t-111 31.5q-81 27 -147 52t-143 25q-55 0 -95.5 -11
t-100.5 -40l-8 161q47 49 107 72t118 23q74 0 137.5 -26t134.5 -61.5t164 -63.5q64 -19 116 -27.5t107.5 -10t129.5 0.5l-3 -201q-43 -11 -80.5 -22t-78.5 -28q8 -75 27 -117t62.5 -59t126.5 -17q38 0 56.5 -12.5t18.5 -58.5q0 -85 -25.5 -113t-61.5 -28zM677 -552l-155 155
l124 124l-121 121l155 155l155 -155l-124 -124l121 -121z" />
    <glyph glyph-name="uniFB73" unicode="&#x684;" arabic-form="final" 
d="M698 -639q-337 0 -500.5 109t-163.5 371q0 203 93.5 338.5t266.5 222.5t410 146v14q-44 4 -91.5 14.5t-103.5 26.5q-79 23 -141.5 40.5t-131.5 17.5q-70 0 -131.5 -25t-114.5 -63l-18 153q59 77 136.5 108.5t155.5 31.5q74 0 139 -23t135.5 -55t162.5 -60
q63 -19 114 -27.5t105 -10t126 0.5l-3 -201q-87 -20 -160 -38q8 -114 24.5 -166t60.5 -66t132 -14q38 0 56.5 -12.5t18.5 -58.5q0 -85 -25.5 -113t-61.5 -28q-140 0 -217.5 37t-111.5 127t-45 247q-279 -84 -432.5 -203t-153.5 -321q0 -110 45 -180t154.5 -102.5
t300.5 -32.5q122 0 228 17t190 30l-2 -175q-45 -19 -117.5 -36.5t-158 -29t-170.5 -11.5zM606 -370l-155 155l144 144l-141 141l155 155l154 -155l-143 -144l140 -141z" />
    <glyph glyph-name="uni0685.init" unicode="&#x685;" 
d="M-20 -6q-24 0 -37 25t-13 86q0 101 70 101q116 0 216.5 22.5t202.5 66.5t222 106q61 32 104 54t82 39v18q-47 3 -90 12.5t-111 31.5q-81 27 -147 52t-143 25q-55 0 -95.5 -11t-100.5 -40l-8 161q47 49 107 72t118 23q74 0 137.5 -26t134.5 -61.5t164 -63.5
q64 -19 116 -27.5t107.5 -10t129.5 0.5l-3 -201q-50 -12 -93 -26t-92.5 -35.5t-119.5 -59.5q-121 -65 -221.5 -125t-196.5 -107t-202 -74.5t-238 -27.5zM691 924l-125 125l-125 -125l-155 154l155 156l125 -126l125 126l155 -156zM567 1184l-148 148l148 149l148 -149z" />
    <glyph glyph-name="uni0685.medi" unicode="&#x685;" 
d="M1188 -6q-138 0 -214 37t-110 109t-46 177q-116 -64 -214 -122t-192 -103.5t-198.5 -71.5t-233.5 -26q-24 0 -37 25t-13 86q0 101 70 101q116 0 216.5 22.5t202.5 66.5t222 106q61 32 104 54t82 39v18q-47 3 -90 12.5t-111 31.5q-81 27 -147 52t-143 25q-55 0 -95.5 -11
t-100.5 -40l-8 161q47 49 107 72t118 23q74 0 137.5 -26t134.5 -61.5t164 -63.5q64 -19 116 -27.5t107.5 -10t129.5 0.5l-3 -201q-43 -11 -80.5 -22t-78.5 -28q8 -75 27 -117t62.5 -59t126.5 -17q38 0 56.5 -12.5t18.5 -58.5q0 -85 -25.5 -113t-61.5 -28zM691 924l-125 125
l-125 -125l-155 154l155 156l125 -126l125 126l155 -156zM567 1184l-148 148l148 149l148 -149z" />
    <glyph glyph-name="uni0685.fina" unicode="&#x685;" 
d="M1188 -6q-140 0 -217.5 37t-111.5 127t-45 247q-279 -84 -432.5 -203t-153.5 -321q0 -110 45 -180t154.5 -102.5t300.5 -32.5q122 0 228 17t190 30l-2 -175q-45 -19 -117.5 -36.5t-158 -29t-170.5 -11.5q-337 0 -500.5 109t-163.5 371q0 203 93.5 338.5t266.5 222.5
t410 146v14q-44 4 -91.5 14.5t-103.5 26.5q-79 23 -141.5 40.5t-131.5 17.5q-70 0 -131.5 -25t-114.5 -63l-18 153q59 77 136.5 108.5t155.5 31.5q74 0 139 -23t135.5 -55t162.5 -60q63 -19 114 -27.5t105 -10t126 0.5l-3 -201q-87 -20 -160 -38q8 -114 24.5 -166t60.5 -66
t132 -14q38 0 56.5 -12.5t18.5 -58.5q0 -85 -25.5 -113t-61.5 -28zM691 954l-125 125l-125 -125l-155 154l155 156l125 -126l125 126l155 -156zM567 1214l-148 148l148 149l148 -149z" />
    <glyph glyph-name="uniFB7C" unicode="&#x686;" arabic-form="initial" 
d="M-20 -6q-24 0 -37 25t-13 86q0 101 70 101q116 0 216.5 22.5t202.5 66.5t222 106q61 32 104 54t82 39v18q-47 3 -90 12.5t-111 31.5q-81 27 -147 52t-143 25q-55 0 -95.5 -11t-100.5 -40l-8 161q47 49 107 72t118 23q74 0 137.5 -26t134.5 -61.5t164 -63.5
q64 -19 116 -27.5t107.5 -10t129.5 0.5l-3 -201q-50 -12 -93 -26t-92.5 -35.5t-119.5 -59.5q-121 -65 -221.5 -125t-196.5 -107t-202 -74.5t-238 -27.5zM807 23l155 -154l-155 -156l-125 126l-125 -126l-155 156l155 154l125 -125zM683 -237l148 -148l-148 -149l-148 149z
" />
    <glyph glyph-name="uniFB7D" unicode="&#x686;" arabic-form="medial" 
d="M1188 -6q-138 0 -214 37t-110 109t-46 177q-116 -64 -214 -122t-192 -103.5t-198.5 -71.5t-233.5 -26q-24 0 -37 25t-13 86q0 101 70 101q116 0 216.5 22.5t202.5 66.5t222 106q61 32 104 54t82 39v18q-47 3 -90 12.5t-111 31.5q-81 27 -147 52t-143 25q-55 0 -95.5 -11
t-100.5 -40l-8 161q47 49 107 72t118 23q74 0 137.5 -26t134.5 -61.5t164 -63.5q64 -19 116 -27.5t107.5 -10t129.5 0.5l-3 -201q-43 -11 -80.5 -22t-78.5 -28q8 -75 27 -117t62.5 -59t126.5 -17q38 0 56.5 -12.5t18.5 -58.5q0 -85 -25.5 -113t-61.5 -28zM807 23l155 -154
l-155 -156l-125 126l-125 -126l-155 156l155 154l125 -125zM683 -237l148 -148l-148 -149l-148 149z" />
    <glyph glyph-name="uniFB7B" unicode="&#x686;" arabic-form="final" 
d="M1188 -6q-140 0 -217.5 37t-111.5 127t-45 247q-279 -84 -432.5 -203t-153.5 -321q0 -110 45 -180t154.5 -102.5t300.5 -32.5q122 0 228 17t190 30l-2 -175q-45 -19 -117.5 -36.5t-158 -29t-170.5 -11.5q-337 0 -500.5 109t-163.5 371q0 203 93.5 338.5t266.5 222.5
t410 146v14q-44 4 -91.5 14.5t-103.5 26.5q-79 23 -141.5 40.5t-131.5 17.5q-70 0 -131.5 -25t-114.5 -63l-18 153q59 77 136.5 108.5t155.5 31.5q74 0 139 -23t135.5 -55t162.5 -60q63 -19 114 -27.5t105 -10t126 0.5l-3 -201q-87 -20 -160 -38q8 -114 24.5 -166t60.5 -66
t132 -14q38 0 56.5 -12.5t18.5 -58.5q0 -85 -25.5 -113t-61.5 -28zM730 148l145 -146l-145 -146l-118 118l-117 -118l-146 146l146 146l117 -118zM613 -97l139 -139l-139 -140l-139 140z" />
    <glyph glyph-name="uniFB80" unicode="&#x687;" arabic-form="initial" 
d="M-20 -6q-24 0 -37 25t-13 86q0 101 70 101q116 0 216.5 22.5t202.5 66.5t222 106q61 32 104 54t82 39v18q-47 3 -90 12.5t-111 31.5q-81 27 -147 52t-143 25q-55 0 -95.5 -11t-100.5 -40l-8 161q47 49 107 72t118 23q74 0 137.5 -26t134.5 -61.5t164 -63.5
q64 -19 116 -27.5t107.5 -10t129.5 0.5l-3 -201q-50 -12 -93 -26t-92.5 -35.5t-119.5 -59.5q-121 -65 -221.5 -125t-196.5 -107t-202 -74.5t-238 -27.5zM557 -540l-145 144l125 126l-122 121l145 146l121 -122l122 123l145 -146l-125 -124l122 -123l-145 -144l-121 120z
M678 -372l102 103l-98 97l-102 -101z" />
    <glyph glyph-name="uniFB81" unicode="&#x687;" arabic-form="medial" 
d="M1188 -6q-138 0 -214 37t-110 109t-46 177q-116 -64 -214 -122t-192 -103.5t-198.5 -71.5t-233.5 -26q-24 0 -37 25t-13 86q0 101 70 101q116 0 216.5 22.5t202.5 66.5t222 106q61 32 104 54t82 39v18q-47 3 -90 12.5t-111 31.5q-81 27 -147 52t-143 25q-55 0 -95.5 -11
t-100.5 -40l-8 161q47 49 107 72t118 23q74 0 137.5 -26t134.5 -61.5t164 -63.5q64 -19 116 -27.5t107.5 -10t129.5 0.5l-3 -201q-43 -11 -80.5 -22t-78.5 -28q8 -75 27 -117t62.5 -59t126.5 -17q38 0 56.5 -12.5t18.5 -58.5q0 -85 -25.5 -113t-61.5 -28zM557 -540l-145 144
l125 126l-122 121l145 146l121 -122l122 123l145 -146l-125 -124l122 -123l-145 -144l-121 120zM678 -372l102 103l-98 97l-102 -101z" />
    <glyph glyph-name="uniFB7F" unicode="&#x687;" arabic-form="final" 
d="M1188 -6q-140 0 -217.5 37t-111.5 127t-45 247q-279 -84 -432.5 -203t-153.5 -321q0 -110 45 -180t154.5 -102.5t300.5 -32.5q122 0 228 17t190 30l-2 -175q-45 -19 -117.5 -36.5t-158 -29t-170.5 -11.5q-337 0 -500.5 109t-163.5 371q0 203 93.5 338.5t266.5 222.5
t410 146v14q-44 4 -91.5 14.5t-103.5 26.5q-79 23 -141.5 40.5t-131.5 17.5q-70 0 -131.5 -25t-114.5 -63l-18 153q59 77 136.5 108.5t155.5 31.5q74 0 139 -23t135.5 -55t162.5 -60q63 -19 114 -27.5t105 -10t126 0.5l-3 -201q-87 -20 -160 -38q8 -114 24.5 -166t60.5 -66
t132 -14q38 0 56.5 -12.5t18.5 -58.5q0 -85 -25.5 -113t-61.5 -28zM491 -332l-145 144l125 126l-122 121l145 146l122 -122l122 123l145 -146l-125 -124l122 -123l-145 -144l-121 121zM613 -164l101 103l-97 98l-102 -102z" />
    <glyph glyph-name="uniFB89" unicode="&#x688;" arabic-form="final" 
d="M458 -6q-70 0 -143 6.5t-142 25.5l18 200q70 -13 132 -20t135 -7q81 0 160.5 16.5t158.5 58.5l-231 629l192 64l207 -547q30 -79 60 -126t75.5 -67.5t119.5 -20.5q38 0 56.5 -16t18.5 -77q0 -70 -25.5 -94.5t-61.5 -24.5q-112 1 -185.5 25.5t-127.5 94.5
q-81 -60 -191 -90t-226 -30zM619 1208q-69 0 -132.5 7.5t-110.5 16.5l-5 120q16 -1 41.5 -3.5t54.5 -5.5l-8 333h118l3 -104q1 -44 -23 -81l9 -6q40 55 83.5 86t89.5 31q68 0 117.5 -58t49.5 -145q0 -99 -69 -145t-218 -46zM578 1335q31 -2 50 -2q84 0 116 11.5t32 45.5
q0 31 -16.5 55t-46.5 24q-31 0 -63 -32t-72 -102z" />
    <glyph glyph-name="uni0689.fina" unicode="&#x689;" 
d="M458 -6q-70 0 -143 6.5t-142 25.5l18 200q70 -13 132 -20t135 -7q81 0 160.5 16.5t158.5 58.5l-231 629l192 64l207 -547q30 -79 60 -126t75.5 -67.5t119.5 -20.5q38 0 56.5 -16t18.5 -77q0 -70 -25.5 -94.5t-61.5 -24.5q-112 1 -185.5 25.5t-127.5 94.5
q-81 -60 -191 -90t-226 -30zM498 -244q-76 0 -124 46t-48 125q0 78 49.5 124.5t122.5 46.5q74 0 123.5 -44.5t49.5 -126.5q0 -81 -49.5 -126t-123.5 -45zM498 -130q58 0 58 57t-57 57q-26 0 -43 -15.5t-17 -41.5q0 -28 17.5 -42.5t41.5 -14.5z" />
    <glyph glyph-name="uni068A.fina" unicode="&#x68a;" 
d="M458 -6q-70 0 -143 6.5t-142 25.5l18 200q70 -13 132 -20t135 -7q81 0 160.5 16.5t158.5 58.5l-231 629l192 64l207 -547q30 -79 60 -126t75.5 -67.5t119.5 -20.5q38 0 56.5 -16t18.5 -77q0 -70 -25.5 -94.5t-61.5 -24.5q-112 1 -185.5 25.5t-127.5 94.5
q-81 -60 -191 -90t-226 -30zM560 -429l-161 161l161 162l161 -162z" />
    <glyph glyph-name="uni068B.fina" unicode="&#x68b;" 
d="M458 -6q-70 0 -143 6.5t-142 25.5l18 200q70 -13 132 -20t135 -7q81 0 160.5 16.5t158.5 58.5l-231 629l192 64l207 -547q30 -79 60 -126t75.5 -67.5t119.5 -20.5q38 0 56.5 -16t18.5 -77q0 -70 -25.5 -94.5t-61.5 -24.5q-112 1 -185.5 25.5t-127.5 94.5
q-81 -60 -191 -90t-226 -30zM560 -429l-161 161l161 162l161 -162zM619 1208q-69 0 -132.5 7.5t-110.5 16.5l-5 120q16 -1 41.5 -3.5t54.5 -5.5l-8 333h118l3 -104q1 -44 -23 -81l9 -6q40 55 83.5 86t89.5 31q68 0 117.5 -58t49.5 -145q0 -99 -69 -145t-218 -46zM578 1335
q31 -2 50 -2q84 0 116 11.5t32 45.5q0 31 -16.5 55t-46.5 24q-31 0 -63 -32t-72 -102z" />
    <glyph glyph-name="uniFB85" unicode="&#x68c;" arabic-form="final" 
d="M458 -6q-70 0 -143 6.5t-142 25.5l18 200q70 -13 132 -20t135 -7q81 0 160.5 16.5t158.5 58.5l-231 629l192 64l207 -547q30 -79 60 -126t75.5 -67.5t119.5 -20.5q38 0 56.5 -16t18.5 -77q0 -70 -25.5 -94.5t-61.5 -24.5q-112 1 -185.5 25.5t-127.5 94.5
q-81 -60 -191 -90t-226 -30zM761 1074l-125 125l-125 -125l-155 154l155 156l125 -126l125 126l155 -156z" />
    <glyph glyph-name="uniFB83" unicode="&#x68d;" arabic-form="final" 
d="M458 -6q-70 0 -143 6.5t-142 25.5l18 200q70 -13 132 -20t135 -7q81 0 160.5 16.5t158.5 58.5l-231 629l192 64l207 -547q30 -79 60 -126t75.5 -67.5t119.5 -20.5q38 0 56.5 -16t18.5 -77q0 -70 -25.5 -94.5t-61.5 -24.5q-112 1 -185.5 25.5t-127.5 94.5
q-81 -60 -191 -90t-226 -30zM685 -425l-125 125l-125 -125l-155 154l155 156l125 -126l125 126l155 -156z" />
    <glyph glyph-name="uniFB87" unicode="&#x68e;" arabic-form="final" 
d="M458 -6q-70 0 -143 6.5t-142 25.5l18 200q70 -13 132 -20t135 -7q81 0 160.5 16.5t158.5 58.5l-231 629l192 64l207 -547q30 -79 60 -126t75.5 -67.5t119.5 -20.5q38 0 56.5 -16t18.5 -77q0 -70 -25.5 -94.5t-61.5 -24.5q-112 1 -185.5 25.5t-127.5 94.5
q-81 -60 -191 -90t-226 -30zM761 1074l-125 125l-125 -125l-155 154l155 156l125 -126l125 126l155 -156zM637 1334l-148 148l148 149l148 -149z" />
    <glyph glyph-name="uni068F.fina" unicode="&#x68f;" 
d="M458 -6q-70 0 -143 6.5t-142 25.5l18 200q70 -13 132 -20t135 -7q81 0 160.5 16.5t158.5 58.5l-231 629l192 64l207 -547q30 -79 60 -126t75.5 -67.5t119.5 -20.5q38 0 56.5 -16t18.5 -77q0 -70 -25.5 -94.5t-61.5 -24.5q-112 1 -185.5 25.5t-127.5 94.5
q-81 -60 -191 -90t-226 -30zM761 1630l155 -154l-155 -156l-125 126l-125 -126l-155 156l155 154l125 -125zM637 1370l148 -148l-148 -149l-148 149z" />
    <glyph glyph-name="uni0690.fina" unicode="&#x690;" 
d="M458 -6q-70 0 -143 6.5t-142 25.5l18 200q70 -13 132 -20t135 -7q81 0 160.5 16.5t158.5 58.5l-231 629l192 64l207 -547q30 -79 60 -126t75.5 -67.5t119.5 -20.5q38 0 56.5 -16t18.5 -77q0 -70 -25.5 -94.5t-61.5 -24.5q-112 1 -185.5 25.5t-127.5 94.5
q-81 -60 -191 -90t-226 -30zM522 1072l-133 133l114 116l-112 111l134 135l111 -112l112 113l133 -135l-114 -114l112 -113l-134 -133l-111 111zM633 1227l94 95l-90 89l-94 -93z" />
    <glyph glyph-name="uniFB8D" unicode="&#x691;" arabic-form="final" 
d="M917 23q-32 -250 -200.5 -372t-434.5 -122q-80 0 -131 6t-106 20l13 192q57 -7 97 -11.5t107 -4.5q215 0 336 92t121 278q0 64 -48.5 171t-107.5 231l186 91q59 -121 91 -196.5t63 -122.5q17 -25 46 -40t87.5 -22t163.5 -7q38 0 56.5 -19t18.5 -72q0 -70 -25.5 -95.5
t-61.5 -25.5q-100 0 -162 5.5t-109 23.5zM610 819q-69 0 -132.5 7.5t-110.5 16.5l-5 120q16 -1 41.5 -3.5t54.5 -5.5l-8 333h118l3 -104q1 -44 -23 -81l9 -6q40 55 83.5 86t89.5 31q68 0 117.5 -58t49.5 -145q0 -99 -69 -145t-218 -46zM569 946q31 -2 50 -2q84 0 116 11.5
t32 45.5q0 31 -16.5 55t-46.5 24q-31 0 -63 -32t-72 -102z" />
    <glyph glyph-name="uni0692.fina" unicode="&#x692;" 
d="M917 23q-32 -250 -200.5 -372t-434.5 -122q-80 0 -131 6t-106 20l13 192q57 -7 97 -11.5t107 -4.5q215 0 336 92t121 278q0 64 -48.5 171t-107.5 231l186 91q59 -121 91 -196.5t63 -122.5q17 -25 46 -40t87.5 -22t163.5 -7q38 0 56.5 -19t18.5 -72q0 -70 -25.5 -95.5
t-61.5 -25.5q-100 0 -162 5.5t-109 23.5zM570 693l-142 301l124 20l76 -194h10l72 194l122 -15l-135 -306h-127z" />
    <glyph glyph-name="uni0693.fina" unicode="&#x693;" 
d="M917 23q-32 -250 -200.5 -372t-434.5 -122q-80 0 -131 6t-106 20l13 192q57 -7 97 -11.5t107 -4.5q215 0 336 92t121 278q0 64 -48.5 171t-107.5 231l186 91q59 -121 91 -196.5t63 -122.5q17 -25 46 -40t87.5 -22t163.5 -7q38 0 56.5 -19t18.5 -72q0 -70 -25.5 -95.5
t-61.5 -25.5q-100 0 -162 5.5t-109 23.5zM596 -659q-76 0 -124 46t-48 125q0 78 49.5 124.5t122.5 46.5q74 0 123.5 -44.5t49.5 -126.5q0 -81 -49.5 -126t-123.5 -45zM596 -545q58 0 58 57t-57 57q-26 0 -43 -15.5t-17 -41.5q0 -28 17.5 -42.5t41.5 -14.5z" />
    <glyph glyph-name="uni0694.fina" unicode="&#x694;" 
d="M917 23q-32 -250 -200.5 -372t-434.5 -122q-80 0 -131 6t-106 20l13 192q57 -7 97 -11.5t107 -4.5q215 0 336 92t121 278q0 64 -48.5 171t-107.5 231l186 91q59 -121 91 -196.5t63 -122.5q17 -25 46 -40t87.5 -22t163.5 -7q38 0 56.5 -19t18.5 -72q0 -70 -25.5 -95.5
t-61.5 -25.5q-100 0 -162 5.5t-109 23.5zM335 -817l-155 155l155 155l155 -155z" />
    <glyph glyph-name="uni0695.fina" unicode="&#x695;" 
d="M917 23q-32 -250 -200.5 -372t-434.5 -122q-80 0 -131 6t-106 20l13 192q57 -7 97 -11.5t107 -4.5q215 0 336 92t121 278q0 64 -48.5 171t-107.5 231l186 91q59 -121 91 -196.5t63 -122.5q17 -25 46 -40t87.5 -22t163.5 -7q38 0 56.5 -19t18.5 -72q0 -70 -25.5 -95.5
t-61.5 -25.5q-100 0 -162 5.5t-109 23.5zM279 -809l-134 283l117 19l71 -182h9l68 182l115 -14l-127 -288h-119z" />
    <glyph glyph-name="uni0696.fina" unicode="&#x696;" 
d="M917 23q-32 -250 -200.5 -372t-434.5 -122q-80 0 -131 6t-106 20l13 192q57 -7 97 -11.5t107 -4.5q215 0 336 92t121 278q0 64 -48.5 171t-107.5 231l186 91q59 -121 91 -196.5t63 -122.5q17 -25 46 -40t87.5 -22t163.5 -7q38 0 56.5 -19t18.5 -72q0 -70 -25.5 -95.5
t-61.5 -25.5q-100 0 -162 5.5t-109 23.5zM430 2l-161 161l161 162l161 -162zM335 -817l-155 155l155 155l155 -155z" />
    <glyph glyph-name="uni0697.fina" unicode="&#x697;" 
d="M917 23q-32 -250 -200.5 -372t-434.5 -122q-80 0 -131 6t-106 20l13 192q57 -7 97 -11.5t107 -4.5q215 0 336 92t121 278q0 64 -48.5 171t-107.5 231l186 91q59 -121 91 -196.5t63 -122.5q17 -25 46 -40t87.5 -22t163.5 -7q38 0 56.5 -19t18.5 -72q0 -70 -25.5 -95.5
t-61.5 -25.5q-100 0 -162 5.5t-109 23.5zM755 685l-125 125l-125 -125l-155 154l155 156l125 -126l125 126l155 -156z" />
    <glyph glyph-name="uniFB8B" unicode="&#x698;" arabic-form="final" 
d="M917 23q-32 -250 -200.5 -372t-434.5 -122q-80 0 -131 6t-106 20l13 192q57 -7 97 -11.5t107 -4.5q215 0 336 92t121 278q0 64 -48.5 171t-107.5 231l186 91q59 -121 91 -196.5t63 -122.5q17 -25 46 -40t87.5 -22t163.5 -7q38 0 56.5 -19t18.5 -72q0 -70 -25.5 -95.5
t-61.5 -25.5q-100 0 -162 5.5t-109 23.5zM755 685l-125 125l-125 -125l-155 154l155 156l125 -126l125 126l155 -156zM631 945l-148 148l148 149l148 -149z" />
    <glyph glyph-name="uni0699.fina" unicode="&#x699;" 
d="M917 23q-32 -250 -200.5 -372t-434.5 -122q-80 0 -131 6t-106 20l13 192q57 -7 97 -11.5t107 -4.5q215 0 336 92t121 278q0 64 -48.5 171t-107.5 231l186 91q59 -121 91 -196.5t63 -122.5q17 -25 46 -40t87.5 -22t163.5 -7q38 0 56.5 -19t18.5 -72q0 -70 -25.5 -95.5
t-61.5 -25.5q-100 0 -162 5.5t-109 23.5zM516 683l-133 133l114 116l-112 111l134 135l111 -112l112 113l133 -135l-114 -114l112 -113l-134 -133l-111 111zM627 838l94 95l-90 89l-94 -93z" />
    <glyph glyph-name="uni069A.init" unicode="&#x69a;" 
d="M-12 -6l12 212q101 0 145 18t51 73q7 48 13 125.5t13 174.5l178 2q-5 -95 -10.5 -186t-16.5 -178q-2 -15 -4 -28q59 -20 111 -20q50 0 69.5 16.5t23.5 62.5q6 60 8 153t3 197l178 6q2 -104 1 -204t-9 -186l-4 -36q35 -9 76 -9q54 0 74.5 23t20.5 94t-11 150.5t-25 177.5
l181 21q20 -101 32 -192t12 -169q0 -151 -60 -224.5t-205 -73.5q-77 0 -125 19.5t-79 56.5h-16q-18 -39 -66.5 -57.5t-102.5 -18.5q-72 0 -122.5 16t-104.5 60h-23q-23 -39 -71.5 -57.5t-146.5 -18.5zM680 -429l-161 161l161 162l161 -162zM680 774l-161 161l161 162
l161 -162z" />
    <glyph glyph-name="uni069A.medi" unicode="&#x69a;" 
d="M456 -6q-72 0 -120 16t-101 60h-25q-31 -39 -81.5 -57.5t-140.5 -18.5l12 212q101 0 145 18t51 73q7 48 13 125.5t13 174.5l178 2q-5 -95 -10.5 -186t-16.5 -178q-2 -14 -5 -28q60 -20 112 -20q50 0 69.5 16.5t23.5 62.5q6 60 8 153t3 197l178 6q2 -104 1 -204t-9 -186
q-2 -17 -4 -35q37 -10 76 -10q54 0 74 23t20 94t1.5 148t2.5 183l181 12q1 -75 1 -143.5t-1 -126.5v-49.5v-45.5q0 -46 17.5 -61t77.5 -15q38 0 56.5 -26.5t18.5 -64.5q0 -70 -25.5 -95.5t-61.5 -25.5q-55 0 -98 16t-70 60h-26q-19 -41 -61.5 -58.5t-97.5 -17.5
q-69 0 -113 20.5t-73 55.5h-24q-18 -39 -66.5 -57.5t-102.5 -18.5zM680 -429l-161 161l161 162l161 -162zM680 774l-161 161l161 162l161 -162z" />
    <glyph glyph-name="uni069A.fina" unicode="&#x69a;" 
d="M285 -357q-155 0 -215 98t-60 288q0 95 8.5 209.5t21.5 205.5h160q-5 -94 -9.5 -191.5t-4.5 -181.5q0 -134 19.5 -179t77.5 -45q40 0 62.5 22t32 79.5t9.5 164.5q0 113 -5 235.5t-13 242.5l169 10q8 -94 15 -207.5t8 -202.5q24 -4 54 -4q35 0 49 11.5t15 37.5
q4 59 1.5 164t-7.5 209l166 8q3 -67 6 -145t3 -152t-4 -128q25 -5 52 -5q37 0 50 18.5t13 76.5q0 71 -4.5 160t-10.5 193l165 5q5 -101 8.5 -190.5t3.5 -167.5q0 -50 17 -63t62 -13q38 0 56.5 -26.5t18.5 -64.5q0 -70 -25.5 -95.5t-61.5 -25.5q-61 0 -99.5 20t-60.5 56h-26
q-17 -40 -48 -58t-69 -18q-41 0 -76.5 15.5t-61.5 59.5h-24q-30 -75 -122 -75q-26 0 -45 2q-13 -185 -72 -269t-199 -84zM853 -429l-161 161l161 162l161 -162zM761 764l-161 161l161 162l161 -162z" />
    <glyph glyph-name="uni069B.init" unicode="&#x69b;" 
d="M-12 -6l12 212q101 0 145 18t51 73q7 48 13 125.5t13 174.5l178 2q-5 -95 -10.5 -186t-16.5 -178q-2 -15 -4 -28q59 -20 111 -20q50 0 69.5 16.5t23.5 62.5q6 60 8 153t3 197l178 6q2 -104 1 -204t-9 -186l-4 -36q35 -9 76 -9q54 0 74.5 23t20.5 94t-11 150.5t-25 177.5
l181 21q20 -101 32 -192t12 -169q0 -151 -60 -224.5t-205 -73.5q-77 0 -125 19.5t-79 56.5h-16q-18 -39 -66.5 -57.5t-102.5 -18.5q-72 0 -122.5 16t-104.5 60h-23q-23 -39 -71.5 -57.5t-146.5 -18.5zM807 -77l155 -154l-155 -156l-125 126l-125 -126l-155 156l155 154
l125 -125zM683 -337l148 -148l-148 -149l-148 149z" />
    <glyph glyph-name="uni069B.medi" unicode="&#x69b;" 
d="M456 -6q-72 0 -120 16t-101 60h-25q-31 -39 -81.5 -57.5t-140.5 -18.5l12 212q101 0 145 18t51 73q7 48 13 125.5t13 174.5l178 2q-5 -95 -10.5 -186t-16.5 -178q-2 -14 -5 -28q60 -20 112 -20q50 0 69.5 16.5t23.5 62.5q6 60 8 153t3 197l178 6q2 -104 1 -204t-9 -186
q-2 -17 -4 -35q37 -10 76 -10q54 0 74 23t20 94t1.5 148t2.5 183l181 12q1 -75 1 -143.5t-1 -126.5v-49.5v-45.5q0 -46 17.5 -61t77.5 -15q38 0 56.5 -26.5t18.5 -64.5q0 -70 -25.5 -95.5t-61.5 -25.5q-55 0 -98 16t-70 60h-26q-19 -41 -61.5 -58.5t-97.5 -17.5
q-69 0 -113 20.5t-73 55.5h-24q-18 -39 -66.5 -57.5t-102.5 -18.5zM807 -77l155 -154l-155 -156l-125 126l-125 -126l-155 156l155 154l125 -125zM683 -337l148 -148l-148 -149l-148 149z" />
    <glyph glyph-name="uni069B.fina" unicode="&#x69b;" 
d="M285 -357q-155 0 -215 98t-60 288q0 95 8.5 209.5t21.5 205.5h160q-5 -94 -9.5 -191.5t-4.5 -181.5q0 -134 19.5 -179t77.5 -45q40 0 62.5 22t32 79.5t9.5 164.5q0 113 -5 235.5t-13 242.5l169 10q8 -94 15 -207.5t8 -202.5q24 -4 54 -4q35 0 49 11.5t15 37.5
q4 59 1.5 164t-7.5 209l166 8q3 -67 6 -145t3 -152t-4 -128q25 -5 52 -5q37 0 50 18.5t13 76.5q0 71 -4.5 160t-10.5 193l165 5q5 -101 8.5 -190.5t3.5 -167.5q0 -50 17 -63t62 -13q38 0 56.5 -26.5t18.5 -64.5q0 -70 -25.5 -95.5t-61.5 -25.5q-61 0 -99.5 20t-60.5 56h-26
q-17 -40 -48 -58t-69 -18q-41 0 -76.5 15.5t-61.5 59.5h-24q-30 -75 -122 -75q-26 0 -45 2q-13 -185 -72 -269t-199 -84zM980 -77l155 -154l-155 -156l-125 126l-125 -126l-155 156l155 154l125 -125zM856 -337l148 -148l-148 -149l-148 149z" />
    <glyph glyph-name="seenThreedotsbelowthreedotsar.init" unicode="&#x69c;" 
d="M-12 -6l12 212q101 0 145 18t51 73q7 48 13 125.5t13 174.5l178 2q-5 -95 -10.5 -186t-16.5 -178q-2 -15 -4 -28q59 -20 111 -20q50 0 69.5 16.5t23.5 62.5q6 60 8 153t3 197l178 6q2 -104 1 -204t-9 -186l-4 -36q35 -9 76 -9q54 0 74.5 23t20.5 94t-11 150.5t-25 177.5
l181 21q20 -101 32 -192t12 -169q0 -151 -60 -224.5t-205 -73.5q-77 0 -125 19.5t-79 56.5h-16q-18 -39 -66.5 -57.5t-102.5 -18.5q-72 0 -122.5 16t-104.5 60h-23q-23 -39 -71.5 -57.5t-146.5 -18.5zM805 745l-125 125l-125 -125l-155 154l155 156l125 -126l125 126
l155 -156zM681 1005l-148 148l148 149l148 -149zM807 -77l155 -154l-155 -156l-125 126l-125 -126l-155 156l155 154l125 -125zM683 -337l148 -148l-148 -149l-148 149z" />
    <glyph glyph-name="seenThreedotsbelowthreedotsar.medi" unicode="&#x69c;" 
d="M456 -6q-72 0 -120 16t-101 60h-25q-31 -39 -81.5 -57.5t-140.5 -18.5l12 212q101 0 145 18t51 73q7 48 13 125.5t13 174.5l178 2q-5 -95 -10.5 -186t-16.5 -178q-2 -14 -5 -28q60 -20 112 -20q50 0 69.5 16.5t23.5 62.5q6 60 8 153t3 197l178 6q2 -104 1 -204t-9 -186
q-2 -17 -4 -35q37 -10 76 -10q54 0 74 23t20 94t1.5 148t2.5 183l181 12q1 -75 1 -143.5t-1 -126.5v-49.5v-45.5q0 -46 17.5 -61t77.5 -15q38 0 56.5 -26.5t18.5 -64.5q0 -70 -25.5 -95.5t-61.5 -25.5q-55 0 -98 16t-70 60h-26q-19 -41 -61.5 -58.5t-97.5 -17.5
q-69 0 -113 20.5t-73 55.5h-24q-18 -39 -66.5 -57.5t-102.5 -18.5zM805 745l-125 125l-125 -125l-155 154l155 156l125 -126l125 126l155 -156zM681 1005l-148 148l148 149l148 -149zM807 -77l155 -154l-155 -156l-125 126l-125 -126l-155 156l155 154l125 -125zM683 -337
l148 -148l-148 -149l-148 149z" />
    <glyph glyph-name="seenThreedotsbelowthreedotsar.fina" unicode="&#x69c;" 
d="M285 -357q-155 0 -215 98t-60 288q0 95 8.5 209.5t21.5 205.5h160q-5 -94 -9.5 -191.5t-4.5 -181.5q0 -134 19.5 -179t77.5 -45q40 0 62.5 22t32 79.5t9.5 164.5q0 113 -5 235.5t-13 242.5l169 10q8 -94 15 -207.5t8 -202.5q24 -4 54 -4q35 0 49 11.5t15 37.5
q4 59 1.5 164t-7.5 209l166 8q3 -67 6 -145t3 -152t-4 -128q25 -5 52 -5q37 0 50 18.5t13 76.5q0 71 -4.5 160t-10.5 193l165 5q5 -101 8.5 -190.5t3.5 -167.5q0 -50 17 -63t62 -13q38 0 56.5 -26.5t18.5 -64.5q0 -70 -25.5 -95.5t-61.5 -25.5q-61 0 -99.5 20t-60.5 56h-26
q-17 -40 -48 -58t-69 -18q-41 0 -76.5 15.5t-61.5 59.5h-24q-30 -75 -122 -75q-26 0 -45 2q-13 -185 -72 -269t-199 -84zM886 745l-125 125l-125 -125l-155 154l155 156l125 -126l125 126l155 -156zM762 1005l-148 148l148 149l148 -149zM980 -77l155 -154l-155 -156
l-125 126l-125 -126l-155 156l155 154l125 -125zM856 -337l148 -148l-148 -149l-148 149z" />
    <glyph glyph-name="uni069D.init" unicode="&#x69d;" 
d="M614 -6q-137 0 -216.5 5t-120.5 24.5t-63 61.5h-25q-27 -49 -75 -70t-126 -21l12 212q40 0 58 17.5t24.5 80t9.5 195.5l154 2q-2 -86 -6 -155t-12 -123q12 -2 24 -3q90 180 183.5 319.5t188.5 219t187 79.5q84 0 161 -53t126.5 -156.5t49.5 -253.5q0 -113 -47 -199
t-163 -134t-324 -48zM436 208q75 -2 196 -2q117 0 185 14t99.5 39t40.5 58.5t9 71.5q0 58 -24 111.5t-63 88t-85 34.5q-72 0 -160.5 -107t-197.5 -308zM775 -425l-125 125l-125 -125l-155 154l155 156l125 -126l125 126l155 -156z" />
    <glyph glyph-name="uni069D.medi" unicode="&#x69d;" 
d="M1189 -7q-72 0 -111 17t-61 62h-19q-62 -37 -156.5 -57.5t-227.5 -20.5q-137 0 -216.5 5t-120.5 24.5t-63 61.5h-25q-27 -49 -75 -70t-126 -21l12 212q40 0 58 17.5t24.5 80t9.5 195.5l154 2q-2 -86 -6 -155t-12 -123q12 -2 24 -3q90 180 183.5 319.5t188.5 219t187 79.5
q84 0 161 -53t126.5 -156.5t49.5 -253.5q0 -46 -7 -87t-22 -78q20 -3 39.5 -4t41.5 -1q42 0 61 -19t19 -70q0 -123 -91 -123zM436 208q75 -2 196 -2q117 0 185 14t99.5 39t40.5 58.5t9 71.5q0 58 -24 111.5t-63 88t-85 34.5q-72 0 -160.5 -107t-197.5 -308zM775 -425
l-125 125l-125 -125l-155 154l155 156l125 -126l125 126l155 -156z" />
    <glyph glyph-name="uni069D.fina" unicode="&#x69d;" 
d="M1189 -6q-49 0 -72 16.5t-37 60.5q-93 -78 -320 -78q-57 0 -111 4.5t-102 15.5q-12 -203 -73 -286.5t-210 -83.5q-103 0 -158 43.5t-75.5 129.5t-20.5 213q0 95 8.5 209t21.5 205h160q-6 -94 -10 -191t-4 -181q0 -134 15.5 -179t73.5 -45q40 0 62 18t31 74.5t9 173.5
q0 76 -2 136t-6 122t-10 142l172 9q5 -74 10 -137.5t8 -125.5q92 306 179 441.5t196 135.5q75 0 132.5 -68.5t89.5 -174.5t32 -219q0 -100 -18 -167q19 -1 40 -1q47 0 63.5 -19.5t16.5 -70.5q0 -122 -91 -122zM693 205q43 -2 90 -2q98 0 144 13t59 48t13 100q0 63 -14 123
t-36.5 98.5t-49.5 38.5q-26 0 -54.5 -33.5t-65 -124t-86.5 -261.5zM945 -425l-125 125l-125 -125l-155 154l155 156l125 -126l125 126l155 -156z" />
    <glyph glyph-name="uni069E.init" unicode="&#x69e;" 
d="M614 -6q-137 0 -216.5 5t-120.5 24.5t-63 61.5h-25q-27 -49 -75 -70t-126 -21l12 212q40 0 58 17.5t24.5 80t9.5 195.5l154 2q-2 -86 -6 -155t-12 -123q12 -2 24 -3q90 180 183.5 319.5t188.5 219t187 79.5q84 0 161 -53t126.5 -156.5t49.5 -253.5q0 -113 -47 -199
t-163 -134t-324 -48zM436 208q75 -2 196 -2q117 0 185 14t99.5 39t40.5 58.5t9 71.5q0 58 -24 111.5t-63 88t-85 34.5q-72 0 -160.5 -107t-197.5 -308zM905 955l-125 125l-125 -125l-155 154l155 156l125 -126l125 126l155 -156zM781 1215l-148 148l148 149l148 -149z" />
    <glyph glyph-name="uni069E.medi" unicode="&#x69e;" 
d="M1189 -7q-72 0 -111 17t-61 62h-19q-62 -37 -156.5 -57.5t-227.5 -20.5q-137 0 -216.5 5t-120.5 24.5t-63 61.5h-25q-27 -49 -75 -70t-126 -21l12 212q40 0 58 17.5t24.5 80t9.5 195.5l154 2q-2 -86 -6 -155t-12 -123q12 -2 24 -3q90 180 183.5 319.5t188.5 219t187 79.5
q84 0 161 -53t126.5 -156.5t49.5 -253.5q0 -46 -7 -87t-22 -78q20 -3 39.5 -4t41.5 -1q42 0 61 -19t19 -70q0 -123 -91 -123zM436 208q75 -2 196 -2q117 0 185 14t99.5 39t40.5 58.5t9 71.5q0 58 -24 111.5t-63 88t-85 34.5q-72 0 -160.5 -107t-197.5 -308zM905 955
l-125 125l-125 -125l-155 154l155 156l125 -126l125 126l155 -156zM781 1215l-148 148l148 149l148 -149z" />
    <glyph glyph-name="uni069E.fina" unicode="&#x69e;" 
d="M1189 -6q-49 0 -72 16.5t-37 60.5q-93 -78 -320 -78q-57 0 -111 4.5t-102 15.5q-12 -203 -73 -286.5t-210 -83.5q-103 0 -158 43.5t-75.5 129.5t-20.5 213q0 95 8.5 209t21.5 205h160q-6 -94 -10 -191t-4 -181q0 -134 15.5 -179t73.5 -45q40 0 62 18t31 74.5t9 173.5
q0 76 -2 136t-6 122t-10 142l172 9q5 -74 10 -137.5t8 -125.5q92 306 179 441.5t196 135.5q75 0 132.5 -68.5t89.5 -174.5t32 -219q0 -100 -18 -167q19 -1 40 -1q47 0 63.5 -19.5t16.5 -70.5q0 -122 -91 -122zM693 205q43 -2 90 -2q98 0 144 13t59 48t13 100q0 63 -14 123
t-36.5 98.5t-49.5 38.5q-26 0 -54.5 -33.5t-65 -124t-86.5 -261.5zM1005 965l-125 125l-125 -125l-155 154l155 156l125 -126l125 126l155 -156zM881 1225l-148 148l148 149l148 -149z" />
    <glyph glyph-name="uni069F.init" unicode="&#x69f;" 
d="M-12 -6l12 212h133q18 28 33 51l-16 1163h206l9 -686q1 -65 -9.5 -115t-36.5 -103l14 -10q118 165 218.5 248.5t216.5 83.5q102 0 188.5 -53t139 -154t52.5 -246q0 -128 -56 -215.5t-195.5 -131.5t-390.5 -44h-518zM326 206h201q189 0 282 19.5t123.5 56t30.5 86.5
q0 111 -57.5 187.5t-158.5 76.5q-70 0 -136 -56t-135.5 -152.5t-149.5 -217.5zM885 935l-125 125l-125 -125l-155 154l155 156l125 -126l125 126l155 -156zM761 1195l-148 148l148 149l148 -149z" />
    <glyph glyph-name="uni069F.medi" unicode="&#x69f;" 
d="M1189 -6q-79 0 -124.5 16.5t-67.5 61.5h-18q-75 -39 -190.5 -58.5t-282.5 -19.5h-518l12 212h133q18 28 33 51l-16 1163h206l9 -686q1 -65 -9.5 -115t-36.5 -103l14 -10q118 165 218.5 248.5t216.5 83.5q102 0 188.5 -53t139 -154t52.5 -246q0 -50 -7.5 -93.5
t-24.5 -80.5q21 -3 41 -4t43 -1q42 0 61 -19.5t19 -70.5q0 -122 -91 -122zM326 206h201q189 0 282 19.5t123.5 56t30.5 86.5q0 111 -57.5 187.5t-158.5 76.5q-70 0 -136 -56t-135.5 -152.5t-149.5 -217.5zM885 935l-125 125l-125 -125l-155 154l155 156l125 -126l125 126
l155 -156zM761 1195l-148 148l148 149l148 -149z" />
    <glyph glyph-name="uni069F.fina" unicode="&#x69f;" 
d="M1189 -6q-79 0 -124.5 16.5t-67.5 61.5h-18q-75 -39 -190.5 -58.5t-282.5 -19.5q-130 0 -251.5 7t-251.5 44l16 186q65 -6 124 -10q12 19 23 36l-16 1163h206l9 -686q1 -65 -9.5 -115t-36.5 -103l14 -10q118 165 218.5 248.5t216.5 83.5q102 0 188.5 -53t139 -154
t52.5 -246q0 -50 -7.5 -93.5t-24.5 -80.5q21 -3 41 -4t43 -1q42 0 61 -19.5t19 -70.5q0 -122 -91 -122zM329 210q98 -4 198 -4q189 0 282 19.5t123.5 56t30.5 86.5q0 111 -57.5 187.5t-158.5 76.5q-69 0 -135 -55.5t-135 -151t-148 -215.5zM885 935l-125 125l-125 -125
l-155 154l155 156l125 -126l125 126l155 -156zM761 1195l-148 148l148 149l148 -149z" />
    <glyph glyph-name="uni06A0.init" unicode="&#x6a0;" 
d="M-17 -6l17 212q139 0 222 1t161 4v20q-46 22 -76 74t-30 143q0 172 107.5 259.5t288.5 87.5q71 0 148.5 -17t141.5 -45l-17 -172q-55 12 -111 21t-122 9q-114 0 -171.5 -40.5t-57.5 -138.5q0 -75 21 -111.5t69.5 -47.5t128.5 -11q55 0 145.5 11t198.5 30l19 -188
q-168 -49 -353.5 -70t-371.5 -26t-358 -5zM796 895l-125 125l-125 -125l-155 154l155 156l125 -126l125 126l155 -156zM672 1155l-148 148l148 149l148 -149z" />
    <glyph glyph-name="uni06A0.medi" unicode="&#x6a0;" 
d="M-16 -6l16 212q208 0 390 30q-43 44 -88 95t-107 120v215q88 33 201 58.5t228 25.5q392 0 392 -261q0 -80 -46.5 -149.5t-125.5 -125.5q63 -5 151.5 -6.5t206.5 -1.5q79 0 98.5 -20.5t19.5 -76.5q0 -62 -26.5 -88.5t-107.5 -26.5q-155 0 -267 6.5t-195 26t-151 57.5
q-133 -44 -285.5 -67t-303.5 -23zM621 294q84 31 133 70.5t49 86.5q0 38 -38.5 62.5t-151.5 24.5q-59 0 -113 -7.5t-106 -19.5q77 -78 128 -128.5t99 -88.5zM735 865l-125 125l-125 -125l-155 154l155 156l125 -126l125 126l155 -156zM611 1125l-148 148l148 149l148 -149z
" />
    <glyph glyph-name="uni06A0.fina" unicode="&#x6a0;" 
d="M610 -639q-259 0 -381 86t-122 262q0 128 87 230.5t269 226.5q-67 61 -124 124.5t-144 160.5v215q88 33 201 58.5t228 25.5q391 0 391 -255q0 -77 -42 -144t-135 -137q65 -5 154.5 -6.5t209.5 -1.5q79 0 98.5 -20.5t19.5 -76.5q0 -62 -26.5 -88.5t-107.5 -26.5
q-212 0 -345 13t-229 58q-157 -102 -234 -174.5t-77 -155.5q0 -91 69.5 -130t253.5 -39q137 0 253.5 16.5t188.5 30.5l-2 -175q-79 -31 -205.5 -54t-248.5 -23zM638 280q91 60 128 97t37 74q0 38 -38.5 62.5t-151.5 24.5q-59 0 -113 -7.5t-106 -19.5q84 -85 137.5 -137.5
t106.5 -93.5zM735 865l-125 125l-125 -125l-155 154l155 156l125 -126l125 126l155 -156zM611 1125l-148 148l148 149l148 -149z" />
    <glyph glyph-name="uni06A1.init" unicode="&#x6a1;" 
d="M-17 -6l16 212h139.5h120.5q138 -1 229 0t152 7t110 21q44 13 64 40.5t24 114.5l-26 -1q-22 -31 -68 -50t-123 -19q-140 0 -202 59t-62 204q0 103 38.5 190t108 139.5t161.5 52.5q111 0 187 -64.5t115.5 -176t39.5 -252.5q0 -154 -43 -262.5t-149 -151.5
q-124 -47 -311 -55t-470 -8h-25.5h-25.5zM838 525q-10 125 -57.5 176t-114.5 51t-100 -44.5t-33 -103.5q0 -57 22.5 -80.5t98.5 -23.5q58 0 100 6t84 19z" />
    <glyph glyph-name="uni06A1.medi" unicode="&#x6a1;" 
d="M-16 -6l16 212q203 0 340 9q-68 96 -68 246q0 158 89 259t239 101q135 0 224.5 -90.5t89.5 -257.5q0 -163 -75 -257q72 -5 162 -7.5t201 -2.5q56 0 82 -22t26 -78q0 -63 -33 -87.5t-92 -24.5q-188 0 -340.5 13.5t-266.5 49.5q-118 -37 -269.5 -50t-324.5 -13zM604 256
q64 26 89.5 78.5t25.5 114.5q0 79 -33 119.5t-90 40.5q-59 0 -94 -39.5t-35 -119.5q0 -73 29.5 -120t107.5 -74z" />
    <glyph glyph-name="uni06A1.fina" unicode="&#x6a1;" 
d="M459 -6q-159 0 -257.5 37.5t-144.5 125t-46 237.5q0 77 14 153t30 118h178q-14 -96 -20.5 -151t-6.5 -117q0 -78 22.5 -119.5t81.5 -57t169 -15.5q43 0 80 2q-33 48 -51 111t-18 143q0 158 89 259t239 101q135 0 224.5 -90.5t89.5 -257.5q0 -168 -82 -264q65 -3 152 -3
q56 0 82 -22t26 -78q0 -63 -33 -87.5t-92 -24.5q-109 0 -212 11.5t-191 42.5q-79 -27 -160.5 -40.5t-162.5 -13.5zM808 251q2 1 3 1q71 24 98.5 74.5t27.5 122.5q0 79 -33 119.5t-90 40.5q-59 0 -94 -39.5t-35 -119.5q0 -148 123 -199z" />
    <glyph glyph-name="fehDotMovedbelowar.init" unicode="&#x6a2;" 
d="M-17 -6l16 212h139.5h120.5q138 -1 229 0t152 7t110 21q44 13 64 40.5t24 114.5l-26 -1q-22 -31 -68 -50t-123 -19q-140 0 -202 59t-62 204q0 103 38.5 190t108 139.5t161.5 52.5q111 0 187 -64.5t115.5 -176t39.5 -252.5q0 -154 -43 -262.5t-149 -151.5
q-124 -47 -311 -55t-470 -8h-25.5h-25.5zM838 525q-10 125 -57.5 176t-114.5 51t-100 -44.5t-33 -103.5q0 -57 22.5 -80.5t98.5 -23.5q58 0 100 6t84 19zM713 -429l-161 161l161 162l161 -162z" />
    <glyph glyph-name="fehDotMovedbelowar.medi" unicode="&#x6a2;" 
d="M-16 -6l16 212q203 0 340 9q-68 96 -68 246q0 158 89 259t239 101q135 0 224.5 -90.5t89.5 -257.5q0 -163 -75 -257q72 -5 162 -7.5t201 -2.5q56 0 82 -22t26 -78q0 -63 -33 -87.5t-92 -24.5q-188 0 -340.5 13.5t-266.5 49.5q-118 -37 -269.5 -50t-324.5 -13zM604 256
q64 26 89.5 78.5t25.5 114.5q0 79 -33 119.5t-90 40.5q-59 0 -94 -39.5t-35 -119.5q0 -73 29.5 -120t107.5 -74zM583 -429l-161 161l161 162l161 -162z" />
    <glyph glyph-name="fehDotMovedbelowar.fina" unicode="&#x6a2;" 
d="M459 -6q-159 0 -257.5 37.5t-144.5 125t-46 237.5q0 77 14 153t30 118h178q-14 -96 -20.5 -151t-6.5 -117q0 -78 22.5 -119.5t81.5 -57t169 -15.5q43 0 80 2q-33 48 -51 111t-18 143q0 158 89 259t239 101q135 0 224.5 -90.5t89.5 -257.5q0 -168 -82 -264q65 -3 152 -3
q56 0 82 -22t26 -78q0 -63 -33 -87.5t-92 -24.5q-109 0 -212 11.5t-191 42.5q-79 -27 -160.5 -40.5t-162.5 -13.5zM808 251q2 1 3 1q71 24 98.5 74.5t27.5 122.5q0 79 -33 119.5t-90 40.5q-59 0 -94 -39.5t-35 -119.5q0 -148 123 -199zM799 -429l-161 161l161 162l161 -162z
" />
    <glyph glyph-name="uni06A3.init" unicode="&#x6a3;" 
d="M-17 -6l16 212h139.5h120.5q138 -1 229 0t152 7t110 21q44 13 64 40.5t24 114.5l-26 -1q-22 -31 -68 -50t-123 -19q-140 0 -202 59t-62 204q0 103 38.5 190t108 139.5t161.5 52.5q111 0 187 -64.5t115.5 -176t39.5 -252.5q0 -154 -43 -262.5t-149 -151.5
q-124 -47 -311 -55t-470 -8h-25.5h-25.5zM838 525q-10 125 -57.5 176t-114.5 51t-100 -44.5t-33 -103.5q0 -57 22.5 -80.5t98.5 -23.5q58 0 100 6t84 19zM665 1071l-161 161l161 162l161 -162zM713 -429l-161 161l161 162l161 -162z" />
    <glyph glyph-name="uni06A3.medi" unicode="&#x6a3;" 
d="M-16 -6l16 212q203 0 340 9q-68 96 -68 246q0 158 89 259t239 101q135 0 224.5 -90.5t89.5 -257.5q0 -163 -75 -257q72 -5 162 -7.5t201 -2.5q56 0 82 -22t26 -78q0 -63 -33 -87.5t-92 -24.5q-188 0 -340.5 13.5t-266.5 49.5q-118 -37 -269.5 -50t-324.5 -13zM604 256
q64 26 89.5 78.5t25.5 114.5q0 79 -33 119.5t-90 40.5q-59 0 -94 -39.5t-35 -119.5q0 -73 29.5 -120t107.5 -74zM601 928l-161 161l161 162l161 -162zM583 -429l-161 161l161 162l161 -162z" />
    <glyph glyph-name="uni06A3.fina" unicode="&#x6a3;" 
d="M459 -6q-159 0 -257.5 37.5t-144.5 125t-46 237.5q0 77 14 153t30 118h178q-14 -96 -20.5 -151t-6.5 -117q0 -78 22.5 -119.5t81.5 -57t169 -15.5q43 0 80 2q-33 48 -51 111t-18 143q0 158 89 259t239 101q135 0 224.5 -90.5t89.5 -257.5q0 -168 -82 -264q65 -3 152 -3
q56 0 82 -22t26 -78q0 -63 -33 -87.5t-92 -24.5q-109 0 -212 11.5t-191 42.5q-79 -27 -160.5 -40.5t-162.5 -13.5zM808 251q2 1 3 1q71 24 98.5 74.5t27.5 122.5q0 79 -33 119.5t-90 40.5q-59 0 -94 -39.5t-35 -119.5q0 -148 123 -199zM821 928l-161 161l161 162l161 -162z
M799 -429l-161 161l161 162l161 -162z" />
    <glyph glyph-name="uniFB6C" unicode="&#x6a4;" arabic-form="initial" 
d="M-17 -6l16 212h139.5h120.5q138 -1 229 0t152 7t110 21q44 13 64 40.5t24 114.5l-26 -1q-22 -31 -68 -50t-123 -19q-140 0 -202 59t-62 204q0 103 38.5 190t108 139.5t161.5 52.5q111 0 187 -64.5t115.5 -176t39.5 -252.5q0 -154 -43 -262.5t-149 -151.5
q-124 -47 -311 -55t-470 -8h-25.5h-25.5zM838 525q-10 125 -57.5 176t-114.5 51t-100 -44.5t-33 -103.5q0 -57 22.5 -80.5t98.5 -23.5q58 0 100 6t84 19zM790 1052l-125 125l-125 -125l-155 154l155 156l125 -126l125 126l155 -156zM666 1312l-148 148l148 149l148 -149z
" />
    <glyph glyph-name="uniFB6D" unicode="&#x6a4;" arabic-form="medial" 
d="M-16 -6l16 212q203 0 340 9q-68 96 -68 246q0 158 89 259t239 101q135 0 224.5 -90.5t89.5 -257.5q0 -163 -75 -257q72 -5 162 -7.5t201 -2.5q56 0 82 -22t26 -78q0 -63 -33 -87.5t-92 -24.5q-188 0 -340.5 13.5t-266.5 49.5q-118 -37 -269.5 -50t-324.5 -13zM604 256
q64 26 89.5 78.5t25.5 114.5q0 79 -33 119.5t-90 40.5q-59 0 -94 -39.5t-35 -119.5q0 -73 29.5 -120t107.5 -74zM726 909l-125 125l-125 -125l-155 154l155 156l125 -126l125 126l155 -156zM602 1169l-148 148l148 149l148 -149z" />
    <glyph glyph-name="uniFB6B" unicode="&#x6a4;" arabic-form="final" 
d="M459 -6q-159 0 -257.5 37.5t-144.5 125t-46 237.5q0 77 14 153t30 118h178q-14 -96 -20.5 -151t-6.5 -117q0 -78 22.5 -119.5t81.5 -57t169 -15.5q43 0 80 2q-33 48 -51 111t-18 143q0 158 89 259t239 101q135 0 224.5 -90.5t89.5 -257.5q0 -168 -82 -264q65 -3 152 -3
q56 0 82 -22t26 -78q0 -63 -33 -87.5t-92 -24.5q-109 0 -212 11.5t-191 42.5q-79 -27 -160.5 -40.5t-162.5 -13.5zM808 251q2 1 3 1q71 24 98.5 74.5t27.5 122.5q0 79 -33 119.5t-90 40.5q-59 0 -94 -39.5t-35 -119.5q0 -148 123 -199zM946 909l-125 125l-125 -125l-155 154
l155 156l125 -126l125 126l155 -156zM822 1169l-148 148l148 149l148 -149z" />
    <glyph glyph-name="uni06A5.init" unicode="&#x6a5;" 
d="M-17 -6l16 212h139.5h120.5q138 -1 229 0t152 7t110 21q44 13 64 40.5t24 114.5l-26 -1q-22 -31 -68 -50t-123 -19q-140 0 -202 59t-62 204q0 103 38.5 190t108 139.5t161.5 52.5q111 0 187 -64.5t115.5 -176t39.5 -252.5q0 -154 -43 -262.5t-149 -151.5
q-124 -47 -311 -55t-470 -8h-25.5h-25.5zM838 525q-10 125 -57.5 176t-114.5 51t-100 -44.5t-33 -103.5q0 -57 22.5 -80.5t98.5 -23.5q58 0 100 6t84 19zM738 -83l155 -154l-155 -156l-125 126l-125 -126l-155 156l155 154l125 -125zM614 -343l148 -148l-148 -149l-148 149z
" />
    <glyph glyph-name="uni06A5.medi" unicode="&#x6a5;" 
d="M-16 -6l16 212q203 0 340 9q-68 96 -68 246q0 158 89 259t239 101q135 0 224.5 -90.5t89.5 -257.5q0 -163 -75 -257q72 -5 162 -7.5t201 -2.5q56 0 82 -22t26 -78q0 -63 -33 -87.5t-92 -24.5q-188 0 -340.5 13.5t-266.5 49.5q-118 -37 -269.5 -50t-324.5 -13zM604 256
q64 26 89.5 78.5t25.5 114.5q0 79 -33 119.5t-90 40.5q-59 0 -94 -39.5t-35 -119.5q0 -73 29.5 -120t107.5 -74zM710 -77l155 -154l-155 -156l-125 126l-125 -126l-155 156l155 154l125 -125zM586 -337l148 -148l-148 -149l-148 149z" />
    <glyph glyph-name="uni06A5.fina" unicode="&#x6a5;" 
d="M459 -6q-159 0 -257.5 37.5t-144.5 125t-46 237.5q0 77 14 153t30 118h178q-14 -96 -20.5 -151t-6.5 -117q0 -78 22.5 -119.5t81.5 -57t169 -15.5q43 0 80 2q-33 48 -51 111t-18 143q0 158 89 259t239 101q135 0 224.5 -90.5t89.5 -257.5q0 -168 -82 -264q65 -3 152 -3
q56 0 82 -22t26 -78q0 -63 -33 -87.5t-92 -24.5q-109 0 -212 11.5t-191 42.5q-79 -27 -160.5 -40.5t-162.5 -13.5zM808 251q2 1 3 1q71 24 98.5 74.5t27.5 122.5q0 79 -33 119.5t-90 40.5q-59 0 -94 -39.5t-35 -119.5q0 -148 123 -199zM926 -77l155 -154l-155 -156l-125 126
l-125 -126l-155 156l155 154l125 -125zM802 -337l148 -148l-148 -149l-148 149z" />
    <glyph glyph-name="uniFB70" unicode="&#x6a6;" arabic-form="initial" 
d="M-17 -6l16 212h139.5h120.5q138 -1 229 0t152 7t110 21q44 13 64 40.5t24 114.5l-26 -1q-22 -31 -68 -50t-123 -19q-140 0 -202 59t-62 204q0 103 38.5 190t108 139.5t161.5 52.5q111 0 187 -64.5t115.5 -176t39.5 -252.5q0 -154 -43 -262.5t-149 -151.5
q-124 -47 -311 -55t-470 -8h-25.5h-25.5zM838 525q-10 125 -57.5 176t-114.5 51t-100 -44.5t-33 -103.5q0 -57 22.5 -80.5t98.5 -23.5q58 0 100 6t84 19zM551 1050l-133 133l114 116l-112 111l134 135l111 -112l112 113l133 -135l-114 -114l112 -113l-134 -133l-111 111z
M662 1205l94 95l-90 89l-94 -93z" />
    <glyph glyph-name="uniFB71" unicode="&#x6a6;" arabic-form="medial" 
d="M-16 -6l16 212q203 0 340 9q-68 96 -68 246q0 158 89 259t239 101q135 0 224.5 -90.5t89.5 -257.5q0 -163 -75 -257q72 -5 162 -7.5t201 -2.5q56 0 82 -22t26 -78q0 -63 -33 -87.5t-92 -24.5q-188 0 -340.5 13.5t-266.5 49.5q-118 -37 -269.5 -50t-324.5 -13zM604 256
q64 26 89.5 78.5t25.5 114.5q0 79 -33 119.5t-90 40.5q-59 0 -94 -39.5t-35 -119.5q0 -73 29.5 -120t107.5 -74zM487 907l-133 133l114 116l-112 111l134 135l111 -112l112 113l133 -135l-114 -114l112 -113l-134 -133l-111 111zM598 1062l94 95l-90 89l-94 -93z" />
    <glyph glyph-name="uniFB6F" unicode="&#x6a6;" arabic-form="final" 
d="M459 -6q-159 0 -257.5 37.5t-144.5 125t-46 237.5q0 77 14 153t30 118h178q-14 -96 -20.5 -151t-6.5 -117q0 -78 22.5 -119.5t81.5 -57t169 -15.5q43 0 80 2q-33 48 -51 111t-18 143q0 158 89 259t239 101q135 0 224.5 -90.5t89.5 -257.5q0 -168 -82 -264q65 -3 152 -3
q56 0 82 -22t26 -78q0 -63 -33 -87.5t-92 -24.5q-109 0 -212 11.5t-191 42.5q-79 -27 -160.5 -40.5t-162.5 -13.5zM808 251q2 1 3 1q71 24 98.5 74.5t27.5 122.5q0 79 -33 119.5t-90 40.5q-59 0 -94 -39.5t-35 -119.5q0 -148 123 -199zM707 907l-133 133l114 116l-112 111
l134 135l111 -112l112 113l133 -135l-114 -114l112 -113l-134 -133l-111 111zM818 1062l94 95l-90 89l-94 -93z" />
    <glyph glyph-name="uni06A7.init" unicode="&#x6a7;" 
d="M-17 -6l16 212h139.5h120.5q138 -1 229 0t152 7t110 21q44 13 64 40.5t24 114.5l-26 -1q-22 -31 -68 -50t-123 -19q-140 0 -202 59t-62 204q0 103 38.5 190t108 139.5t161.5 52.5q111 0 187 -64.5t115.5 -176t39.5 -252.5q0 -154 -43 -262.5t-149 -151.5
q-124 -47 -311 -55t-470 -8h-25.5h-25.5zM838 525q-10 125 -57.5 176t-114.5 51t-100 -44.5t-33 -103.5q0 -57 22.5 -80.5t98.5 -23.5q58 0 100 6t84 19zM665 1071l-161 161l161 162l161 -162z" />
    <glyph glyph-name="uni06A7.medi" unicode="&#x6a7;" 
d="M-16 -6l16 212q203 0 340 9q-68 96 -68 246q0 158 89 259t239 101q135 0 224.5 -90.5t89.5 -257.5q0 -163 -75 -257q72 -5 162 -7.5t201 -2.5q56 0 82 -22t26 -78q0 -63 -33 -87.5t-92 -24.5q-188 0 -340.5 13.5t-266.5 49.5q-118 -37 -269.5 -50t-324.5 -13zM604 256
q64 26 89.5 78.5t25.5 114.5q0 79 -33 119.5t-90 40.5q-59 0 -94 -39.5t-35 -119.5q0 -73 29.5 -120t107.5 -74zM601 928l-161 161l161 162l161 -162z" />
    <glyph glyph-name="uni06A7.fina" unicode="&#x6a7;" 
d="M578 -443q-292 0 -420 120t-128 353q0 95 13 190.5t35 178.5h178q-14 -104 -22.5 -181.5t-8.5 -155.5q0 -114 36 -179.5t117 -93t215 -27.5q119 0 192.5 14t116.5 50q31 27 48 67t24 98h-182q-102 0 -168 27t-98.5 95t-32.5 191q0 118 39 211.5t111 148t169 54.5
q173 0 256 -141t87 -371h45q50 0 67.5 -23.5t17.5 -79.5q0 -60 -18.5 -86t-77.5 -26h-45q-18 -142 -77 -238.5t-176.5 -146t-312.5 -49.5zM983 203q-3 163 -47 233t-123 70q-73 0 -108.5 -48.5t-35.5 -127.5q0 -86 30 -110t121 -24q40 0 81 2t82 5zM811 825l-161 161
l161 162l161 -162z" />
    <glyph glyph-name="uni06A8.init" unicode="&#x6a8;" 
d="M-17 -6l16 212h139.5h120.5q138 -1 229 0t152 7t110 21q44 13 64 40.5t24 114.5l-26 -1q-22 -31 -68 -50t-123 -19q-140 0 -202 59t-62 204q0 103 38.5 190t108 139.5t161.5 52.5q111 0 187 -64.5t115.5 -176t39.5 -252.5q0 -154 -43 -262.5t-149 -151.5
q-124 -47 -311 -55t-470 -8h-25.5h-25.5zM838 525q-10 125 -57.5 176t-114.5 51t-100 -44.5t-33 -103.5q0 -57 22.5 -80.5t98.5 -23.5q58 0 100 6t84 19zM790 1052l-125 125l-125 -125l-155 154l155 156l125 -126l125 126l155 -156zM666 1312l-148 148l148 149l148 -149z
" />
    <glyph glyph-name="uni06A8.medi" unicode="&#x6a8;" 
d="M-16 -6l16 212q203 0 340 9q-68 96 -68 246q0 158 89 259t239 101q135 0 224.5 -90.5t89.5 -257.5q0 -163 -75 -257q72 -5 162 -7.5t201 -2.5q56 0 82 -22t26 -78q0 -63 -33 -87.5t-92 -24.5q-188 0 -340.5 13.5t-266.5 49.5q-118 -37 -269.5 -50t-324.5 -13zM604 256
q64 26 89.5 78.5t25.5 114.5q0 79 -33 119.5t-90 40.5q-59 0 -94 -39.5t-35 -119.5q0 -73 29.5 -120t107.5 -74zM726 909l-125 125l-125 -125l-155 154l155 156l125 -126l125 126l155 -156zM602 1169l-148 148l148 149l148 -149z" />
    <glyph glyph-name="uni06A8.fina" unicode="&#x6a8;" 
d="M578 -443q-292 0 -420 120t-128 353q0 95 13 190.5t35 178.5h178q-14 -104 -22.5 -181.5t-8.5 -155.5q0 -114 36 -179.5t117 -93t215 -27.5q119 0 192.5 14t116.5 50q31 27 48 67t24 98h-182q-102 0 -168 27t-98.5 95t-32.5 191q0 118 39 211.5t111 148t169 54.5
q173 0 256 -141t87 -371h45q50 0 67.5 -23.5t17.5 -79.5q0 -60 -18.5 -86t-77.5 -26h-45q-18 -142 -77 -238.5t-176.5 -146t-312.5 -49.5zM983 203q-3 163 -47 233t-123 70q-73 0 -108.5 -48.5t-35.5 -127.5q0 -86 30 -110t121 -24q40 0 81 2t82 5zM936 806l-125 125
l-125 -125l-155 154l155 156l125 -126l125 126l155 -156zM812 1066l-148 148l148 149l148 -149z" />
    <glyph glyph-name="uniFB90" unicode="&#x6a9;" arabic-form="initial" 
d="M-12 -6l12 212h397q132 0 175 26t43 78q0 43 -34.5 100t-114 149.5t-213.5 243.5l16 186l720 454l5 -219l-552 -337q144 -151 226.5 -255t116.5 -181t34 -147q0 -163 -114 -236.5t-336 -73.5h-381z" />
    <glyph glyph-name="uniFB91" unicode="&#x6a9;" arabic-form="medial" 
d="M1188 -6q-178 0 -281 27t-179 100h-31q-20 -45 -58.5 -73t-110.5 -41t-194 -13h-346l12 212h343q97 0 151 4t80.5 17t39.5 39l-360 537l26 186l720 454l5 -219l-561 -342l323 -485q57 -85 111.5 -125.5t129.5 -53t192 -12.5q28 0 41.5 -27t13.5 -59q0 -74 -22 -100
t-45 -26z" />
    <glyph glyph-name="uniFB8F" unicode="&#x6a9;" arabic-form="final" 
d="M1188 -7q-99 0 -163 41.5t-129 136.5h-15q-41 -85 -144.5 -132t-294.5 -47q-225 0 -332.5 88t-107.5 290q0 69 7 128.5t24 127.5h170q-7 -60 -11 -97t-4 -90q0 -98 20.5 -148.5t83.5 -68.5t190 -18q130 0 208.5 32.5t110.5 83.5l-308 483l26 186l700 454l5 -219
l-544 -342l351 -559q44 -70 82.5 -94t86.5 -24q28 0 41.5 -25t13.5 -63q0 -71 -19 -97.5t-48 -26.5z" />
    <glyph glyph-name="uni06AA.init" unicode="&#x6aa;" 
d="M-11 -6l11 212h363q186 0 289.5 12t145.5 38t42 67q0 44 -39 60.5t-127 16.5h-154q-145 0 -215 32t-91.5 81.5t-21.5 100.5q0 79 54.5 158t175 169t319.5 201l7 -213q-213 -121 -295 -186.5t-82 -98.5q0 -25 32 -33.5t102 -8.5h145q199 0 281.5 -67.5t82.5 -201.5
q0 -105 -68 -181t-217.5 -117t-393.5 -41h-346z" />
    <glyph glyph-name="uni06AA.medi" unicode="&#x6aa;" 
d="M1189 -6q-133 0 -201 7t-97 24t-44 47h-15q-82 -38 -205 -58t-292 -20h-346l11 212h363q186 0 289.5 12t145.5 38t42 67q0 44 -39 60.5t-127 16.5h-154q-145 0 -215 32t-91.5 81.5t-21.5 100.5q0 79 54.5 158t175 169t319.5 201l7 -213q-213 -121 -295 -186.5t-82 -98.5
q0 -25 32 -33.5t102 -8.5h145q199 0 281.5 -67.5t82.5 -201.5q0 -69 -28 -124q66 -3 214 -3q42 0 61 -19.5t19 -70.5q0 -122 -91 -122z" />
    <glyph glyph-name="uni06AA.fina" unicode="&#x6aa;" 
d="M1189 -6q-72 0 -110.5 16.5t-61.5 61.5h-14q-81 -38 -204.5 -59t-293.5 -21q-180 0 -288 28.5t-156 100t-48 199.5q0 57 9 122.5t22 120.5h171q-5 -45 -10.5 -95.5t-5.5 -96.5q0 -73 24.5 -109t96.5 -47t213 -11q186 0 289.5 12.5t145.5 39t42 67.5q0 44 -39 60.5
t-127 16.5h-154q-145 0 -215 32t-91.5 81.5t-21.5 100.5q0 79 54.5 158t175 169t319.5 201l7 -213q-213 -121 -295 -186.5t-82 -98.5q0 -25 32 -33.5t102 -8.5h145q199 0 281.5 -67.5t82.5 -201.5q0 -71 -29 -126q21 -1 45 -1q42 0 61 -19.5t19 -70.5q0 -122 -91 -122z" />
    <glyph glyph-name="uni06AB.init" unicode="&#x6ab;" 
d="M-12 -6l12 212h397q132 0 175 26t43 78q0 43 -34.5 100t-114 149.5t-213.5 243.5l16 186l720 454l5 -219l-552 -337q144 -151 226.5 -255t116.5 -181t34 -147q0 -163 -114 -236.5t-336 -73.5h-381zM836 887q-76 0 -124 46t-48 125q0 78 49.5 124.5t122.5 46.5
q74 0 123.5 -44.5t49.5 -126.5q0 -81 -49.5 -126t-123.5 -45zM836 1001q58 0 58 57t-57 57q-26 0 -43 -15.5t-17 -41.5q0 -28 17.5 -42.5t41.5 -14.5z" />
    <glyph glyph-name="uni06AB.medi" unicode="&#x6ab;" 
d="M1188 -6q-178 0 -281 27t-179 100h-31q-20 -45 -58.5 -73t-110.5 -41t-194 -13h-346l12 212h343q97 0 151 4t80.5 17t39.5 39l-360 537l26 186l720 454l5 -219l-561 -342l323 -485q57 -85 111.5 -125.5t129.5 -53t192 -12.5q28 0 41.5 -27t13.5 -59q0 -74 -22 -100
t-45 -26zM853 887q-76 0 -124 46t-48 125q0 78 49.5 124.5t122.5 46.5q74 0 123.5 -44.5t49.5 -126.5q0 -81 -49.5 -126t-123.5 -45zM853 1001q58 0 58 57t-57 57q-26 0 -43 -15.5t-17 -41.5q0 -28 17.5 -42.5t41.5 -14.5z" />
    <glyph glyph-name="uni06AB.fina" unicode="&#x6ab;" 
d="M1188 -7q-99 0 -163 41.5t-129 136.5h-15q-41 -85 -144.5 -132t-294.5 -47q-225 0 -332.5 88t-107.5 290q0 69 7 128.5t24 127.5h170q-7 -60 -11 -97t-4 -90q0 -98 20.5 -148.5t83.5 -68.5t190 -18q130 0 208.5 32.5t110.5 83.5l-308 483l26 186l700 454l5 -219
l-544 -342l351 -559q44 -70 82.5 -94t86.5 -24q28 0 41.5 -25t13.5 -63q0 -71 -19 -97.5t-48 -26.5zM1071 887q-76 0 -124 46t-48 125q0 78 49.5 124.5t122.5 46.5q74 0 123.5 -44.5t49.5 -126.5q0 -81 -49.5 -126t-123.5 -45zM1071 1001q58 0 58 57t-57 57q-26 0 -43 -15.5
t-17 -41.5q0 -28 17.5 -42.5t41.5 -14.5z" />
    <glyph glyph-name="uni06AC.init" unicode="&#x6ac;" 
d="M-12 -6l12 212h397q132 0 175 26t43 78q0 43 -34.5 100t-114 149.5t-213.5 243.5l16 186l720 454l5 -219l-552 -337q144 -151 226.5 -255t116.5 -181t34 -147q0 -163 -114 -236.5t-336 -73.5h-381zM413 1212l-161 161l161 162l161 -162z" />
    <glyph glyph-name="uni06AC.medi" unicode="&#x6ac;" 
d="M1188 -6q-178 0 -281 27t-179 100h-31q-20 -45 -58.5 -73t-110.5 -41t-194 -13h-346l12 212h343q97 0 151 4t80.5 17t39.5 39l-360 537l26 186l720 454l5 -219l-561 -342l323 -485q57 -85 111.5 -125.5t129.5 -53t192 -12.5q28 0 41.5 -27t13.5 -59q0 -74 -22 -100
t-45 -26zM428 1212l-161 161l161 162l161 -162z" />
    <glyph glyph-name="uni06AC.fina" unicode="&#x6ac;" 
d="M505 -8q-180 0 -288 28.5t-156 100t-48 199.5q0 57 8.5 123.5t22.5 119.5h171q-7 -45 -11.5 -95.5t-4.5 -96.5q0 -58 18.5 -95t81.5 -54.5t194 -17.5q143 0 229 9t129.5 30t57.5 56.5t12 87.5l-27 1033h206l17 -1083v-11q1 -77 13.5 -98.5t69.5 -21.5q38 0 56.5 -19
t18.5 -72q0 -70 -25.5 -95.5t-61.5 -25.5q-143 0 -191 125h-17q-44 -66 -158.5 -96.5t-316.5 -30.5zM472 499q-44 0 -82.5 4t-65.5 10l-5 122q40 -7 75.5 -11t71.5 -4q51 0 68.5 5t17.5 13q0 11 -15 18.5t-62 33.5q-84 47 -84 119q0 53 65.5 116t222.5 91l7 -139
q-82 -12 -118 -26.5t-36 -25.5q0 -13 72 -53q58 -31 76 -59.5t18 -63.5q0 -52 -32.5 -85t-84.5 -49t-109 -16zM536 1064l-161 161l161 162l161 -162z" />
    <glyph glyph-name="uniFBD5" unicode="&#x6ad;" arabic-form="initial" 
d="M-12 -6l12 212h397q132 0 175 26t43 78q0 43 -34.5 100t-114 149.5t-213.5 243.5l16 186l720 454l5 -219l-552 -337q144 -151 226.5 -255t116.5 -181t34 -147q0 -163 -114 -236.5t-336 -73.5h-381zM525 1236l-124 123l124 125l124 -125zM317 1117l-124 124l124 125
l124 -125zM360 1379l-118 119l118 119l119 -119z" />
    <glyph glyph-name="uniFBD6" unicode="&#x6ad;" arabic-form="medial" 
d="M1188 -6q-178 0 -281 27t-179 100h-31q-20 -45 -58.5 -73t-110.5 -41t-194 -13h-346l12 212h343q97 0 151 4t80.5 17t39.5 39l-360 537l26 186l720 454l5 -219l-561 -342l323 -485q57 -85 111.5 -125.5t129.5 -53t192 -12.5q28 0 41.5 -27t13.5 -59q0 -74 -22 -100
t-45 -26zM540 1236l-124 123l124 125l124 -125zM332 1117l-124 124l124 125l124 -125zM375 1379l-118 119l118 119l119 -119z" />
    <glyph glyph-name="uniFBD4" unicode="&#x6ad;" arabic-form="final" 
d="M505 -8q-180 0 -288 28.5t-156 100t-48 199.5q0 57 8.5 123.5t22.5 119.5h171q-7 -45 -11.5 -95.5t-4.5 -96.5q0 -58 18.5 -95t81.5 -54.5t194 -17.5q143 0 229 9t129.5 30t57.5 56.5t12 87.5l-27 1033h206l17 -1083v-11q1 -77 13.5 -98.5t69.5 -21.5q38 0 56.5 -19
t18.5 -72q0 -70 -25.5 -95.5t-61.5 -25.5q-143 0 -191 125h-17q-44 -66 -158.5 -96.5t-316.5 -30.5zM472 499q-44 0 -82.5 4t-65.5 10l-5 122q40 -7 75.5 -11t71.5 -4q51 0 68.5 5t17.5 13q0 11 -15 18.5t-62 33.5q-84 47 -84 119q0 53 65.5 116t222.5 91l7 -139
q-82 -12 -118 -26.5t-36 -25.5q0 -13 72 -53q58 -31 76 -59.5t18 -63.5q0 -52 -32.5 -85t-84.5 -49t-109 -16zM636 1035l-100 100l-100 -100l-124 123l124 125l100 -101l100 101l124 -125zM537 1242l-119 119l119 119l118 -119z" />
    <glyph glyph-name="uni06AE.init" unicode="&#x6ae;" 
d="M-12 -6l12 212h397q132 0 175 26t43 78q0 43 -34.5 100t-114 149.5t-213.5 243.5l16 186l720 454l5 -219l-552 -337q144 -151 226.5 -255t116.5 -181t34 -147q0 -163 -114 -236.5t-336 -73.5h-381zM694 -77l155 -154l-155 -156l-125 126l-125 -126l-155 156l155 154
l125 -125zM570 -337l148 -148l-148 -149l-148 149z" />
    <glyph glyph-name="uni06AE.medi" unicode="&#x6ae;" 
d="M1188 -6q-178 0 -281 27t-179 100h-31q-20 -45 -58.5 -73t-110.5 -41t-194 -13h-346l12 212h343q97 0 151 4t80.5 17t39.5 39l-360 537l26 186l720 454l5 -219l-561 -342l323 -485q57 -85 111.5 -125.5t129.5 -53t192 -12.5q28 0 41.5 -27t13.5 -59q0 -74 -22 -100
t-45 -26zM774 -77l155 -154l-155 -156l-125 126l-125 -126l-155 156l155 154l125 -125zM650 -337l148 -148l-148 -149l-148 149z" />
    <glyph glyph-name="uni06AE.fina" unicode="&#x6ae;" 
d="M505 -8q-180 0 -288 28.5t-156 100t-48 199.5q0 57 8.5 123.5t22.5 119.5h171q-7 -45 -11.5 -95.5t-4.5 -96.5q0 -58 18.5 -95t81.5 -54.5t194 -17.5q143 0 229 9t129.5 30t57.5 56.5t12 87.5l-27 1033h206l17 -1083v-11q1 -77 13.5 -98.5t69.5 -21.5q38 0 56.5 -19
t18.5 -72q0 -70 -25.5 -95.5t-61.5 -25.5q-143 0 -191 125h-17q-44 -66 -158.5 -96.5t-316.5 -30.5zM472 499q-44 0 -82.5 4t-65.5 10l-5 122q40 -7 75.5 -11t71.5 -4q51 0 68.5 5t17.5 13q0 11 -15 18.5t-62 33.5q-84 47 -84 119q0 53 65.5 116t222.5 91l7 -139
q-82 -12 -118 -26.5t-36 -25.5q0 -13 72 -53q58 -31 76 -59.5t18 -63.5q0 -52 -32.5 -85t-84.5 -49t-109 -16zM680 -77l155 -154l-155 -156l-125 126l-125 -126l-155 156l155 154l125 -125zM556 -337l148 -148l-148 -149l-148 149z" />
    <glyph glyph-name="uniFB94" unicode="&#x6af;" arabic-form="initial" 
d="M-12 -6l12 212h397q132 0 175 26t43 78q0 43 -34.5 100t-114 149.5t-213.5 243.5l16 186l720 454l5 -219l-552 -337q144 -151 226.5 -255t116.5 -181t34 -147q0 -163 -114 -236.5t-336 -73.5h-381zM288 1072l1 157l663 431l-1 -162z" />
    <glyph glyph-name="uniFB95" unicode="&#x6af;" arabic-form="medial" 
d="M1188 -6q-178 0 -281 27t-179 100h-31q-20 -45 -58.5 -73t-110.5 -41t-194 -13h-346l12 212h343q97 0 151 4t80.5 17t39.5 39l-360 537l26 186l720 454l5 -219l-561 -342l323 -485q57 -85 111.5 -125.5t129.5 -53t192 -12.5q28 0 41.5 -27t13.5 -59q0 -74 -22 -100
t-45 -26zM303 1072l1 157l663 431l-1 -162z" />
    <glyph glyph-name="uniFB93" unicode="&#x6af;" arabic-form="final" 
d="M1188 -7q-99 0 -163 41.5t-129 136.5h-15q-41 -85 -144.5 -132t-294.5 -47q-225 0 -332.5 88t-107.5 290q0 69 7 128.5t24 127.5h170q-7 -60 -11 -97t-4 -90q0 -98 20.5 -148.5t83.5 -68.5t190 -18q130 0 208.5 32.5t110.5 83.5l-308 483l26 186l700 454l5 -219
l-544 -342l351 -559q44 -70 82.5 -94t86.5 -24q28 0 41.5 -25t13.5 -63q0 -71 -19 -97.5t-48 -26.5zM529 1072l1 157l663 431l-1 -162z" />
    <glyph glyph-name="uni06B0.init" unicode="&#x6b0;" 
d="M-12 -6l12 212h397q132 0 175 26t43 78q0 43 -34.5 100t-114 149.5t-213.5 243.5l16 186l720 454l5 -219l-552 -337q144 -151 226.5 -255t116.5 -181t34 -147q0 -163 -114 -236.5t-336 -73.5h-381zM288 1072l1 157l663 431l-1 -162zM825 877q-76 0 -124 46t-48 125
q0 78 49.5 124.5t122.5 46.5q74 0 123.5 -44.5t49.5 -126.5q0 -81 -49.5 -126t-123.5 -45zM825 991q58 0 58 57t-57 57q-26 0 -43 -15.5t-17 -41.5q0 -28 17.5 -42.5t41.5 -14.5z" />
    <glyph glyph-name="uni06B0.medi" unicode="&#x6b0;" 
d="M1188 -6q-178 0 -281 27t-179 100h-31q-20 -45 -58.5 -73t-110.5 -41t-194 -13h-346l12 212h343q97 0 151 4t80.5 17t39.5 39l-360 537l26 186l720 454l5 -219l-561 -342l323 -485q57 -85 111.5 -125.5t129.5 -53t192 -12.5q28 0 41.5 -27t13.5 -59q0 -74 -22 -100
t-45 -26zM303 1072l1 157l663 431l-1 -162zM836 877q-76 0 -124 46t-48 125q0 78 49.5 124.5t122.5 46.5q74 0 123.5 -44.5t49.5 -126.5q0 -81 -49.5 -126t-123.5 -45zM836 991q58 0 58 57t-57 57q-26 0 -43 -15.5t-17 -41.5q0 -28 17.5 -42.5t41.5 -14.5z" />
    <glyph glyph-name="uni06B0.fina" unicode="&#x6b0;" 
d="M1188 -7q-99 0 -163 41.5t-129 136.5h-15q-41 -85 -144.5 -132t-294.5 -47q-225 0 -332.5 88t-107.5 290q0 69 7 128.5t24 127.5h170q-7 -60 -11 -97t-4 -90q0 -98 20.5 -148.5t83.5 -68.5t190 -18q130 0 208.5 32.5t110.5 83.5l-308 483l26 186l700 454l5 -219
l-544 -342l351 -559q44 -70 82.5 -94t86.5 -24q28 0 41.5 -25t13.5 -63q0 -71 -19 -97.5t-48 -26.5zM529 1072l1 157l663 431l-1 -162zM1061 877q-76 0 -124 46t-48 125q0 78 49.5 124.5t122.5 46.5q74 0 123.5 -44.5t49.5 -126.5q0 -81 -49.5 -126t-123.5 -45zM1061 991
q58 0 58 57t-57 57q-26 0 -43 -15.5t-17 -41.5q0 -28 17.5 -42.5t41.5 -14.5z" />
    <glyph glyph-name="uniFB9C" unicode="&#x6b1;" arabic-form="initial" 
d="M-12 -6l12 212h397q132 0 175 26t43 78q0 43 -34.5 100t-114 149.5t-213.5 243.5l16 186l720 454l5 -219l-552 -337q144 -151 226.5 -255t116.5 -181t34 -147q0 -163 -114 -236.5t-336 -73.5h-381zM288 1072l1 157l663 431l-1 -162zM596 1487l-145 145l145 145l145 -145z
M359 1354l-145 145l145 146l145 -146z" />
    <glyph glyph-name="uniFB9D" unicode="&#x6b1;" arabic-form="medial" 
d="M1188 -6q-178 0 -281 27t-179 100h-31q-20 -45 -58.5 -73t-110.5 -41t-194 -13h-346l12 212h343q97 0 151 4t80.5 17t39.5 39l-360 537l26 186l720 454l5 -219l-561 -342l323 -485q57 -85 111.5 -125.5t129.5 -53t192 -12.5q28 0 41.5 -27t13.5 -59q0 -74 -22 -100
t-45 -26zM303 1072l1 157l663 431l-1 -162zM611 1487l-145 145l145 145l145 -145zM374 1354l-145 145l145 146l145 -146z" />
    <glyph glyph-name="uniFB9B" unicode="&#x6b1;" arabic-form="final" 
d="M1188 -7q-99 0 -163 41.5t-129 136.5h-15q-41 -85 -144.5 -132t-294.5 -47q-225 0 -332.5 88t-107.5 290q0 69 7 128.5t24 127.5h170q-7 -60 -11 -97t-4 -90q0 -98 20.5 -148.5t83.5 -68.5t190 -18q130 0 208.5 32.5t110.5 83.5l-308 483l26 186l700 454l5 -219
l-544 -342l351 -559q44 -70 82.5 -94t86.5 -24q28 0 41.5 -25t13.5 -63q0 -71 -19 -97.5t-48 -26.5zM529 1072l1 157l663 431l-1 -162zM837 1487l-145 145l145 145l145 -145zM600 1354l-145 145l145 146l145 -146z" />
    <glyph glyph-name="uni06B2.init" unicode="&#x6b2;" 
d="M-12 -6l12 212h397q132 0 175 26t43 78q0 43 -34.5 100t-114 149.5t-213.5 243.5l16 186l720 454l5 -219l-552 -337q144 -151 226.5 -255t116.5 -181t34 -147q0 -163 -114 -236.5t-336 -73.5h-381zM288 1072l1 157l663 431l-1 -162zM692 -425l-125 125l-125 -125
l-155 154l155 156l125 -126l125 126l155 -156z" />
    <glyph glyph-name="uni06B2.medi" unicode="&#x6b2;" 
d="M1188 -6q-178 0 -281 27t-179 100h-31q-20 -45 -58.5 -73t-110.5 -41t-194 -13h-346l12 212h343q97 0 151 4t80.5 17t39.5 39l-360 537l26 186l720 454l5 -219l-561 -342l323 -485q57 -85 111.5 -125.5t129.5 -53t192 -12.5q28 0 41.5 -27t13.5 -59q0 -74 -22 -100
t-45 -26zM303 1072l1 157l663 431l-1 -162zM772 -425l-125 125l-125 -125l-155 154l155 156l125 -126l125 126l155 -156z" />
    <glyph glyph-name="uni06B2.fina" unicode="&#x6b2;" 
d="M1188 -7q-99 0 -163 41.5t-129 136.5h-15q-41 -85 -144.5 -132t-294.5 -47q-225 0 -332.5 88t-107.5 290q0 69 7 128.5t24 127.5h170q-7 -60 -11 -97t-4 -90q0 -98 20.5 -148.5t83.5 -68.5t190 -18q130 0 208.5 32.5t110.5 83.5l-308 483l26 186l700 454l5 -219
l-544 -342l351 -559q44 -70 82.5 -94t86.5 -24q28 0 41.5 -25t13.5 -63q0 -71 -19 -97.5t-48 -26.5zM529 1072l1 157l663 431l-1 -162zM678 -425l-125 125l-125 -125l-155 154l155 156l125 -126l125 126l155 -156z" />
    <glyph glyph-name="uniFB98" unicode="&#x6b3;" arabic-form="initial" 
d="M-12 -6l12 212h397q132 0 175 26t43 78q0 43 -34.5 100t-114 149.5t-213.5 243.5l16 186l720 454l5 -219l-552 -337q144 -151 226.5 -255t116.5 -181t34 -147q0 -163 -114 -236.5t-336 -73.5h-381zM288 1072l1 157l663 431l-1 -162zM564 -652l-155 155l124 124l-121 121
l155 155l155 -155l-124 -124l121 -121z" />
    <glyph glyph-name="uniFB99" unicode="&#x6b3;" arabic-form="medial" 
d="M1188 -6q-178 0 -281 27t-179 100h-31q-20 -45 -58.5 -73t-110.5 -41t-194 -13h-346l12 212h343q97 0 151 4t80.5 17t39.5 39l-360 537l26 186l720 454l5 -219l-561 -342l323 -485q57 -85 111.5 -125.5t129.5 -53t192 -12.5q28 0 41.5 -27t13.5 -59q0 -74 -22 -100
t-45 -26zM303 1072l1 157l663 431l-1 -162zM644 -652l-155 155l124 124l-121 121l155 155l155 -155l-124 -124l121 -121z" />
    <glyph glyph-name="uniFB97" unicode="&#x6b3;" arabic-form="final" 
d="M1188 -7q-99 0 -163 41.5t-129 136.5h-15q-41 -85 -144.5 -132t-294.5 -47q-225 0 -332.5 88t-107.5 290q0 69 7 128.5t24 127.5h170q-7 -60 -11 -97t-4 -90q0 -98 20.5 -148.5t83.5 -68.5t190 -18q130 0 208.5 32.5t110.5 83.5l-308 483l26 186l700 454l5 -219
l-544 -342l351 -559q44 -70 82.5 -94t86.5 -24q28 0 41.5 -25t13.5 -63q0 -71 -19 -97.5t-48 -26.5zM529 1072l1 157l663 431l-1 -162zM550 -652l-155 155l124 124l-121 121l155 155l155 -155l-124 -124l121 -121z" />
    <glyph glyph-name="uni06B4.init" unicode="&#x6b4;" 
d="M-12 -6l12 212h397q132 0 175 26t43 78q0 43 -34.5 100t-114 149.5t-213.5 243.5l16 186l720 454l5 -219l-552 -337q144 -151 226.5 -255t116.5 -181t34 -147q0 -163 -114 -236.5t-336 -73.5h-381zM288 1072l1 157l663 431l-1 -162zM579 1471l-124 123l124 125l124 -125z
M371 1352l-124 124l124 125l124 -125zM414 1614l-118 119l118 119l119 -119z" />
    <glyph glyph-name="uni06B4.medi" unicode="&#x6b4;" 
d="M1188 -6q-178 0 -281 27t-179 100h-31q-20 -45 -58.5 -73t-110.5 -41t-194 -13h-346l12 212h343q97 0 151 4t80.5 17t39.5 39l-360 537l26 186l720 454l5 -219l-561 -342l323 -485q57 -85 111.5 -125.5t129.5 -53t192 -12.5q28 0 41.5 -27t13.5 -59q0 -74 -22 -100
t-45 -26zM303 1072l1 157l663 431l-1 -162zM594 1471l-124 123l124 125l124 -125zM386 1352l-124 124l124 125l124 -125zM429 1614l-118 119l118 119l119 -119z" />
    <glyph glyph-name="uni06B4.fina" unicode="&#x6b4;" 
d="M1188 -7q-99 0 -163 41.5t-129 136.5h-15q-41 -85 -144.5 -132t-294.5 -47q-225 0 -332.5 88t-107.5 290q0 69 7 128.5t24 127.5h170q-7 -60 -11 -97t-4 -90q0 -98 20.5 -148.5t83.5 -68.5t190 -18q130 0 208.5 32.5t110.5 83.5l-308 483l26 186l700 454l5 -219
l-544 -342l351 -559q44 -70 82.5 -94t86.5 -24q28 0 41.5 -25t13.5 -63q0 -71 -19 -97.5t-48 -26.5zM529 1072l1 157l663 431l-1 -162zM820 1471l-124 123l124 125l124 -125zM612 1352l-124 124l124 125l124 -125zM655 1614l-118 119l118 119l119 -119z" />
    <glyph glyph-name="uni06B5.init" unicode="&#x6b5;" 
d="M-12 -6q-58 0 -58 111q0 59 20 80t50 21q215 0 355 5t221 18t119 37t48 62t9 92l-20 1000h206l27 -970q3 -103 -14 -179.5t-71.5 -129.5t-162.5 -85.5t-286 -47t-443 -14.5zM774 1525l-142 301l124 20l76 -194h10l72 194l122 -15l-135 -306h-127z" />
    <glyph glyph-name="uni06B5.medi" unicode="&#x6b5;" 
d="M-12 -6q-58 0 -58 111q0 59 20 80t50 21q179 0 295 2.5t183 11.5t98.5 30t39 57t6.5 93l-20 1020h206l25 -1011q2 -68 12.5 -108.5t45.5 -61t108.5 -27t200.5 -6.5q75 0 75 -101q0 -63 -21.5 -87t-65.5 -24q-150 0 -245.5 12t-150.5 47.5t-84 105.5h-23
q-27 -54 -67.5 -86.5t-114.5 -49.5t-198 -23t-317 -6zM651 1525l-142 301l124 20l76 -194h10l72 194l122 -15l-135 -306h-127z" />
    <glyph glyph-name="uni06B5.fina" unicode="&#x6b5;" 
d="M1188 -6q-93 0 -136 42q-34 -211 -160 -302t-357 -91q-254 0 -370 114.5t-116 337.5q0 188 64 389h178q-22 -109 -34 -192t-12 -160q0 -152 69 -214.5t243 -62.5q135 0 200.5 32.5t86 98t17.5 165.5l-32 1269h206l29 -1112v0q2 -67 25 -84.5t111 -17.5q38 0 56.5 -19
t18.5 -72q0 -70 -25.5 -95.5t-61.5 -25.5zM877 1525l-142 301l124 20l76 -194h10l72 194l122 -15l-135 -306h-127z" />
    <glyph glyph-name="uni06B6.init" unicode="&#x6b6;" 
d="M-12 -6q-58 0 -58 111q0 59 20 80t50 21q215 0 355 5t221 18t119 37t48 62t9 92l-20 1000h206l27 -970q3 -103 -14 -179.5t-71.5 -129.5t-162.5 -85.5t-286 -47t-443 -14.5zM834 1536l-161 161l161 162l161 -162z" />
    <glyph glyph-name="uni06B6.medi" unicode="&#x6b6;" 
d="M-12 -6q-58 0 -58 111q0 59 20 80t50 21q179 0 295 2.5t183 11.5t98.5 30t39 57t6.5 93l-20 1020h206l25 -1011q2 -68 12.5 -108.5t45.5 -61t108.5 -27t200.5 -6.5q75 0 75 -101q0 -63 -21.5 -87t-65.5 -24q-150 0 -245.5 12t-150.5 47.5t-84 105.5h-23
q-27 -54 -67.5 -86.5t-114.5 -49.5t-198 -23t-317 -6zM711 1536l-161 161l161 162l161 -162z" />
    <glyph glyph-name="uni06B6.fina" unicode="&#x6b6;" 
d="M1188 -6q-93 0 -136 42q-34 -211 -160 -302t-357 -91q-254 0 -370 114.5t-116 337.5q0 188 64 389h178q-22 -109 -34 -192t-12 -160q0 -152 69 -214.5t243 -62.5q135 0 200.5 32.5t86 98t17.5 165.5l-32 1269h206l29 -1112v0q2 -67 25 -84.5t111 -17.5q38 0 56.5 -19
t18.5 -72q0 -70 -25.5 -95.5t-61.5 -25.5zM937 1536l-161 161l161 162l161 -162z" />
    <glyph glyph-name="uni06B7.init" unicode="&#x6b7;" 
d="M-12 -6q-58 0 -58 111q0 59 20 80t50 21q215 0 355 5t221 18t119 37t48 62t9 92l-20 1000h206l27 -970q3 -103 -14 -179.5t-71.5 -129.5t-162.5 -85.5t-286 -47t-443 -14.5zM947 1512l-113 112l-112 -112l-140 139l140 140l112 -113l113 113l139 -140zM835 1746l-133 133
l133 134l133 -134z" />
    <glyph glyph-name="uni06B7.medi" unicode="&#x6b7;" 
d="M-12 -6q-58 0 -58 111q0 59 20 80t50 21q179 0 295 2.5t183 11.5t98.5 30t39 57t6.5 93l-20 1020h206l25 -1011q2 -68 12.5 -108.5t45.5 -61t108.5 -27t200.5 -6.5q75 0 75 -101q0 -63 -21.5 -87t-65.5 -24q-150 0 -245.5 12t-150.5 47.5t-84 105.5h-23
q-27 -54 -67.5 -86.5t-114.5 -49.5t-198 -23t-317 -6zM824 1512l-113 112l-112 -112l-140 139l140 140l112 -113l113 113l139 -140zM712 1746l-133 133l133 134l133 -134z" />
    <glyph glyph-name="uni06B7.fina" unicode="&#x6b7;" 
d="M1188 -6q-93 0 -136 42q-34 -211 -160 -302t-357 -91q-254 0 -370 114.5t-116 337.5q0 188 64 389h178q-22 -109 -34 -192t-12 -160q0 -152 69 -214.5t243 -62.5q135 0 200.5 32.5t86 98t17.5 165.5l-32 1269h206l29 -1112v0q2 -67 25 -84.5t111 -17.5q38 0 56.5 -19
t18.5 -72q0 -70 -25.5 -95.5t-61.5 -25.5zM1050 1512l-113 112l-112 -112l-140 139l140 140l112 -113l113 113l139 -140zM938 1746l-133 133l133 134l133 -134z" />
    <glyph glyph-name="uni06B8.init" unicode="&#x6b8;" 
d="M-12 -6q-58 0 -58 111q0 59 20 80t50 21q215 0 355 5t221 18t119 37t48 62t9 92l-20 1000h206l27 -970q3 -103 -14 -179.5t-71.5 -129.5t-162.5 -85.5t-286 -47t-443 -14.5zM984 -77l155 -154l-155 -156l-125 126l-125 -126l-155 156l155 154l125 -125zM860 -337
l148 -148l-148 -149l-148 149z" />
    <glyph glyph-name="uni06B8.medi" unicode="&#x6b8;" 
d="M-12 -6q-58 0 -58 111q0 59 20 80t50 21q179 0 295 2.5t183 11.5t98.5 30t39 57t6.5 93l-20 1020h206l25 -1011q2 -68 12.5 -108.5t45.5 -61t108.5 -27t200.5 -6.5q75 0 75 -101q0 -63 -21.5 -87t-65.5 -24q-150 0 -245.5 12t-150.5 47.5t-84 105.5h-23
q-27 -54 -67.5 -86.5t-114.5 -49.5t-198 -23t-317 -6zM854 -77l155 -154l-155 -156l-125 126l-125 -126l-155 156l155 154l125 -125zM730 -337l148 -148l-148 -149l-148 149z" />
    <glyph glyph-name="uni06B8.fina" unicode="&#x6b8;" 
d="M1188 -6q-93 0 -136 42q-34 -211 -160 -302t-357 -91q-254 0 -370 114.5t-116 337.5q0 188 64 389h178q-22 -109 -34 -192t-12 -160q0 -152 69 -214.5t243 -62.5q135 0 200.5 32.5t86 98t17.5 165.5l-32 1269h206l29 -1112v0q2 -67 25 -84.5t111 -17.5q38 0 56.5 -19
t18.5 -72q0 -70 -25.5 -95.5t-61.5 -25.5zM651 -384l145 -146l-145 -146l-118 118l-117 -118l-146 146l146 146l117 -118zM534 -629l139 -139l-139 -140l-139 140z" />
    <glyph glyph-name="uni06B9.init" unicode="&#x6b9;" 
d="M-12 -6q-33 0 -33 114q0 53 14 75.5t31 22.5q217 0 362 5.5t233.5 19.5t134 39t60.5 63t15 93q0 74 -17 165t-42 195l189 35q34 -117 52 -217.5t18 -186.5q0 -94 -22 -165t-82.5 -120t-173.5 -79.5t-294 -44.5t-445 -14zM835 946l-161 161l161 162l161 -162zM770 -429
l-161 161l161 162l161 -162z" />
    <glyph glyph-name="uni06B9.medi" unicode="&#x6b9;" 
d="M-12 -6l12 212q177 0 280.5 5t154 20t66 45t16.5 81l8 330l197 4l-5 -324q0 -73 12 -107t48 -44t109 -10h314q38 0 56.5 -26.5t18.5 -64.5q0 -70 -25.5 -95.5t-61.5 -25.5h-325q-136 0 -198 41t-84 116h-25q-30 -59 -89 -93.5t-172 -49t-307 -14.5zM630 824l-161 161
l161 162l161 -162zM590 -429l-161 161l161 162l161 -162z" />
    <glyph glyph-name="uni06B9.fina" unicode="&#x6b9;" 
d="M538 -357q-232 0 -344 103.5t-112 343.5q0 80 12.5 186.5t43.5 207.5h178q-17 -96 -28 -186t-11 -176q0 -149 60 -208t209 -59q113 0 181.5 24.5t100 91t31.5 191.5q0 90 -15 191t-32 201l194 27q12 -64 20.5 -121.5t14.5 -92.5q13 -72 23 -106t39 -44.5t97 -10.5
q53 0 69 -22.5t16 -75.5q0 -54 -16.5 -84t-80.5 -30q-47 0 -82.5 9t-61.5 34q-23 -192 -137.5 -293t-368.5 -101zM562 618l-161 161l161 162l161 -162zM556 -716l-161 161l161 162l161 -162z" />
    <glyph glyph-name="uni06BA.init" unicode="&#x6ba;" 
d="M-12 -6q-33 0 -33 114q0 53 14 75.5t31 22.5q217 0 362 5.5t233.5 19.5t134 39t60.5 63t15 93q0 74 -17 165t-42 195l189 35q34 -117 52 -217.5t18 -186.5q0 -94 -22 -165t-82.5 -120t-173.5 -79.5t-294 -44.5t-445 -14z" />
    <glyph glyph-name="uni06BA.medi" unicode="&#x6ba;" 
d="M-12 -6l12 212q177 0 280.5 5t154 20t66 45t16.5 81l8 330l197 4l-5 -324q0 -73 12 -107t48 -44t109 -10h314q38 0 56.5 -26.5t18.5 -64.5q0 -70 -25.5 -95.5t-61.5 -25.5h-325q-136 0 -198 41t-84 116h-25q-30 -59 -89 -93.5t-172 -49t-307 -14.5z" />
    <glyph glyph-name="uniFB9F" unicode="&#x6ba;" arabic-form="final" 
d="M538 -357q-232 0 -344 103.5t-112 343.5q0 80 12.5 186.5t43.5 207.5h178q-17 -96 -28 -186t-11 -176q0 -149 60 -208t209 -59q113 0 181.5 24.5t100 91t31.5 191.5q0 90 -15 191t-32 201l194 27q12 -64 20.5 -121.5t14.5 -92.5q13 -72 23 -106t39 -44.5t97 -10.5
q53 0 69 -22.5t16 -75.5q0 -54 -16.5 -84t-80.5 -30q-47 0 -82.5 9t-61.5 34q-23 -192 -137.5 -293t-368.5 -101z" />
    <glyph glyph-name="uniFBA2" unicode="&#x6bb;" arabic-form="initial" 
d="M-12 -6q-33 0 -33 114q0 53 14 75.5t31 22.5q217 0 362 5.5t233.5 19.5t134 39t60.5 63t15 93q0 74 -17 165t-42 195l189 35q34 -117 52 -217.5t18 -186.5q0 -94 -22 -165t-82.5 -120t-173.5 -79.5t-294 -44.5t-445 -14zM812 1061q-69 0 -132.5 7.5t-110.5 16.5l-5 120
q16 -1 41.5 -3.5t54.5 -5.5l-8 333h118l3 -104q1 -44 -23 -81l9 -6q40 55 83.5 86t89.5 31q68 0 117.5 -58t49.5 -145q0 -99 -69 -145t-218 -46zM771 1188q31 -2 50 -2q84 0 116 11.5t32 45.5q0 31 -16.5 55t-46.5 24q-31 0 -63 -32t-72 -102z" />
    <glyph glyph-name="uniFBA3" unicode="&#x6bb;" arabic-form="medial" 
d="M-12 -6l12 212q177 0 280.5 5t154 20t66 45t16.5 81l8 330l197 4l-5 -324q0 -73 12 -107t48 -44t109 -10h314q38 0 56.5 -26.5t18.5 -64.5q0 -70 -25.5 -95.5t-61.5 -25.5h-325q-136 0 -198 41t-84 116h-25q-30 -59 -89 -93.5t-172 -49t-307 -14.5zM610 939
q-69 0 -132.5 7.5t-110.5 16.5l-5 120q16 -1 41.5 -3.5t54.5 -5.5l-8 333h118l3 -104q1 -44 -23 -81l9 -6q40 55 83.5 86t89.5 31q68 0 117.5 -58t49.5 -145q0 -99 -69 -145t-218 -46zM569 1066q31 -2 50 -2q84 0 116 11.5t32 45.5q0 31 -16.5 55t-46.5 24q-31 0 -63 -32
t-72 -102z" />
    <glyph glyph-name="uniFBA1" unicode="&#x6bb;" arabic-form="final" 
d="M538 -357q-232 0 -344 103.5t-112 343.5q0 80 12.5 186.5t43.5 207.5h178q-17 -96 -28 -186t-11 -176q0 -149 60 -208t209 -59q113 0 181.5 24.5t100 91t31.5 191.5q0 90 -15 191t-32 201l194 27q12 -64 20.5 -121.5t14.5 -92.5q13 -72 23 -106t39 -44.5t97 -10.5
q53 0 69 -22.5t16 -75.5q0 -54 -16.5 -84t-80.5 -30q-47 0 -82.5 9t-61.5 34q-23 -192 -137.5 -293t-368.5 -101zM545 733q-69 0 -132.5 7.5t-110.5 16.5l-5 120q16 -1 41.5 -3.5t54.5 -5.5l-8 333h118l3 -104q1 -44 -23 -81l9 -6q40 55 83.5 86t89.5 31q68 0 117.5 -58
t49.5 -145q0 -99 -69 -145t-218 -46zM504 860q31 -2 50 -2q84 0 116 11.5t32 45.5q0 31 -16.5 55t-46.5 24q-31 0 -63 -32t-72 -102z" />
    <glyph glyph-name="uni06BC.init" unicode="&#x6bc;" 
d="M-12 -6q-33 0 -33 114q0 53 14 75.5t31 22.5q217 0 362 5.5t233.5 19.5t134 39t60.5 63t15 93q0 74 -17 165t-42 195l189 35q34 -117 52 -217.5t18 -186.5q0 -94 -22 -165t-82.5 -120t-173.5 -79.5t-294 -44.5t-445 -14zM729 -196q-76 0 -124 46t-48 125q0 78 49.5 124.5
t122.5 46.5q74 0 123.5 -44.5t49.5 -126.5q0 -81 -49.5 -126t-123.5 -45zM729 -82q58 0 58 57t-57 57q-26 0 -43 -15.5t-17 -41.5q0 -28 17.5 -42.5t41.5 -14.5zM835 946l-161 161l161 162l161 -162z" />
    <glyph glyph-name="uni06BC.medi" unicode="&#x6bc;" 
d="M-12 -6l12 212q177 0 280.5 5t154 20t66 45t16.5 81l8 330l197 4l-5 -324q0 -73 12 -107t48 -44t109 -10h314q38 0 56.5 -26.5t18.5 -64.5q0 -70 -25.5 -95.5t-61.5 -25.5h-325q-136 0 -198 41t-84 116h-25q-30 -59 -89 -93.5t-172 -49t-307 -14.5zM349 -236
q-76 0 -124 46t-48 125q0 78 49.5 124.5t122.5 46.5q74 0 123.5 -44.5t49.5 -126.5q0 -81 -49.5 -126t-123.5 -45zM349 -122q58 0 58 57t-57 57q-26 0 -43 -15.5t-17 -41.5q0 -28 17.5 -42.5t41.5 -14.5zM630 824l-161 161l161 162l161 -162z" />
    <glyph glyph-name="uni06BC.fina" unicode="&#x6bc;" 
d="M538 -357q-232 0 -344 103.5t-112 343.5q0 80 12.5 186.5t43.5 207.5h178q-17 -96 -28 -186t-11 -176q0 -149 60 -208t209 -59q113 0 181.5 24.5t100 91t31.5 191.5q0 90 -15 191t-32 201l194 27q12 -64 20.5 -121.5t14.5 -92.5q13 -72 23 -106t39 -44.5t97 -10.5
q53 0 69 -22.5t16 -75.5q0 -54 -16.5 -84t-80.5 -30q-47 0 -82.5 9t-61.5 34q-23 -192 -137.5 -293t-368.5 -101zM562 618l-161 161l161 162l161 -162zM552 -587q-76 0 -124 46t-48 125q0 78 49.5 124.5t122.5 46.5q74 0 123.5 -44.5t49.5 -126.5q0 -81 -49.5 -126
t-123.5 -45zM552 -473q58 0 58 57t-57 57q-26 0 -43 -15.5t-17 -41.5q0 -28 17.5 -42.5t41.5 -14.5z" />
    <glyph glyph-name="uni06BD.init" unicode="&#x6bd;" 
d="M-12 -6q-33 0 -33 114q0 53 14 75.5t31 22.5q217 0 362 5.5t233.5 19.5t134 39t60.5 63t15 93q0 74 -17 165t-42 195l189 35q34 -117 52 -217.5t18 -186.5q0 -94 -22 -165t-82.5 -120t-173.5 -79.5t-294 -44.5t-445 -14zM897 -77l155 -154l-155 -156l-125 126l-125 -126
l-155 156l155 154l125 -125zM773 -337l148 -148l-148 -149l-148 149z" />
    <glyph glyph-name="uni06BD.medi" unicode="&#x6bd;" 
d="M-12 -6l12 212q177 0 280.5 5t154 20t66 45t16.5 81l8 330l197 4l-5 -324q0 -73 12 -107t48 -44t109 -10h314q38 0 56.5 -26.5t18.5 -64.5q0 -70 -25.5 -95.5t-61.5 -25.5h-325q-136 0 -198 41t-84 116h-25q-30 -59 -89 -93.5t-172 -49t-307 -14.5zM717 -77l155 -154
l-155 -156l-125 126l-125 -126l-155 156l155 154l125 -125zM593 -337l148 -148l-148 -149l-148 149z" />
    <glyph glyph-name="uni06BD.fina" unicode="&#x6bd;" 
d="M538 -357q-232 0 -344 103.5t-112 343.5q0 80 12.5 186.5t43.5 207.5h178q-17 -96 -28 -186t-11 -176q0 -149 60 -208t209 -59q113 0 181.5 24.5t100 91t31.5 191.5q0 90 -15 191t-32 201l194 27q12 -64 20.5 -121.5t14.5 -92.5q13 -72 23 -106t39 -44.5t97 -10.5
q53 0 69 -22.5t16 -75.5q0 -54 -16.5 -84t-80.5 -30q-47 0 -82.5 9t-61.5 34q-23 -192 -137.5 -293t-368.5 -101zM687 599l-125 125l-125 -125l-155 154l155 156l125 -126l125 126l155 -156zM563 859l-148 148l148 149l148 -149z" />
    <glyph glyph-name="uniFBAC" unicode="&#x6be;" arabic-form="initial" 
d="M-12 -6q-29 0 -43.5 22.5t-14.5 98.5q0 59 18.5 75t51.5 16q66 0 112 1.5t83 4.5q-29 47 -45.5 105t-16.5 128q0 108 46.5 186t120.5 118l40 155q255 -65 412 -129t239 -131.5t111 -142t29 -161.5q0 -88 -33.5 -167t-120.5 -129t-248 -50q-87 0 -167 12.5t-149 38.5
q-94 -29 -202 -40t-223 -11zM448 252q73 28 102.5 77t29.5 118q0 81 -33.5 121.5t-91.5 40.5t-93 -40t-35 -118q0 -143 121 -199zM689 207q32 -1 68 -1q105 0 142 39.5t37 99.5v6q0 30 -7.5 67t-47 79t-133.5 86q24 -67 24 -138q0 -78 -20.5 -135t-62.5 -103z" />
    <glyph glyph-name="uniFBAD" unicode="&#x6be;" arabic-form="medial" 
d="M659 -491q-174 0 -285.5 123t-127.5 363q-55 -1 -119 -1h-139q-31 0 -44.5 24t-13.5 97q0 57 19.5 73.5t50.5 16.5h136.5t116.5 1q19 149 73.5 270.5t124 215t135.5 159.5l175 28q76 -132 118.5 -260.5t42.5 -268.5q0 -81 -27 -141q138 -4 305 -4q50 0 75 -13.5t25 -72.5
q0 -82 -26 -103.5t-86 -21.5q-63 0 -139.5 3.5t-144.5 16.5q33 -47 47 -103t14 -106q0 -145 -86 -220.5t-220 -75.5zM637 33q-95 -22 -210 -31q7 -114 43.5 -178t87.5 -90t102 -26q119 0 119 107q0 58 -32.5 116.5t-109.5 101.5zM438 211q87 5 153 16q87 14 116 44t29 79
q0 141 -79 313q-82 -93 -139.5 -205.5t-79.5 -246.5z" />
    <glyph glyph-name="uniFBAB" unicode="&#x6be;" arabic-form="final" 
d="M659 -491q-174 0 -285.5 123t-127.5 364q-149 10 -243 59l16 156l118 -2t116 -1q20 148 74 269t123.5 214.5t135.5 159.5l175 28q76 -132 118.5 -260.5t42.5 -268.5q0 -78 -30 -141q139 -4 308 -4q50 0 75 -13.5t25 -72.5q0 -82 -26 -103.5t-86 -21.5q-63 0 -139.5 3.5
t-144.5 16.5q33 -47 47 -103t14 -106q0 -145 -86 -220.5t-220 -75.5zM645 28q-51 -14 -108.5 -21t-109.5 -10q8 -112 44.5 -175t87.5 -88.5t101 -25.5q119 0 119 107q0 56 -30.5 113t-103.5 100zM438 211q66 2 116.5 7.5t86.5 16.5q95 28 95 115q0 141 -79 313
q-83 -93 -140 -205.5t-79 -246.5z" />
    <glyph glyph-name="uni06BF.init" unicode="&#x6bf;" 
d="M-20 -6q-24 0 -37 25t-13 86q0 101 70 101q116 0 216.5 22.5t202.5 66.5t222 106q61 32 104 54t82 39v18q-47 3 -90 12.5t-111 31.5q-81 27 -147 52t-143 25q-55 0 -95.5 -11t-100.5 -40l-8 161q47 49 107 72t118 23q74 0 137.5 -26t134.5 -61.5t164 -63.5
q64 -19 116 -27.5t107.5 -10t129.5 0.5l-3 -201q-50 -12 -93 -26t-92.5 -35.5t-119.5 -59.5q-121 -65 -221.5 -125t-196.5 -107t-202 -74.5t-238 -27.5zM807 23l155 -154l-155 -156l-125 126l-125 -126l-155 156l155 154l125 -125zM683 -237l148 -148l-148 -149l-148 149z
M566 943l-161 161l161 162l161 -162z" />
    <glyph glyph-name="uni06BF.medi" unicode="&#x6bf;" 
d="M1188 -6q-138 0 -214 37t-110 109t-46 177q-116 -64 -214 -122t-192 -103.5t-198.5 -71.5t-233.5 -26q-24 0 -37 25t-13 86q0 101 70 101q116 0 216.5 22.5t202.5 66.5t222 106q61 32 104 54t82 39v18q-47 3 -90 12.5t-111 31.5q-81 27 -147 52t-143 25q-55 0 -95.5 -11
t-100.5 -40l-8 161q47 49 107 72t118 23q74 0 137.5 -26t134.5 -61.5t164 -63.5q64 -19 116 -27.5t107.5 -10t129.5 0.5l-3 -201q-43 -11 -80.5 -22t-78.5 -28q8 -75 27 -117t62.5 -59t126.5 -17q38 0 56.5 -12.5t18.5 -58.5q0 -85 -25.5 -113t-61.5 -28zM807 23l155 -154
l-155 -156l-125 126l-125 -126l-155 156l155 154l125 -125zM683 -237l148 -148l-148 -149l-148 149zM566 943l-161 161l161 162l161 -162z" />
    <glyph glyph-name="uni06BF.fina" unicode="&#x6bf;" 
d="M1188 -6q-140 0 -217.5 37t-111.5 127t-45 247q-279 -84 -432.5 -203t-153.5 -321q0 -110 45 -180t154.5 -102.5t300.5 -32.5q122 0 228 17t190 30l-2 -175q-45 -19 -117.5 -36.5t-158 -29t-170.5 -11.5q-337 0 -500.5 109t-163.5 371q0 203 93.5 338.5t266.5 222.5
t410 146v14q-44 4 -91.5 14.5t-103.5 26.5q-79 23 -141.5 40.5t-131.5 17.5q-70 0 -131.5 -25t-114.5 -63l-18 153q59 77 136.5 108.5t155.5 31.5q74 0 139 -23t135.5 -55t162.5 -60q63 -19 114 -27.5t105 -10t126 0.5l-3 -201q-87 -20 -160 -38q8 -114 24.5 -166t60.5 -66
t132 -14q38 0 56.5 -12.5t18.5 -58.5q0 -85 -25.5 -113t-61.5 -28zM730 148l145 -146l-145 -146l-118 118l-117 -118l-146 146l146 146l117 -118zM613 -97l139 -139l-139 -140l-139 140zM566 973l-161 161l161 162l161 -162z" />
    <glyph glyph-name="uniFBA5" unicode="&#x6c0;" arabic-form="final" 
d="M574 157q-186 0 -287.5 68t-101.5 221q0 167 156.5 261t466.5 166l-2 114h206l4 -627q1 -68 15.5 -101t54 -43t114.5 -10q42 0 58.5 -19.5t16.5 -71.5q0 -60 -18 -90.5t-69 -30.5q-131 0 -210 22.5t-116 76.5t-44 149h-26q-22 -49 -77 -67t-141 -18zM810 675
q-231 -44 -338.5 -93t-107.5 -117q0 -59 58 -77.5t191 -18.5q42 0 97.5 3.5t104.5 8.5zM529 1034l-11 120l94 24v13q-72 25 -72 121q0 85 60 130.5t154 45.5q42 0 72 -7t55 -17l-6 -114q-54 7 -94 7q-66 0 -90.5 -16t-24.5 -55q0 -38 18 -52t54 -14q29 0 82.5 9.5t98.5 17.5
l14 -125z" />
    <glyph glyph-name="uniFBA8" unicode="&#x6c1;" arabic-form="initial" 
d="M-12 -6q-33 0 -33 114q0 53 14 75.5t31 22.5q217 0 362 5.5t233.5 19.5t134 39t60.5 63t15 93q0 74 -17 165t-42 195l189 35q34 -117 52 -217.5t18 -186.5q0 -94 -22 -165t-82.5 -120t-173.5 -79.5t-294 -44.5t-445 -14zM769 -423q-56 0 -91.5 28.5t-35.5 96.5
q0 61 39.5 130t120.5 118l61 -54q-66 -64 -83 -128h11q53 0 76.5 -25.5t23.5 -61.5q0 -43 -29.5 -73.5t-92.5 -30.5z" />
    <glyph glyph-name="uniFBA9" unicode="&#x6c1;" arabic-form="medial" 
d="M677 -500q-98 44 -178 130.5t-127.5 196.5t-47.5 223q0 23 1 45h-26q-37 -60 -107.5 -80.5t-200.5 -20.5l9 214q101 0 162.5 10t97.5 40.5t58 91.5t44 163h180q-17 -102 -31 -189t-14 -184q0 -160 54.5 -260t151.5 -171q-4 41 -7.5 85t-3.5 82q0 116 42 189.5t152 108
t314 34.5q38 0 56.5 -27.5t18.5 -65.5q0 -70 -25.5 -95.5t-61.5 -25.5q-142 0 -210.5 -13t-89.5 -45.5t-21 -92.5q0 -72 7 -141.5t15 -128.5z" />
    <glyph glyph-name="uniFBA7" unicode="&#x6c1;" arabic-form="final" 
d="M1191 -6q-83 0 -140.5 26.5t-105 79.5t-101.5 133q-52 78 -82.5 123.5t-54 65.5t-54.5 20q-34 0 -91 -45.5t-129 -118t-152 -152.5l-80 181q81 82 164.5 167t162.5 143.5t147 58.5q65 0 110 -31t88.5 -90.5t102.5 -145.5q55 -79 90 -123t65 -61t69 -17q44 0 57 -22
t13 -72q0 -64 -18 -92t-61 -28z" />
    <glyph glyph-name="uni06C2.init" unicode="&#x6c2;" 
d="M-12 -6q-33 0 -33 114q0 53 14 75.5t31 22.5q217 0 362 5.5t233.5 19.5t134 39t60.5 63t15 93q0 74 -17 165t-42 195l189 35q34 -117 52 -217.5t18 -186.5q0 -94 -22 -165t-82.5 -120t-173.5 -79.5t-294 -44.5t-445 -14zM769 -423q-56 0 -91.5 28.5t-35.5 96.5
q0 61 39.5 130t120.5 118l61 -54q-66 -64 -83 -128h11q53 0 76.5 -25.5t23.5 -61.5q0 -43 -29.5 -73.5t-92.5 -30.5zM635 911l-11 120l94 24v13q-72 25 -72 121q0 85 60 130.5t154 45.5q42 0 72 -7t55 -17l-6 -114q-54 7 -94 7q-66 0 -90.5 -16t-24.5 -55q0 -38 18 -52
t54 -14q29 0 82.5 9.5t98.5 17.5l14 -125z" />
    <glyph glyph-name="uni06C2.medi" unicode="&#x6c2;" 
d="M677 -500q-98 44 -178 130.5t-127.5 196.5t-47.5 223q0 23 1 45h-26q-37 -60 -107.5 -80.5t-200.5 -20.5l9 214q101 0 162.5 10t97.5 40.5t58 91.5t44 163h180q-17 -102 -31 -189t-14 -184q0 -160 54.5 -260t151.5 -171q-4 41 -7.5 85t-3.5 82q0 116 42 189.5t152 108
t314 34.5q38 0 56.5 -27.5t18.5 -65.5q0 -70 -25.5 -95.5t-61.5 -25.5q-142 0 -210.5 -13t-89.5 -45.5t-21 -92.5q0 -72 7 -141.5t15 -128.5zM449 584l-11 120l94 24v13q-72 25 -72 121q0 85 60 130.5t154 45.5q42 0 72 -7t55 -17l-6 -114q-54 7 -94 7q-66 0 -90.5 -16
t-24.5 -55q0 -38 18 -52t54 -14q29 0 82.5 9.5t98.5 17.5l14 -125z" />
    <glyph glyph-name="uni06C2.fina" unicode="&#x6c2;" 
d="M1191 -6q-83 0 -140.5 26.5t-105 79.5t-101.5 133q-52 78 -82.5 123.5t-54 65.5t-54.5 20q-34 0 -91 -45.5t-129 -118t-152 -152.5l-80 181q81 82 164.5 167t162.5 143.5t147 58.5q65 0 110 -31t88.5 -90.5t102.5 -145.5q55 -79 90 -123t65 -61t69 -17q44 0 57 -22
t13 -72q0 -64 -18 -92t-61 -28zM480 749l-11 120l94 24v13q-72 25 -72 121q0 85 60 130.5t154 45.5q42 0 72 -7t55 -17l-6 -114q-54 7 -94 7q-66 0 -90.5 -16t-24.5 -55q0 -38 18 -52t54 -14q29 0 82.5 9.5t98.5 17.5l14 -125z" />
    <glyph glyph-name="uni06C3.fina" unicode="&#x6c3;" 
d="M1191 -6q-83 0 -140.5 26.5t-105 79.5t-101.5 133q-52 78 -82.5 123.5t-54 65.5t-54.5 20q-34 0 -91 -45.5t-129 -118t-152 -152.5l-80 181q81 82 164.5 167t162.5 143.5t147 58.5q65 0 110 -31t88.5 -90.5t102.5 -145.5q55 -79 90 -123t65 -61t69 -17q44 0 57 -22
t13 -72q0 -64 -18 -92t-61 -28zM805 765l-125 125l-125 -125l-155 154l155 156l125 -126l125 126l155 -156z" />
    <glyph glyph-name="uni06C4.fina" unicode="&#x6c4;" 
d="M426 -480q-71 0 -142.5 12t-123.5 34l15 182q32 -7 57 -11q-5 20 -5 43q0 71 45.5 114t112.5 43q68 0 114 -41t46 -116q0 -26 -6 -48q115 19 192.5 81t107.5 181h-190q-175 0 -236.5 78t-61.5 235q0 111 40.5 204.5t114.5 150t174 56.5q169 0 255.5 -137.5t94.5 -375.5
l170 1q46 0 65.5 -22.5t19.5 -85.5q0 -58 -25 -81t-70 -23h-172q-38 -229 -188.5 -351.5t-403.5 -122.5zM854 203q-6 162 -49.5 232.5t-127.5 70.5q-69 0 -109.5 -49t-40.5 -129q0 -75 32.5 -100t133.5 -25h81h80zM385 -273q54 0 54 53q0 52 -53 52q-24 0 -39.5 -14
t-15.5 -38q0 -27 16 -40t38 -13z" />
    <glyph glyph-name="uniFBE1" unicode="&#x6c5;" arabic-form="final" 
d="M294 -202v135h525q12 28 20 61h-190q-175 0 -236.5 78t-61.5 235q0 111 40.5 204.5t114.5 150t174 56.5q169 0 255.5 -137.5t94.5 -375.5l170 1q46 0 65.5 -22.5t19.5 -85.5q0 -58 -25 -81t-70 -23h-172q-38 -229 -188.5 -351.5t-403.5 -122.5q-71 0 -142.5 12t-123.5 34
l15 182q59 -12 112.5 -19t120.5 -7q93 0 170.5 18t134.5 58h-419zM854 203q-6 162 -49.5 232.5t-127.5 70.5q-69 0 -109.5 -49t-40.5 -129q0 -75 32.5 -100t133.5 -25h81h80z" />
    <glyph glyph-name="uniFBDA" unicode="&#x6c6;" arabic-form="final" 
d="M426 -480q-71 0 -142.5 12t-123.5 34l15 182q59 -12 112.5 -19t120.5 -7q168 0 281 60.5t150 211.5h-190q-175 0 -236.5 78t-61.5 235q0 111 40.5 204.5t114.5 150t174 56.5q169 0 255.5 -137.5t94.5 -375.5l170 1q46 0 65.5 -22.5t19.5 -85.5q0 -58 -25 -81t-70 -23
h-172q-38 -229 -188.5 -351.5t-403.5 -122.5zM854 203q-6 162 -49.5 232.5t-127.5 70.5q-69 0 -109.5 -49t-40.5 -129q0 -75 32.5 -100t133.5 -25h81h80zM610 828l-142 301l124 20l76 -194h10l72 194l122 -15l-135 -306h-127z" />
    <glyph glyph-name="uniFBD8" unicode="&#x6c7;" arabic-form="final" 
d="M426 -480q-71 0 -142.5 12t-123.5 34l15 182q59 -12 112.5 -19t120.5 -7q168 0 281 60.5t150 211.5h-190q-175 0 -236.5 78t-61.5 235q0 111 40.5 204.5t114.5 150t174 56.5q169 0 255.5 -137.5t94.5 -375.5l170 1q46 0 65.5 -22.5t19.5 -85.5q0 -58 -25 -81t-70 -23
h-172q-38 -229 -188.5 -351.5t-403.5 -122.5zM854 203q-6 162 -49.5 232.5t-127.5 70.5q-69 0 -109.5 -49t-40.5 -129q0 -75 32.5 -100t133.5 -25h81h80zM393 764l3 129q67 13 119 27t92 28q-27 23 -43.5 57t-16.5 78q0 76 50 120.5t116 44.5q72 0 117 -43.5t45 -126.5
q0 -86 -66 -146t-175.5 -100t-240.5 -68zM704 992q36 22 49.5 43.5t13.5 41.5q0 31 -16 46t-42 15q-60 0 -60 -62q0 -57 55 -84z" />
    <glyph glyph-name="uniFBDC" unicode="&#x6c8;" arabic-form="final" 
d="M426 -480q-71 0 -142.5 12t-123.5 34l15 182q59 -12 112.5 -19t120.5 -7q168 0 281 60.5t150 211.5h-190q-175 0 -236.5 78t-61.5 235q0 111 40.5 204.5t114.5 150t174 56.5q169 0 255.5 -137.5t94.5 -375.5l170 1q46 0 65.5 -22.5t19.5 -85.5q0 -58 -25 -81t-70 -23
h-172q-38 -229 -188.5 -351.5t-403.5 -122.5zM854 203q-6 162 -49.5 232.5t-127.5 70.5q-69 0 -109.5 -49t-40.5 -129q0 -75 32.5 -100t133.5 -25h81h80zM593 937q0 107 -10.5 213.5t-34.5 207.5h164q17 -65 26 -144t11 -153t-4 -124h-152z" />
    <glyph glyph-name="uniFBE3" unicode="&#x6c9;" arabic-form="final" 
d="M426 -480q-71 0 -142.5 12t-123.5 34l15 182q59 -12 112.5 -19t120.5 -7q168 0 281 60.5t150 211.5h-190q-175 0 -236.5 78t-61.5 235q0 111 40.5 204.5t114.5 150t174 56.5q169 0 255.5 -137.5t94.5 -375.5l170 1q46 0 65.5 -22.5t19.5 -85.5q0 -58 -25 -81t-70 -23
h-172q-38 -229 -188.5 -351.5t-403.5 -122.5zM854 203q-6 162 -49.5 232.5t-127.5 70.5q-69 0 -109.5 -49t-40.5 -129q0 -75 32.5 -100t133.5 -25h81h80zM730 1139l142 -301l-124 -20l-76 194h-10l-72 -194l-122 15l135 306h127z" />
    <glyph glyph-name="uni06CA.fina" unicode="&#x6ca;" 
d="M426 -480q-71 0 -142.5 12t-123.5 34l15 182q59 -12 112.5 -19t120.5 -7q168 0 281 60.5t150 211.5h-190q-175 0 -236.5 78t-61.5 235q0 111 40.5 204.5t114.5 150t174 56.5q169 0 255.5 -137.5t94.5 -375.5l170 1q46 0 65.5 -22.5t19.5 -85.5q0 -58 -25 -81t-70 -23
h-172q-38 -229 -188.5 -351.5t-403.5 -122.5zM854 203q-6 162 -49.5 232.5t-127.5 70.5q-69 0 -109.5 -49t-40.5 -129q0 -75 32.5 -100t133.5 -25h81h80zM795 820l-125 125l-125 -125l-155 154l155 156l125 -126l125 126l155 -156z" />
    <glyph glyph-name="uniFBDF" unicode="&#x6cb;" arabic-form="final" 
d="M426 -480q-71 0 -142.5 12t-123.5 34l15 182q59 -12 112.5 -19t120.5 -7q168 0 281 60.5t150 211.5h-190q-175 0 -236.5 78t-61.5 235q0 111 40.5 204.5t114.5 150t174 56.5q169 0 255.5 -137.5t94.5 -375.5l170 1q46 0 65.5 -22.5t19.5 -85.5q0 -58 -25 -81t-70 -23
h-172q-38 -229 -188.5 -351.5t-403.5 -122.5zM854 203q-6 162 -49.5 232.5t-127.5 70.5q-69 0 -109.5 -49t-40.5 -129q0 -75 32.5 -100t133.5 -25h81h80zM795 820l-125 125l-125 -125l-155 154l155 156l125 -126l125 126l155 -156zM671 1080l-148 148l148 149l148 -149z" />
    <glyph glyph-name="uniFBFE" unicode="&#x6cc;" arabic-form="initial" 
d="M-12 -6q-33 0 -33 114q0 53 14 75.5t31 22.5q217 0 362 5.5t233.5 19.5t134 39t60.5 63t15 93q0 74 -17 165t-42 195l189 35q34 -117 52 -217.5t18 -186.5q0 -94 -22 -165t-82.5 -120t-173.5 -79.5t-294 -44.5t-445 -14zM895 -425l-125 125l-125 -125l-155 154l155 156
l125 -126l125 126l155 -156z" />
    <glyph glyph-name="uniFBFF" unicode="&#x6cc;" arabic-form="medial" 
d="M-12 -6l12 212q177 0 280.5 5t154 20t66 45t16.5 81l8 330l197 4l-5 -324q0 -73 12 -107t48 -44t109 -10h314q38 0 56.5 -26.5t18.5 -64.5q0 -70 -25.5 -95.5t-61.5 -25.5h-325q-136 0 -198 41t-84 116h-25q-30 -59 -89 -93.5t-172 -49t-307 -14.5zM715 -425l-125 125
l-125 -125l-155 154l155 156l125 -126l125 126l155 -156z" />
    <glyph glyph-name="uniFBFD" unicode="&#x6cc;" arabic-form="final" 
d="M497 -410q-180 0 -281.5 51t-143.5 141.5t-42 207.5q0 64 11.5 140t32.5 144h178q-11 -73 -19 -129.5t-8 -115.5q0 -79 23.5 -131.5t88 -78t187.5 -25.5q224 0 334.5 45.5t110.5 106.5q0 35 -38.5 49.5t-147.5 25.5l35 195q92 -6 198.5 -8t183.5 -2q54 0 78 -26.5
t24 -72.5q0 -51 -29 -82t-85 -31q-23 0 -46 1q5 -21 5 -45q0 -97 -75 -179t-219.5 -131.5t-355.5 -49.5z" />
    <glyph glyph-name="uni06CD.fina" unicode="&#x6cd;" 
d="M497 -410q-180 0 -281.5 48.5t-143.5 136.5t-42 205q0 48 5 101l-159 -51l-43 185l257 84l153 -49q-8 -79 -13 -125t-5 -106q0 -79 23.5 -129t88 -73t187.5 -23q224 0 334.5 45.5t110.5 106.5q0 35 -38.5 49.5t-147.5 25.5l35 195q92 -6 198.5 -8t183.5 -2q54 0 78 -26.5
t24 -72.5q0 -51 -29 -82t-85 -31q-23 0 -46 1q5 -21 5 -45q0 -97 -75 -179t-219.5 -131.5t-355.5 -49.5z" />
    <glyph glyph-name="uni06CE.init" unicode="&#x6ce;" 
d="M-12 -6q-33 0 -33 114q0 53 14 75.5t31 22.5q217 0 362 5.5t233.5 19.5t134 39t60.5 63t15 93q0 74 -17 165t-42 195l189 35q34 -117 52 -217.5t18 -186.5q0 -94 -22 -165t-82.5 -120t-173.5 -79.5t-294 -44.5t-445 -14zM775 935l-142 301l124 20l76 -194h10l72 194
l122 -15l-135 -306h-127zM895 -425l-125 125l-125 -125l-155 154l155 156l125 -126l125 126l155 -156z" />
    <glyph glyph-name="uni06CE.medi" unicode="&#x6ce;" 
d="M-12 -6l12 212q177 0 280.5 5t154 20t66 45t16.5 81l8 330l197 4l-5 -324q0 -73 12 -107t48 -44t109 -10h314q38 0 56.5 -26.5t18.5 -64.5q0 -70 -25.5 -95.5t-61.5 -25.5h-325q-136 0 -198 41t-84 116h-25q-30 -59 -89 -93.5t-172 -49t-307 -14.5zM570 813l-142 301
l124 20l76 -194h10l72 194l122 -15l-135 -306h-127zM715 -425l-125 125l-125 -125l-155 154l155 156l125 -126l125 126l155 -156z" />
    <glyph glyph-name="uni06CE.fina" unicode="&#x6ce;" 
d="M497 -410q-180 0 -281.5 51t-143.5 141.5t-42 207.5q0 64 11.5 140t32.5 144h178q-11 -73 -19 -129.5t-8 -115.5q0 -79 23.5 -131.5t88 -78t187.5 -25.5q224 0 334.5 45.5t110.5 106.5q0 35 -38.5 49.5t-147.5 25.5l35 195q92 -6 198.5 -8t183.5 -2q54 0 78 -26.5
t24 -72.5q0 -51 -29 -82t-85 -31q-23 0 -46 1q5 -21 5 -45q0 -97 -75 -179t-219.5 -131.5t-355.5 -49.5zM290 455l-142 301l124 20l76 -194h10l72 194l122 -15l-135 -306h-127z" />
    <glyph glyph-name="uni06CF.fina" unicode="&#x6cf;" 
d="M426 -480q-71 0 -142.5 12t-123.5 34l15 182q59 -12 112.5 -19t120.5 -7q168 0 281 60.5t150 211.5h-190q-175 0 -236.5 78t-61.5 235q0 111 40.5 204.5t114.5 150t174 56.5q169 0 255.5 -137.5t94.5 -375.5l170 1q46 0 65.5 -22.5t19.5 -85.5q0 -58 -25 -81t-70 -23
h-172q-38 -229 -188.5 -351.5t-403.5 -122.5zM854 203q-6 162 -49.5 232.5t-127.5 70.5q-69 0 -109.5 -49t-40.5 -129q0 -75 32.5 -100t133.5 -25h81h80zM670 839l-161 161l161 162l161 -162z" />
    <glyph glyph-name="uniFBE6" unicode="&#x6d0;" arabic-form="initial" 
d="M-12 -6q-33 0 -33 114q0 53 14 75.5t31 22.5q217 0 362 5.5t233.5 19.5t134 39t60.5 63t15 93q0 74 -17 165t-42 195l189 35q34 -117 52 -217.5t18 -186.5q0 -94 -22 -165t-82.5 -120t-173.5 -79.5t-294 -44.5t-445 -14zM767 -652l-155 155l124 124l-121 121l155 155
l155 -155l-124 -124l121 -121z" />
    <glyph glyph-name="uniFBE7" unicode="&#x6d0;" arabic-form="medial" 
d="M-12 -6l12 212q177 0 280.5 5t154 20t66 45t16.5 81l8 330l197 4l-5 -324q0 -73 12 -107t48 -44t109 -10h314q38 0 56.5 -26.5t18.5 -64.5q0 -70 -25.5 -95.5t-61.5 -25.5h-325q-136 0 -198 41t-84 116h-25q-30 -59 -89 -93.5t-172 -49t-307 -14.5zM587 -652l-155 155
l124 124l-121 121l155 155l155 -155l-124 -124l121 -121z" />
    <glyph glyph-name="uniFBE5" unicode="&#x6d0;" arabic-form="final" 
d="M497 -410q-180 0 -281.5 51t-143.5 141.5t-42 207.5q0 64 11.5 140t32.5 144h178q-11 -73 -19 -129.5t-8 -115.5q0 -79 23.5 -131.5t88 -78t187.5 -25.5q224 0 334.5 45.5t110.5 106.5q0 35 -38.5 49.5t-147.5 25.5l35 195q92 -6 198.5 -8t183.5 -2q54 0 78 -26.5
t24 -72.5q0 -51 -29 -82t-85 -31q-23 0 -46 1q5 -21 5 -45q0 -97 -75 -179t-219.5 -131.5t-355.5 -49.5zM512 -982l-148 149l118 119l-115 116l148 149l148 -149l-118 -119l115 -116z" />
    <glyph glyph-name="uni06D1.init" unicode="&#x6d1;" 
d="M-12 -6q-33 0 -33 114q0 53 14 75.5t31 22.5q217 0 362 5.5t233.5 19.5t134 39t60.5 63t15 93q0 74 -17 165t-42 195l189 35q34 -117 52 -217.5t18 -186.5q0 -94 -22 -165t-82.5 -120t-173.5 -79.5t-294 -44.5t-445 -14zM897 -77l155 -154l-155 -156l-125 126l-125 -126
l-155 156l155 154l125 -125zM773 -337l148 -148l-148 -149l-148 149z" />
    <glyph glyph-name="uni06D1.medi" unicode="&#x6d1;" 
d="M-12 -6l12 212q177 0 280.5 5t154 20t66 45t16.5 81l8 330l197 4l-5 -324q0 -73 12 -107t48 -44t109 -10h314q38 0 56.5 -26.5t18.5 -64.5q0 -70 -25.5 -95.5t-61.5 -25.5h-325q-136 0 -198 41t-84 116h-25q-30 -59 -89 -93.5t-172 -49t-307 -14.5zM717 -77l155 -154
l-155 -156l-125 126l-125 -126l-155 156l155 154l125 -125zM593 -337l148 -148l-148 -149l-148 149z" />
    <glyph glyph-name="uni06D1.fina" unicode="&#x6d1;" 
d="M497 -410q-180 0 -281.5 51t-143.5 141.5t-42 207.5q0 64 11.5 140t32.5 144h178q-11 -73 -19 -129.5t-8 -115.5q0 -79 23.5 -131.5t88 -78t187.5 -25.5q224 0 334.5 45.5t110.5 106.5q0 35 -38.5 49.5t-147.5 25.5l35 195q92 -6 198.5 -8t183.5 -2q54 0 78 -26.5
t24 -72.5q0 -51 -29 -82t-85 -31q-23 0 -46 1q5 -21 5 -45q0 -97 -75 -179t-219.5 -131.5t-355.5 -49.5zM642 -432l154 -154l-154 -156l-125 126l-126 -126l-154 156l154 154l126 -125zM518 -692l148 -148l-148 -149l-149 149z" />
    <glyph glyph-name="uniFBAF" unicode="&#x6d2;" arabic-form="final" 
d="M578 -381q-228 0 -345.5 53t-117.5 182q0 159 134.5 255.5t407.5 96.5h543q57 0 78.5 -28.5t21.5 -75.5q0 -108 -112 -108h-597q-162 0 -219 -28.5t-57 -65.5t56.5 -53t219.5 -16q158 0 278 5t231 12l-16 -203q-112 -12 -235.5 -19t-270.5 -7z" />
    <glyph glyph-name="uniFBB1" unicode="&#x6d3;" arabic-form="final" 
d="M578 -381q-228 0 -345.5 53t-117.5 182q0 159 134.5 255.5t407.5 96.5h543q57 0 78.5 -28.5t21.5 -75.5q0 -108 -112 -108h-597q-162 0 -219 -28.5t-57 -65.5t56.5 -53t219.5 -16q158 0 278 5t231 12l-16 -203q-112 -12 -235.5 -19t-270.5 -7zM159 250l-11 120l94 24v13
q-72 25 -72 121q0 85 60 130.5t154 45.5q42 0 72 -7t55 -17l-6 -114q-54 7 -94 7q-66 0 -90.5 -16t-24.5 -55q0 -38 18 -52t54 -14q29 0 82.5 9.5t98.5 17.5l14 -125z" />
    <glyph glyph-name="uni06D5.fina" unicode="&#x6d5;" 
d="M574 157q-186 0 -287.5 68t-101.5 221q0 167 156.5 261t466.5 166l-2 114h206l4 -627q1 -68 15.5 -101t54 -43t114.5 -10q42 0 58.5 -19.5t16.5 -71.5q0 -60 -18 -90.5t-69 -30.5q-131 0 -210 22.5t-116 76.5t-44 149h-26q-22 -49 -77 -67t-141 -18zM810 675
q-231 -44 -338.5 -93t-107.5 -117q0 -59 58 -77.5t191 -18.5q42 0 97.5 3.5t104.5 8.5z" />
    <glyph glyph-name="uni06EE.fina" unicode="&#x6ee;" 
d="M458 -6q-70 0 -143 6.5t-142 25.5l18 200q70 -13 132 -20t135 -7q81 0 160.5 16.5t158.5 58.5l-231 629l192 64l207 -547q30 -79 60 -126t75.5 -67.5t119.5 -20.5q38 0 56.5 -16t18.5 -77q0 -70 -25.5 -94.5t-61.5 -24.5q-112 1 -185.5 25.5t-127.5 94.5
q-81 -60 -191 -90t-226 -30zM696 1393l142 -301l-124 -20l-76 194h-10l-72 -194l-122 15l135 306h127z" />
    <glyph glyph-name="uni06EF.fina" unicode="&#x6ef;" 
d="M917 23q-32 -250 -200.5 -372t-434.5 -122q-80 0 -131 6t-106 20l13 192q57 -7 97 -11.5t107 -4.5q215 0 336 92t121 278q0 64 -48.5 171t-107.5 231l186 91q59 -121 91 -196.5t63 -122.5q17 -25 46 -40t87.5 -22t163.5 -7q38 0 56.5 -19t18.5 -72q0 -70 -25.5 -95.5
t-61.5 -25.5q-100 0 -162 5.5t-109 23.5zM690 1004l142 -301l-124 -20l-76 194h-10l-72 -194l-122 15l135 306h127z" />
    <glyph glyph-name="uni06FA.init" unicode="&#x6fa;" 
d="M-12 -6l12 212q101 0 145 18t51 73q7 48 13 125.5t13 174.5l178 2q-5 -95 -10.5 -186t-16.5 -178q-2 -15 -4 -28q59 -20 111 -20q50 0 69.5 16.5t23.5 62.5q6 60 8 153t3 197l178 6q2 -104 1 -204t-9 -186l-4 -36q35 -9 76 -9q54 0 74.5 23t20.5 94t-11 150.5t-25 177.5
l181 21q20 -101 32 -192t12 -169q0 -151 -60 -224.5t-205 -73.5q-77 0 -125 19.5t-79 56.5h-16q-18 -39 -66.5 -57.5t-102.5 -18.5q-72 0 -122.5 16t-104.5 60h-23q-23 -39 -71.5 -57.5t-146.5 -18.5zM805 745l-125 125l-125 -125l-155 154l155 156l125 -126l125 126
l155 -156zM681 1005l-148 148l148 149l148 -149zM680 -429l-161 161l161 162l161 -162z" />
    <glyph glyph-name="uni06FA.medi" unicode="&#x6fa;" 
d="M456 -6q-72 0 -120 16t-101 60h-25q-31 -39 -81.5 -57.5t-140.5 -18.5l12 212q101 0 145 18t51 73q7 48 13 125.5t13 174.5l178 2q-5 -95 -10.5 -186t-16.5 -178q-2 -14 -5 -28q60 -20 112 -20q50 0 69.5 16.5t23.5 62.5q6 60 8 153t3 197l178 6q2 -104 1 -204t-9 -186
q-2 -17 -4 -35q37 -10 76 -10q54 0 74 23t20 94t1.5 148t2.5 183l181 12q1 -75 1 -143.5t-1 -126.5v-49.5v-45.5q0 -46 17.5 -61t77.5 -15q38 0 56.5 -26.5t18.5 -64.5q0 -70 -25.5 -95.5t-61.5 -25.5q-55 0 -98 16t-70 60h-26q-19 -41 -61.5 -58.5t-97.5 -17.5
q-69 0 -113 20.5t-73 55.5h-24q-18 -39 -66.5 -57.5t-102.5 -18.5zM805 745l-125 125l-125 -125l-155 154l155 156l125 -126l125 126l155 -156zM681 1005l-148 148l148 149l148 -149zM680 -429l-161 161l161 162l161 -162z" />
    <glyph glyph-name="uni06FA.fina" unicode="&#x6fa;" 
d="M285 -357q-155 0 -215 98t-60 288q0 95 8.5 209.5t21.5 205.5h160q-5 -94 -9.5 -191.5t-4.5 -181.5q0 -134 19.5 -179t77.5 -45q40 0 62.5 22t32 79.5t9.5 164.5q0 113 -5 235.5t-13 242.5l169 10q8 -94 15 -207.5t8 -202.5q24 -4 54 -4q35 0 49 11.5t15 37.5
q4 59 1.5 164t-7.5 209l166 8q3 -67 6 -145t3 -152t-4 -128q25 -5 52 -5q37 0 50 18.5t13 76.5q0 71 -4.5 160t-10.5 193l165 5q5 -101 8.5 -190.5t3.5 -167.5q0 -50 17 -63t62 -13q38 0 56.5 -26.5t18.5 -64.5q0 -70 -25.5 -95.5t-61.5 -25.5q-61 0 -99.5 20t-60.5 56h-26
q-17 -40 -48 -58t-69 -18q-41 0 -76.5 15.5t-61.5 59.5h-24q-30 -75 -122 -75q-26 0 -45 2q-13 -185 -72 -269t-199 -84zM886 745l-125 125l-125 -125l-155 154l155 156l125 -126l125 126l155 -156zM762 1005l-148 148l148 149l148 -149zM853 -429l-161 161l161 162
l161 -162z" />
    <glyph glyph-name="uni06FB.init" unicode="&#x6fb;" 
d="M614 -6q-137 0 -216.5 5t-120.5 24.5t-63 61.5h-25q-27 -49 -75 -70t-126 -21l12 212q40 0 58 17.5t24.5 80t9.5 195.5l154 2q-2 -86 -6 -155t-12 -123q12 -2 24 -3q90 180 183.5 319.5t188.5 219t187 79.5q84 0 161 -53t126.5 -156.5t49.5 -253.5q0 -113 -47 -199
t-163 -134t-324 -48zM436 208q75 -2 196 -2q117 0 185 14t99.5 39t40.5 58.5t9 71.5q0 58 -24 111.5t-63 88t-85 34.5q-72 0 -160.5 -107t-197.5 -308zM780 974l-161 161l161 162l161 -162zM650 -429l-161 161l161 162l161 -162z" />
    <glyph glyph-name="uni06FB.medi" unicode="&#x6fb;" 
d="M1189 -7q-72 0 -111 17t-61 62h-19q-62 -37 -156.5 -57.5t-227.5 -20.5q-137 0 -216.5 5t-120.5 24.5t-63 61.5h-25q-27 -49 -75 -70t-126 -21l12 212q40 0 58 17.5t24.5 80t9.5 195.5l154 2q-2 -86 -6 -155t-12 -123q12 -2 24 -3q90 180 183.5 319.5t188.5 219t187 79.5
q84 0 161 -53t126.5 -156.5t49.5 -253.5q0 -46 -7 -87t-22 -78q20 -3 39.5 -4t41.5 -1q42 0 61 -19t19 -70q0 -123 -91 -123zM436 208q75 -2 196 -2q117 0 185 14t99.5 39t40.5 58.5t9 71.5q0 58 -24 111.5t-63 88t-85 34.5q-72 0 -160.5 -107t-197.5 -308zM780 974
l-161 161l161 162l161 -162zM650 -429l-161 161l161 162l161 -162z" />
    <glyph glyph-name="uni06FB.fina" unicode="&#x6fb;" 
d="M1189 -6q-49 0 -72 16.5t-37 60.5q-93 -78 -320 -78q-57 0 -111 4.5t-102 15.5q-12 -203 -73 -286.5t-210 -83.5q-103 0 -158 43.5t-75.5 129.5t-20.5 213q0 95 8.5 209t21.5 205h160q-6 -94 -10 -191t-4 -181q0 -134 15.5 -179t73.5 -45q40 0 62 18t31 74.5t9 173.5
q0 76 -2 136t-6 122t-10 142l172 9q5 -74 10 -137.5t8 -125.5q92 306 179 441.5t196 135.5q75 0 132.5 -68.5t89.5 -174.5t32 -219q0 -100 -18 -167q19 -1 40 -1q47 0 63.5 -19.5t16.5 -70.5q0 -122 -91 -122zM693 205q43 -2 90 -2q98 0 144 13t59 48t13 100q0 63 -14 123
t-36.5 98.5t-49.5 38.5q-26 0 -54.5 -33.5t-65 -124t-86.5 -261.5zM880 984l-161 161l161 162l161 -162zM820 -429l-161 161l161 162l161 -162z" />
    <glyph glyph-name="uni06FC.init" unicode="&#x6fc;" 
d="M-17 -6l17 212q139 0 222 1t161 4v20q-46 22 -76 74t-30 143q0 172 107.5 259.5t288.5 87.5q71 0 148.5 -17t141.5 -45l-17 -172q-55 12 -111 21t-122 9q-114 0 -171.5 -40.5t-57.5 -138.5q0 -75 21 -111.5t69.5 -47.5t128.5 -11q55 0 145.5 11t198.5 30l19 -188
q-168 -49 -353.5 -70t-371.5 -26t-358 -5zM671 914l-161 161l161 162l161 -162zM669 -429l-161 161l161 162l161 -162z" />
    <glyph glyph-name="uni06FC.medi" unicode="&#x6fc;" 
d="M-16 -6l16 212q208 0 390 30q-43 44 -88 95t-107 120v215q88 33 201 58.5t228 25.5q392 0 392 -261q0 -80 -46.5 -149.5t-125.5 -125.5q63 -5 151.5 -6.5t206.5 -1.5q79 0 98.5 -20.5t19.5 -76.5q0 -62 -26.5 -88.5t-107.5 -26.5q-155 0 -267 6.5t-195 26t-151 57.5
q-133 -44 -285.5 -67t-303.5 -23zM621 294q84 31 133 70.5t49 86.5q0 38 -38.5 62.5t-151.5 24.5q-59 0 -113 -7.5t-106 -19.5q77 -78 128 -128.5t99 -88.5zM610 884l-161 161l161 162l161 -162zM609 -429l-161 161l161 162l161 -162z" />
    <glyph glyph-name="uni06FC.fina" unicode="&#x6fc;" 
d="M610 -639q-259 0 -381 86t-122 262q0 128 87 230.5t269 226.5q-67 61 -124 124.5t-144 160.5v215q88 33 201 58.5t228 25.5q391 0 391 -255q0 -77 -42 -144t-135 -137q65 -5 154.5 -6.5t209.5 -1.5q79 0 98.5 -20.5t19.5 -76.5q0 -62 -26.5 -88.5t-107.5 -26.5
q-212 0 -345 13t-229 58q-157 -102 -234 -174.5t-77 -155.5q0 -91 69.5 -130t253.5 -39q137 0 253.5 16.5t188.5 30.5l-2 -175q-79 -31 -205.5 -54t-248.5 -23zM638 280q91 60 128 97t37 74q0 38 -38.5 62.5t-151.5 24.5q-59 0 -113 -7.5t-106 -19.5q84 -85 137.5 -137.5
t106.5 -93.5zM610 884l-161 161l161 162l161 -162zM658 -339l-161 161l161 162l161 -162z" />
    <glyph glyph-name="uni06FF.init" unicode="&#x6ff;" 
d="M-12 -6q-29 0 -43.5 22.5t-14.5 98.5q0 59 18.5 75t51.5 16q66 0 112 1.5t83 4.5q-29 47 -45.5 105t-16.5 128q0 108 46.5 186t120.5 118l40 155q255 -65 412 -129t239 -131.5t111 -142t29 -161.5q0 -88 -33.5 -167t-120.5 -129t-248 -50q-87 0 -167 12.5t-149 38.5
q-94 -29 -202 -40t-223 -11zM448 252q73 28 102.5 77t29.5 118q0 81 -33.5 121.5t-91.5 40.5t-93 -40t-35 -118q0 -143 121 -199zM689 207q32 -1 68 -1q105 0 142 39.5t37 99.5v6q0 30 -7.5 67t-47 79t-133.5 86q24 -67 24 -138q0 -78 -20.5 -135t-62.5 -103zM609 1299
l142 -301l-124 -20l-76 194h-10l-72 -194l-122 15l135 306h127z" />
    <glyph glyph-name="uni06FF.medi" unicode="&#x6ff;" 
d="M659 -491q-174 0 -285.5 123t-127.5 363q-55 -1 -119 -1h-139q-31 0 -44.5 24t-13.5 97q0 57 19.5 73.5t50.5 16.5h136.5t116.5 1q19 149 73.5 270.5t124 215t135.5 159.5l175 28q76 -132 118.5 -260.5t42.5 -268.5q0 -81 -27 -141q138 -4 305 -4q50 0 75 -13.5t25 -72.5
q0 -82 -26 -103.5t-86 -21.5q-63 0 -139.5 3.5t-144.5 16.5q33 -47 47 -103t14 -106q0 -145 -86 -220.5t-220 -75.5zM637 33q-95 -22 -210 -31q7 -114 43.5 -178t87.5 -90t102 -26q119 0 119 107q0 58 -32.5 116.5t-109.5 101.5zM438 211q87 5 153 16q87 14 116 44t29 79
q0 141 -79 313q-82 -93 -139.5 -205.5t-79.5 -246.5zM699 1289l142 -301l-124 -20l-76 194h-10l-72 -194l-122 15l135 306h127z" />
    <glyph glyph-name="uni06FF.fina" unicode="&#x6ff;" 
d="M659 -491q-174 0 -285.5 123t-127.5 364q-149 10 -243 59l16 156l118 -2t116 -1q20 148 74 269t123.5 214.5t135.5 159.5l175 28q76 -132 118.5 -260.5t42.5 -268.5q0 -78 -30 -141q139 -4 308 -4q50 0 75 -13.5t25 -72.5q0 -82 -26 -103.5t-86 -21.5q-63 0 -139.5 3.5
t-144.5 16.5q33 -47 47 -103t14 -106q0 -145 -86 -220.5t-220 -75.5zM645 28q-51 -14 -108.5 -21t-109.5 -10q8 -112 44.5 -175t87.5 -88.5t101 -25.5q119 0 119 107q0 56 -30.5 113t-103.5 100zM438 211q66 2 116.5 7.5t86.5 16.5q95 28 95 115q0 141 -79 313
q-83 -93 -140 -205.5t-79 -246.5zM699 1289l142 -301l-124 -20l-76 194h-10l-72 -194l-122 15l135 306h127z" />
    <glyph glyph-name="uniFC5B" unicode="&#xfc5b;" arabic-form="isolated" 
d="M517 -5q-92 0 -171.5 9t-165.5 31l23 200q90 -18 158.5 -26.5t150.5 -8.5q66 0 134.5 10.5t115 34.5t46.5 63q0 55 -78.5 206.5t-226.5 357.5l170 110q155 -207 247 -383t92 -301q0 -143 -129 -223t-366 -80zM616 1103l-161 161l161 162l161 -162zM539 1518
q0 107 -10.5 213.5t-34.5 207.5h164q17 -65 26 -144t11 -153t-4 -124h-152z" />
    <glyph glyph-name="uniFC5C" unicode="&#xfc5c;" arabic-form="isolated" 
d="M412 -471q-80 0 -135.5 5.5t-111.5 20.5l13 192q57 -7 100.5 -11.5t103.5 -4.5q215 0 326 84.5t111 255.5q0 92 -38.5 197.5t-121.5 256.5l181 94q189 -307 189 -541q0 -264 -162.5 -406.5t-454.5 -142.5zM652 959q0 107 -10.5 213.5t-34.5 207.5h164q17 -65 26 -144
t11 -153t-4 -124h-152z" />
    <glyph glyph-name="uniFC5D" unicode="&#xfc5d;" arabic-form="isolated" 
d="M551 -356q-256 0 -386.5 98.5t-130.5 324.5q0 77 10.5 153.5t35.5 158.5h178q-13 -85 -21 -144.5t-8 -127.5q0 -97 30.5 -151.5t105.5 -77.5t206 -23q179 0 274 48.5t95 110.5q0 35 -36 53.5t-150 43.5q-142 31 -203.5 88t-61.5 168q0 110 58 212.5t159.5 168t233.5 65.5
q69 0 118 -17.5t89 -46.5l-41 -195q-36 20 -75.5 33.5t-93.5 13.5q-82 0 -138 -31.5t-84.5 -76t-28.5 -84.5q0 -34 17.5 -54.5t63.5 -37t132 -39.5q102 -27 153.5 -60t68.5 -74.5t17 -94.5q0 -104 -66.5 -196.5t-197 -150.5t-323.5 -58zM213 710q0 107 -10.5 213.5
t-34.5 207.5h164q17 -65 26 -144t11 -153t-4 -124h-152z" />
    <glyph glyph-name="uniFC90" unicode="&#xfc90;" arabic-form="final" 
d="M497 -410q-180 0 -281.5 51t-143.5 141.5t-42 207.5q0 64 11.5 140t32.5 144h178q-11 -73 -19 -129.5t-8 -115.5q0 -79 23.5 -131.5t88 -78t187.5 -25.5q224 0 334.5 45.5t110.5 106.5q0 35 -38.5 49.5t-147.5 25.5l35 195q92 -6 198.5 -8t183.5 -2q54 0 78 -26.5
t24 -72.5q0 -51 -29 -82t-85 -31q-23 0 -46 1q5 -21 5 -45q0 -97 -75 -179t-219.5 -131.5t-355.5 -49.5zM333 530q0 107 -10.5 213.5t-34.5 207.5h164q17 -65 26 -144t11 -153t-4 -124h-152z" />
    <glyph glyph-name="uniFCD9" unicode="&#xfcd9;" arabic-form="initial" 
d="M-12 -6q-29 0 -43.5 22.5t-14.5 98.5q0 59 18.5 75t51.5 16q66 0 112 1.5t83 4.5q-29 47 -45.5 105t-16.5 128q0 108 46.5 186t120.5 118l40 155q255 -65 412 -129t239 -131.5t111 -142t29 -161.5q0 -88 -33.5 -167t-120.5 -129t-248 -50q-87 0 -167 12.5t-149 38.5
q-94 -29 -202 -40t-223 -11zM448 252q73 28 102.5 77t29.5 118q0 81 -33.5 121.5t-91.5 40.5t-93 -40t-35 -118q0 -143 121 -199zM689 207q32 -1 68 -1q105 0 142 39.5t37 99.5v6q0 30 -7.5 67t-47 79t-133.5 86q24 -67 24 -138q0 -78 -20.5 -135t-62.5 -103zM472 1097
q0 107 -10.5 213.5t-34.5 207.5h164q17 -65 26 -144t11 -153t-4 -124h-152z" />
    <glyph glyph-name="uniFD3C" unicode="&#xfd3c;" arabic-form="final" 
d="M1188 -6h-39h-38q-126 0 -230 1t-201 9q-140 12 -218.5 50.5t-110.5 117.5t-33 214l-8 1034h206l8 -969q1 -95 15 -145.5t56.5 -70.5t129.5 -24t180 -4.5t217 -0.5h38.5h39.5q55 0 55 -95q0 -64 -18 -90.5t-49 -26.5zM639 1009l6 126l518 144l-6 -126zM639 1209l6 126
l518 144l-6 -126z" />
    <glyph glyph-name="uniFD3D" unicode="&#xfd3d;" arabic-form="isolated" 
d="M505 0l-21 1420h206l21 -1420h-206zM819 1009l6 126l518 144l-6 -126zM819 1209l6 126l518 144l-6 -126z" />
    <glyph glyph-name="uniFDF2" unicode="&#xfdf2;" arabic-form="isolated" 
d="M1017 -6q-158 0 -236 51.5t-89 196.5h-26q-22 -49 -77 -67t-141 -18q-186 0 -287.5 68t-101.5 221q0 167 156.5 261t466.5 166l-2 114h206l4 -627q1 -69 14 -102t44.5 -42.5t85.5 -9.5q64 0 96 13.5t42.5 55t8.5 125.5l-20 798h206l25 -789q3 -86 16.5 -130.5t44 -59.5
t84.5 -15q59 0 91 15.5t44.5 61.5t9.5 139l-20 778h206l27 -758q5 -143 -21.5 -243t-103.5 -151.5t-223 -51.5q-99 0 -169 32t-110 133h-24q-23 -100 -86 -132.5t-141 -32.5zM684 675q-231 -44 -338.5 -93t-107.5 -117q0 -59 58 -77.5t191 -18.5q42 0 97.5 3.5t104.5 8.5z
M2132 0l-21 1198h206l21 -1198h-206z" />
    <glyph glyph-name=".notdef" 
d="M128 0v1420h944v-1420h-944zM860 190v1040h-520v-1040h520z" />
    <glyph glyph-name=".null" horiz-adv-x="0" 
 />
    <glyph glyph-name="nonmarkingreturn" horiz-adv-x="682" 
 />
    <glyph glyph-name="CR" unicode="&#xd;" 
 />
    <glyph glyph-name="space" unicode=" " 
 />
    <glyph glyph-name="exclam" unicode="!" 
d="M512 456l-16 974h208l-20 -974h-172zM600 -20q-61 0 -104.5 43.5t-43.5 104.5q0 62 43.5 105t104.5 43q62 0 105 -43t43 -105q0 -61 -43 -104.5t-105 -43.5z" />
    <glyph glyph-name="quotedbl" unicode="&#x22;" 
d="M304 780l-20 640h232l-20 -640h-192zM708 780l-20 640h232l-20 -640h-192z" />
    <glyph glyph-name="numbersign" unicode="#" 
d="M670 0l30 360h-260l-30 -360h-176l30 360h-164v170h179l30 360h-209v170h224l30 360h176l-30 -360h260l30 360h176l-30 -360h164v-170h-179l-30 -360h209v-170h-224l-30 -360h-176zM455 530h260l30 360h-260z" />
    <glyph glyph-name="dollar" unicode="$" 
d="M544 -320v300q-238 1 -415 78l26 202q103 -44 200 -68.5t189 -27.5v461l-77 35q-145 66 -222.5 159t-77.5 231q0 174 98 274.5t279 113.5v302h138v-304q111 -11 202 -53t177 -122l-140 -142q-128 104 -239 128v-450l53 -25q158 -74 240 -167t82 -239q0 -333 -375 -379
v-307h-138zM544 862v390q-163 -24 -163 -192q0 -69 37 -112.5t109 -77.5zM682 175q161 35 161 187q0 127 -130 186l-31 14v-387z" />
    <glyph glyph-name="percent" unicode="%" 
d="M368 794q-142 0 -228 88.5t-86 233.5q0 147 86 235.5t228 88.5q141 0 226.5 -87t85.5 -237q0 -145 -85.5 -233.5t-226.5 -88.5zM854 -20q-142 0 -228 88.5t-86 233.5q0 147 86 235.5t228 88.5q141 0 226.5 -88.5t85.5 -235.5q0 -145 -85.5 -233.5t-226.5 -88.5zM186 306
l-92 136l930 664l92 -130zM368 957q59 0 95 44t36 115q0 74 -36 118.5t-95 44.5q-61 0 -97 -44.5t-36 -118.5q0 -71 36 -115t97 -44zM854 143q59 0 95 44t36 115q0 73 -36 117t-95 44q-61 0 -97 -44t-36 -117q0 -71 36 -115t97 -44z" />
    <glyph glyph-name="ampersand" unicode="&#x26;" 
d="M962 0l-104 114q-156 -134 -396 -134q-183 0 -294.5 99.5t-111.5 264.5q0 134 70 229t200 139q-65 92 -94.5 172t-29.5 158q0 191 106.5 294.5t301.5 103.5q181 0 280.5 -83t99.5 -235h-214q0 65 -42.5 99.5t-119.5 34.5q-91 0 -141.5 -56t-50.5 -160q0 -73 38.5 -143
t105.5 -147l282 -321q52 139 52 337h192q0 -299 -107 -494l239 -272h-262zM732 252l-286 314l-14 16q-174 -74 -174 -228q0 -85 62.5 -137.5t165.5 -52.5q147 0 246 88z" />
    <glyph glyph-name="quotesingle" unicode="'" 
d="M504 780l-20 640h232l-20 -640h-192z" />
    <glyph glyph-name="parenleft" unicode="(" 
d="M950 -200q-325 0 -504.5 239.5t-179.5 676.5q0 431 179.5 667.5t504.5 236.5h48v-180h-28q-237 0 -365.5 -190t-128.5 -534q0 -350 128.5 -543t365.5 -193h28v-180h-48z" />
    <glyph glyph-name="parenright" unicode=")" 
d="M202 -200v180h28q237 0 365.5 193t128.5 543q0 344 -128.5 534t-365.5 190h-28v180h48q326 0 505 -236.5t179 -667.5q0 -437 -179 -676.5t-505 -239.5h-48z" />
    <glyph glyph-name="asterisk" unicode="*" 
d="M826 258l-226 313l-226 -313l-166 140l253 260l-349 100l74 204l332 -148l-26 362h216l-26 -362l332 148l74 -204l-349 -100l253 -260z" />
    <glyph glyph-name="plus" unicode="+" 
d="M494 190v427h-394v186h394v425h212v-425h394v-186h-394v-427h-212z" />
    <glyph glyph-name="comma" unicode="," 
d="M412 -436l80 690h232l-120 -690h-192z" />
    <glyph glyph-name="hyphen" unicode="-" 
d="M100 616v186h1000v-186h-1000z" />
    <glyph glyph-name="period" unicode="." 
d="M600 -20q-61 0 -104.5 43.5t-43.5 104.5q0 62 43.5 105t104.5 43q62 0 105 -43t43 -105q0 -61 -43 -104.5t-105 -43.5z" />
    <glyph glyph-name="slash" unicode="/" 
d="M114 -190l804 1800h212l-804 -1800h-212z" />
    <glyph glyph-name="zero" unicode="0" 
d="M600 -20q-484 0 -484 720q0 740 484 740t484 -740q0 -720 -484 -720zM600 164q270 0 270 536q0 556 -270 556t-270 -556q0 -536 270 -536zM600 550q-67 0 -108.5 41.5t-41.5 108.5q0 68 41.5 109t108.5 41q68 0 109 -41t41 -109q0 -67 -41 -108.5t-109 -41.5z" />
    <glyph glyph-name="one" unicode="1" 
d="M170 0v190h356v1024l-336 -116v202l336 120h208v-1230h318v-190h-882z" />
    <glyph glyph-name="two" unicode="2" 
d="M152 0v228q329 182 491.5 378.5t162.5 405.5q0 244 -242 244q-81 0 -169 -47t-151 -125l-138 137q69 99 196 159t266 60q448 0 448 -428q0 -215 -136.5 -412.5t-415.5 -379.5v-30h612v-190h-924z" />
    <glyph glyph-name="three" unicode="3" 
d="M514 -20q-110 0 -201.5 13t-162.5 35l25 191q61 -17 137.5 -36t193.5 -19q156 0 242 62t86 174q0 120 -110 185t-312 65h-32l-24 130q236 32 342 107.5t106 184.5q0 87 -56.5 135.5t-161.5 48.5q-76 0 -161.5 -38t-161.5 -114l-138 137q92 104 213 151.5t270 47.5
q194 0 300 -82.5t106 -235.5q0 -128 -82 -222.5t-214 -129.5v-21q147 -26 236.5 -120.5t89.5 -248.5q0 -190 -138.5 -295t-391.5 -105z" />
    <glyph glyph-name="four" unicode="4" 
d="M74 318l200 1022h216l-165 -836h453v916h208v-916h134v-186h-134v-318h-208v318h-704z" />
    <glyph glyph-name="five" unicode="5" 
d="M614 -20q-230 0 -356 109.5t-126 308.5h214q0 -111 70 -172.5t200 -61.5q128 0 198 77t70 217q0 137 -76 212.5t-216 75.5t-262 -66h-112l20 740h766v-186h-558l-11 -344q57 21 113.5 28.5t113.5 7.5q206 0 319 -122t113 -346q0 -228 -125.5 -353t-354.5 -125z" />
    <glyph glyph-name="six" unicode="6" 
d="M608 -20q-247 0 -363.5 123t-116.5 383v88q0 407 206.5 619t629.5 233l20 -190q-633 -27 -634 -568h18q30 111 119.5 171.5t218.5 60.5q186 0 287 -115t101 -325q0 -226 -128.5 -353t-357.5 -127zM615 164q127 0 198 78.5t71 217.5q0 123 -65.5 189.5t-187.5 66.5
q-139 0 -214 -72t-75 -204q0 -130 72 -203t201 -73z" />
    <glyph glyph-name="seven" unicode="7" 
d="M437 0l423 1230h-534v-308h-214v498h1042l-488 -1420h-229z" />
    <glyph glyph-name="eight" unicode="8" 
d="M600 -20q-231 0 -357.5 107.5t-126.5 302.5q0 143 82.5 235t235.5 123v15q-134 30 -206 111t-72 206q0 171 116.5 265.5t327.5 94.5q212 0 328 -94.5t116 -265.5q0 -124 -71.5 -205t-204.5 -112v-15q152 -32 234 -123.5t82 -234.5q0 -195 -126.5 -302.5t-357.5 -107.5z
M600 164q131 0 202.5 62t71.5 174q0 120 -71.5 187t-202.5 67t-202.5 -67t-71.5 -187q0 -112 71.5 -174t202.5 -62zM600 846q112 0 173 51.5t61 142.5q0 104 -61 160t-173 56t-173 -56t-61 -160q0 -91 61 -142.5t173 -51.5z" />
    <glyph glyph-name="nine" unicode="9" 
d="M504 506q-186 0 -287 115t-101 325q0 227 128.5 353.5t357.5 126.5q247 0 363.5 -123t116.5 -383v-88q0 -406 -206.5 -618.5t-629.5 -233.5l-20 190q633 27 634 568h-18q-30 -111 -119.5 -171.5t-218.5 -60.5zM579 690q139 0 214 72t75 204q0 130 -72 203t-201 73
q-127 0 -198 -78t-71 -218q0 -123 65.5 -189.5t187.5 -66.5z" />
    <glyph glyph-name="colon" unicode=":" 
d="M600 -20q-61 0 -104.5 43.5t-43.5 104.5q0 62 43.5 105t104.5 43q62 0 105 -43t43 -105q0 -61 -43 -104.5t-105 -43.5zM600 784q-61 0 -104.5 43.5t-43.5 104.5q0 62 43.5 105t104.5 43q62 0 105 -43t43 -105q0 -61 -43 -104.5t-105 -43.5z" />
    <glyph glyph-name="semicolon" unicode=";" 
d="M412 -436l80 690h232l-120 -690h-192zM600 784q-61 0 -104.5 43.5t-43.5 104.5q0 62 43.5 105t104.5 43q62 0 105 -43t43 -105q0 -61 -43 -104.5t-105 -43.5z" />
    <glyph glyph-name="less" unicode="&#x3c;" 
d="M1054 214l-958 394v202l958 394v-220l-740 -266v-18l740 -266v-220z" />
    <glyph glyph-name="equal" unicode="=" 
d="M100 366v186h1000v-186h-1000zM100 866v186h1000v-186h-1000z" />
    <glyph glyph-name="greater" unicode="&#x3e;" 
d="M146 214v220l700 266v18l-700 266v220l958 -394v-202z" />
    <glyph glyph-name="question" unicode="?" 
d="M460 456v96q0 198 164 302q162 101 162 238q0 75 -50 116.5t-142 41.5q-94 0 -185 -47t-155 -125l-138 143q70 99 199.5 159t280.5 60q195 0 302.5 -88.5t107.5 -249.5q0 -221 -222 -364q-128 -83 -128 -200v-82h-196zM562 -20q-61 0 -104.5 43.5t-43.5 104.5
q0 62 43.5 105t104.5 43q62 0 105 -43t43 -105q0 -61 -43 -104.5t-105 -43.5z" />
    <glyph glyph-name="at" unicode="@" 
d="M710 -243q-316 0 -459 199.5t-143 641.5q0 841 512 841q452 0 452 -546v-725h-172v212h-12q-18 -111 -73.5 -171.5t-138.5 -60.5q-133 0 -206.5 123.5t-73.5 347.5q0 237 73.5 353.5t208.5 116.5q77 0 132.5 -60.5t77.5 -171.5h12v30q0 372 -280 372q-344 0 -344 -661
q0 -348 103 -504.5t331 -156.5q125 0 197 25v-180q-79 -25 -197 -25zM734 338q80 0 123 60.5t43 171.5q0 172 -39 250.5t-113 78.5q-82 0 -127 -67t-45 -213q0 -134 41.5 -207.5t116.5 -73.5z" />
    <glyph glyph-name="A" unicode="A" 
d="M45 0l410 1420h290l410 -1420h-210l-93 346h-504l-93 -346h-210zM399 536h402l-192 712h-18z" />
    <glyph glyph-name="B" unicode="B" 
d="M160 0v1420h422q216 0 334 -93.5t118 -266.5q0 -130 -88.5 -207.5t-251.5 -94.5v-12q210 -3 325 -96t115 -260q0 -186 -112 -288t-318 -102h-544zM368 190h278q132 0 205 60.5t73 169.5q0 112 -76 173.5t-216 61.5h-264v-465zM368 845h218q113 0 175.5 50.5t62.5 144.5
q0 92 -65.5 141t-186.5 49h-204v-385z" />
    <glyph glyph-name="C" unicode="C" 
d="M748 -20q-662 0 -662 732q0 347 167 537.5t471 190.5q147 0 256 -46.5t159 -132.5l-148 -147q-45 68 -114.5 105t-150.5 37q-193 0 -309.5 -139t-116.5 -395q0 -558 482 -558q145 0 286 60l46 -176q-174 -68 -366 -68z" />
    <glyph glyph-name="D" unicode="D" 
d="M140 0v1420h344q650 0 650 -730q0 -690 -650 -690h-344zM348 190h136q440 0 440 500q0 540 -440 540h-136v-1040z" />
    <glyph glyph-name="E" unicode="E" 
d="M160 0v1420h940v-190h-732v-424h552v-190h-552v-426h732v-190h-940z" />
    <glyph glyph-name="F" unicode="F" 
d="M180 0v1420h940v-190h-732v-484h552v-190h-552v-556h-208z" />
    <glyph glyph-name="G" unicode="G" 
d="M702 -20q-636 0 -636 732q0 347 165 537.5t463 190.5q149 0 261 -46.5t165 -131.5l-149 -148q-46 68 -115.5 105t-149.5 37q-202 0 -314 -139.5t-112 -394.5q0 -558 446 -558q47 0 88.5 5t77.5 13v338h-282v190h480v-670q-42 -13 -147.5 -36.5t-240.5 -23.5z" />
    <glyph glyph-name="H" unicode="H" 
d="M852 0v612h-504v-612h-208v1420h208v-618h504v618h208v-1420h-208z" />
    <glyph glyph-name="I" unicode="I" 
d="M168 0v190h327v1040h-327v190h864v-190h-329v-1040h329v-190h-864z" />
    <glyph glyph-name="J" unicode="J" 
d="M574 -20q-234 0 -361 130.5t-127 365.5h208q0 -150 74.5 -233t210.5 -83q132 0 203.5 82.5t71.5 233.5v754h-364v190h572v-944q0 -236 -129 -366t-359 -130z" />
    <glyph glyph-name="K" unicode="K" 
d="M150 0v1420h208v-767q137 14 237 83t165 176t96.5 238t31.5 270h206q0 -219 -73.5 -418t-212.5 -336l354 -666h-242l-281 541q-63 -34 -133 -55.5t-148 -29.5v-456h-208z" />
    <glyph glyph-name="L" unicode="L" 
d="M160 0v1420h208v-1230h732v-190h-940z" />
    <glyph glyph-name="M" unicode="M" 
d="M128 0v1420h310l154 -610h16l154 610h310v-1420h-200v1168h-26l-154 -588h-184l-154 588h-26v-1168h-200z" />
    <glyph glyph-name="N" unicode="N" 
d="M784 0l-408 1080h-20v-1080h-208v1420h268l408 -1080h20v1080h208v-1420h-268z" />
    <glyph glyph-name="O" unicode="O" 
d="M600 -20q-524 0 -524 720q0 740 524 740t524 -740q0 -720 -524 -720zM600 164q310 0 310 536q0 556 -310 556t-310 -556q0 -536 310 -536z" />
    <glyph glyph-name="P" unicode="P" 
d="M160 0v1420h418q267 0 404.5 -119t137.5 -351q0 -251 -137.5 -380.5t-404.5 -129.5h-210v-440h-208zM368 630h210q332 0 332 320q0 280 -332 280h-210v-600z" />
    <glyph glyph-name="Q" unicode="Q" 
d="M930 -460q-434 0 -434 440v8q-420 67 -420 712q0 740 524 740t524 -740q0 -652 -430 -714v-8q0 -258 236 -258h102l-20 -180h-82zM600 164q310 0 310 536q0 556 -310 556t-310 -556q0 -536 310 -536z" />
    <glyph glyph-name="R" unicode="R" 
d="M140 0v1420h488q221 0 341.5 -112t120.5 -318q0 -153 -62 -257.5t-179 -153.5l293 -579h-240l-257 540h-17h-280v-540h-208zM348 730h280q119 0 185.5 63t66.5 177q0 125 -66.5 192.5t-185.5 67.5h-280v-500z" />
    <glyph glyph-name="S" unicode="S" 
d="M551 -20q-242 0 -422 78l26 202q110 -47 212.5 -71.5t199.5 -24.5q276 0 276 198q0 127 -130 186l-246 112q-145 66 -222.5 159t-77.5 231q0 186 112 288t317 102q143 0 253 -42t212 -137l-140 -142q-88 72 -164.5 104.5t-159.5 32.5q-103 0 -159.5 -49.5t-56.5 -146.5
q0 -69 37 -112.5t109 -77.5l208 -98q158 -74 240 -167t82 -239q0 -386 -506 -386z" />
    <glyph glyph-name="T" unicode="T" 
d="M496 0v1230h-416v190h1040v-190h-416v-1230h-208z" />
    <glyph glyph-name="U" unicode="U" 
d="M596 -20q-456 0 -456 476v964h208v-964q0 -142 61 -214t191 -72q252 0 252 286v964h208v-964q0 -238 -118 -357t-346 -119z" />
    <glyph glyph-name="V" unicode="V" 
d="M445 0l-400 1420h214l332 -1250h18l332 1250h214l-400 -1420h-310z" />
    <glyph glyph-name="W" unicode="W" 
d="M180 0l-160 1420h210l120 -1260h20l131 900h200l129 -900h20l120 1260h210l-160 -1420h-309l-105 862h-12l-105 -862h-309z" />
    <glyph glyph-name="X" unicode="X" 
d="M905 0l-305 533l-305 -533h-230l435 703l-435 717h230l305 -544l305 544h230l-435 -717l435 -703h-230z" />
    <glyph glyph-name="Y" unicode="Y" 
d="M496 0v511l-471 909h220l346 -710h18l346 710h220l-471 -909v-511h-208z" />
    <glyph glyph-name="Z" unicode="Z" 
d="M150 0v190l664 1040h-664v190h900v-190l-669 -1040h689v-190h-920z" />
    <glyph glyph-name="bracketleft" unicode="[" 
d="M372 -214v1848h626v-190h-418v-1468h418v-190h-626z" />
    <glyph glyph-name="backslash" unicode="\" 
d="M874 -190l-804 1800h212l804 -1800h-212z" />
    <glyph glyph-name="bracketright" unicode="]" 
d="M202 -214v190h418v1468h-418v190h626v-1848h-626z" />
    <glyph glyph-name="asciicircum" unicode="^" 
d="M205 820l260 600h270l260 -600h-220l-166 440h-18l-166 -440h-220z" />
    <glyph glyph-name="underscore" unicode="_" 
d="M100 -186v186h1000v-186h-1000z" />
    <glyph glyph-name="grave" unicode="`" 
d="M620 1068l-285 560h244l247 -560h-206z" />
    <glyph glyph-name="a" unicode="a" 
d="M818 -10l-10 234h-21q-12 -122 -103.5 -183t-239.5 -61q-166 0 -257 80t-91 226q0 168 125.5 258t354.5 90q114 0 200 -17v49q0 106 -74.5 155.5t-221.5 53.5l-254 7l20 188l214 -3q263 -4 390.5 -113.5t127.5 -319.5v-442l180 -22v-170zM776 454q-51 8 -101.5 9
t-102.5 1q-276 0 -276 -168q0 -70 47.5 -108t134.5 -38q99 0 165.5 34t99.5 87t33 109v74z" />
    <glyph glyph-name="b" unicode="b" 
d="M447 -20q-72 0 -142 5.5t-142 14.5v1500h212v-632h20q15 212 260 212q212 0 328 -125t116 -355q0 -295 -170.5 -457.5t-481.5 -162.5zM375 596v-433q28 -2 57 -2.5t57 -0.5q191 0 295.5 115t104.5 325q0 144 -63.5 222t-180.5 78q-270 0 -270 -304z" />
    <glyph glyph-name="c" unicode="c" 
d="M702 -20q-271 0 -418.5 142.5t-147.5 409.5q0 260 139.5 404t398.5 144q155 0 265.5 -57.5t157.5 -162.5l-163 -123q-45 73 -115 113t-153 40q-150 0 -233 -90.5t-83 -257.5q0 -181 97.5 -276.5t278.5 -95.5q74 0 148 7t144 19l24 -186q-82 -18 -169.5 -24t-170.5 -6z
" />
    <glyph glyph-name="d" unicode="d" 
d="M519 -20q-208 0 -315.5 137t-107.5 403q0 276 107.5 418t315.5 142q119 0 193.5 -56t87.5 -156h20v632h212v-1500l-190 -10l-21 202h-21q-10 -100 -84.5 -156t-196.5 -56zM820 494v72q0 334 -254 334q-260 0 -260 -380q0 -360 260 -360q254 0 254 334z" />
    <glyph glyph-name="e" unicode="e" 
d="M692 -20q-271 0 -418.5 142.5t-147.5 409.5q0 260 125 404t353 144q215 0 332.5 -130t117.5 -378q0 -73 -6 -136h-716q28 -133 126 -201.5t258 -68.5q66 0 130 7.5t130 20.5l26 -186q-94 -18 -172 -23t-138 -5zM324 598h538q0 143 -68 219.5t-188 76.5q-123 0 -196 -77
t-86 -219z" />
    <glyph glyph-name="f" unicode="f" 
d="M402 0v640h-334v186h334v144q0 550 502 550q114 0 220 -20l-22 -184q-63 8 -111 11t-93 3q-284 0 -284 -350v-154h434v-186h-434v-640h-212z" />
    <glyph glyph-name="g" unicode="g" 
d="M182 -478l-10 194l340 10q161 5 234 89t74 247v130h-20q-10 -100 -84.5 -156t-196.5 -56q-208 0 -315.5 137t-107.5 403q0 276 107.5 418t315.5 142q124 0 201 -56t90 -156h13l17 192h192v-966q0 -283 -129 -418t-411 -144zM820 566q0 334 -254 334q-260 0 -260 -380
q0 -360 260 -360q254 0 254 334v72z" />
    <glyph glyph-name="h" unicode="h" 
d="M820 0v690q0 101 -50 155.5t-140 54.5q-250 0 -250 -304v-596h-212v1500h212v-632h20q18 212 280 212q168 0 260 -102t92 -288v-690h-212z" />
    <glyph glyph-name="i" unicode="i" 
d="M160 0v186h404v688h-344v186h556v-874h326v-186h-942zM663 1228q-61 0 -104.5 43.5t-43.5 104.5q0 62 43.5 105t104.5 43q62 0 105 -43t43 -105q0 -61 -43 -104.5t-105 -43.5z" />
    <glyph glyph-name="j" unicode="j" 
d="M180 -480l-10 188l200 18q161 14 233.5 93.5t72.5 242.5v812h-412v186h624v-966q0 -283 -128 -412.5t-410 -149.5zM760 1228q-61 0 -104.5 43.5t-43.5 104.5q0 62 43.5 105t104.5 43q62 0 105 -43t43 -105q0 -61 -43 -104.5t-105 -43.5z" />
    <glyph glyph-name="k" unicode="k" 
d="M160 0v1500h212v-908h58q132 0 217 45.5t133.5 148.5t71.5 274h220q-49 -390 -244 -547l312 -513h-262l-245 419q-71 -17 -153 -17h-108v-402h-212z" />
    <glyph glyph-name="l" unicode="l" 
d="M758 -20q-184 0 -266 100t-82 320v914h-312v186h524v-1090q0 -84 16 -137t62.5 -78t137.5 -25q83 0 212 38l24 -186q-81 -22 -155.5 -32t-160.5 -10z" />
    <glyph glyph-name="m" unicode="m" 
d="M876 0v810q0 110 -82 110q-104 0 -104 -144v-776h-180v830q0 90 -84 90q-102 0 -102 -144v-776h-212v1060h188l14 -132h16q12 152 182 152q67 0 111.5 -38t59.5 -114h17q5 62 49.5 107t128.5 45q110 0 160 -59t50 -191v-830h-212z" />
    <glyph glyph-name="n" unicode="n" 
d="M820 0v690q0 96 -50 148t-140 52q-250 0 -250 -294v-596h-212v1060h192l17 -192h23q18 212 280 212q168 0 260 -102t92 -288v-690h-212z" />
    <glyph glyph-name="o" unicode="o" 
d="M600 -20q-220 0 -342 144t-122 406q0 263 122 406.5t342 143.5q221 0 342.5 -143.5t121.5 -406.5q0 -262 -121.5 -406t-342.5 -144zM600 170q117 0 180.5 94t63.5 266q0 173 -63.5 266.5t-180.5 93.5t-180.5 -93.5t-63.5 -266.5q0 -172 63.5 -266t180.5 -94z" />
    <glyph glyph-name="p" unicode="p" 
d="M168 -460v1520h192l17 -192h13q14 100 90.5 156t200.5 56q209 0 316 -142t107 -418q0 -266 -107 -403t-316 -137q-122 0 -196.5 56t-84.5 156h-20v-652h-212zM380 494q0 -334 254 -334q260 0 260 360q0 380 -260 380q-254 0 -254 -334v-72z" />
    <glyph glyph-name="q" unicode="q" 
d="M518 -20q-201 0 -311.5 139.5t-110.5 400.5q0 267 111 413.5t313 146.5q253 0 280 -212h23l17 192h192v-1520h-212v624h-20q-10 -91 -86 -137.5t-196 -46.5zM820 636q0 264 -240 264q-131 0 -202.5 -99t-71.5 -281q0 -360 276 -360q238 0 238 180v296z" />
    <glyph glyph-name="r" unicode="r" 
d="M528 456v-270h260v-186h-708v186h236v688h-196v186h368l36 -272h24q18 292 292 292q164 0 238 -94t74 -304h-210q0 116 -34.5 167t-111.5 51q-135 0 -201.5 -115.5t-66.5 -328.5z" />
    <glyph glyph-name="s" unicode="s" 
d="M518 -20q-120 0 -205.5 7t-156.5 23l24 192q105 -16 185.5 -24t152.5 -8q161 0 233.5 31.5t72.5 100.5q0 48 -25.5 71.5t-78.5 36.5l-244 62q-157 40 -230.5 99t-73.5 179q0 174 133.5 252t430.5 78q146 0 280 -20l-22 -184q-81 8 -143 11t-121 3q-178 0 -258 -30.5
t-80 -99.5q0 -46 33 -66.5t101 -37.5l196 -48q167 -40 244.5 -107t77.5 -195q0 -171 -125 -248.5t-401 -77.5z" />
    <glyph glyph-name="t" unicode="t" 
d="M792 -20q-241 0 -348.5 100t-107.5 320v474h-266v186h266v320h212v-320h482v-186h-482v-464q0 -126 61.5 -183t202.5 -57q50 0 106 5.5t128 14.5l24 -186q-70 -12 -136.5 -18t-141.5 -6z" />
    <glyph glyph-name="u" unicode="u" 
d="M496 -20q-167 0 -258.5 99.5t-91.5 280.5v700h212v-700q0 -91 52 -140.5t146 -49.5q116 0 175 73.5t59 246.5v570h212v-868l146 -22v-170l-340 -10l-15 214h-19q-25 -108 -98 -166t-180 -58z" />
    <glyph glyph-name="v" unicode="v" 
d="M459 0l-379 1060h226l285 -880h18l285 880h226l-379 -1060h-282z" />
    <glyph glyph-name="w" unicode="w" 
d="M720 0l-124 842h-12l-124 -842h-270l-120 1060h200l80 -900h18l125 900h194l125 -900h18l90 900h210l-150 -1060h-260z" />
    <glyph glyph-name="x" unicode="x" 
d="M106 0l379 524l-379 536h240l254 -371l254 371h240l-384 -528l384 -532h-240l-259 368l-249 -368h-240z" />
    <glyph glyph-name="y" unicode="y" 
d="M75 -480l-10 190l166 20q127 15 209.5 77t139.5 193h-103l-422 1060h220l346 -900h15l259 900h220l-306 -966q-60 -190 -134.5 -306t-176 -174t-243.5 -74z" />
    <glyph glyph-name="z" unicode="z" 
d="M164 0v188l602 684h-602v188h852v-188l-599 -684h619v-188h-872z" />
    <glyph glyph-name="braceleft" unicode="{" 
d="M816 -214q-108 0 -193 44.5t-127 127.5t-22 198q15 86 48.5 167t33.5 169q0 39 -32 65.5t-81.5 41.5t-102.5 21.5t-94 6.5v158q40 0 92.5 10t102.5 29.5t82.5 48t32.5 65.5q0 61 -16.5 116t-36 109t-29.5 111q-20 111 22 189.5t127 120.5t193 42q59 0 98 -5.5t72 -14.5
l-24 -174q-35 5 -67.5 7.5t-60.5 2.5q-71 0 -115 -44t-31 -124q10 -59 30.5 -113t38 -107.5t17.5 -111.5q0 -103 -79.5 -160t-222.5 -59v-34q143 -2 222.5 -55.5t79.5 -145.5q0 -60 -17.5 -114.5t-38 -107.5t-30.5 -110q-16 -88 29.5 -137t116.5 -49q28 0 60.5 3t67.5 7
l24 -174q-33 -9 -72 -14.5t-98 -5.5z" />
    <glyph glyph-name="bar" unicode="|" 
d="M496 -310v2040h208v-2040h-208z" />
    <glyph glyph-name="braceright" unicode="}" 
d="M384 -214q-58 0 -97.5 5.5t-72.5 14.5l24 174q35 -4 67.5 -7t60.5 -3q71 0 116.5 49t29.5 137q-10 57 -30.5 110t-38 107.5t-17.5 114.5q0 92 80 145.5t222 55.5v34q-142 2 -222 59t-80 160q0 58 17.5 111.5t38 107.5t30.5 113q14 80 -30.5 124t-115.5 44
q-28 0 -60.5 -2.5t-67.5 -7.5l-24 174q33 9 72.5 14.5t97.5 5.5q109 0 193.5 -42t126.5 -120.5t22 -189.5q-10 -57 -29.5 -111t-36 -109t-16.5 -116q0 -37 32.5 -65.5t82.5 -48t102.5 -29.5t92.5 -10v-158q-41 0 -94 -6.5t-102.5 -21.5t-81.5 -41.5t-32 -65.5
q0 -88 33.5 -169t48.5 -167q21 -115 -21.5 -198t-127 -127.5t-193.5 -44.5z" />
    <glyph glyph-name="asciitilde" unicode="~" 
d="M100 486v80q0 173 64 251.5t206 78.5q73 0 137.5 -27t122.5 -62q49 -29 92.5 -57.5t90.5 -28.5q85 0 85 119v90h202v-80q0 -173 -57 -251.5t-183 -78.5q-71 0 -135 27.5t-121 61.5q-51 31 -97.5 58.5t-97.5 27.5q-107 0 -107 -119v-90h-202z" />
    <glyph glyph-name="uni00A0" unicode="&#xa0;" 
 />
    <glyph glyph-name="exclamdown" unicode="&#xa1;" 
d="M496 -370l16 974h172l20 -974h-208zM600 1080q62 0 105 -43t43 -105q0 -61 -43 -104.5t-105 -43.5q-61 0 -104.5 43.5t-43.5 104.5q0 62 43.5 105t104.5 43z" />
    <glyph glyph-name="cent" unicode="&#xa2;" 
d="M594 -334v320q-220 28 -339 167.5t-119 378.5t118.5 380.5t339.5 163.5v318h138v-316q133 -11 227.5 -67t137.5 -151l-163 -123q-73 119 -202 146v-713q73 0 145 7t141 19l24 -186q-75 -16 -154 -22.5t-156 -7.5v-314h-138zM594 186v698q-117 -21 -180.5 -109t-63.5 -233
t63 -235.5t181 -120.5z" />
    <glyph glyph-name="sterling" unicode="&#xa3;" 
d="M132 0v186q73 104 112 199t46 196h-181v138h183v317q0 194 111 299t307 105q140 0 243.5 -60t151.5 -169l-158 -117q-42 77 -106 119.5t-139 42.5q-87 0 -141.5 -57t-54.5 -164v-316h391v-138h-393q-7 -101 -47 -197t-113 -198h752v-186h-964z" />
    </font>
</defs>
</svg>
