<?xml version="1.0" standalone="no"?>
<!DOCTYPE svg PUBLIC "-//W3C//DTD SVG 1.1//EN" "http://www.w3.org/Graphics/SVG/1.1/DTD/svg11.dtd" >
<svg xmlns="http://www.w3.org/2000/svg" xmlns:xlink="http://www.w3.org/1999/xlink" version="1.1">
<metadata>
Created by FontForge 20170731 at Mon Dec 13 23:56:30 2021
 By Aleksey,,,
(c) 2021 Microsoft Corporation. All Rights Reserved.
</metadata>
<defs>
<font id="CascadiaCodePL-Italic" horiz-adv-x="1200" >
  <font-face 
    font-family="Cascadia Code PL"
    font-weight="400"
    font-style="italic"
    font-stretch="normal"
    units-per-em="2048"
    panose-1="0 0 0 0 0 0 0 0 0 0"
    ascent="1638"
    descent="-410"
    x-height="1060"
    cap-height="1420"
    bbox="-278 -751 4568 2335"
    underline-thickness="100"
    underline-position="-250"
    slope="-10"
    unicode-range="U+000D-FFFD"
  />
<missing-glyph 
d="M35 0l250 1420h943l-250 -1420h-943zM276 190h527l184 1040h-527z" />
    <glyph glyph-name=".notdef" 
d="M35 0l250 1420h943l-250 -1420h-943zM276 190h527l184 1040h-527z" />
    <glyph glyph-name=".null" horiz-adv-x="0" 
 />
    <glyph glyph-name="nonmarkingreturn" horiz-adv-x="682" 
 />
    <glyph glyph-name="CR" unicode="&#xd;" 
 />
    <glyph glyph-name="space" unicode=" " 
 />
    <glyph glyph-name="exclam" unicode="!" 
d="M511 456l141 974h215l-204 -974h-152zM529 -20q-61 0 -104.5 43.5t-43.5 104.5q0 62 43.5 105t104.5 43q62 0 105 -43t43 -105q0 -61 -43 -104.5t-105 -43.5z" />
    <glyph glyph-name="quotedbl" unicode="&#x22;" 
d="M341 780l93 640h242l-143 -640h-192zM745 780l93 640h242l-143 -640h-192z" />
    <glyph glyph-name="numbersign" unicode="#" 
d="M577 0l93 360h-255l-93 -360h-181l93 360h-164l30 170h177l93 360h-207l30 170h220l93 360h181l-93 -360h255l93 360h181l-93 -360h163l-30 -170h-176l-93 -360h206l-30 -170h-219l-93 -360h-181zM458 530h255l93 360h-255z" />
    <glyph glyph-name="dollar" unicode="$" 
d="M401 -320l53 300q-239 6 -406 88l62 182q195 -82 376 -86l85 483l-139 113q-77 63 -112.5 145.5t-35.5 161.5q0 178 109.5 272.5t317.5 100.5l53 300h141l-54 -308q200 -29 326 -161l-145 -152q-104 96 -214 125l-82 -464l109 -88q95 -77 138 -150.5t43 -169.5
q0 -348 -430 -387l-54 -305h-141zM629 174q183 34 183 175q0 56 -22 97.5t-72 81.5l-23 19zM612 879l66 375q-180 -19 -180 -170q0 -45 24 -98t77 -96z" />
    <glyph glyph-name="percent" unicode="%" 
d="M387 792q-124 0 -194 71t-70 192q0 107 48.5 194.5t133.5 139t196 51.5q124 0 193.5 -69t69.5 -190q0 -107 -48.5 -195.5t-133.5 -141t-195 -52.5zM774 -20q-124 0 -194 71t-70 192q0 107 48.5 194.5t133.5 139t196 51.5q124 0 193.5 -69t69.5 -190q0 -107 -48.5 -195.5
t-133.5 -141t-195 -52.5zM158 284l-65 116l1021 722l64 -110zM416 955q49 0 85.5 30t56.5 77t20 96q0 56 -28 87.5t-78 31.5q-77 0 -120 -62.5t-43 -139.5q0 -55 28.5 -87.5t78.5 -32.5zM803 143q49 0 85.5 30t56.5 77t20 96q0 56 -28 87.5t-78 31.5q-77 0 -120 -62.5
t-43 -139.5q0 -55 28.5 -87.5t78.5 -32.5z" />
    <glyph glyph-name="ampersand" unicode="&#x26;" 
d="M1120 678l42 -171q-83 -35 -195 -63q2 -15 2 -28q0 -205 -135.5 -320.5t-377.5 -115.5q-202 0 -315 95.5t-113 267.5q0 187 127.5 320t358.5 190v16q-103 17 -169.5 78.5t-66.5 155.5q0 159 116 248t321 89q297 0 440 -157l-147 -145q-120 118 -283 118q-101 0 -169 -47
t-68 -130q0 -87 85.5 -128t221.5 -41l-2 -140q-262 -34 -408.5 -145t-146.5 -276q0 -88 64.5 -136.5t179.5 -48.5q137 0 214.5 63t77.5 175v5q-107 -16 -216 -22l-20 181q164 11 317.5 40.5t264.5 71.5z" />
    <glyph glyph-name="quotesingle" unicode="'" 
d="M543 780l93 640h242l-143 -640h-192z" />
    <glyph glyph-name="parenleft" unicode="(" 
d="M1189 1620l-31 -180h-36q-233 0 -392.5 -194.5t-212.5 -541.5q-52 -341 40 -532.5t307 -191.5h36l-32 -180h-55q-209 0 -339 115t-173.5 330.5t6.5 518.5q46 269 159 460.5t282.5 293.5t384.5 102h56z" />
    <glyph glyph-name="parenright" unicode=")" 
d="M74 -200l31 180h28q238 0 400.5 194.5t215.5 541.5q53 341 -42 532.5t-316 191.5h-27l31 180h47q207 0 337.5 -112.5t177.5 -323.5t2 -508q-41 -275 -154.5 -471.5t-287 -300.5t-395.5 -104h-48z" />
    <glyph glyph-name="asterisk" unicode="*" 
d="M316 258l-151 150l309 252l-322 98l100 204l309 -148l35 362h221l-88 -357l351 143l48 -204l-376 -105l197 -275l-171 -120l-175 306z" />
    <glyph glyph-name="plus" unicode="+" 
d="M433 190l75 426h-393l33 186h393l75 426h212l-75 -426h395l-33 -186h-395l-75 -426h-212z" />
    <glyph glyph-name="comma" unicode="," 
d="M266 -436l177 690h242l-232 -690h-187z" />
    <glyph glyph-name="hyphen" unicode="-" 
d="M115 616l33 186h1000l-33 -186h-1000z" />
    <glyph glyph-name="period" unicode="." 
d="M529 -20q-61 0 -104.5 43.5t-43.5 104.5q0 62 43.5 105t104.5 43q62 0 105 -43t43 -105q0 -61 -43 -104.5t-105 -43.5z" />
    <glyph glyph-name="slash" unicode="/" 
d="M-13 -190l1113 1800h220l-1113 -1800h-220z" />
    <glyph glyph-name="zero" unicode="0" 
d="M506 -20q-181 0 -282.5 128.5t-101.5 357.5q0 306 76.5 524t219.5 334t344 116q179 0 280 -125.5t101 -349.5q0 -309 -76 -529.5t-218.5 -338t-342.5 -117.5zM539 164q184 0 287 208.5t103 581.5q0 143 -52.5 222.5t-145.5 79.5q-186 0 -290.5 -207.5t-104.5 -577.5
q0 -145 53.5 -226t149.5 -81zM632 550q-67 0 -108.5 41.5t-41.5 108.5q0 68 41.5 109t108.5 41q68 0 109 -41t41 -109q0 -67 -41 -108.5t-109 -41.5z" />
    <glyph glyph-name="one" unicode="1" 
d="M77 0l33 190h352l179 1015l-350 -107l35 202l353 120h215l-217 -1230h315l-33 -190h-882z" />
    <glyph glyph-name="two" unicode="2" 
d="M89 0l-20 228q397 194 611 414.5t214 438.5q0 175 -202 175q-79 0 -175 -46t-175 -126l-114 137q87 99 224.5 159t276.5 60q383 0 383 -333q0 -252 -190 -476t-533 -417v-24h627l-33 -190h-894z" />
    <glyph glyph-name="three" unicode="3" 
d="M426 -20q-113 0 -205 13t-161 35l59 191q58 -17 131 -36t190 -19q167 0 269 72.5t102 193.5q0 104 -98.5 159.5t-280.5 55.5h-33l-5 140q253 32 385 115.5t132 211.5q0 68 -51 106t-147 38q-75 0 -167 -37.5t-183 -114.5l-114 137q110 104 239.5 151.5t278.5 47.5
q173 0 265.5 -70.5t92.5 -202.5q0 -138 -94.5 -250t-271.5 -152v-23q123 -26 194.5 -97t71.5 -189q0 -144 -74 -251t-208.5 -166t-316.5 -59z" />
    <glyph glyph-name="four" unicode="4" 
d="M37 318l359 1022h217l-295 -836h452l161 916h214l-161 -916h131l-33 -186h-131l-56 -318h-214l56 318h-700z" />
    <glyph glyph-name="five" unicode="5" 
d="M496 -20q-218 0 -320.5 110.5t-67.5 307.5h214q-19 -110 39 -172t180 -62q159 0 248.5 91t89.5 254q0 112 -66 174.5t-184 62.5q-141 0 -273 -66h-112l130 740h786l-33 -186h-571l-59 -337q61 19 119 26t115 7q171 0 266.5 -108t95.5 -300q0 -256 -158 -399t-439 -143z
" />
    <glyph glyph-name="six" unicode="6" 
d="M537 -20q-206 0 -312.5 100t-106.5 296q0 494 255.5 762.5t744.5 287.5l-14 -191q-326 -14 -504 -150.5t-241 -402.5h20q51 104 154.5 161t233.5 57q161 0 244 -93t83 -266q0 -166 -70.5 -292.5t-195.5 -197.5t-291 -71zM556 164q92 0 165.5 47.5t116 128.5t42.5 183
q0 93 -52 143t-153 50q-151 0 -244.5 -96.5t-93.5 -254.5q0 -201 219 -201z" />
    <glyph glyph-name="seven" unicode="7" 
d="M408 0l592 1236h-549l-55 -314h-215l88 498h1042l-679 -1420h-224z" />
    <glyph glyph-name="eight" unicode="8" 
d="M500 -20q-187 0 -301 94t-114 248q0 163 103.5 275.5t280.5 149.5l4 20q-105 30 -165.5 97.5t-60.5 161.5q0 124 64 217t178.5 145t267.5 52q176 0 283.5 -84t107.5 -222q0 -140 -92 -237.5t-250 -132.5l-3 -21q122 -33 192.5 -114t70.5 -195q0 -136 -70.5 -238
t-198 -159t-297.5 -57zM532 164q144 0 232 78.5t88 206.5q0 94 -64 151.5t-169 57.5q-144 0 -232 -82.5t-88 -217.5q0 -87 64 -140.5t169 -53.5zM653 842q127 0 204 68.5t77 180.5q0 74 -57.5 119.5t-151.5 45.5q-118 0 -191 -65t-73 -172q0 -79 53 -128t139 -49z" />
    <glyph glyph-name="nine" unicode="9" 
d="M155 -6l14 191q326 14 504 151t241 402h-20q-51 -104 -154 -161t-234 -57q-160 0 -243.5 93.5t-83.5 265.5q0 166 70.5 292.5t196 197.5t290.5 71q206 0 312.5 -100t106.5 -296q0 -494 -255.5 -762.5t-744.5 -287.5zM598 704q152 0 245 97t93 254q0 201 -219 201
q-92 0 -165.5 -47t-116 -128.5t-42.5 -183.5q0 -93 52.5 -143t152.5 -50z" />
    <glyph glyph-name="colon" unicode=":" 
d="M530 -20q-61 0 -104.5 43.5t-43.5 104.5q0 62 43.5 105t104.5 43q62 0 105 -43t43 -105q0 -61 -43 -104.5t-105 -43.5zM670 784q-61 0 -104.5 43.5t-43.5 104.5q0 62 43.5 105t104.5 43q62 0 105 -43t43 -105q0 -61 -43 -104.5t-105 -43.5z" />
    <glyph glyph-name="semicolon" unicode=";" 
d="M266 -436l177 690h242l-232 -690h-187zM670 784q-61 0 -104.5 43.5t-43.5 104.5q0 62 43.5 105t104.5 43q62 0 105 -43t43 -105q0 -61 -43 -104.5t-105 -43.5z" />
    <glyph glyph-name="less" unicode="&#x3c;" 
d="M998 214l-888 394l36 202l1027 394l-41 -231l-750 -261l-2 -18l655 -271z" />
    <glyph glyph-name="equal" unicode="=" 
d="M71 366l33 186h1000l-33 -186h-1000zM159 866l33 186h1000l-33 -186h-1000z" />
    <glyph glyph-name="greater" unicode="&#x3e;" 
d="M90 214l41 231l750 261l2 18l-655 271l37 209l888 -394l-36 -202z" />
    <glyph glyph-name="question" unicode="?" 
d="M441 456l8 63q15 118 87 204.5t190 170.5q78 56 120 105t42 116q0 64 -45.5 99.5t-127.5 35.5q-93 0 -193 -47t-177 -125l-113 153q89 95 232.5 152t296.5 57q164 0 255.5 -79t91.5 -219q0 -114 -64.5 -200.5t-188.5 -173.5q-101 -71 -150 -135.5t-60 -127.5l-8 -49h-196
zM491 -20q-61 0 -104.5 43.5t-43.5 104.5q0 62 43.5 105t104.5 43q62 0 105 -43t43 -105q0 -61 -43 -104.5t-105 -43.5z" />
    <glyph glyph-name="at" unicode="@" 
d="M604 -243q-264 0 -390.5 134t-126.5 426q0 240 53.5 444.5t150.5 356.5t227 236.5t283 84.5q352 0 352 -371q0 -58 -20 -180t-63 -364h-1l-62 -356h-146l20 213h-16q-38 -111 -102 -171.5t-145 -60.5q-98 0 -151.5 76t-53.5 212q0 176 72 312.5t198 223t290 112.5
q-12 101 -63 137.5t-139 36.5q-105 0 -197.5 -73.5t-163 -202.5t-110.5 -298.5t-40 -361.5q0 -201 85 -293.5t261 -92.5q125 0 201 25l-31 -180q-72 -25 -172 -25zM964 903q-104 -9 -188 -66t-133.5 -149t-49.5 -206q0 -73 28 -113t77 -40q77 0 137 99.5t97 281.5v0
q23 130 32 193z" />
    <glyph glyph-name="A" unicode="A" 
d="M-48 0l630 1421h321q26 -113 49.5 -256.5t43 -300.5t34 -313.5t23 -298t9.5 -252.5h-212q1 69 -2.5 158t-10.5 188h-513l-150 -346h-222zM407 536h415q-12 131 -26.5 261.5t-30 247t-30.5 204.5h-18z" />
    <glyph glyph-name="B" unicode="B" 
d="M67 0l250 1420q102 20 258 20q271 0 410.5 -86t139.5 -253q0 -293 -383 -331l-7 -35q176 -7 273.5 -89.5t97.5 -223.5q0 -217 -154.5 -319.5t-480.5 -102.5h-404zM308 190h143q227 0 334 62.5t107 195.5q0 98 -80.5 153t-223.5 55h-198zM424 846h176q307 0 307 212
q0 192 -335 192q-40 0 -77 -1z" />
    <glyph glyph-name="C" unicode="C" 
d="M666 -20q-561 0 -561 543q0 203 58.5 371t165.5 290t254.5 189t325.5 67q221 0 344 -159l-143 -147q-97 122 -230 122q-161 0 -288 -94.5t-200 -258.5t-73 -373q0 -366 374 -366q170 0 347 60l14 -176q-192 -68 -388 -68z" />
    <glyph glyph-name="D" unicode="D" 
d="M47 0l250 1420q109 20 232 20q303 0 473 -155t170 -432q0 -268 -104 -459t-299 -292.5t-470 -101.5h-252zM288 190h53q290 0 453.5 170.5t163.5 474.5q0 196 -120 305.5t-334 109.5h-29z" />
    <glyph glyph-name="E" unicode="E" 
d="M67 0l250 1420h939l-33 -190h-730l-75 -424h550l-33 -190h-551l-75 -426h730l-33 -190h-939z" />
    <glyph glyph-name="F" unicode="F" 
d="M87 0l250 1420h939l-33 -190h-731l-86 -484h551l-33 -190h-551l-98 -556h-208z" />
    <glyph glyph-name="G" unicode="G" 
d="M591 -20q-239 0 -373.5 141t-134.5 392q0 200 55.5 369t159.5 294.5t251 194.5t331 69q142 0 228.5 -50.5t140.5 -127.5l-155 -138q-45 56 -108 94t-146 38q-154 0 -277 -92t-194.5 -253.5t-71.5 -371.5q0 -375 340 -375q51 0 97 5t86 13l60 338h-269l33 190h477
l-118 -670q-46 -13 -159 -36.5t-253 -23.5z" />
    <glyph glyph-name="H" unicode="H" 
d="M759 0l108 612h-504l-108 -612h-208l250 1420h208l-109 -618h504l109 618h208l-250 -1420h-208z" />
    <glyph glyph-name="I" unicode="I" 
d="M75 0l33 190h328l184 1040h-328l33 190h863l-33 -190h-327l-184 -1040h327l-33 -190h-863z" />
    <glyph glyph-name="J" unicode="J" 
d="M498 -20q-244 0 -357 130.5t-64 365.5h208q-25 -148 34 -230t195 -82q140 0 221 76t109 236l133 754h-360l34 190h567l-166 -944q-45 -255 -178.5 -375.5t-375.5 -120.5z" />
    <glyph glyph-name="K" unicode="K" 
d="M57 0l250 1420h208l-152 -863q202 56 339.5 181.5t218.5 300.5t116 381h214q-40 -242 -142 -448.5t-263 -355.5l223 -616h-232l-166 484q-158 -95 -344 -135l-62 -349h-208z" />
    <glyph glyph-name="L" unicode="L" 
d="M67 0l250 1420h209l-217 -1230h731l-33 -190h-940z" />
    <glyph glyph-name="M" unicode="M" 
d="M40 0l245 1420h295l64 -610h16l254 610h315l-250 -1420h-205l206 1168h-26l-256 -588h-67l-104 -1l-50 589h-26l-206 -1168h-205z" />
    <glyph glyph-name="N" unicode="N" 
d="M716 0l-245 1080h-18l-190 -1080h-208l250 1420h243l245 -1080h18l190 1080h208l-250 -1420h-243z" />
    <glyph glyph-name="O" unicode="O" 
d="M513 -20q-195 0 -304 128.5t-109 357.5q0 306 77.5 524t223.5 334t351 116q194 0 303 -125.5t109 -349.5q0 -309 -77.5 -529.5t-223 -338t-350.5 -117.5zM539 164q194 0 302.5 205t108.5 571q0 149 -57.5 232.5t-161.5 83.5q-196 0 -306.5 -202t-110.5 -563
q0 -154 59.5 -240.5t165.5 -86.5z" />
    <glyph glyph-name="P" unicode="P" 
d="M67 0l250 1420q128 20 328 20q269 0 407 -114t138 -335q0 -303 -215.5 -462.5t-636.5 -168.5l-63 -360h-208zM372 551q298 7 451 115.5t153 311.5q0 272 -364 272q-61 0 -117 -2z" />
    <glyph glyph-name="Q" unicode="Q" 
d="M815 -460q-466 0 -391 440l1 8q-154 27 -239.5 151.5t-85.5 326.5q0 306 77.5 524t223.5 334t351 116q194 0 303 -125.5t109 -349.5q0 -416 -139 -669.5t-391 -303.5l-2 -14q-45 -248 215 -248h52l-34 -190h-50zM539 164q194 0 302.5 205t108.5 571q0 149 -57.5 232.5
t-161.5 83.5q-196 0 -306.5 -202t-110.5 -563q0 -154 59.5 -240.5t165.5 -86.5z" />
    <glyph glyph-name="R" unicode="R" 
d="M47 0l250 1420q128 20 328 20q274 0 415 -103.5t141 -305.5q0 -336 -316 -480l184 -551h-229l-152 487q-147 -32 -334 -36l-79 -451h-208zM368 641q295 9 447 104.5t152 272.5q0 232 -355 232q-72 0 -137 -2z" />
    <glyph glyph-name="S" unicode="S" 
d="M486 -20q-259 0 -438 88l62 182q205 -86 395 -86q307 0 307 185q0 56 -22 97.5t-72 81.5l-286 232q-77 63 -112.5 145.5t-35.5 161.5q0 184 116.5 278.5t338.5 94.5q277 0 438 -169l-145 -152q-148 137 -305 137q-110 0 -169.5 -43.5t-59.5 -128.5q0 -45 24 -98t77 -96
l246 -198q95 -77 138 -150.5t43 -169.5q0 -193 -137 -292.5t-403 -99.5z" />
    <glyph glyph-name="T" unicode="T" 
d="M402 0l217 1230h-415l33 190h1039l-33 -190h-416l-217 -1230h-208z" />
    <glyph glyph-name="U" unicode="U" 
d="M539 -20q-246 0 -349.5 120.5t-62.5 355.5l170 964h208l-170 -964q-52 -292 221 -292q232 0 283 292l170 964h208l-170 -964q-84 -476 -508 -476z" />
    <glyph glyph-name="V" unicode="V" 
d="M307 0l-105 1420l212 12l80 -1260h18q188 248 331.5 562t254.5 686h214q-118 -423 -292 -783.5t-421 -636.5h-292z" />
    <glyph glyph-name="W" unicode="W" 
d="M572 0l28 466h-28l-188 -466h-267l90 1420l207 12l-95 -1260h18l185 451l41 437l192 12l-56 -900h18q72 166 146.5 360.5t134.5 417t90 470.5h214q-34 -282 -107 -537t-169.5 -477t-201.5 -406h-252z" />
    <glyph glyph-name="X" unicode="X" 
d="M161 -40l-156 140l527 608l-7 384q-1 83 -36.5 120.5t-76.5 37.5q-70 0 -137 -35l-59 171q131 54 225 54q69 0 128.5 -32t97 -100t39.5 -177l3 -185l343 494l166 -140l-504 -611l6 -361q2 -82 41.5 -120t91.5 -38q69 0 137 45l59 -171q-112 -64 -225 -64t-197.5 73
t-87.5 236l-3 172z" />
    <glyph glyph-name="Y" unicode="Y" 
d="M402 0l81 460l-305 938l212 32l224 -804h18q106 137 192 259.5t158 251.5t136 283h214q-79 -195 -176 -360.5t-213.5 -318.5t-256.5 -310l-76 -431h-208z" />
    <glyph glyph-name="Z" unicode="Z" 
d="M145 0l-60 160l847 1070h-631l33 190h805l60 -160l-854 -1070h660l-33 -190h-827z" />
    <glyph glyph-name="bracketleft" unicode="[" 
d="M241 -214l326 1848h626l-34 -190h-411l-258 -1468h411l-34 -190h-626z" />
    <glyph glyph-name="backslash" unicode="\" 
d="M757 -190l-497 1800h202l497 -1800h-202z" />
    <glyph glyph-name="bracketright" unicode="]" 
d="M71 -214l34 190h411l258 1468h-411l34 190h626l-326 -1848h-626z" />
    <glyph glyph-name="asciicircum" unicode="^" 
d="M236 820l386 600h270l174 -600h-218l-100 440h-18l-254 -440h-240z" />
    <glyph glyph-name="underscore" unicode="_" 
d="M-24 -176l31 176h1000l-31 -176h-1000z" />
    <glyph glyph-name="grave" unicode="`" 
d="M700 1068l-255 560h244l217 -560h-206z" />
    <glyph glyph-name="a" unicode="a" 
d="M347 -21q-136 0 -210 78t-74 220q0 180 76.5 326.5t214.5 250.5t323 160t402 56h20l-132 -753q-14 -80 12.5 -116t114.5 -36h41l-30 -175h-71q-147 0 -203 59t-43 202h-26q-61 -130 -168.5 -201t-246.5 -71zM412 169q144 0 251 130t150 368l37 204
q-164 -25 -293.5 -104.5t-204.5 -199t-75 -265.5q0 -64 35.5 -98.5t99.5 -34.5z" />
    <glyph glyph-name="b" unicode="b" 
d="M360 -20q-73 0 -145 5.5t-145 15.5l209 1186q14 77 -8 112t-83 35q-25 0 -49.5 -2.5t-49.5 -8.5l-21 182q38 9 76 12.5t76 3.5q174 0 239 -84t31 -270l-61 -348h21q48 125 151.5 193t248.5 68q131 0 203.5 -83.5t72.5 -236.5q0 -167 -57.5 -309t-161.5 -248
t-243.5 -164.5t-303.5 -58.5zM355 401l-40 -229q33 -2 67 -2q151 0 271 72t189.5 196.5t69.5 281.5q0 81 -37 125.5t-105 44.5q-82 0 -165 -51t-149.5 -158.5t-100.5 -279.5z" />
    <glyph glyph-name="c" unicode="c" 
d="M556 170q104 0 203.5 34t176.5 89l72 -164q-98 -67 -224 -108t-257 -41q-197 0 -305 102t-108 287q0 215 75 374.5t210.5 248t317.5 88.5q164 0 261 -52t147 -168l-155 -123q-52 80 -119 116.5t-162 36.5q-108 0 -189.5 -62t-126 -174t-45.5 -263q1 -105 60.5 -163
t167.5 -58z" />
    <glyph glyph-name="d" unicode="d" 
d="M352 -21q-138 0 -213.5 78t-75.5 220q0 216 105.5 382.5t291 271.5t425.5 137l23 129q14 77 -8 112t-83 35q-25 0 -49.5 -2.5t-49.5 -8.5l-23 172q38 9 76 12.5t76 3.5q174 0 238.5 -84t31.5 -270l-150 -849q-27 -153 108 -153h61l-31 -175h-76q-138 0 -195.5 63.5
t-45.5 198.5h-26q-57 -125 -163 -199t-247 -74zM810 652l41 229q-164 -26 -294 -106.5t-205 -202t-75 -270.5q0 -64 36.5 -98.5t103.5 -34.5q138 0 241.5 126t151.5 357z" />
    <glyph glyph-name="e" unicode="e" 
d="M587 170q80 0 171 25t175 70l69 -171q-98 -54 -210 -84t-214 -30q-206 0 -321.5 108t-115.5 301q0 208 78.5 363t219.5 241.5t329 86.5q148 0 230.5 -74t82.5 -206q0 -193 -195.5 -306t-545.5 -123q9 -95 74 -148t173 -53zM350 532q245 10 381 76.5t136 178.5
q0 48 -33 75.5t-94 27.5q-151 0 -254.5 -97t-135.5 -261z" />
    <glyph glyph-name="f" unicode="f" 
d="M-56 -473l-9 190l73 8q192 21 278.5 135.5t103.5 331.5l49 448h-351l33 186h338l5 44q18 223 89.5 366.5t212 213.5t363.5 70q87 0 166 -20l-54 -184q-87 14 -151 14q-204 0 -296.5 -109.5t-112.5 -340.5l-6 -54h426l-33 -186h-414l-54 -478q-25 -287 -158.5 -440.5
t-426.5 -186.5z" />
    <glyph glyph-name="g" unicode="g" 
d="M55 -480l-10 186l210 13q167 11 267.5 77t151.5 165t69 208l11 62h-14q-51 -121 -146.5 -186.5t-223.5 -65.5q-138 0 -213.5 78t-75.5 220q0 180 76.5 326.5t214.5 250.5t323.5 160t402.5 56h19l-154 -869q-25 -141 -72.5 -260t-129.5 -209t-210.5 -143t-315.5 -61z
M867 871q-164 -24 -293 -103.5t-204 -199.5t-75 -266q0 -64 36.5 -98.5t103.5 -34.5q144 0 246 122.5t146 352.5z" />
    <glyph glyph-name="h" unicode="h" 
d="M723 0l123 705q32 185 -119 185q-82 0 -152 -47t-125.5 -156.5t-95.5 -296.5l2 19l-72 -409h-215l210 1187q14 77 -8 112t-83 35q-25 0 -49.5 -2.5t-49.5 -8.5l-21 182q38 9 76 12.5t76 3.5q174 0 238.5 -84t31.5 -270l-61 -348h19q32 125 128.5 193t230.5 68
q322 0 254 -383l-123 -697h-215z" />
    <glyph glyph-name="i" unicode="i" 
d="M966 225l69 -161q-61 -35 -129 -59.5t-156 -24.5q-368 0 -347 334q5 75 29.5 146t53 138t43.5 129q43 166 -151 166q-95 0 -183 -23l-21 182q59 17 118 22.5t118 5.5q207 0 291 -94.5t39 -278.5q-17 -71 -44.5 -132.5t-50.5 -121.5t-28 -130q-11 -153 172 -153
q50 0 87.5 12.5t89.5 42.5zM731 1228q-61 0 -104.5 43.5t-43.5 104.5q0 62 43.5 105t104.5 43q62 0 105 -43t43 -105q0 -61 -43 -104.5t-105 -43.5z" />
    <glyph glyph-name="j" unicode="j" 
d="M27 -480l-10 188l220 18q128 11 198.5 53.5t106.5 122.5t57 200l115 645q14 77 -8 111.5t-83 34.5q-95 0 -191 -13t-191 -30l-21 187q107 20 216.5 31.5t218.5 11.5q174 0 238.5 -84t31.5 -269l-105 -593q-27 -150 -66 -259t-105 -182t-170.5 -112t-261.5 -49zM901 1228
q-61 0 -104.5 43.5t-43.5 104.5q0 62 43.5 105t104.5 43q62 0 105 -43t43 -105q0 -61 -43 -104.5t-105 -43.5z" />
    <glyph glyph-name="k" unicode="k" 
d="M956 -20q-187 0 -299 115t-143 330q200 96 275 192t75 178q0 95 -108 95q-77 0 -159.5 -55.5t-147.5 -160.5t-90 -254l1 7l-75 -426h-215l211 1196q13 77 -8.5 112t-82.5 35q-25 0 -49.5 -2.5t-49.5 -8.5l-23 172q38 9 76 12.5t76 3.5q174 0 238 -84t32 -270l-68 -388h22
q32 136 134 218.5t238 82.5q119 0 190.5 -72t71.5 -191q0 -154 -87.5 -272t-246.5 -205q35 -92 91 -131t145 -39q29 0 45.5 1.5t35.5 3.5l19 -181q-28 -6 -57 -10t-67 -4z" />
    <glyph glyph-name="l" unicode="l" 
d="M693 -20q-166 0 -244.5 76.5t-78.5 237.5q0 71 29 181l155 605q35 136 7.5 194.5t-161.5 58.5q-34 0 -69.5 -5.5t-70.5 -20.5l-31 182q50 14 101 22.5t102 8.5q232 0 314.5 -111t22.5 -341l-155 -593q-30 -113 -30 -172q0 -133 148 -133q61 0 107 15t110 50l69 -161
q-70 -40 -147.5 -67t-177.5 -27z" />
    <glyph glyph-name="m" unicode="m" 
d="M386 1060l-8 -161h19q25 98 76.5 139.5t124.5 41.5q75 0 114.5 -43.5t38.5 -137.5h16q27 99 83.5 140t136.5 41q198 0 149 -280l-141 -800h-215l146 828q14 82 -49 82q-56 0 -98.5 -78t-72.5 -223l-19 -106q-1 -3 -1 -6v1l-89 -498h-180l146 828q15 82 -52 82
q-55 0 -99.5 -86t-75.5 -245l-12 -70l-2 -12v2l-88 -499h-215l187 1060h180z" />
    <glyph glyph-name="n" unicode="n" 
d="M75 0l187 1060h177l-7 -241h20q32 125 127 193t228 68q322 0 254 -383l-123 -697h-215l123 705q32 185 -119 185q-80 0 -148.5 -45.5t-123 -151.5t-93.5 -286l-72 -407h-215z" />
    <glyph glyph-name="o" unicode="o" 
d="M502 -20q-177 0 -276.5 101.5t-99.5 282.5q0 338 151 527t419 189q177 0 276.5 -104t99.5 -290q0 -333 -150.5 -519.5t-419.5 -186.5zM539 169q150 0 234.5 125.5t84.5 348.5q0 116 -50 181.5t-141 65.5q-154 0 -240.5 -125t-86.5 -348q0 -117 52.5 -182.5t146.5 -65.5z
" />
    <glyph glyph-name="p" unicode="p" 
d="M209 -460h-215l267 1520h179l-7 -241h17q49 125 153.5 193t251.5 68q131 0 203.5 -83.5t72.5 -236.5q0 -167 -57.5 -309t-161.5 -248t-243.5 -164.5t-303.5 -58.5q-38 0 -78 2zM321 172q32 -2 66 -2q151 0 271 72t189.5 196.5t69.5 281.5q0 81 -37 125.5t-105 44.5
q-80 0 -161.5 -48.5t-148 -152t-100.5 -267.5z" />
    <glyph glyph-name="q" unicode="q" 
d="M364 -21q-136 0 -210.5 78t-74.5 220q0 180 77.5 326.5t217 250.5t326.5 160t407 56h20l-215 -1212q-30 -163 101 -163h38l-29 -175h-38q-194 0 -254 88.5t-25 289.5l62 354h-18q-49 -131 -149 -202t-236 -71zM877 874q-167 -21 -299 -100.5t-208.5 -201t-76.5 -270.5
q0 -64 36 -98.5t100 -34.5q155 0 257.5 128.5t153.5 369.5v-2z" />
    <glyph glyph-name="r" unicode="r" 
d="M-15 0l33 186h237l100 561q14 77 -8 111.5t-83 34.5q-84 0 -162 -23l-21 182q88 28 215 28q151 0 219.5 -62.5t62.5 -198.5h22q29 125 113 193t202 68q160 0 231.5 -100.5t42.5 -282.5h-215q25 193 -119 193q-75 0 -139 -44.5t-115.5 -147.5t-88.5 -279l-42 -233h256
l-33 -186h-708z" />
    <glyph glyph-name="s" unicode="s" 
d="M491 -20q-130 0 -239 16t-178 44l58 192q116 -29 218.5 -45.5t174.5 -16.5q131 0 203.5 34.5t72.5 97.5q0 68 -95 99l-300 101q-99 33 -152 93t-53 135q0 167 141.5 258.5t400.5 91.5q189 0 366 -30l-54 -184q-94 11 -183.5 17.5t-158.5 6.5q-142 0 -219.5 -36.5
t-77.5 -103.5q0 -51 75 -74l305 -97q106 -34 162.5 -100.5t56.5 -152.5q0 -165 -137 -255.5t-387 -90.5z" />
    <glyph glyph-name="t" unicode="t" 
d="M649 -20q-184 0 -270.5 78.5t-86.5 244.5q0 62 9 121t28 164l50 286h-248l33 186h248l56 320h215l-56 -320h471l-33 -186h-471l-50 -286q-17 -100 -27.5 -154t-10.5 -111q0 -153 182 -153q73 0 128 12t131 43l39 -171q-72 -31 -152.5 -52.5t-184.5 -21.5z" />
    <glyph glyph-name="u" unicode="u" 
d="M392 -21q-140 0 -217 83.5t-77 234.5q0 153 49.5 338.5t159.5 444.5l212 -39q-109 -265 -158 -435.5t-49 -283.5q0 -73 38 -113t107 -40q133 0 220 128.5t133 369.5v-1l70 394h217l-128 -721q-17 -96 9.5 -135t114.5 -39h43l-31 -175h-47q-158 0 -222.5 62t-48.5 199h-22
q-34 -84 -78.5 -145t-114.5 -94t-180 -33z" />
    <glyph glyph-name="v" unicode="v" 
d="M293 0l-140 1060l222 20l102 -894h18q395 326 414 874h214q-27 -684 -571 -1060h-259z" />
    <glyph glyph-name="w" unicode="w" 
d="M627 0l-9 411h-23l-211 -411h-194l-91 1060l212 10l48 -884h18l160 320l-15 554l182 10l27 -884h18q85 164 139 381.5t58 492.5h214q-7 -342 -99 -606.5t-250 -453.5h-184z" />
    <glyph glyph-name="x" unicode="x" 
d="M177 -41l-136 150l454 433l-13 190q-6 83 -39 120.5t-82 37.5q-40 0 -77 -7.5t-78 -25.5l-51 174q138 49 235 49q119 0 192.5 -72t84.5 -237l3 -42l320 371l146 -150l-452 -436l13 -186q6 -83 38 -120.5t83 -37.5q84 0 173 40l54 -174q-129 -56 -256 -56q-120 0 -193 72
t-84 237l-3 39z" />
    <glyph glyph-name="y" unicode="y" 
d="M3 -472l-89 175q180 79 326 175t261 213q-232 369 -398 969l221 20q126 -516 321 -815q113 159 187.5 356t116.5 439h214q-75 -389 -221 -678.5t-376.5 -497.5t-562.5 -356z" />
    <glyph glyph-name="z" unicode="z" 
d="M1096 874l-731 -688h613l-33 -186h-789l-50 217l718 657h-588l33 186h797z" />
    <glyph glyph-name="braceleft" unicode="{" 
d="M685 -214q-92 0 -164.5 39t-107 111.5t-14.5 172.5q14 68 38.5 117t51 89.5t44.5 81.5t18 93q0 53 -50 82.5t-117.5 42t-121.5 12.5l28 158q176 0 262 67t86 215q0 54 -8 107.5t-13 103.5q-10 107 38 185t140.5 120.5t214.5 42.5q58 0 96.5 -5.5t69.5 -14.5l-54 -174
q-33 5 -64 7.5t-57 2.5q-82 0 -129.5 -49t-40.5 -140q4 -50 13.5 -107t9.5 -123q0 -294 -349 -300l-6 -34q128 -2 197 -50.5t69 -131.5q0 -60 -17.5 -105.5t-43.5 -88t-51 -91.5t-40 -116q-14 -63 25 -99.5t102 -36.5q26 0 58.5 3t66.5 7l-6 -174q-34 -9 -75 -14.5t-99 -5.5
z" />
    <glyph glyph-name="bar" unicode="|" 
d="M496 -310v2040h208v-2040h-208z" />
    <glyph glyph-name="braceright" unicode="}" 
d="M252 -214q-58 0 -96 5.5t-70 14.5l54 174q33 -4 64 -7t57 -3q83 0 130 49t40 140q-4 50 -13.5 107t-9.5 123q0 294 349 300l6 34q-128 2 -197 50.5t-69 131.5q0 60 17.5 105.5t43.5 88t51 91.5t40 116q14 63 -25 99.5t-102 36.5q-26 0 -58 -2.5t-67 -7.5l6 174
q35 9 75.5 14.5t98.5 5.5q93 0 165 -39t106.5 -111.5t14.5 -172.5q-13 -68 -38 -117t-51.5 -89.5t-44.5 -81.5t-18 -93t50 -82t118 -42.5t121 -12.5l-28 -158q-176 0 -262 -66.5t-86 -215.5q0 -54 8.5 -107.5t12.5 -103.5q10 -106 -38 -184.5t-140.5 -121t-214.5 -42.5z" />
    <glyph glyph-name="asciitilde" unicode="~" 
d="M93 486l17 94q26 146 97 231t228 85q73 0 134.5 -26t111.5 -64q43 -32 79.5 -58.5t83.5 -26.5q44 0 66 42t38 133l6 34h215l-15 -84q-27 -152 -92.5 -239t-205.5 -87q-72 0 -129.5 26t-107.5 63q-46 35 -88 60.5t-92 25.5q-54 0 -80 -42t-42 -133l-6 -34h-218z" />
    <glyph glyph-name="uni00A0" unicode="&#xa0;" 
 />
    <glyph glyph-name="exclamdown" unicode="&#xa1;" 
d="M333 -370l204 974h152l-144 -974h-212zM671 784q-61 0 -104.5 43.5t-43.5 104.5q0 62 43.5 105t104.5 43q62 0 105 -43t43 -105q0 -61 -43 -104.5t-105 -43.5z" />
    <glyph glyph-name="cent" unicode="&#xa2;" 
d="M439 -334l55 315q-182 8 -281 109.5t-99 278.5q0 209 71 366t199.5 247t302.5 97l55 315h140l-56 -321q114 -15 186 -66.5t113 -146.5l-155 -123q-73 111 -179 140l-122 -696q74 13 142.5 42.5t124.5 69.5l72 -164q-78 -54 -174 -91t-199 -51l-56 -321h-140zM528 171
l125 717q-147 -15 -235.5 -149.5t-89.5 -347.5q1 -98 53 -155t147 -65z" />
    <glyph glyph-name="sterling" unicode="&#xa3;" 
d="M49 0l-9 96q95 129 151 245t83 240h-156l24 138h157l56 317q34 194 163.5 299t325.5 105q143 0 239 -57.5t127 -161.5l-190 -127q-29 77 -86 119.5t-132 42.5q-86 0 -149.5 -57t-82.5 -164l-56 -316h389l-24 -138h-390q-20 -104 -54 -194.5t-106 -200.5h713l-30 -186
h-963z" />
    <glyph glyph-name="currency" unicode="&#xa4;" 
d="M563 300q-117 0 -201 43l-224 -212l-113 137l214 192q-37 69 -37 158q0 97 34 181t95 148l-147 198l144 114l150 -207q105 48 226 48q116 0 201 -43l205 202l115 -134l-198 -183q38 -70 38 -160q0 -99 -35.5 -184.5t-98.5 -149.5l150 -195l-144 -112l-150 207
q-104 -48 -224 -48zM596 490q106 0 177.5 74t71.5 183q0 75 -46 119t-129 44q-106 0 -177.5 -74t-71.5 -183q0 -75 46.5 -119t128.5 -44z" />
    <glyph glyph-name="yen" unicode="&#xa5;" 
d="M157 501l24 138h244l-247 759l212 32l224 -804h18q106 137 192 259.5t158 251.5t136 283h214q-92 -227 -208 -414.5t-261 -366.5h194l-24 -138h-286q-29 -34 -61 -70l-18 -102h334l-24 -138h-334l-34 -191h-208l34 191h-334l24 138h334l23 131l-13 41h-313z" />
    <glyph glyph-name="brokenbar" unicode="&#xa6;" 
d="M496 -310v860h208v-860h-208zM496 870v860h208v-860h-208z" />
    <glyph glyph-name="section" unicode="&#xa7;" 
d="M465 -219q-237 0 -398 48l42 182q198 -46 375 -46q272 0 272 140q0 32 -17 61t-57 53l-422 252q-80 48 -116 115t-36 152q0 278 349 280l8 23q-62 40 -89.5 97t-27.5 127q0 155 106.5 229t332.5 74q234 0 374 -89l-105 -162q-136 67 -281 67q-213 0 -213 -102
q0 -57 75 -104l333 -207q98 -61 142.5 -135.5t44.5 -145.5q0 -274 -327 -291l-9 -25q80 -55 114.5 -123.5t34.5 -137.5q0 -164 -128 -248t-377 -84zM755 472q188 0 188 165q0 93 -90 160l-85 63q-67 50 -124.5 67.5t-98.5 17.5q-115 0 -169 -44t-54 -136q0 -91 105 -154
l114 -68q118 -71 214 -71z" />
    <glyph glyph-name="dieresis" unicode="&#xa8;" 
d="M538 1238q-55 0 -94.5 39.5t-39.5 94.5q0 56 39.5 95t94.5 39q56 0 95 -39t39 -95q0 -55 -39 -94.5t-95 -39.5zM958 1238q-55 0 -94.5 39.5t-39.5 94.5q0 56 39.5 95t94.5 39q56 0 95 -39t39 -95q0 -55 -39 -94.5t-95 -39.5z" />
    <glyph glyph-name="copyright" unicode="&#xa9;" 
d="M509 15q-220 0 -344 129t-124 358q0 284 85 486t244.5 309.5t383.5 107.5q221 0 344 -132.5t123 -369.5q0 -279 -84.5 -477.5t-244 -304.5t-383.5 -106zM537 169q242 0 378 186t136 518q0 179 -85.5 278.5t-237.5 99.5q-244 0 -380.5 -189.5t-136.5 -527.5
q0 -172 86 -268.5t240 -96.5zM647 380q-160 0 -245 68.5t-85 196.5q0 119 49.5 207.5t139.5 138t209 49.5q147 0 239 -116l-118 -111q-56 67 -137 67q-87 0 -139.5 -55t-52.5 -146q0 -139 152 -139q49 0 99 4.5t97 11.5l-3 -156q-50 -12 -102.5 -16t-102.5 -4z" />
    <glyph glyph-name="ordfeminine" unicode="&#xaa;" 
d="M977 1440h19l-90 -532l100 -9l-20 -113l-250 -8l25 136h-30q-77 -141 -227 -141q-202 0 -202 192q0 144 88.5 251t241.5 165.5t345 58.5zM534 910q104 0 172 90.5t103 256.5l8 37q-100 -15 -179 -59t-124.5 -109.5t-45.5 -145.5q0 -70 66 -70z" />
    <glyph glyph-name="guillemotleft" unicode="&#xab;" 
d="M393 25l-344 443l22 122l499 439l110 -135l-425 -376l-3 -18l281 -360zM888 25l-344 443l22 122l499 439l110 -135l-425 -376l-3 -18l281 -360z" />
    <glyph glyph-name="logicalnot" unicode="&#xac;" 
d="M133 717l33 186h1000l-15 -86v0l-83 -467h-194l65 367h-806z" />
    <glyph glyph-name="uni00AD" unicode="&#xad;" 
d="M115 616l33 186h1000l-33 -186h-1000z" />
    <glyph glyph-name="registered" unicode="&#xae;" 
d="M509 15q-220 0 -344 129t-124 358q0 284 85 486t244.5 309.5t383.5 107.5q221 0 344 -132.5t123 -369.5q0 -279 -84.5 -477.5t-244 -304.5t-383.5 -106zM537 169q242 0 378 186t136 518q0 179 -85.5 278.5t-237.5 99.5q-244 0 -380.5 -189.5t-136.5 -527.5
q0 -172 86 -268.5t240 -96.5zM324 396l112 634h300q100 0 153 -51.5t53 -144.5q0 -75 -43 -131.5t-116 -82.5l97 -224h-172l-78 204h-115l-36 -204h-155zM538 730h145q49 0 79 27.5t30 71.5q0 71 -79 71h-145z" />
    <glyph glyph-name="macron" unicode="&#xaf;" 
d="M297 1248l34 188h859l-34 -188h-859z" />
    <glyph glyph-name="degree" unicode="&#xb0;" 
d="M628 690q-178 0 -262 99t-54 276t148.5 276t299.5 99q179 0 262.5 -99t53.5 -276t-148 -276t-300 -99zM658 860q88 0 147 54t76 151t-22.5 151t-128.5 54q-88 0 -147 -54t-76 -151t23 -151t128 -54z" />
    <glyph glyph-name="plusminus" unicode="&#xb1;" 
d="M128 683l32 186h394l62 355h212l-62 -355h393l-32 -186h-394l-55 -311h394l-33 -186h-1000l33 186h394l55 311h-393z" />
    <glyph glyph-name="uni00B2" unicode="&#xb2;" 
d="M445 802l-16 157q86 28 166.5 64t132 82.5t51.5 103.5q0 71 -88 71q-82 0 -177 -36l-35 138q63 33 122 45.5t135 12.5q110 0 173 -50t63 -134q0 -66 -42.5 -121t-110.5 -100t-144 -80v-13h267l-24 -140h-473z" />
    <glyph glyph-name="uni00B3" unicode="&#xb3;" 
d="M597 793q-61 0 -111.5 7t-89.5 19l66 146q30 -6 69.5 -13.5t90.5 -7.5q64 0 104.5 16.5t40.5 46.5q0 52 -118 52h-64l10 116q104 8 149.5 27t45.5 44q0 44 -103 44q-97 0 -181 -29l6 149q52 16 110 23t121 7q113 0 173.5 -35.5t60.5 -102.5q0 -58 -50 -96t-126 -45
l-4 -24q65 -11 103 -44.5t38 -89.5q0 -72 -48 -118.5t-126 -69t-167 -22.5z" />
    <glyph glyph-name="acute" unicode="&#xb4;" 
d="M627 1248l217 380h246l-267 -380h-196z" />
    <glyph glyph-name="uni00B5" unicode="&#xb5;" 
d="M478 -469l-16 1q-169 11 -255 70.5t-114 179.5t-22 312q4 129 23.5 272.5t53.5 318t80 395.5l204 -29q-60 -318 -97 -528t-49 -354h71q165 0 285 120t163 347l3 21l2 10v-1l70 393h217l-130 -730q-16 -91 14 -127.5t123 -36.5h29l-31 -175h-52q-159 0 -217.5 54.5
t-45.5 206.5h-21q-51 -127 -158.5 -201t-315.5 -71h-11q2 -79 15.5 -130.5t54 -80.5t125.5 -42l46 -7z" />
    <glyph glyph-name="paragraph" unicode="&#xb6;" 
d="M706 0l217 1230h-169l-217 -1230h-200l110 625q-153 35 -238 127.5t-85 229.5q0 206 171 322t475 116h547l-34 -190h-158l-217 -1230h-202z" />
    <glyph glyph-name="periodcentered" unicode="&#xb7;" 
d="M632 562q-61 0 -104.5 43.5t-43.5 104.5q0 62 43.5 105t104.5 43q62 0 105 -43t43 -105q0 -61 -43 -104.5t-105 -43.5z" />
    <glyph glyph-name="cedilla" unicode="&#xb8;" 
d="M237 -480l27 150q200 0 200 73q0 56 -143 82l125 224l107 -51l-44 -98q147 -39 147 -153q0 -227 -419 -227z" />
    <glyph glyph-name="uni00B9" unicode="&#xb9;" 
d="M388 800l25 141h198l56 316l-198 -48l28 158l199 53h158l-85 -479h162l-25 -141h-518z" />
    <glyph glyph-name="ordmasculine" unicode="&#xba;" 
d="M642 770q-136 0 -213 74.5t-77 199.5q0 112 53.5 201.5t146.5 142t209 52.5q135 0 212.5 -74t77.5 -200q0 -112 -53.5 -201.5t-146 -142t-209.5 -52.5zM669 920q81 0 138 67.5t57 163.5q0 64 -34.5 101.5t-95.5 37.5q-81 0 -138 -67.5t-57 -163.5q0 -64 34.5 -101.5
t95.5 -37.5z" />
    <glyph glyph-name="guillemotright" unicode="&#xbb;" 
d="M134 25l-110 135l425 376l3 18l-281 360l140 115l344 -443l-22 -122zM629 25l-110 135l425 376l3 18l-281 360l140 115l344 -443l-22 -122z" />
    <glyph glyph-name="onequarter" unicode="&#xbc;" 
d="M824 0l19 106h-322l2 3l162 476h162l-117 -344h136l66 377h158l-66 -377h69l-24 -135h-68l-19 -106h-158zM128 800l25 141h198l56 316l-198 -48l28 158l199 53h158l-85 -479h162l-25 -141h-518zM764 688l-64 110l444 344l84 -150zM208 264l-85 156l446 285l64 -110z" />
    <glyph glyph-name="onehalf" unicode="&#xbd;" 
d="M573 -1l-16 157q86 28 166.5 64t132 82.5t51.5 103.5q0 71 -88 71q-82 0 -177 -36l-35 138q63 33 122 45.5t135 12.5q110 0 173 -50t63 -134q0 -66 -42.5 -121t-110.5 -100t-144 -80v-13h267l-24 -140h-473zM128 800l25 141h198l56 316l-198 -48l28 158l199 53h158
l-85 -479h162l-25 -141h-518zM734 688l-64 110l444 344l84 -150zM178 264l-85 156l446 285l64 -110z" />
    <glyph glyph-name="threequarters" unicode="&#xbe;" 
d="M824 0l19 106h-322l2 3l162 476h162l-117 -344h136l66 377h158l-66 -377h69l-24 -135h-68l-19 -106h-158zM337 793q-61 0 -111.5 7t-89.5 19l66 146q30 -6 69.5 -13.5t90.5 -7.5q64 0 104.5 16.5t40.5 46.5q0 52 -118 52h-64l10 116q104 8 149.5 27t45.5 44q0 44 -103 44
q-97 0 -181 -29l6 149q52 16 110 23t121 7q113 0 173.5 -35.5t60.5 -102.5q0 -58 -50 -96t-126 -45l-4 -24q65 -11 103 -44.5t38 -89.5q0 -72 -48 -118.5t-126 -69t-167 -22.5zM734 688l-64 110l444 344l84 -150zM178 264l-85 156l446 285l64 -110z" />
    <glyph glyph-name="questiondown" unicode="&#xbf;" 
d="M439 -380q-163 0 -255 79t-92 219q0 114 64.5 200.5t188.5 173.5q101 71 150.5 135.5t59.5 127.5l8 49h196l-8 -63q-15 -118 -87 -204.5t-190 -170.5q-78 -55 -120 -104.5t-42 -116.5q0 -64 45.5 -99.5t127.5 -35.5q93 0 193 47t177 125l113 -153q-88 -94 -232 -151.5
t-297 -57.5zM709 783q-61 0 -104.5 43.5t-43.5 104.5q0 62 43.5 105t104.5 43q62 0 105 -43t43 -105q0 -61 -43 -104.5t-105 -43.5z" />
    <glyph glyph-name="Agrave" unicode="&#xc0;" 
d="M-48 0l630 1421h321q26 -113 49.5 -256.5t43 -300.5t34 -313.5t23 -298t9.5 -252.5h-212q1 69 -2.5 158t-10.5 188h-513l-150 -346h-222zM407 536h415q-12 131 -26.5 261.5t-30 247t-30.5 204.5h-18zM659 1580l-216 250h292l166 -250h-242z" />
    <glyph glyph-name="Aacute" unicode="&#xc1;" 
d="M-48 0l630 1421h321q26 -113 49.5 -256.5t43 -300.5t34 -313.5t23 -298t9.5 -252.5h-212q1 69 -2.5 158t-10.5 188h-513l-150 -346h-222zM407 536h415q-12 131 -26.5 261.5t-30 247t-30.5 204.5h-18zM654 1580l210 251h284l-262 -251h-232z" />
    <glyph glyph-name="Acircumflex" unicode="&#xc2;" 
d="M-48 0l630 1421h321q26 -113 49.5 -256.5t43 -300.5t34 -313.5t23 -298t9.5 -252.5h-212q1 69 -2.5 158t-10.5 188h-513l-150 -346h-222zM407 536h415q-12 131 -26.5 261.5t-30 247t-30.5 204.5h-18zM436 1580l306 260h172l214 -260h-212l-95 144l-153 -144h-232z" />
    <glyph glyph-name="Atilde" unicode="&#xc3;" 
d="M-48 0l630 1421h321q26 -113 49.5 -256.5t43 -300.5t34 -313.5t23 -298t9.5 -252.5h-212q1 69 -2.5 158t-10.5 188h-513l-150 -346h-222zM407 536h415q-12 131 -26.5 261.5t-30 247t-30.5 204.5h-18zM397 1566l9 50q45 250 254 250q46 0 106 -12.5t116.5 -25.5t89.5 -13
q53 0 65 60l11 60h185l-9 -50q-42 -240 -231 -240q-45 0 -104 13t-115.5 25.5t-93.5 12.5q-74 0 -87 -70l-11 -60h-185z" />
    <glyph glyph-name="Adieresis" unicode="&#xc4;" 
d="M-48 0l630 1421h321q26 -113 49.5 -256.5t43 -300.5t34 -313.5t23 -298t9.5 -252.5h-212q1 69 -2.5 158t-10.5 188h-513l-150 -346h-222zM407 536h415q-12 131 -26.5 261.5t-30 247t-30.5 204.5h-18zM601 1580q-55 0 -94.5 39.5t-39.5 94.5q0 56 39.5 95t94.5 39
q56 0 95 -39t39 -95q0 -55 -39 -94.5t-95 -39.5zM1017 1580q-55 0 -94.5 39.5t-39.5 94.5q0 56 39.5 95t94.5 39q56 0 95 -39t39 -95q0 -55 -39 -94.5t-95 -39.5z" />
    <glyph glyph-name="Aring" unicode="&#xc5;" 
d="M-48 0l630 1421h321q26 -113 49.5 -256.5t43 -300.5t34 -313.5t23 -298t9.5 -252.5h-212q1 69 -2.5 158t-10.5 188h-513l-150 -346h-222zM407 536h415q-12 131 -26.5 261.5t-30 247t-30.5 204.5h-18zM769 1488q-93 0 -149.5 47t-56.5 124q0 109 76.5 175t201.5 66
q93 0 149.5 -47t56.5 -124q0 -109 -76.5 -175t-201.5 -66zM789 1604q51 0 82.5 31t31.5 81q0 31 -22.5 50t-59.5 19q-51 0 -82.5 -31t-31.5 -82q0 -31 22.5 -49.5t59.5 -18.5z" />
    <glyph glyph-name="AE" unicode="&#xc6;" 
d="M491 0l42 237h-274l-100 -237h-210l628 1420h680l-35 -190h-316l-75 -424h256l-33 -190h-257l-75 -426h316l-33 -190h-514zM336 417h228l147 831h-23z" />
    <glyph glyph-name="Ccedilla" unicode="&#xc7;" 
d="M666 -20q-561 0 -561 543q0 203 58.5 371t165.5 290t254.5 189t325.5 67q221 0 344 -159l-143 -147q-97 122 -230 122q-161 0 -288 -94.5t-200 -258.5t-73 -373q0 -366 374 -366q170 0 347 60l14 -176q-192 -68 -388 -68zM317 -480l27 150q200 0 200 73q0 56 -143 82
l125 224l107 -51l-44 -98q147 -39 147 -153q0 -227 -419 -227z" />
    <glyph glyph-name="Egrave" unicode="&#xc8;" 
d="M67 0l250 1420h939l-33 -190h-730l-75 -424h550l-33 -190h-551l-75 -426h730l-33 -190h-939zM699 1580l-216 250h292l166 -250h-242z" />
    <glyph glyph-name="Eacute" unicode="&#xc9;" 
d="M67 0l250 1420h939l-33 -190h-730l-75 -424h550l-33 -190h-551l-75 -426h730l-33 -190h-939zM694 1580l210 251h284l-262 -251h-232z" />
    <glyph glyph-name="Ecircumflex" unicode="&#xca;" 
d="M67 0l250 1420h939l-33 -190h-730l-75 -424h550l-33 -190h-551l-75 -426h730l-33 -190h-939zM476 1580l306 260h172l214 -260h-212l-95 144l-153 -144h-232z" />
    <glyph glyph-name="Edieresis" unicode="&#xcb;" 
d="M67 0l250 1420h939l-33 -190h-730l-75 -424h550l-33 -190h-551l-75 -426h730l-33 -190h-939zM641 1580q-55 0 -94.5 39.5t-39.5 94.5q0 56 39.5 95t94.5 39q56 0 95 -39t39 -95q0 -55 -39 -94.5t-95 -39.5zM1057 1580q-55 0 -94.5 39.5t-39.5 94.5q0 56 39.5 95t94.5 39
q56 0 95 -39t39 -95q0 -55 -39 -94.5t-95 -39.5z" />
    <glyph glyph-name="Igrave" unicode="&#xcc;" 
d="M75 0l33 190h328l184 1040h-328l33 190h863l-33 -190h-327l-184 -1040h327l-33 -190h-863zM659 1580l-216 250h292l166 -250h-242z" />
    <glyph glyph-name="Iacute" unicode="&#xcd;" 
d="M75 0l33 190h328l184 1040h-328l33 190h863l-33 -190h-327l-184 -1040h327l-33 -190h-863zM654 1580l210 251h284l-262 -251h-232z" />
    <glyph glyph-name="Icircumflex" unicode="&#xce;" 
d="M75 0l33 190h328l184 1040h-328l33 190h863l-33 -190h-327l-184 -1040h327l-33 -190h-863zM436 1580l306 260h172l214 -260h-212l-95 144l-153 -144h-232z" />
    <glyph glyph-name="Idieresis" unicode="&#xcf;" 
d="M75 0l33 190h328l184 1040h-328l33 190h863l-33 -190h-327l-184 -1040h327l-33 -190h-863zM601 1580q-55 0 -94.5 39.5t-39.5 94.5q0 56 39.5 95t94.5 39q56 0 95 -39t39 -95q0 -55 -39 -94.5t-95 -39.5zM1017 1580q-55 0 -94.5 39.5t-39.5 94.5q0 56 39.5 95t94.5 39
q56 0 95 -39t39 -95q0 -55 -39 -94.5t-95 -39.5z" />
    <glyph glyph-name="Eth" unicode="&#xd0;" 
d="M26 612l34 190h128l109 618q109 20 232 20q303 0 473 -155t170 -432q0 -268 -104 -459t-299 -292.5t-470 -101.5h-252l108 612h-129zM288 190h53q290 0 453.5 170.5t163.5 474.5q0 196 -120 305.5t-334 109.5h-29l-79 -448h303l-34 -190h-302z" />
    <glyph glyph-name="Ntilde" unicode="&#xd1;" 
d="M716 0l-245 1080h-18l-190 -1080h-208l250 1420h243l245 -1080h18l190 1080h208l-250 -1420h-243zM397 1566l9 50q45 250 254 250q46 0 106 -12.5t116.5 -25.5t89.5 -13q53 0 65 60l11 60h185l-9 -50q-42 -240 -231 -240q-45 0 -104 13t-115.5 25.5t-93.5 12.5
q-74 0 -87 -70l-11 -60h-185z" />
    <glyph glyph-name="Ograve" unicode="&#xd2;" 
d="M513 -20q-195 0 -304 128.5t-109 357.5q0 306 77.5 524t223.5 334t351 116q194 0 303 -125.5t109 -349.5q0 -309 -77.5 -529.5t-223 -338t-350.5 -117.5zM539 164q194 0 302.5 205t108.5 571q0 149 -57.5 232.5t-161.5 83.5q-196 0 -306.5 -202t-110.5 -563
q0 -154 59.5 -240.5t165.5 -86.5zM659 1580l-216 250h292l166 -250h-242z" />
    <glyph glyph-name="Oacute" unicode="&#xd3;" 
d="M513 -20q-195 0 -304 128.5t-109 357.5q0 306 77.5 524t223.5 334t351 116q194 0 303 -125.5t109 -349.5q0 -309 -77.5 -529.5t-223 -338t-350.5 -117.5zM539 164q194 0 302.5 205t108.5 571q0 149 -57.5 232.5t-161.5 83.5q-196 0 -306.5 -202t-110.5 -563
q0 -154 59.5 -240.5t165.5 -86.5zM654 1580l210 251h284l-262 -251h-232z" />
    <glyph glyph-name="Ocircumflex" unicode="&#xd4;" 
d="M513 -20q-195 0 -304 128.5t-109 357.5q0 306 77.5 524t223.5 334t351 116q194 0 303 -125.5t109 -349.5q0 -309 -77.5 -529.5t-223 -338t-350.5 -117.5zM539 164q194 0 302.5 205t108.5 571q0 149 -57.5 232.5t-161.5 83.5q-196 0 -306.5 -202t-110.5 -563
q0 -154 59.5 -240.5t165.5 -86.5zM436 1580l306 260h172l214 -260h-212l-95 144l-153 -144h-232z" />
    <glyph glyph-name="Otilde" unicode="&#xd5;" 
d="M513 -20q-195 0 -304 128.5t-109 357.5q0 306 77.5 524t223.5 334t351 116q194 0 303 -125.5t109 -349.5q0 -309 -77.5 -529.5t-223 -338t-350.5 -117.5zM539 164q194 0 302.5 205t108.5 571q0 149 -57.5 232.5t-161.5 83.5q-196 0 -306.5 -202t-110.5 -563
q0 -154 59.5 -240.5t165.5 -86.5zM397 1566l9 50q45 250 254 250q46 0 106 -12.5t116.5 -25.5t89.5 -13q53 0 65 60l11 60h185l-9 -50q-42 -240 -231 -240q-45 0 -104 13t-115.5 25.5t-93.5 12.5q-74 0 -87 -70l-11 -60h-185z" />
    <glyph glyph-name="Odieresis" unicode="&#xd6;" 
d="M513 -20q-195 0 -304 128.5t-109 357.5q0 306 77.5 524t223.5 334t351 116q194 0 303 -125.5t109 -349.5q0 -309 -77.5 -529.5t-223 -338t-350.5 -117.5zM539 164q194 0 302.5 205t108.5 571q0 149 -57.5 232.5t-161.5 83.5q-196 0 -306.5 -202t-110.5 -563
q0 -154 59.5 -240.5t165.5 -86.5zM601 1580q-55 0 -94.5 39.5t-39.5 94.5q0 56 39.5 95t94.5 39q56 0 95 -39t39 -95q0 -55 -39 -94.5t-95 -39.5zM1017 1580q-55 0 -94.5 39.5t-39.5 94.5q0 56 39.5 95t94.5 39q56 0 95 -39t39 -95q0 -55 -39 -94.5t-95 -39.5z" />
    <glyph glyph-name="multiply" unicode="&#xd7;" 
d="M209 188l-122 151l411 364l-271 364l153 121l264 -356l403 356l121 -153l-408 -360l273 -368l-152 -119l-266 358z" />
    <glyph glyph-name="Oslash" unicode="&#xd8;" 
d="M86 -142l-129 101l190 251q-47 108 -47 256q0 306 77.5 524t223.5 334t351 116q159 0 262 -85l140 185l129 -91l-169 -225q50 -109 50 -259q0 -309 -77.5 -529.5t-223 -338t-350.5 -117.5q-162 0 -267 91zM539 164q194 0 302.5 205t108.5 571q0 33 -3 63l-570 -758
q59 -81 162 -81zM316 434l568 749q-57 73 -153 73q-196 0 -306.5 -202t-110.5 -563q0 -30 2 -57z" />
    <glyph glyph-name="Ugrave" unicode="&#xd9;" 
d="M539 -20q-246 0 -349.5 120.5t-62.5 355.5l170 964h208l-170 -964q-52 -292 221 -292q232 0 283 292l170 964h208l-170 -964q-84 -476 -508 -476zM659 1580l-216 250h292l166 -250h-242z" />
    <glyph glyph-name="Uacute" unicode="&#xda;" 
d="M539 -20q-246 0 -349.5 120.5t-62.5 355.5l170 964h208l-170 -964q-52 -292 221 -292q232 0 283 292l170 964h208l-170 -964q-84 -476 -508 -476zM654 1580l210 251h284l-262 -251h-232z" />
    <glyph glyph-name="Ucircumflex" unicode="&#xdb;" 
d="M539 -20q-246 0 -349.5 120.5t-62.5 355.5l170 964h208l-170 -964q-52 -292 221 -292q232 0 283 292l170 964h208l-170 -964q-84 -476 -508 -476zM436 1580l306 260h172l214 -260h-212l-95 144l-153 -144h-232z" />
    <glyph glyph-name="Udieresis" unicode="&#xdc;" 
d="M539 -20q-246 0 -349.5 120.5t-62.5 355.5l170 964h208l-170 -964q-52 -292 221 -292q232 0 283 292l170 964h208l-170 -964q-84 -476 -508 -476zM601 1580q-55 0 -94.5 39.5t-39.5 94.5q0 56 39.5 95t94.5 39q56 0 95 -39t39 -95q0 -55 -39 -94.5t-95 -39.5zM1017 1580
q-55 0 -94.5 39.5t-39.5 94.5q0 56 39.5 95t94.5 39q56 0 95 -39t39 -95q0 -55 -39 -94.5t-95 -39.5z" />
    <glyph glyph-name="Yacute" unicode="&#xdd;" 
d="M402 0l81 460l-305 938l212 32l224 -804h18q106 137 192 259.5t158 251.5t136 283h214q-79 -195 -176 -360.5t-213.5 -318.5t-256.5 -310l-76 -431h-208zM654 1580l210 251h284l-262 -251h-232z" />
    <glyph glyph-name="Thorn" unicode="&#xde;" 
d="M67 0l250 1420h208l-31 -177q54 2 113 2q269 0 407 -114t138 -335q0 -302 -214.5 -462t-633.5 -168l-29 -166h-208zM338 356q296 8 448 116.5t152 310.5q0 272 -364 272q-60 0 -114 -2z" />
    <glyph glyph-name="germandbls" unicode="&#xdf;" 
d="M720 -20q-80 0 -140 8t-107 22l55 193q71 -16 126.5 -24.5t98.5 -8.5q74 0 115.5 40.5t41.5 110.5q0 56 -30 94.5t-67 74.5q-41 41 -83 98t-42 148q0 92 42.5 159t78.5 110q11 13 37.5 46.5t50 79.5t23.5 94q0 47 -31 75.5t-91 29.5q-114 1 -184 -91t-104 -286
l-249 -1413h-215l247 1403q52 297 181.5 437t352.5 140q149 0 228 -73t79 -209q0 -87 -26 -150t-57.5 -103.5t-49.5 -58.5q-12 -13 -36 -41t-43.5 -63.5t-19.5 -73.5q0 -39 29.5 -75t60.5 -73q49 -58 90.5 -118t41.5 -145q0 -105 -51.5 -185.5t-142.5 -126t-210 -45.5z" />
    <glyph glyph-name="agrave" unicode="&#xe0;" 
d="M347 -21q-136 0 -210 78t-74 220q0 180 76.5 326.5t214.5 250.5t323 160t402 56h20l-132 -753q-14 -80 12.5 -116t114.5 -36h41l-30 -175h-71q-147 0 -203 59t-43 202h-26q-61 -130 -168.5 -201t-246.5 -71zM412 169q144 0 251 130t150 368l37 204
q-164 -25 -293.5 -104.5t-204.5 -199t-75 -265.5q0 -64 35.5 -98.5t99.5 -34.5zM666 1248l-166 380h203l146 -380h-183z" />
    <glyph glyph-name="aacute" unicode="&#xe1;" 
d="M347 -21q-136 0 -210 78t-74 220q0 180 76.5 326.5t214.5 250.5t323 160t402 56h20l-132 -753q-14 -80 12.5 -116t114.5 -36h41l-30 -175h-71q-147 0 -203 59t-43 202h-26q-61 -130 -168.5 -201t-246.5 -71zM412 169q144 0 251 130t150 368l37 204
q-164 -25 -293.5 -104.5t-204.5 -199t-75 -265.5q0 -64 35.5 -98.5t99.5 -34.5zM657 1248l217 380h246l-267 -380h-196z" />
    <glyph glyph-name="acircumflex" unicode="&#xe2;" 
d="M347 -21q-136 0 -210 78t-74 220q0 180 76.5 326.5t214.5 250.5t323 160t402 56h20l-132 -753q-14 -80 12.5 -116t114.5 -36h41l-30 -175h-71q-147 0 -203 59t-43 202h-26q-61 -130 -168.5 -201t-246.5 -71zM412 169q144 0 251 130t150 368l37 204
q-164 -25 -293.5 -104.5t-204.5 -199t-75 -265.5q0 -64 35.5 -98.5t99.5 -34.5zM910 1628l173 -380h-207l-71 226l-157 -226h-217l307 380h172z" />
    <glyph glyph-name="atilde" unicode="&#xe3;" 
d="M347 -21q-136 0 -210 78t-74 220q0 180 76.5 326.5t214.5 250.5t323 160t402 56h20l-132 -753q-14 -80 12.5 -116t114.5 -36h41l-30 -175h-71q-147 0 -203 59t-43 202h-26q-61 -130 -168.5 -201t-246.5 -71zM412 169q144 0 251 130t150 368l37 204
q-164 -25 -293.5 -104.5t-204.5 -199t-75 -265.5q0 -64 35.5 -98.5t99.5 -34.5zM402 1256l6 30q26 133 79.5 201.5t174.5 68.5q46 0 85.5 -17t78.5 -34.5t83 -17.5q74 0 89 94l10 60h185l-6 -50q-34 -280 -260 -280q-51 0 -95.5 17.5t-82 34.5t-68.5 17q-71 0 -88 -84
l-8 -40h-183z" />
    <glyph glyph-name="adieresis" unicode="&#xe4;" 
d="M347 -21q-136 0 -210 78t-74 220q0 180 76.5 326.5t214.5 250.5t323 160t402 56h20l-132 -753q-14 -80 12.5 -116t114.5 -36h41l-30 -175h-71q-147 0 -203 59t-43 202h-26q-61 -130 -168.5 -201t-246.5 -71zM412 169q144 0 251 130t150 368l37 204
q-164 -25 -293.5 -104.5t-204.5 -199t-75 -265.5q0 -64 35.5 -98.5t99.5 -34.5zM568 1238q-55 0 -94.5 39.5t-39.5 94.5q0 56 39.5 95t94.5 39q56 0 95 -39t39 -95q0 -55 -39 -94.5t-95 -39.5zM988 1238q-55 0 -94.5 39.5t-39.5 94.5q0 56 39.5 95t94.5 39q56 0 95 -39
t39 -95q0 -55 -39 -94.5t-95 -39.5z" />
    <glyph glyph-name="aring" unicode="&#xe5;" 
d="M347 -21q-136 0 -210 78t-74 220q0 180 76.5 326.5t214.5 250.5t323 160t402 56h20l-132 -753q-14 -80 12.5 -116t114.5 -36h41l-30 -175h-71q-147 0 -203 59t-43 202h-26q-61 -130 -168.5 -201t-246.5 -71zM412 169q144 0 251 130t150 368l37 204
q-164 -25 -293.5 -104.5t-204.5 -199t-75 -265.5q0 -64 35.5 -98.5t99.5 -34.5zM747 1198q-92 0 -148.5 49t-56.5 128q0 115 77 185t204 70q92 0 148 -48.5t56 -128.5q0 -115 -77 -185t-203 -70zM768 1314q52 0 83.5 32t31.5 84q0 38 -22 61t-59 23q-52 0 -84 -31.5
t-32 -84.5q0 -37 22.5 -60.5t59.5 -23.5z" />
    <glyph glyph-name="ae" unicode="&#xe6;" 
d="M908 170q67 0 135 20l41 -176q-92 -34 -185 -34q-129 0 -214.5 66.5t-118.5 187.5h-18q-32 -133 -109.5 -193.5t-201.5 -60.5q-127 0 -194.5 66t-67.5 188q0 120 59 210t164.5 140t245.5 50q39 0 77 -6q15 110 -53.5 177.5t-197.5 71.5l-109 3l30 190l132 -3
q120 -3 202 -59t115 -157q55 109 138 169t186 60q104 0 161.5 -69t57.5 -191q0 -194 -127.5 -309.5t-355.5 -128.5q5 -100 59.5 -156t148.5 -56zM489 449q-17 4 -37.5 4.5t-43.5 0.5q-100 0 -159.5 -51t-59.5 -136q0 -97 104 -97q66 0 117 55t67 155zM707 545q130 14 202 78
t72 170q0 45 -19.5 71t-55.5 26q-76 0 -129 -93.5t-70 -251.5z" />
    <glyph glyph-name="ccedilla" unicode="&#xe7;" 
d="M556 170q104 0 203.5 34t176.5 89l72 -164q-98 -67 -224 -108t-257 -41q-197 0 -305 102t-108 287q0 215 75 374.5t210.5 248t317.5 88.5q164 0 261 -52t147 -168l-155 -123q-52 80 -119 116.5t-162 36.5q-108 0 -189.5 -62t-126 -174t-45.5 -263q1 -105 60.5 -163
t167.5 -58zM307 -480l27 150q200 0 200 73q0 56 -143 82l125 224l107 -51l-44 -98q147 -39 147 -153q0 -227 -419 -227z" />
    <glyph glyph-name="egrave" unicode="&#xe8;" 
d="M587 170q80 0 171 25t175 70l69 -171q-98 -54 -210 -84t-214 -30q-206 0 -321.5 108t-115.5 301q0 208 78.5 363t219.5 241.5t329 86.5q148 0 230.5 -74t82.5 -206q0 -193 -195.5 -306t-545.5 -123q9 -95 74 -148t173 -53zM350 532q245 10 381 76.5t136 178.5
q0 48 -33 75.5t-94 27.5q-151 0 -254.5 -97t-135.5 -261zM651 1248l-166 380h203l146 -380h-183z" />
    <glyph glyph-name="eacute" unicode="&#xe9;" 
d="M587 170q80 0 171 25t175 70l69 -171q-98 -54 -210 -84t-214 -30q-206 0 -321.5 108t-115.5 301q0 208 78.5 363t219.5 241.5t329 86.5q148 0 230.5 -74t82.5 -206q0 -193 -195.5 -306t-545.5 -123q9 -95 74 -148t173 -53zM350 532q245 10 381 76.5t136 178.5
q0 48 -33 75.5t-94 27.5q-151 0 -254.5 -97t-135.5 -261zM642 1248l217 380h246l-267 -380h-196z" />
    <glyph glyph-name="ecircumflex" unicode="&#xea;" 
d="M587 170q80 0 171 25t175 70l69 -171q-98 -54 -210 -84t-214 -30q-206 0 -321.5 108t-115.5 301q0 208 78.5 363t219.5 241.5t329 86.5q148 0 230.5 -74t82.5 -206q0 -193 -195.5 -306t-545.5 -123q9 -95 74 -148t173 -53zM350 532q245 10 381 76.5t136 178.5
q0 48 -33 75.5t-94 27.5q-151 0 -254.5 -97t-135.5 -261zM895 1628l173 -380h-207l-71 226l-157 -226h-217l307 380h172z" />
    <glyph glyph-name="edieresis" unicode="&#xeb;" 
d="M587 170q80 0 171 25t175 70l69 -171q-98 -54 -210 -84t-214 -30q-206 0 -321.5 108t-115.5 301q0 208 78.5 363t219.5 241.5t329 86.5q148 0 230.5 -74t82.5 -206q0 -193 -195.5 -306t-545.5 -123q9 -95 74 -148t173 -53zM350 532q245 10 381 76.5t136 178.5
q0 48 -33 75.5t-94 27.5q-151 0 -254.5 -97t-135.5 -261zM553 1238q-55 0 -94.5 39.5t-39.5 94.5q0 56 39.5 95t94.5 39q56 0 95 -39t39 -95q0 -55 -39 -94.5t-95 -39.5zM973 1238q-55 0 -94.5 39.5t-39.5 94.5q0 56 39.5 95t94.5 39q56 0 95 -39t39 -95q0 -55 -39 -94.5
t-95 -39.5z" />
    <glyph glyph-name="igrave" unicode="&#xec;" 
d="M966 225l69 -161q-61 -35 -129 -59.5t-156 -24.5q-368 0 -347 334q5 75 29.5 146t53 138t43.5 129q43 166 -151 166q-95 0 -183 -23l-21 182q59 17 118 22.5t118 5.5q207 0 291 -94.5t39 -278.5q-17 -71 -44.5 -132.5t-50.5 -121.5t-28 -130q-11 -153 172 -153
q50 0 87.5 12.5t89.5 42.5zM636 1248l-166 380h203l146 -380h-183z" />
    <glyph glyph-name="iacute" unicode="&#xed;" 
d="M966 225l69 -161q-61 -35 -129 -59.5t-156 -24.5q-368 0 -347 334q5 75 29.5 146t53 138t43.5 129q43 166 -151 166q-95 0 -183 -23l-21 182q59 17 118 22.5t118 5.5q207 0 291 -94.5t39 -278.5q-17 -71 -44.5 -132.5t-50.5 -121.5t-28 -130q-11 -153 172 -153
q50 0 87.5 12.5t89.5 42.5zM627 1248l217 380h246l-267 -380h-196z" />
    <glyph glyph-name="icircumflex" unicode="&#xee;" 
d="M966 225l69 -161q-61 -35 -129 -59.5t-156 -24.5q-368 0 -347 334q5 75 29.5 146t53 138t43.5 129q43 166 -151 166q-95 0 -183 -23l-21 182q59 17 118 22.5t118 5.5q207 0 291 -94.5t39 -278.5q-17 -71 -44.5 -132.5t-50.5 -121.5t-28 -130q-11 -153 172 -153
q50 0 87.5 12.5t89.5 42.5zM880 1628l173 -380h-207l-71 226l-157 -226h-217l307 380h172z" />
    <glyph glyph-name="idieresis" unicode="&#xef;" 
d="M966 225l69 -161q-61 -35 -129 -59.5t-156 -24.5q-368 0 -347 334q5 75 29.5 146t53 138t43.5 129q43 166 -151 166q-95 0 -183 -23l-21 182q59 17 118 22.5t118 5.5q207 0 291 -94.5t39 -278.5q-17 -71 -44.5 -132.5t-50.5 -121.5t-28 -130q-11 -153 172 -153
q50 0 87.5 12.5t89.5 42.5zM538 1238q-55 0 -94.5 39.5t-39.5 94.5q0 56 39.5 95t94.5 39q56 0 95 -39t39 -95q0 -55 -39 -94.5t-95 -39.5zM958 1238q-55 0 -94.5 39.5t-39.5 94.5q0 56 39.5 95t94.5 39q56 0 95 -39t39 -95q0 -55 -39 -94.5t-95 -39.5z" />
    <glyph glyph-name="eth" unicode="&#xf0;" 
d="M502 1416l48 100q216 -69 341 -180l294 86l40 -175l-213 -62q63 -115 78 -266t-10 -345q-75 -594 -605 -594q-183 0 -286 92.5t-103 256.5q0 175 98.5 311t276 216.5t412.5 91.5q-11 104 -46 183l-462 -134l-40 175l391 114q-82 75 -214 130zM876 756
q-271 -17 -423.5 -119t-152.5 -271q0 -92 55 -144t152 -52q318 0 363 496q4 48 6 90z" />
    <glyph glyph-name="ntilde" unicode="&#xf1;" 
d="M75 0l187 1060h177l-7 -241h20q32 125 127 193t228 68q322 0 254 -383l-123 -697h-215l123 705q32 185 -119 185q-80 0 -148.5 -45.5t-123 -151.5t-93.5 -286l-72 -407h-215zM372 1256l6 30q26 133 79.5 201.5t174.5 68.5q46 0 85.5 -17t78.5 -34.5t83 -17.5q74 0 89 94
l10 60h185l-6 -50q-34 -280 -260 -280q-51 0 -95.5 17.5t-82 34.5t-68.5 17q-71 0 -88 -84l-8 -40h-183z" />
    <glyph glyph-name="ograve" unicode="&#xf2;" 
d="M502 -20q-177 0 -276.5 101.5t-99.5 282.5q0 338 151 527t419 189q177 0 276.5 -104t99.5 -290q0 -333 -150.5 -519.5t-419.5 -186.5zM539 169q150 0 234.5 125.5t84.5 348.5q0 116 -50 181.5t-141 65.5q-154 0 -240.5 -125t-86.5 -348q0 -117 52.5 -182.5t146.5 -65.5z
M636 1248l-166 380h203l146 -380h-183z" />
    <glyph glyph-name="oacute" unicode="&#xf3;" 
d="M502 -20q-177 0 -276.5 101.5t-99.5 282.5q0 338 151 527t419 189q177 0 276.5 -104t99.5 -290q0 -333 -150.5 -519.5t-419.5 -186.5zM539 169q150 0 234.5 125.5t84.5 348.5q0 116 -50 181.5t-141 65.5q-154 0 -240.5 -125t-86.5 -348q0 -117 52.5 -182.5t146.5 -65.5z
M627 1248l217 380h246l-267 -380h-196z" />
    <glyph glyph-name="ocircumflex" unicode="&#xf4;" 
d="M502 -20q-177 0 -276.5 101.5t-99.5 282.5q0 338 151 527t419 189q177 0 276.5 -104t99.5 -290q0 -333 -150.5 -519.5t-419.5 -186.5zM539 169q150 0 234.5 125.5t84.5 348.5q0 116 -50 181.5t-141 65.5q-154 0 -240.5 -125t-86.5 -348q0 -117 52.5 -182.5t146.5 -65.5z
M880 1628l173 -380h-207l-71 226l-157 -226h-217l307 380h172z" />
    <glyph glyph-name="otilde" unicode="&#xf5;" 
d="M502 -20q-177 0 -276.5 101.5t-99.5 282.5q0 338 151 527t419 189q177 0 276.5 -104t99.5 -290q0 -333 -150.5 -519.5t-419.5 -186.5zM539 169q150 0 234.5 125.5t84.5 348.5q0 116 -50 181.5t-141 65.5q-154 0 -240.5 -125t-86.5 -348q0 -117 52.5 -182.5t146.5 -65.5z
M372 1256l6 30q26 133 79.5 201.5t174.5 68.5q46 0 85.5 -17t78.5 -34.5t83 -17.5q74 0 89 94l10 60h185l-6 -50q-34 -280 -260 -280q-51 0 -95.5 17.5t-82 34.5t-68.5 17q-71 0 -88 -84l-8 -40h-183z" />
    <glyph glyph-name="odieresis" unicode="&#xf6;" 
d="M502 -20q-177 0 -276.5 101.5t-99.5 282.5q0 338 151 527t419 189q177 0 276.5 -104t99.5 -290q0 -333 -150.5 -519.5t-419.5 -186.5zM539 169q150 0 234.5 125.5t84.5 348.5q0 116 -50 181.5t-141 65.5q-154 0 -240.5 -125t-86.5 -348q0 -117 52.5 -182.5t146.5 -65.5z
M538 1238q-55 0 -94.5 39.5t-39.5 94.5q0 56 39.5 95t94.5 39q56 0 95 -39t39 -95q0 -55 -39 -94.5t-95 -39.5zM958 1238q-55 0 -94.5 39.5t-39.5 94.5q0 56 39.5 95t94.5 39q56 0 95 -39t39 -95q0 -55 -39 -94.5t-95 -39.5z" />
    <glyph glyph-name="divide" unicode="&#xf7;" 
d="M115 616l33 186h1000l-33 -186h-1000zM555 151q-58 0 -99.5 41t-41.5 99q0 59 41.5 100t99.5 41q59 0 100 -41t41 -100q0 -58 -41 -99t-100 -41zM706 984q-58 0 -99.5 41.5t-41.5 99.5t41.5 99t99.5 41q59 0 100 -41t41 -99t-41.5 -99.5t-99.5 -41.5z" />
    <glyph glyph-name="oslash" unicode="&#xf8;" 
d="M158 -120l-94 68l130 171q-68 97 -68 245q0 338 151 527t419 189q113 0 196 -43l115 151l94 -68l-118 -155q89 -104 89 -279q0 -333 -150.5 -519.5t-419.5 -186.5q-133 0 -223 58zM539 169q150 0 234.5 125.5t84.5 348.5q0 75 -21 129l-425 -558q50 -45 127 -45zM350 324
l412 542q-41 24 -95 24q-154 0 -240.5 -125t-86.5 -348q0 -51 10 -93z" />
    <glyph glyph-name="ugrave" unicode="&#xf9;" 
d="M392 -21q-140 0 -217 83.5t-77 234.5q0 153 49.5 338.5t159.5 444.5l212 -39q-109 -265 -158 -435.5t-49 -283.5q0 -73 38 -113t107 -40q133 0 220 128.5t133 369.5v-1l70 394h217l-128 -721q-17 -96 9.5 -135t114.5 -39h43l-31 -175h-47q-158 0 -222.5 62t-48.5 199h-22
q-34 -84 -78.5 -145t-114.5 -94t-180 -33zM636 1248l-166 380h203l146 -380h-183z" />
    <glyph glyph-name="uacute" unicode="&#xfa;" 
d="M392 -21q-140 0 -217 83.5t-77 234.5q0 153 49.5 338.5t159.5 444.5l212 -39q-109 -265 -158 -435.5t-49 -283.5q0 -73 38 -113t107 -40q133 0 220 128.5t133 369.5v-1l70 394h217l-128 -721q-17 -96 9.5 -135t114.5 -39h43l-31 -175h-47q-158 0 -222.5 62t-48.5 199h-22
q-34 -84 -78.5 -145t-114.5 -94t-180 -33zM627 1248l217 380h246l-267 -380h-196z" />
    <glyph glyph-name="ucircumflex" unicode="&#xfb;" 
d="M392 -21q-140 0 -217 83.5t-77 234.5q0 153 49.5 338.5t159.5 444.5l212 -39q-109 -265 -158 -435.5t-49 -283.5q0 -73 38 -113t107 -40q133 0 220 128.5t133 369.5v-1l70 394h217l-128 -721q-17 -96 9.5 -135t114.5 -39h43l-31 -175h-47q-158 0 -222.5 62t-48.5 199h-22
q-34 -84 -78.5 -145t-114.5 -94t-180 -33zM880 1628l173 -380h-207l-71 226l-157 -226h-217l307 380h172z" />
    <glyph glyph-name="udieresis" unicode="&#xfc;" 
d="M392 -21q-140 0 -217 83.5t-77 234.5q0 153 49.5 338.5t159.5 444.5l212 -39q-109 -265 -158 -435.5t-49 -283.5q0 -73 38 -113t107 -40q133 0 220 128.5t133 369.5v-1l70 394h217l-128 -721q-17 -96 9.5 -135t114.5 -39h43l-31 -175h-47q-158 0 -222.5 62t-48.5 199h-22
q-34 -84 -78.5 -145t-114.5 -94t-180 -33zM538 1238q-55 0 -94.5 39.5t-39.5 94.5q0 56 39.5 95t94.5 39q56 0 95 -39t39 -95q0 -55 -39 -94.5t-95 -39.5zM958 1238q-55 0 -94.5 39.5t-39.5 94.5q0 56 39.5 95t94.5 39q56 0 95 -39t39 -95q0 -55 -39 -94.5t-95 -39.5z" />
    <glyph glyph-name="yacute" unicode="&#xfd;" 
d="M3 -472l-89 175q180 79 326 175t261 213q-232 369 -398 969l221 20q126 -516 321 -815q113 159 187.5 356t116.5 439h214q-75 -389 -221 -678.5t-376.5 -497.5t-562.5 -356zM557 1248l217 380h246l-267 -380h-196z" />
    <glyph glyph-name="thorn" unicode="&#xfe;" 
d="M365 -20q-38 0 -78 2l-78 -442l-215 1l293 1656q14 77 -8 112t-83 35q-25 0 -49.5 -2.5t-49.5 -8.5l-23 172q38 9 76 12.5t76 3.5q174 0 238.5 -84t31.5 -270l-61 -348h20q48 125 151.5 193t248.5 68q131 0 203.5 -83.5t72.5 -236.5q0 -167 -57.5 -309t-161.5 -248
t-243.5 -164.5t-303.5 -58.5zM320 172q33 -2 67 -2q151 0 271 72t189.5 196.5t69.5 281.5q0 81 -37 125.5t-105 44.5q-81 0 -162.5 -49t-147.5 -153t-101 -269z" />
    <glyph glyph-name="ydieresis" unicode="&#xff;" 
d="M3 -472l-89 175q180 79 326 175t261 213q-232 369 -398 969l221 20q126 -516 321 -815q113 159 187.5 356t116.5 439h214q-75 -389 -221 -678.5t-376.5 -497.5t-562.5 -356zM468 1238q-55 0 -94.5 39.5t-39.5 94.5q0 56 39.5 95t94.5 39q56 0 95 -39t39 -95
q0 -55 -39 -94.5t-95 -39.5zM888 1238q-55 0 -94.5 39.5t-39.5 94.5q0 56 39.5 95t94.5 39q56 0 95 -39t39 -95q0 -55 -39 -94.5t-95 -39.5z" />
    <glyph glyph-name="Amacron" unicode="&#x100;" 
d="M-48 0l630 1421h321q26 -113 49.5 -256.5t43 -300.5t34 -313.5t23 -298t9.5 -252.5h-212q1 69 -2.5 158t-10.5 188h-513l-150 -346h-222zM407 536h415q-12 131 -26.5 261.5t-30 247t-30.5 204.5h-18zM400 1580l34 188h773l-34 -188h-773z" />
    <glyph glyph-name="amacron" unicode="&#x101;" 
d="M347 -21q-136 0 -210 78t-74 220q0 180 76.5 326.5t214.5 250.5t323 160t402 56h20l-132 -753q-14 -80 12.5 -116t114.5 -36h41l-30 -175h-71q-147 0 -203 59t-43 202h-26q-61 -130 -168.5 -201t-246.5 -71zM412 169q144 0 251 130t150 368l37 204
q-164 -25 -293.5 -104.5t-204.5 -199t-75 -265.5q0 -64 35.5 -98.5t99.5 -34.5zM327 1248l34 188h859l-34 -188h-859z" />
    <glyph glyph-name="Abreve" unicode="&#x102;" 
d="M-48 0l630 1421h321q26 -113 49.5 -256.5t43 -300.5t34 -313.5t23 -298t9.5 -252.5h-212q1 69 -2.5 158t-10.5 188h-513l-150 -346h-222zM407 536h415q-12 131 -26.5 261.5t-30 247t-30.5 204.5h-18zM724 1570q-151 0 -222.5 65t-49.5 180q10 53 30 90l171 -43
q-7 -16 -9 -29q-10 -55 18 -86t88 -31q82 0 159 45.5t132 126.5l11 16l154 -81l-13 -19q-76 -110 -199.5 -172t-269.5 -62z" />
    <glyph glyph-name="abreve" unicode="&#x103;" 
d="M347 -21q-136 0 -210 78t-74 220q0 180 76.5 326.5t214.5 250.5t323 160t402 56h20l-132 -753q-14 -80 12.5 -116t114.5 -36h41l-30 -175h-71q-147 0 -203 59t-43 202h-26q-61 -130 -168.5 -201t-246.5 -71zM412 169q144 0 251 130t150 368l37 204
q-164 -25 -293.5 -104.5t-204.5 -199t-75 -265.5q0 -64 35.5 -98.5t99.5 -34.5zM736 1220q-131 0 -206.5 66t-75.5 172q0 35 5 70.5t16 75.5l171 -15q-9 -26 -12 -49t-3 -42q0 -131 128 -131q77 0 152.5 73t121.5 175l143 -80q-83 -161 -200 -238t-240 -77z" />
    <glyph glyph-name="Aogonek" unicode="&#x104;" 
d="M840 -424q-210 0 -210 182q0 80 58.5 144t163.5 98h-2q1 69 -2.5 158t-10.5 188h-513l-150 -346h-222l630 1421h321q26 -113 49.5 -256.5t43 -300.5t34 -313.5t23 -298t9.5 -252.5q-74 -22 -138.5 -50t-104 -63t-39.5 -80q0 -63 86 -63q46 0 92 24l32 -159
q-72 -33 -150 -33zM407 536h415q-12 131 -26.5 261.5t-30 247t-30.5 204.5h-18z" />
    <glyph glyph-name="aogonek" unicode="&#x105;" 
d="M860 -423q-215 0 -215 170q0 74 49.5 138.5t173.5 106.5v29q-96 52 -80 230h-26q-61 -130 -168.5 -201t-246.5 -71q-136 0 -210 78t-74 220q0 180 76.5 326.5t214.5 250.5t323 160t402 56h20l-132 -753q-14 -80 12.5 -116t114.5 -36h41l-30 -175h-40q-63 0 -125.5 -21
t-103.5 -58t-41 -87q0 -80 78 -80q23 0 42 4.5t32 9.5l26 -163q-43 -18 -113 -18zM412 169q144 0 251 130t150 368l37 204q-164 -25 -293.5 -104.5t-204.5 -199t-75 -265.5q0 -64 35.5 -98.5t99.5 -34.5z" />
    <glyph glyph-name="Cacute" unicode="&#x106;" 
d="M666 -20q-561 0 -561 543q0 203 58.5 371t165.5 290t254.5 189t325.5 67q221 0 344 -159l-143 -147q-97 122 -230 122q-161 0 -288 -94.5t-200 -258.5t-73 -373q0 -366 374 -366q170 0 347 60l14 -176q-192 -68 -388 -68zM754 1580l210 251h284l-262 -251h-232z" />
    <glyph glyph-name="cacute" unicode="&#x107;" 
d="M556 170q104 0 203.5 34t176.5 89l72 -164q-98 -67 -224 -108t-257 -41q-197 0 -305 102t-108 287q0 215 75 374.5t210.5 248t317.5 88.5q164 0 261 -52t147 -168l-155 -123q-52 80 -119 116.5t-162 36.5q-108 0 -189.5 -62t-126 -174t-45.5 -263q1 -105 60.5 -163
t167.5 -58zM617 1248l217 380h246l-267 -380h-196z" />
    <glyph glyph-name="Ccircumflex" unicode="&#x108;" 
d="M666 -20q-561 0 -561 543q0 203 58.5 371t165.5 290t254.5 189t325.5 67q221 0 344 -159l-143 -147q-97 122 -230 122q-161 0 -288 -94.5t-200 -258.5t-73 -373q0 -366 374 -366q170 0 347 60l14 -176q-192 -68 -388 -68zM536 1580l306 260h172l214 -260h-212l-95 144
l-153 -144h-232z" />
    <glyph glyph-name="ccircumflex" unicode="&#x109;" 
d="M556 170q104 0 203.5 34t176.5 89l72 -164q-98 -67 -224 -108t-257 -41q-197 0 -305 102t-108 287q0 215 75 374.5t210.5 248t317.5 88.5q164 0 261 -52t147 -168l-155 -123q-52 80 -119 116.5t-162 36.5q-108 0 -189.5 -62t-126 -174t-45.5 -263q1 -105 60.5 -163
t167.5 -58zM870 1628l173 -380h-207l-71 226l-157 -226h-217l307 380h172z" />
    <glyph glyph-name="Cdotaccent" unicode="&#x10a;" 
d="M666 -20q-561 0 -561 543q0 203 58.5 371t165.5 290t254.5 189t325.5 67q221 0 344 -159l-143 -147q-97 122 -230 122q-161 0 -288 -94.5t-200 -258.5t-73 -373q0 -366 374 -366q170 0 347 60l14 -176q-192 -68 -388 -68zM909 1580q-55 0 -94.5 39.5t-39.5 94.5
q0 56 39.5 95t94.5 39q56 0 95 -39t39 -95q0 -55 -39 -94.5t-95 -39.5z" />
    <glyph glyph-name="cdotaccent" unicode="&#x10b;" 
d="M556 170q104 0 203.5 34t176.5 89l72 -164q-98 -67 -224 -108t-257 -41q-197 0 -305 102t-108 287q0 215 75 374.5t210.5 248t317.5 88.5q164 0 261 -52t147 -168l-155 -123q-52 80 -119 116.5t-162 36.5q-108 0 -189.5 -62t-126 -174t-45.5 -263q1 -105 60.5 -163
t167.5 -58zM739 1238q-55 0 -94.5 39.5t-39.5 94.5q0 56 39.5 95t94.5 39q56 0 95 -39t39 -95q0 -55 -39 -94.5t-95 -39.5z" />
    <glyph glyph-name="Ccaron" unicode="&#x10c;" 
d="M666 -20q-561 0 -561 543q0 203 58.5 371t165.5 290t254.5 189t325.5 67q221 0 344 -159l-143 -147q-97 122 -230 122q-161 0 -288 -94.5t-200 -258.5t-73 -373q0 -366 374 -366q170 0 347 60l14 -176q-192 -68 -388 -68zM799 1580l-214 260h217l98 -144l150 144h227
l-306 -260h-172z" />
    <glyph glyph-name="ccaron" unicode="&#x10d;" 
d="M556 170q104 0 203.5 34t176.5 89l72 -164q-98 -67 -224 -108t-257 -41q-197 0 -305 102t-108 287q0 215 75 374.5t210.5 248t317.5 88.5q164 0 261 -52t147 -168l-155 -123q-52 80 -119 116.5t-162 36.5q-108 0 -189.5 -62t-126 -174t-45.5 -263q1 -105 60.5 -163
t167.5 -58zM626 1210l-173 380h207l71 -226l157 226h217l-307 -380h-172z" />
    <glyph glyph-name="Dcaron" unicode="&#x10e;" 
d="M47 0l250 1420q109 20 232 20q303 0 473 -155t170 -432q0 -268 -104 -459t-299 -292.5t-470 -101.5h-252zM288 190h53q290 0 453.5 170.5t163.5 474.5q0 196 -120 305.5t-334 109.5h-29zM659 1580l-214 260h217l98 -144l150 144h227l-306 -260h-172z" />
    <glyph glyph-name="dcaron" unicode="&#x10f;" 
d="M352 -21q-138 0 -213.5 78t-75.5 220q0 216 105.5 382.5t291 271.5t425.5 137l23 129q14 77 -8 112t-83 35q-25 0 -49.5 -2.5t-49.5 -8.5l-23 172q38 9 76 12.5t76 3.5q174 0 238.5 -84t31.5 -270l-150 -849q-27 -153 108 -153h61l-31 -175h-76q-138 0 -195.5 63.5
t-45.5 198.5h-26q-57 -125 -163 -199t-247 -74zM810 652l41 229q-164 -26 -294 -106.5t-205 -202t-75 -270.5q0 -64 36.5 -98.5t103.5 -34.5q138 0 241.5 126t151.5 357zM1225 1188l107 380h222l-157 -380h-172z" />
    <glyph glyph-name="Dcroat" unicode="&#x110;" 
d="M26 612l34 190h128l109 618q109 20 232 20q303 0 473 -155t170 -432q0 -268 -104 -459t-299 -292.5t-470 -101.5h-252l108 612h-129zM288 190h53q290 0 453.5 170.5t163.5 474.5q0 196 -120 305.5t-334 109.5h-29l-79 -448h303l-34 -190h-302z" />
    <glyph glyph-name="dcroat" unicode="&#x111;" 
d="M960 1500h215l-19 -108h106l-31 -174h-106l-186 -1053h174l-29 -165l-323 -10l23 262h-22q-57 -125 -163 -199t-247 -74q-138 0 -213.5 78t-75.5 220q0 216 105.5 382.5t290.5 271.5t424 136l27 151h-355l31 174h355zM809 649l41 231q-164 -25 -293.5 -105.5
t-204.5 -202.5t-75 -270q0 -64 36.5 -98.5t103.5 -34.5q138 0 241 125.5t151 354.5z" />
    <glyph glyph-name="Emacron" unicode="&#x112;" 
d="M67 0l250 1420h939l-33 -190h-730l-75 -424h550l-33 -190h-551l-75 -426h730l-33 -190h-939zM440 1580l34 188h773l-34 -188h-773z" />
    <glyph glyph-name="emacron" unicode="&#x113;" 
d="M587 170q80 0 171 25t175 70l69 -171q-98 -54 -210 -84t-214 -30q-206 0 -321.5 108t-115.5 301q0 208 78.5 363t219.5 241.5t329 86.5q148 0 230.5 -74t82.5 -206q0 -193 -195.5 -306t-545.5 -123q9 -95 74 -148t173 -53zM350 532q245 10 381 76.5t136 178.5
q0 48 -33 75.5t-94 27.5q-151 0 -254.5 -97t-135.5 -261zM312 1248l34 188h859l-34 -188h-859z" />
    <glyph glyph-name="Ebreve" unicode="&#x114;" 
d="M67 0l250 1420h939l-33 -190h-730l-75 -424h550l-33 -190h-551l-75 -426h730l-33 -190h-939zM764 1570q-151 0 -222.5 65t-49.5 180q10 53 30 90l171 -43q-7 -16 -9 -29q-10 -55 18 -86t88 -31q82 0 159 45.5t132 126.5l11 16l154 -81l-13 -19q-76 -110 -199.5 -172
t-269.5 -62z" />
    <glyph glyph-name="ebreve" unicode="&#x115;" 
d="M587 170q80 0 171 25t175 70l69 -171q-98 -54 -210 -84t-214 -30q-206 0 -321.5 108t-115.5 301q0 208 78.5 363t219.5 241.5t329 86.5q148 0 230.5 -74t82.5 -206q0 -193 -195.5 -306t-545.5 -123q9 -95 74 -148t173 -53zM350 532q245 10 381 76.5t136 178.5
q0 48 -33 75.5t-94 27.5q-151 0 -254.5 -97t-135.5 -261zM721 1220q-131 0 -206.5 66t-75.5 172q0 35 5 70.5t16 75.5l171 -15q-9 -26 -12 -49t-3 -42q0 -131 128 -131q77 0 152.5 73t121.5 175l143 -80q-83 -161 -200 -238t-240 -77z" />
    <glyph glyph-name="Edotaccent" unicode="&#x116;" 
d="M67 0l250 1420h939l-33 -190h-730l-75 -424h550l-33 -190h-551l-75 -426h730l-33 -190h-939zM849 1580q-55 0 -94.5 39.5t-39.5 94.5q0 56 39.5 95t94.5 39q56 0 95 -39t39 -95q0 -55 -39 -94.5t-95 -39.5z" />
    <glyph glyph-name="edotaccent" unicode="&#x117;" 
d="M587 170q80 0 171 25t175 70l69 -171q-98 -54 -210 -84t-214 -30q-206 0 -321.5 108t-115.5 301q0 208 78.5 363t219.5 241.5t329 86.5q148 0 230.5 -74t82.5 -206q0 -193 -195.5 -306t-545.5 -123q9 -95 74 -148t173 -53zM350 532q245 10 381 76.5t136 178.5
q0 48 -33 75.5t-94 27.5q-151 0 -254.5 -97t-135.5 -261zM764 1238q-55 0 -94.5 39.5t-39.5 94.5q0 56 39.5 95t94.5 39q56 0 95 -39t39 -95q0 -55 -39 -94.5t-95 -39.5z" />
    <glyph glyph-name="Eogonek" unicode="&#x118;" 
d="M785 -424q-210 0 -210 182q0 73 43 130.5t120 88.5v23h-671l250 1420h939l-33 -190h-730l-75 -424h550l-33 -190h-551l-75 -426h730l-33 -190q-64 0 -129 -20.5t-108.5 -59t-43.5 -93.5q0 -83 86 -83q46 0 92 24l32 -159q-72 -33 -150 -33z" />
    <glyph glyph-name="eogonek" unicode="&#x119;" 
d="M734 -424q-220 0 -220 182q0 78 39.5 131.5t103.5 81.5v13q-41 -4 -79 -4q-206 0 -321.5 108t-115.5 301q0 208 78.5 363t219.5 241.5t329 86.5q148 0 230.5 -74t82.5 -206q0 -193 -195.5 -306t-545.5 -123q9 -95 74 -148t173 -53q80 0 171 25t175 70l69 -171
q-56 -31 -118 -54q-51 -21 -101.5 -45t-84.5 -64t-34 -109q0 -78 96 -78q61 0 122 24l32 -159q-87 -33 -180 -33zM350 532q245 10 381 76.5t136 178.5q0 48 -33 75.5t-94 27.5q-151 0 -254.5 -97t-135.5 -261z" />
    <glyph glyph-name="Ecaron" unicode="&#x11a;" 
d="M67 0l250 1420h939l-33 -190h-730l-75 -424h550l-33 -190h-551l-75 -426h730l-33 -190h-939zM739 1580l-214 260h217l98 -144l150 144h227l-306 -260h-172z" />
    <glyph glyph-name="ecaron" unicode="&#x11b;" 
d="M587 170q80 0 171 25t175 70l69 -171q-98 -54 -210 -84t-214 -30q-206 0 -321.5 108t-115.5 301q0 208 78.5 363t219.5 241.5t329 86.5q148 0 230.5 -74t82.5 -206q0 -193 -195.5 -306t-545.5 -123q9 -95 74 -148t173 -53zM350 532q245 10 381 76.5t136 178.5
q0 48 -33 75.5t-94 27.5q-151 0 -254.5 -97t-135.5 -261zM651 1210l-173 380h207l71 -226l157 226h217l-307 -380h-172z" />
    <glyph glyph-name="Gcircumflex" unicode="&#x11c;" 
d="M591 -20q-239 0 -373.5 141t-134.5 392q0 200 55.5 369t159.5 294.5t251 194.5t331 69q142 0 228.5 -50.5t140.5 -127.5l-155 -138q-45 56 -108 94t-146 38q-154 0 -277 -92t-194.5 -253.5t-71.5 -371.5q0 -375 340 -375q51 0 97 5t86 13l60 338h-269l33 190h477
l-118 -670q-46 -13 -159 -36.5t-253 -23.5zM536 1580l306 260h172l214 -260h-212l-95 144l-153 -144h-232z" />
    <glyph glyph-name="gcircumflex" unicode="&#x11d;" 
d="M55 -480l-10 186l210 13q167 11 267.5 77t151.5 165t69 208l11 62h-14q-51 -121 -146.5 -186.5t-223.5 -65.5q-138 0 -213.5 78t-75.5 220q0 180 76.5 326.5t214.5 250.5t323.5 160t402.5 56h19l-154 -869q-25 -141 -72.5 -260t-129.5 -209t-210.5 -143t-315.5 -61z
M867 871q-164 -24 -293 -103.5t-204 -199.5t-75 -266q0 -64 36.5 -98.5t103.5 -34.5q144 0 246 122.5t146 352.5zM880 1628l173 -380h-207l-71 226l-157 -226h-217l307 380h172z" />
    <glyph glyph-name="Gbreve" unicode="&#x11e;" 
d="M591 -20q-239 0 -373.5 141t-134.5 392q0 200 55.5 369t159.5 294.5t251 194.5t331 69q142 0 228.5 -50.5t140.5 -127.5l-155 -138q-45 56 -108 94t-146 38q-154 0 -277 -92t-194.5 -253.5t-71.5 -371.5q0 -375 340 -375q51 0 97 5t86 13l60 338h-269l33 190h477
l-118 -670q-46 -13 -159 -36.5t-253 -23.5zM824 1570q-151 0 -222.5 65t-49.5 180q10 53 30 90l171 -43q-7 -16 -9 -29q-10 -55 18 -86t88 -31q82 0 159 45.5t132 126.5l11 16l154 -81l-13 -19q-76 -110 -199.5 -172t-269.5 -62z" />
    <glyph glyph-name="gbreve" unicode="&#x11f;" 
d="M55 -480l-10 186l210 13q167 11 267.5 77t151.5 165t69 208l11 62h-14q-51 -121 -146.5 -186.5t-223.5 -65.5q-138 0 -213.5 78t-75.5 220q0 180 76.5 326.5t214.5 250.5t323.5 160t402.5 56h19l-154 -869q-25 -141 -72.5 -260t-129.5 -209t-210.5 -143t-315.5 -61z
M867 871q-164 -24 -293 -103.5t-204 -199.5t-75 -266q0 -64 36.5 -98.5t103.5 -34.5q144 0 246 122.5t146 352.5zM706 1220q-131 0 -206.5 66t-75.5 172q0 35 5 70.5t16 75.5l171 -15q-9 -26 -12 -49t-3 -42q0 -131 128 -131q77 0 152.5 73t121.5 175l143 -80
q-83 -161 -200 -238t-240 -77z" />
    <glyph glyph-name="Gdotaccent" unicode="&#x120;" 
d="M591 -20q-239 0 -373.5 141t-134.5 392q0 200 55.5 369t159.5 294.5t251 194.5t331 69q142 0 228.5 -50.5t140.5 -127.5l-155 -138q-45 56 -108 94t-146 38q-154 0 -277 -92t-194.5 -253.5t-71.5 -371.5q0 -375 340 -375q51 0 97 5t86 13l60 338h-269l33 190h477
l-118 -670q-46 -13 -159 -36.5t-253 -23.5zM909 1580q-55 0 -94.5 39.5t-39.5 94.5q0 56 39.5 95t94.5 39q56 0 95 -39t39 -95q0 -55 -39 -94.5t-95 -39.5z" />
    <glyph glyph-name="gdotaccent" unicode="&#x121;" 
d="M55 -480l-10 186l210 13q167 11 267.5 77t151.5 165t69 208l11 62h-14q-51 -121 -146.5 -186.5t-223.5 -65.5q-138 0 -213.5 78t-75.5 220q0 180 76.5 326.5t214.5 250.5t323.5 160t402.5 56h19l-154 -869q-25 -141 -72.5 -260t-129.5 -209t-210.5 -143t-315.5 -61z
M867 871q-164 -24 -293 -103.5t-204 -199.5t-75 -266q0 -64 36.5 -98.5t103.5 -34.5q144 0 246 122.5t146 352.5zM749 1238q-55 0 -94.5 39.5t-39.5 94.5q0 56 39.5 95t94.5 39q56 0 95 -39t39 -95q0 -55 -39 -94.5t-95 -39.5z" />
    <glyph glyph-name="uni0122" unicode="&#x122;" 
d="M591 -20q-239 0 -373.5 141t-134.5 392q0 200 55.5 369t159.5 294.5t251 194.5t331 69q142 0 228.5 -50.5t140.5 -127.5l-155 -138q-45 56 -108 94t-146 38q-154 0 -277 -92t-194.5 -253.5t-71.5 -371.5q0 -375 340 -375q51 0 97 5t86 13l60 338h-269l33 190h477
l-118 -670q-46 -13 -159 -36.5t-253 -23.5zM468 -568l-102 99q169 118 169 174q0 32 -67 32h-65l26 149h75q200 0 200 -128q0 -87 -71 -168t-165 -158z" />
    <glyph glyph-name="uni0123" unicode="&#x123;" 
d="M55 -480l-10 186l210 13q167 11 267.5 77t151.5 165t69 208l11 62h-14q-51 -121 -146.5 -186.5t-223.5 -65.5q-138 0 -213.5 78t-75.5 220q0 180 76.5 326.5t214.5 250.5t323.5 160t402.5 56h19l-154 -869q-25 -141 -72.5 -260t-129.5 -209t-210.5 -143t-315.5 -61z
M867 871q-164 -24 -293 -103.5t-204 -199.5t-75 -266q0 -64 36.5 -98.5t103.5 -34.5q144 0 246 122.5t146 352.5zM734 1201q-101 0 -150.5 31t-49.5 107q0 70 57.5 146.5t178.5 169.5l102 -99q-169 -118 -169 -174q0 -32 67 -32h65l-26 -149h-75z" />
    <glyph glyph-name="Hcircumflex" unicode="&#x124;" 
d="M759 0l108 612h-504l-108 -612h-208l250 1420h208l-109 -618h504l109 618h208l-250 -1420h-208zM436 1580l306 260h172l214 -260h-212l-95 144l-153 -144h-232z" />
    <glyph glyph-name="hcircumflex" unicode="&#x125;" 
d="M723 0l123 705q32 185 -119 185q-82 0 -152 -47t-125.5 -156.5t-95.5 -296.5l2 19l-72 -409h-215l210 1187q14 77 -8 112t-83 35q-25 0 -49.5 -2.5t-49.5 -8.5l-21 182q38 9 76 12.5t76 3.5q174 0 238.5 -84t31.5 -270l-61 -348h19q32 125 128.5 193t230.5 68
q322 0 254 -383l-123 -697h-215zM64 1660l306 260h172l214 -260h-212l-95 144l-153 -144h-232z" />
    <glyph glyph-name="Hbar" unicode="&#x126;" 
d="M125 1002l34 190h98l40 228h208l-40 -228h504l40 228h208l-40 -228h98l-34 -190h-98l-176 -1002h-208l108 612h-504l-108 -612h-208l176 1002h-98zM396 802h504l35 200h-504z" />
    <glyph glyph-name="hbar" unicode="&#x127;" 
d="M723 0l123 705q32 185 -119 185q-79 0 -147 -45t-123 -149t-94 -282l-73 -414h-215l214 1218h-145l30 174h146l19 108h216l-19 -108h354l-30 -174h-355l-70 -399h17q32 125 127 193t228 68q322 0 254 -383l-123 -697h-215z" />
    <glyph glyph-name="Itilde" unicode="&#x128;" 
d="M75 0l33 190h328l184 1040h-328l33 190h863l-33 -190h-327l-184 -1040h327l-33 -190h-863zM397 1566l9 50q45 250 254 250q46 0 106 -12.5t116.5 -25.5t89.5 -13q53 0 65 60l11 60h185l-9 -50q-42 -240 -231 -240q-45 0 -104 13t-115.5 25.5t-93.5 12.5q-74 0 -87 -70
l-11 -60h-185z" />
    <glyph glyph-name="itilde" unicode="&#x129;" 
d="M966 225l69 -161q-61 -35 -129 -59.5t-156 -24.5q-368 0 -347 334q5 75 29.5 146t53 138t43.5 129q43 166 -151 166q-95 0 -183 -23l-21 182q59 17 118 22.5t118 5.5q207 0 291 -94.5t39 -278.5q-17 -71 -44.5 -132.5t-50.5 -121.5t-28 -130q-11 -153 172 -153
q50 0 87.5 12.5t89.5 42.5zM372 1256l6 30q26 133 79.5 201.5t174.5 68.5q46 0 85.5 -17t78.5 -34.5t83 -17.5q74 0 89 94l10 60h185l-6 -50q-34 -280 -260 -280q-51 0 -95.5 17.5t-82 34.5t-68.5 17q-71 0 -88 -84l-8 -40h-183z" />
    <glyph glyph-name="Imacron" unicode="&#x12a;" 
d="M75 0l33 190h328l184 1040h-328l33 190h863l-33 -190h-327l-184 -1040h327l-33 -190h-863zM400 1580l34 188h773l-34 -188h-773z" />
    <glyph glyph-name="imacron" unicode="&#x12b;" 
d="M966 225l69 -161q-61 -35 -129 -59.5t-156 -24.5q-368 0 -347 334q5 75 29.5 146t53 138t43.5 129q43 166 -151 166q-95 0 -183 -23l-21 182q59 17 118 22.5t118 5.5q207 0 291 -94.5t39 -278.5q-17 -71 -44.5 -132.5t-50.5 -121.5t-28 -130q-11 -153 172 -153
q50 0 87.5 12.5t89.5 42.5zM297 1248l34 188h859l-34 -188h-859z" />
    <glyph glyph-name="Ibreve" unicode="&#x12c;" 
d="M75 0l33 190h328l184 1040h-328l33 190h863l-33 -190h-327l-184 -1040h327l-33 -190h-863zM724 1570q-151 0 -222.5 65t-49.5 180q10 53 30 90l171 -43q-7 -16 -9 -29q-10 -55 18 -86t88 -31q82 0 159 45.5t132 126.5l11 16l154 -81l-13 -19q-76 -110 -199.5 -172
t-269.5 -62z" />
    <glyph glyph-name="ibreve" unicode="&#x12d;" 
d="M966 225l69 -161q-61 -35 -129 -59.5t-156 -24.5q-368 0 -347 334q5 75 29.5 146t53 138t43.5 129q43 166 -151 166q-95 0 -183 -23l-21 182q59 17 118 22.5t118 5.5q207 0 291 -94.5t39 -278.5q-17 -71 -44.5 -132.5t-50.5 -121.5t-28 -130q-11 -153 172 -153
q50 0 87.5 12.5t89.5 42.5zM706 1220q-131 0 -206.5 66t-75.5 172q0 35 5 70.5t16 75.5l171 -15q-9 -26 -12 -49t-3 -42q0 -131 128 -131q77 0 152.5 73t121.5 175l143 -80q-83 -161 -200 -238t-240 -77z" />
    <glyph glyph-name="Iogonek" unicode="&#x12e;" 
d="M487 -424q-220 0 -220 182q0 73 38 130.5t105 88.5v23h-335l33 190h328l184 1040h-328l33 190h863l-33 -190h-327l-184 -1040h327l-33 -190h-260q-59 0 -119.5 -20.5t-101 -59t-40.5 -93.5q0 -83 96 -83q61 0 122 24l32 -159q-87 -33 -180 -33z" />
    <glyph glyph-name="iogonek" unicode="&#x12f;" 
d="M594 -424q-220 0 -220 182q0 86 56.5 148.5t146.5 84.5v15q-189 69 -174 308q5 75 29.5 146t53 138t43.5 129q43 166 -151 166q-95 0 -183 -23l-21 182q59 17 118 22.5t118 5.5q207 0 291 -94.5t39 -278.5q-17 -71 -44.5 -132.5t-50.5 -121.5t-28 -130q-11 -153 172 -153
q50 0 87.5 12.5t89.5 42.5l69 -161q-48 -27 -99.5 -48.5t-112.5 -30.5q-72 -13 -140.5 -32t-113.5 -50t-45 -81q0 -78 96 -78q61 0 122 24l32 -159q-87 -33 -180 -33zM731 1228q-61 0 -104.5 43.5t-43.5 104.5q0 62 43.5 105t104.5 43q62 0 105 -43t43 -105
q0 -61 -43 -104.5t-105 -43.5z" />
    <glyph glyph-name="Idotaccent" unicode="&#x130;" 
d="M75 0l33 190h328l184 1040h-328l33 190h863l-33 -190h-327l-184 -1040h327l-33 -190h-863zM809 1580q-55 0 -94.5 39.5t-39.5 94.5q0 56 39.5 95t94.5 39q56 0 95 -39t39 -95q0 -55 -39 -94.5t-95 -39.5z" />
    <glyph glyph-name="dotlessi" unicode="&#x131;" 
d="M966 225l69 -161q-61 -35 -129 -59.5t-156 -24.5q-368 0 -347 334q5 75 29.5 146t53 138t43.5 129q43 166 -151 166q-95 0 -183 -23l-21 182q59 17 118 22.5t118 5.5q207 0 291 -94.5t39 -278.5q-17 -71 -44.5 -132.5t-50.5 -121.5t-28 -130q-11 -153 172 -153
q50 0 87.5 12.5t89.5 42.5z" />
    <glyph glyph-name="IJ" unicode="&#x132;" 
d="M568 -20q-223 0 -318.5 95.5t-56.5 280.5h208q-32 -192 183 -192q224 0 264 222l149 844h-184l34 190h391l-182 -1034q-71 -406 -488 -406zM49 497l34 190h172l95 543h-172l34 190h524l-34 -190h-154l-95 -543h174l-34 -190h-544z" />
    <glyph glyph-name="ij" unicode="&#x133;" 
d="M125 -480l-10 188l220 18q128 11 198.5 53.5t106.5 122t57 200.5l169 958h215l-163 -926q-26 -150 -65.5 -259.5t-105 -182t-170.5 -111.5t-262 -49zM176 0l186 1060h215l-186 -1060h-215zM518 1228q-61 0 -104.5 43.5t-43.5 104.5q0 62 43.5 105t104.5 43q62 0 105 -43
t43 -105q0 -61 -43 -104.5t-105 -43.5zM1009 1228q-61 0 -104.5 43.5t-43.5 104.5q0 62 43.5 105t104.5 43q62 0 105 -43t43 -105q0 -61 -43 -104.5t-105 -43.5z" />
    <glyph glyph-name="Jcircumflex" unicode="&#x134;" 
d="M498 -20q-244 0 -357 130.5t-64 365.5h208q-25 -148 34 -230t195 -82q140 0 221 76t109 236l133 754h-360l34 190h567l-166 -944q-45 -255 -178.5 -375.5t-375.5 -120.5zM636 1580l306 260h172l214 -260h-212l-95 144l-153 -144h-232z" />
    <glyph glyph-name="jcircumflex" unicode="&#x135;" 
d="M27 -480l-10 188l220 18q128 11 198.5 53.5t106.5 122.5t57 200l115 645q14 77 -8 112t-83 35q-95 0 -191 -13t-191 -30l-21 187q107 20 216.5 31.5t218.5 11.5q174 0 238.5 -84t31.5 -270l-105 -593q-27 -150 -66 -259t-105 -182t-170.5 -112t-261.5 -49zM1003 1628
l173 -380h-207l-71 226l-157 -226h-217l307 380h172z" />
    <glyph glyph-name="uni0136" unicode="&#x136;" 
d="M57 0l250 1420h208l-152 -863q202 56 339.5 181.5t218.5 300.5t116 381h214q-40 -242 -142 -448.5t-263 -355.5l223 -616h-232l-166 484q-158 -95 -344 -135l-62 -349h-208zM388 -568l-102 99q169 118 169 174q0 32 -67 32h-65l26 149h75q200 0 200 -128q0 -87 -71 -168
t-165 -158z" />
    <glyph glyph-name="uni0137" unicode="&#x137;" 
d="M956 -20q-187 0 -299 115t-143 330q200 96 275 192t75 178q0 95 -108 95q-77 0 -159.5 -55.5t-147.5 -160.5t-90 -254l1 7l-75 -426h-215l211 1196q13 77 -8.5 112t-82.5 35q-25 0 -49.5 -2.5t-49.5 -8.5l-23 172q38 9 76 12.5t76 3.5q174 0 238 -84t32 -270l-68 -388h22
q32 136 134 218.5t238 82.5q119 0 190.5 -72t71.5 -191q0 -154 -87.5 -272t-246.5 -205q35 -92 91 -131t145 -39q29 0 45.5 1.5t35.5 3.5l19 -181q-28 -6 -57 -10t-67 -4zM482 -568l-102 99q169 118 169 174q0 32 -67 32h-65l26 149h75q200 0 200 -128q0 -87 -71 -168
t-165 -158z" />
    <glyph glyph-name="kgreenlandic" unicode="&#x138;" 
d="M956 -20q-187 0 -299 115t-143 330q200 96 275 192t75 178q0 95 -108 95q-77 0 -159.5 -54t-148 -157t-91.5 -248l-2 -9v-2v0l-74 -419h-215l187 1059h215l-50 -281h22q32 136 135 218.5t241 82.5q119 0 190.5 -72t71.5 -191q0 -154 -87.5 -272t-246.5 -205
q35 -92 91 -131t145 -39q29 0 45.5 1.5t35.5 3.5l19 -181q-28 -6 -57 -10t-67 -4z" />
    <glyph glyph-name="Lacute" unicode="&#x139;" 
d="M67 0l250 1420h209l-217 -1230h731l-33 -190h-940zM314 1580l210 251h284l-262 -251h-232z" />
    <glyph glyph-name="lacute" unicode="&#x13a;" 
d="M693 -20q-166 0 -244.5 76.5t-78.5 237.5q0 71 29 181l155 605q35 136 7.5 194.5t-161.5 58.5q-34 0 -69.5 -5.5t-70.5 -20.5l-31 182q50 14 101 22.5t102 8.5q232 0 314.5 -111t22.5 -341l-155 -593q-30 -113 -30 -172q0 -133 148 -133q61 0 107 15t110 50l69 -161
q-70 -40 -147.5 -67t-177.5 -27zM468 1660l210 251h284l-262 -251h-232z" />
    <glyph glyph-name="uni013B" unicode="&#x13b;" 
d="M67 0l250 1420h209l-217 -1230h731l-33 -190h-940zM388 -568l-102 99q169 118 169 174q0 32 -67 32h-65l26 149h75q200 0 200 -128q0 -87 -71 -168t-165 -158z" />
    <glyph glyph-name="uni013C" unicode="&#x13c;" 
d="M693 -20q-166 0 -244.5 76.5t-78.5 237.5q0 71 29 181l155 605q35 136 7.5 194.5t-161.5 58.5q-34 0 -69.5 -5.5t-70.5 -20.5l-31 182q50 14 101 22.5t102 8.5q232 0 314.5 -111t22.5 -341l-155 -593q-30 -113 -30 -172q0 -133 148 -133q61 0 107 15t110 50l69 -161
q-70 -40 -147.5 -67t-177.5 -27zM482 -568l-102 99q169 118 169 174q0 32 -67 32h-65l26 149h75q200 0 200 -128q0 -87 -71 -168t-165 -158z" />
    <glyph glyph-name="Lcaron" unicode="&#x13d;" 
d="M67 0l250 1420h209l-217 -1230h731l-33 -190h-940zM880 1188l107 380h222l-157 -380h-172z" />
    <glyph glyph-name="lcaron" unicode="&#x13e;" 
d="M693 -20q-166 0 -244.5 76.5t-78.5 237.5q0 71 29 181l155 605q35 136 7.5 194.5t-161.5 58.5q-34 0 -69.5 -5.5t-70.5 -20.5l-31 182q50 14 101 22.5t102 8.5q232 0 314.5 -111t22.5 -341l-155 -593q-30 -113 -30 -172q0 -133 148 -133q61 0 107 15t110 50l69 -161
q-70 -40 -147.5 -67t-177.5 -27zM905 1188l107 380h222l-157 -380h-172z" />
    <glyph glyph-name="Ldot" unicode="&#x13f;" 
d="M67 0l250 1420h209l-217 -1230h731l-33 -190h-940zM912 882q-61 0 -104.5 43.5t-43.5 104.5q0 62 43.5 105t104.5 43q62 0 105 -43t43 -105q0 -61 -43 -104.5t-105 -43.5z" />
    <glyph glyph-name="ldot" unicode="&#x140;" 
d="M693 -20q-166 0 -244.5 76.5t-78.5 237.5q0 71 29 181l155 605q35 136 7.5 194.5t-161.5 58.5q-34 0 -69.5 -5.5t-70.5 -20.5l-31 182q50 14 101 22.5t102 8.5q232 0 314.5 -111t22.5 -341l-155 -593q-30 -113 -30 -172q0 -133 148 -133q61 0 107 15t110 50l69 -161
q-70 -40 -147.5 -67t-177.5 -27zM1178 642q-61 0 -104.5 43.5t-43.5 104.5q0 62 43.5 105t104.5 43q62 0 105 -43t43 -105q0 -61 -43 -104.5t-105 -43.5z" />
    <glyph glyph-name="Lslash" unicode="&#x141;" 
d="M48 469l33 187l219 101l117 663h208l-98 -558l432 200l-34 -187l-431 -200l-86 -485h632l-33 -190h-840l33 190v0l67 381z" />
    <glyph glyph-name="lslash" unicode="&#x142;" 
d="M124 447l-52 159l410 193l72 281q35 136 7.5 194.5t-161.5 58.5q-34 0 -69.5 -5.5t-70.5 -20.5l-31 182q50 14 101 22.5t102 8.5q232 0 314.5 -111t22.5 -341l-40 -153l300 141l53 -159l-408 -192l-60 -230q-30 -113 -30 -172q0 -133 148 -133q61 0 107 15t110 50
l69 -161q-70 -40 -147.5 -67t-177.5 -27q-166 0 -244.5 76.5t-78.5 237.5q0 71 29 181l29 115z" />
    <glyph glyph-name="Nacute" unicode="&#x143;" 
d="M716 0l-245 1080h-18l-190 -1080h-208l250 1420h243l245 -1080h18l190 1080h208l-250 -1420h-243zM654 1580l210 251h284l-262 -251h-232z" />
    <glyph glyph-name="nacute" unicode="&#x144;" 
d="M75 0l187 1060h177l-7 -241h20q32 125 127 193t228 68q322 0 254 -383l-123 -697h-215l123 705q32 185 -119 185q-80 0 -148.5 -45.5t-123 -151.5t-93.5 -286l-72 -407h-215zM627 1248l217 380h246l-267 -380h-196z" />
    <glyph glyph-name="uni0145" unicode="&#x145;" 
d="M716 0l-245 1080h-18l-190 -1080h-208l250 1420h243l245 -1080h18l190 1080h208l-250 -1420h-243zM388 -568l-102 99q169 118 169 174q0 32 -67 32h-65l26 149h75q200 0 200 -128q0 -87 -71 -168t-165 -158z" />
    <glyph glyph-name="uni0146" unicode="&#x146;" 
d="M75 0l187 1060h177l-7 -241h20q32 125 127 193t228 68q322 0 254 -383l-123 -697h-215l123 705q32 185 -119 185q-80 0 -148.5 -45.5t-123 -151.5t-93.5 -286l-72 -407h-215zM388 -568l-102 99q169 118 169 174q0 32 -67 32h-65l26 149h75q200 0 200 -128q0 -87 -71 -168
t-165 -158z" />
    <glyph glyph-name="Ncaron" unicode="&#x147;" 
d="M716 0l-245 1080h-18l-190 -1080h-208l250 1420h243l245 -1080h18l190 1080h208l-250 -1420h-243zM699 1580l-214 260h217l98 -144l150 144h227l-306 -260h-172z" />
    <glyph glyph-name="ncaron" unicode="&#x148;" 
d="M75 0l187 1060h177l-7 -241h20q32 125 127 193t228 68q322 0 254 -383l-123 -697h-215l123 705q32 185 -119 185q-80 0 -148.5 -45.5t-123 -151.5t-93.5 -286l-72 -407h-215zM636 1210l-173 380h207l71 -226l157 226h217l-307 -380h-172z" />
    <glyph glyph-name="napostrophe" unicode="&#x149;" 
d="M75 0l187 1060h177l-7 -241h20q32 125 127 193t228 68q322 0 254 -383l-123 -697h-215l123 705q32 185 -119 185q-80 0 -148.5 -45.5t-123 -151.5t-93.5 -286l-72 -407h-215zM276 1140l-121 139l59 51q38 33 64.5 67t26.5 70q0 49 -70 49h-45l32 184h75q218 0 218 -191
q0 -87 -45 -162.5t-122 -143.5z" />
    <glyph glyph-name="Eng" unicode="&#x14a;" 
d="M716 0l-245 1080h-18l-190 -1080h-208l250 1420h243l245 -1080h18l190 1080h208l-249 -1412l-2 -14q-26 -152 -85.5 -248.5t-164.5 -148t-268 -69.5l-45 -5l-12 189l55 9q147 24 217 76.5t89 164.5l7 38h-35z" />
    <glyph glyph-name="eng" unicode="&#x14b;" 
d="M339 -480l-10 188l127 15q99 12 153.5 56t82.5 124t49 199l105 603q32 185 -119 185q-80 0 -148.5 -45.5t-123 -151.5t-93.5 -286l-72 -407h-215l187 1060h177l-7 -241h20q32 125 127 193t228 68q322 0 254 -383l-99 -563q-35 -199 -88 -326.5t-155 -194.5t-283 -84z" />
    <glyph glyph-name="Omacron" unicode="&#x14c;" 
d="M513 -20q-195 0 -304 128.5t-109 357.5q0 306 77.5 524t223.5 334t351 116q194 0 303 -125.5t109 -349.5q0 -309 -77.5 -529.5t-223 -338t-350.5 -117.5zM539 164q194 0 302.5 205t108.5 571q0 149 -57.5 232.5t-161.5 83.5q-196 0 -306.5 -202t-110.5 -563
q0 -154 59.5 -240.5t165.5 -86.5zM400 1580l34 188h773l-34 -188h-773z" />
    <glyph glyph-name="omacron" unicode="&#x14d;" 
d="M502 -20q-177 0 -276.5 101.5t-99.5 282.5q0 338 151 527t419 189q177 0 276.5 -104t99.5 -290q0 -333 -150.5 -519.5t-419.5 -186.5zM539 169q150 0 234.5 125.5t84.5 348.5q0 116 -50 181.5t-141 65.5q-154 0 -240.5 -125t-86.5 -348q0 -117 52.5 -182.5t146.5 -65.5z
M297 1248l34 188h859l-34 -188h-859z" />
    <glyph glyph-name="Obreve" unicode="&#x14e;" 
d="M513 -20q-195 0 -304 128.5t-109 357.5q0 306 77.5 524t223.5 334t351 116q194 0 303 -125.5t109 -349.5q0 -309 -77.5 -529.5t-223 -338t-350.5 -117.5zM539 164q194 0 302.5 205t108.5 571q0 149 -57.5 232.5t-161.5 83.5q-196 0 -306.5 -202t-110.5 -563
q0 -154 59.5 -240.5t165.5 -86.5zM724 1570q-151 0 -222.5 65t-49.5 180q10 53 30 90l171 -43q-7 -16 -9 -29q-10 -55 18 -86t88 -31q82 0 159 45.5t132 126.5l11 16l154 -81l-13 -19q-76 -110 -199.5 -172t-269.5 -62z" />
    <glyph glyph-name="obreve" unicode="&#x14f;" 
d="M502 -20q-177 0 -276.5 101.5t-99.5 282.5q0 338 151 527t419 189q177 0 276.5 -104t99.5 -290q0 -333 -150.5 -519.5t-419.5 -186.5zM539 169q150 0 234.5 125.5t84.5 348.5q0 116 -50 181.5t-141 65.5q-154 0 -240.5 -125t-86.5 -348q0 -117 52.5 -182.5t146.5 -65.5z
M706 1220q-131 0 -206.5 66t-75.5 172q0 35 5 70.5t16 75.5l171 -15q-9 -26 -12 -49t-3 -42q0 -131 128 -131q77 0 152.5 73t121.5 175l143 -80q-83 -161 -200 -238t-240 -77z" />
    <glyph glyph-name="Ohungarumlaut" unicode="&#x150;" 
d="M513 -20q-195 0 -304 128.5t-109 357.5q0 306 77.5 524t223.5 334t351 116q194 0 303 -125.5t109 -349.5q0 -309 -77.5 -529.5t-223 -338t-350.5 -117.5zM539 164q194 0 302.5 205t108.5 571q0 149 -57.5 232.5t-161.5 83.5q-196 0 -306.5 -202t-110.5 -563
q0 -154 59.5 -240.5t165.5 -86.5zM454 1580l170 251h284l-222 -251h-232zM856 1580l170 251h284l-222 -251h-232z" />
    <glyph glyph-name="ohungarumlaut" unicode="&#x151;" 
d="M502 -20q-177 0 -276.5 101.5t-99.5 282.5q0 338 151 527t419 189q177 0 276.5 -104t99.5 -290q0 -333 -150.5 -519.5t-419.5 -186.5zM539 169q150 0 234.5 125.5t84.5 348.5q0 116 -50 181.5t-141 65.5q-154 0 -240.5 -125t-86.5 -348q0 -117 52.5 -182.5t146.5 -65.5z
M383 1248l217 380h222l-237 -380h-202zM763 1248l217 380h222l-237 -380h-202z" />
    <glyph glyph-name="OE" unicode="&#x152;" 
d="M423 -20q-167 0 -254.5 119t-87.5 340q0 137 25 278.5t74 271t121 231t167.5 161t212.5 59.5q51 0 85.5 -10t80.5 -10h410l-35 -190h-309l-75 -424h249l-33 -190h-250l-75 -426h309l-33 -190h-398q-35 0 -81.5 -10t-102.5 -10zM466 164q30 0 52 6l187 1064q-22 22 -57 22
q-68 0 -124 -53t-98.5 -140.5t-71.5 -193.5t-44 -212.5t-15 -196.5q0 -143 43.5 -219.5t127.5 -76.5z" />
    <glyph glyph-name="oe" unicode="&#x153;" 
d="M907 170q67 0 135 20l41 -176q-92 -34 -185 -34q-111 0 -189 50t-119 142q-96 -192 -286 -192q-138 0 -213.5 95.5t-75.5 268.5q0 351 110.5 543.5t312.5 192.5q173 0 224 -193q54 92 130.5 142.5t170.5 50.5q104 0 161.5 -69t57.5 -191q0 -194 -126.5 -309.5
t-352.5 -128.5q5 -100 58.5 -156t145.5 -56zM347 170q92 0 141.5 131.5t49.5 371.5q0 104 -27 160.5t-77 56.5q-99 0 -152.5 -134t-53.5 -379q0 -99 30.5 -153t88.5 -54zM710 545q128 14 199 79.5t71 172.5q0 93 -75 93t-126.5 -93.5t-68.5 -251.5z" />
    <glyph glyph-name="Racute" unicode="&#x154;" 
d="M47 0l250 1420q128 20 328 20q274 0 415 -103.5t141 -305.5q0 -336 -316 -480l184 -551h-229l-152 487q-147 -32 -334 -36l-79 -451h-208zM368 641q295 9 447 104.5t152 272.5q0 232 -355 232q-72 0 -137 -2zM604 1580l210 251h284l-262 -251h-232z" />
    <glyph glyph-name="racute" unicode="&#x155;" 
d="M-15 0l33 186h237l100 561q14 77 -8 111.5t-83 34.5q-84 0 -162 -23l-21 182q88 28 215 28q151 0 219.5 -62.5t62.5 -198.5h22q29 125 113 193t202 68q160 0 231.5 -100.5t42.5 -282.5h-215q25 193 -119 193q-75 0 -139 -44.5t-115.5 -147.5t-88.5 -279l-42 -233h256
l-33 -186h-708zM584 1248l217 380h246l-267 -380h-196z" />
    <glyph glyph-name="uni0156" unicode="&#x156;" 
d="M47 0l250 1420q128 20 328 20q274 0 415 -103.5t141 -305.5q0 -336 -316 -480l184 -551h-229l-152 487q-147 -32 -334 -36l-79 -451h-208zM368 641q295 9 447 104.5t152 272.5q0 232 -355 232q-72 0 -137 -2zM388 -568l-102 99q169 118 169 174q0 32 -67 32h-65l26 149
h75q200 0 200 -128q0 -87 -71 -168t-165 -158z" />
    <glyph glyph-name="uni0157" unicode="&#x157;" 
d="M-15 0l33 186h237l100 561q14 77 -8 111.5t-83 34.5q-84 0 -162 -23l-21 182q88 28 215 28q151 0 219.5 -62.5t62.5 -198.5h22q29 125 113 193t202 68q160 0 231.5 -100.5t42.5 -282.5h-215q25 193 -119 193q-75 0 -139 -44.5t-115.5 -147.5t-88.5 -279l-42 -233h256
l-33 -186h-708zM211 -568l-102 99q169 118 169 174q0 32 -67 32h-65l26 149h75q200 0 200 -128q0 -87 -71 -168t-165 -158z" />
    <glyph glyph-name="Rcaron" unicode="&#x158;" 
d="M47 0l250 1420q128 20 328 20q274 0 415 -103.5t141 -305.5q0 -336 -316 -480l184 -551h-229l-152 487q-147 -32 -334 -36l-79 -451h-208zM368 641q295 9 447 104.5t152 272.5q0 232 -355 232q-72 0 -137 -2zM649 1580l-214 260h217l98 -144l150 144h227l-306 -260h-172z
" />
    <glyph glyph-name="rcaron" unicode="&#x159;" 
d="M-15 0l33 186h237l100 561q14 77 -8 111.5t-83 34.5q-84 0 -162 -23l-21 182q88 28 215 28q151 0 219.5 -62.5t62.5 -198.5h22q29 125 113 193t202 68q160 0 231.5 -100.5t42.5 -282.5h-215q25 193 -119 193q-75 0 -139 -44.5t-115.5 -147.5t-88.5 -279l-42 -233h256
l-33 -186h-708zM593 1210l-173 380h207l71 -226l157 226h217l-307 -380h-172z" />
    <glyph glyph-name="Sacute" unicode="&#x15a;" 
d="M486 -20q-259 0 -438 88l62 182q205 -86 395 -86q307 0 307 185q0 56 -22 97.5t-72 81.5l-286 232q-77 63 -112.5 145.5t-35.5 161.5q0 184 116.5 278.5t338.5 94.5q277 0 438 -169l-145 -152q-148 137 -305 137q-110 0 -169.5 -43.5t-59.5 -128.5q0 -45 24 -98t77 -96
l246 -198q95 -77 138 -150.5t43 -169.5q0 -193 -137 -292.5t-403 -99.5zM654 1580l210 251h284l-262 -251h-232z" />
    <glyph glyph-name="sacute" unicode="&#x15b;" 
d="M491 -20q-130 0 -239 16t-178 44l58 192q116 -29 218.5 -45.5t174.5 -16.5q131 0 203.5 34.5t72.5 97.5q0 68 -95 99l-300 101q-99 33 -152 93t-53 135q0 167 141.5 258.5t400.5 91.5q189 0 366 -30l-54 -184q-94 11 -183.5 17.5t-158.5 6.5q-142 0 -219.5 -36.5
t-77.5 -103.5q0 -51 75 -74l305 -97q106 -34 162.5 -100.5t56.5 -152.5q0 -165 -137 -255.5t-387 -90.5zM629 1248l217 380h246l-267 -380h-196z" />
    <glyph glyph-name="Scircumflex" unicode="&#x15c;" 
d="M486 -20q-259 0 -438 88l62 182q205 -86 395 -86q307 0 307 185q0 56 -22 97.5t-72 81.5l-286 232q-77 63 -112.5 145.5t-35.5 161.5q0 184 116.5 278.5t338.5 94.5q277 0 438 -169l-145 -152q-148 137 -305 137q-110 0 -169.5 -43.5t-59.5 -128.5q0 -45 24 -98t77 -96
l246 -198q95 -77 138 -150.5t43 -169.5q0 -193 -137 -292.5t-403 -99.5zM436 1580l306 260h172l214 -260h-212l-95 144l-153 -144h-232z" />
    <glyph glyph-name="scircumflex" unicode="&#x15d;" 
d="M491 -20q-130 0 -239 16t-178 44l58 192q116 -29 218.5 -45.5t174.5 -16.5q131 0 203.5 34.5t72.5 97.5q0 68 -95 99l-300 101q-99 33 -152 93t-53 135q0 167 141.5 258.5t400.5 91.5q189 0 366 -30l-54 -184q-94 11 -183.5 17.5t-158.5 6.5q-142 0 -219.5 -36.5
t-77.5 -103.5q0 -51 75 -74l305 -97q106 -34 162.5 -100.5t56.5 -152.5q0 -165 -137 -255.5t-387 -90.5zM882 1628l173 -380h-207l-71 226l-157 -226h-217l307 380h172z" />
    <glyph glyph-name="Scedilla" unicode="&#x15e;" 
d="M486 -20q-259 0 -438 88l62 182q205 -86 395 -86q307 0 307 185q0 56 -22 97.5t-72 81.5l-286 232q-77 63 -112.5 145.5t-35.5 161.5q0 184 116.5 278.5t338.5 94.5q277 0 438 -169l-145 -152q-148 137 -305 137q-110 0 -169.5 -43.5t-59.5 -128.5q0 -45 24 -98t77 -96
l246 -198q95 -77 138 -150.5t43 -169.5q0 -193 -137 -292.5t-403 -99.5zM237 -480l27 150q200 0 200 73q0 56 -143 82l125 224l107 -51l-44 -98q147 -39 147 -153q0 -227 -419 -227z" />
    <glyph glyph-name="scedilla" unicode="&#x15f;" 
d="M491 -20q-130 0 -239 16t-178 44l58 192q116 -29 218.5 -45.5t174.5 -16.5q131 0 203.5 34.5t72.5 97.5q0 68 -95 99l-300 101q-99 33 -152 93t-53 135q0 167 141.5 258.5t400.5 91.5q189 0 366 -30l-54 -184q-94 11 -183.5 17.5t-158.5 6.5q-142 0 -219.5 -36.5
t-77.5 -103.5q0 -51 75 -74l305 -97q106 -34 162.5 -100.5t56.5 -152.5q0 -165 -137 -255.5t-387 -90.5zM237 -480l27 150q200 0 200 73q0 56 -143 82l125 224l107 -51l-44 -98q147 -39 147 -153q0 -227 -419 -227z" />
    <glyph glyph-name="Scaron" unicode="&#x160;" 
d="M486 -20q-259 0 -438 88l62 182q205 -86 395 -86q307 0 307 185q0 56 -22 97.5t-72 81.5l-286 232q-77 63 -112.5 145.5t-35.5 161.5q0 184 116.5 278.5t338.5 94.5q277 0 438 -169l-145 -152q-148 137 -305 137q-110 0 -169.5 -43.5t-59.5 -128.5q0 -45 24 -98t77 -96
l246 -198q95 -77 138 -150.5t43 -169.5q0 -193 -137 -292.5t-403 -99.5zM699 1580l-214 260h217l98 -144l150 144h227l-306 -260h-172z" />
    <glyph glyph-name="scaron" unicode="&#x161;" 
d="M491 -20q-130 0 -239 16t-178 44l58 192q116 -29 218.5 -45.5t174.5 -16.5q131 0 203.5 34.5t72.5 97.5q0 68 -95 99l-300 101q-99 33 -152 93t-53 135q0 167 141.5 258.5t400.5 91.5q189 0 366 -30l-54 -184q-94 11 -183.5 17.5t-158.5 6.5q-142 0 -219.5 -36.5
t-77.5 -103.5q0 -51 75 -74l305 -97q106 -34 162.5 -100.5t56.5 -152.5q0 -165 -137 -255.5t-387 -90.5zM638 1210l-173 380h207l71 -226l157 226h217l-307 -380h-172z" />
    <glyph glyph-name="uni0162" unicode="&#x162;" 
d="M402 0l217 1230h-415l33 190h1039l-33 -190h-416l-217 -1230h-208zM237 -480l27 150q200 0 200 73q0 56 -143 82l125 224l107 -51l-44 -98q147 -39 147 -153q0 -227 -419 -227z" />
    <glyph glyph-name="uni0163" unicode="&#x163;" 
d="M649 -20q-184 0 -270.5 78.5t-86.5 244.5q0 62 9 121t28 164l50 286h-248l33 186h248l56 320h215l-56 -320h471l-33 -186h-471l-50 -286q-17 -100 -27.5 -154t-10.5 -111q0 -153 182 -153q73 0 128 12t131 43l39 -171q-72 -31 -152.5 -52.5t-184.5 -21.5zM317 -480
l27 150q200 0 200 73q0 56 -143 82l125 224l107 -51l-44 -98q147 -39 147 -153q0 -227 -419 -227z" />
    <glyph glyph-name="Tcaron" unicode="&#x164;" 
d="M402 0l217 1230h-415l33 190h1039l-33 -190h-416l-217 -1230h-208zM699 1580l-214 260h217l98 -144l150 144h227l-306 -260h-172z" />
    <glyph glyph-name="tcaron" unicode="&#x165;" 
d="M649 -20q-184 0 -270.5 78.5t-86.5 244.5q0 62 9 121t28 164l50 286h-248l33 186h248l56 320h215l-56 -320h471l-33 -186h-471l-50 -286q-17 -100 -27.5 -154t-10.5 -111q0 -153 182 -153q73 0 128 12t131 43l39 -171q-72 -31 -152.5 -52.5t-184.5 -21.5zM835 1228
l107 380h222l-157 -380h-172z" />
    <glyph glyph-name="Tbar" unicode="&#x166;" 
d="M202 587l34 190h303l80 453h-415l33 190h1039l-33 -190h-416l-80 -453h305l-34 -190h-304l-104 -587h-208l104 587h-304z" />
    <glyph glyph-name="tbar" unicode="&#x167;" 
d="M65 496l30 174h248l36 204h-248l33 186h248l56 320h215l-56 -320h471l-33 -186h-471l-36 -204h470l-31 -174h-470q-10 -54 -15.5 -92.5t-5.5 -80.5q0 -153 182 -153q73 0 128 12t131 43l39 -171q-72 -31 -152.5 -52.5t-184.5 -21.5q-184 0 -270.5 78.5t-86.5 244.5
q0 47 5 90t16 103h-248z" />
    <glyph glyph-name="Utilde" unicode="&#x168;" 
d="M539 -20q-246 0 -349.5 120.5t-62.5 355.5l170 964h208l-170 -964q-52 -292 221 -292q232 0 283 292l170 964h208l-170 -964q-84 -476 -508 -476zM397 1566l9 50q45 250 254 250q46 0 106 -12.5t116.5 -25.5t89.5 -13q53 0 65 60l11 60h185l-9 -50q-42 -240 -231 -240
q-45 0 -104 13t-115.5 25.5t-93.5 12.5q-74 0 -87 -70l-11 -60h-185z" />
    <glyph glyph-name="utilde" unicode="&#x169;" 
d="M392 -21q-140 0 -217 83.5t-77 234.5q0 153 49.5 338.5t159.5 444.5l212 -39q-109 -265 -158 -435.5t-49 -283.5q0 -73 38 -113t107 -40q133 0 220 128.5t133 369.5v-1l70 394h217l-128 -721q-17 -96 9.5 -135t114.5 -39h43l-31 -175h-47q-158 0 -222.5 62t-48.5 199h-22
q-34 -84 -78.5 -145t-114.5 -94t-180 -33zM372 1256l6 30q26 133 79.5 201.5t174.5 68.5q46 0 85.5 -17t78.5 -34.5t83 -17.5q74 0 89 94l10 60h185l-6 -50q-34 -280 -260 -280q-51 0 -95.5 17.5t-82 34.5t-68.5 17q-71 0 -88 -84l-8 -40h-183z" />
    <glyph glyph-name="Umacron" unicode="&#x16a;" 
d="M539 -20q-246 0 -349.5 120.5t-62.5 355.5l170 964h208l-170 -964q-52 -292 221 -292q232 0 283 292l170 964h208l-170 -964q-84 -476 -508 -476zM400 1580l34 188h773l-34 -188h-773z" />
    <glyph glyph-name="umacron" unicode="&#x16b;" 
d="M392 -21q-140 0 -217 83.5t-77 234.5q0 153 49.5 338.5t159.5 444.5l212 -39q-109 -265 -158 -435.5t-49 -283.5q0 -73 38 -113t107 -40q133 0 220 128.5t133 369.5v-1l70 394h217l-128 -721q-17 -96 9.5 -135t114.5 -39h43l-31 -175h-47q-158 0 -222.5 62t-48.5 199h-22
q-34 -84 -78.5 -145t-114.5 -94t-180 -33zM297 1248l34 188h859l-34 -188h-859z" />
    <glyph glyph-name="Ubreve" unicode="&#x16c;" 
d="M539 -20q-246 0 -349.5 120.5t-62.5 355.5l170 964h208l-170 -964q-52 -292 221 -292q232 0 283 292l170 964h208l-170 -964q-84 -476 -508 -476zM724 1570q-151 0 -222.5 65t-49.5 180q10 53 30 90l171 -43q-7 -16 -9 -29q-10 -55 18 -86t88 -31q82 0 159 45.5
t132 126.5l11 16l154 -81l-13 -19q-76 -110 -199.5 -172t-269.5 -62z" />
    <glyph glyph-name="ubreve" unicode="&#x16d;" 
d="M392 -21q-140 0 -217 83.5t-77 234.5q0 153 49.5 338.5t159.5 444.5l212 -39q-109 -265 -158 -435.5t-49 -283.5q0 -73 38 -113t107 -40q133 0 220 128.5t133 369.5v-1l70 394h217l-128 -721q-17 -96 9.5 -135t114.5 -39h43l-31 -175h-47q-158 0 -222.5 62t-48.5 199h-22
q-34 -84 -78.5 -145t-114.5 -94t-180 -33zM706 1220q-131 0 -206.5 66t-75.5 172q0 35 5 70.5t16 75.5l171 -15q-9 -26 -12 -49t-3 -42q0 -131 128 -131q77 0 152.5 73t121.5 175l143 -80q-83 -161 -200 -238t-240 -77z" />
    <glyph glyph-name="Uring" unicode="&#x16e;" 
d="M539 -20q-246 0 -349.5 120.5t-62.5 355.5l170 964h208l-170 -964q-52 -292 221 -292q232 0 283 292l170 964h208l-170 -964q-84 -476 -508 -476zM769 1488q-93 0 -149.5 47t-56.5 124q0 109 76.5 175t201.5 66q93 0 149.5 -47t56.5 -124q0 -109 -76.5 -175t-201.5 -66z
M789 1604q51 0 82.5 31t31.5 81q0 31 -22.5 50t-59.5 19q-51 0 -82.5 -31t-31.5 -82q0 -31 22.5 -49.5t59.5 -18.5z" />
    <glyph glyph-name="uring" unicode="&#x16f;" 
d="M392 -21q-140 0 -217 83.5t-77 234.5q0 153 49.5 338.5t159.5 444.5l212 -39q-109 -265 -158 -435.5t-49 -283.5q0 -73 38 -113t107 -40q133 0 220 128.5t133 369.5v-1l70 394h217l-128 -721q-17 -96 9.5 -135t114.5 -39h43l-31 -175h-47q-158 0 -222.5 62t-48.5 199h-22
q-34 -84 -78.5 -145t-114.5 -94t-180 -33zM717 1198q-92 0 -148.5 49t-56.5 128q0 115 77 185t204 70q92 0 148 -48.5t56 -128.5q0 -115 -77 -185t-203 -70zM738 1314q52 0 83.5 32t31.5 84q0 38 -22 61t-59 23q-52 0 -84 -31.5t-32 -84.5q0 -37 22.5 -60.5t59.5 -23.5z" />
    <glyph glyph-name="Uhungarumlaut" unicode="&#x170;" 
d="M539 -20q-246 0 -349.5 120.5t-62.5 355.5l170 964h208l-170 -964q-52 -292 221 -292q232 0 283 292l170 964h208l-170 -964q-84 -476 -508 -476zM454 1580l170 251h284l-222 -251h-232zM856 1580l170 251h284l-222 -251h-232z" />
    <glyph glyph-name="uhungarumlaut" unicode="&#x171;" 
d="M392 -21q-140 0 -217 83.5t-77 234.5q0 153 49.5 338.5t159.5 444.5l212 -39q-109 -265 -158 -435.5t-49 -283.5q0 -73 38 -113t107 -40q133 0 220 128.5t133 369.5v-1l70 394h217l-128 -721q-17 -96 9.5 -135t114.5 -39h43l-31 -175h-47q-158 0 -222.5 62t-48.5 199h-22
q-34 -84 -78.5 -145t-114.5 -94t-180 -33zM383 1248l217 380h222l-237 -380h-202zM763 1248l217 380h222l-237 -380h-202z" />
    <glyph glyph-name="Uogonek" unicode="&#x172;" 
d="M511 -424q-220 0 -220 192q0 74 39.5 125t103.5 78v15q-381 50 -307 470l170 964h208l-170 -964q-52 -292 221 -292q232 0 283 292l170 964h208l-170 -964q-70 -399 -381 -464q-52 -14 -104 -32.5t-86.5 -49.5t-34.5 -83q0 -83 96 -83q61 0 122 24l32 -159
q-87 -33 -180 -33z" />
    <glyph glyph-name="uogonek" unicode="&#x173;" 
d="M857 -423q-215 0 -215 170q0 77 52 144.5t181 110.5v22q-107 56 -88 227h-22q-34 -84 -78.5 -145t-114.5 -94t-180 -33q-140 0 -217 83.5t-77 234.5q0 153 49.5 338.5t159.5 444.5l212 -39q-109 -265 -158 -435.5t-49 -283.5q0 -73 38 -113t107 -40q133 0 220 128.5
t133 369.5v-1l70 394h217l-128 -721q-17 -96 9.5 -135t114.5 -39h43l-31 -175h-43q-63 0 -125.5 -21t-103.5 -58t-41 -87q0 -80 78 -80q23 0 42 4.5t32 9.5l26 -163q-43 -18 -113 -18z" />
    <glyph glyph-name="Wcircumflex" unicode="&#x174;" 
d="M572 0l28 466h-28l-188 -466h-267l90 1420l207 12l-95 -1260h18l185 451l41 437l192 12l-56 -900h18q72 166 146.5 360.5t134.5 417t90 470.5h214q-34 -282 -107 -537t-169.5 -477t-201.5 -406h-252zM396 1580l306 260h172l214 -260h-212l-95 144l-153 -144h-232z" />
    <glyph glyph-name="wcircumflex" unicode="&#x175;" 
d="M627 0l-9 411h-23l-211 -411h-194l-91 1060l212 10l48 -884h18l160 320l-15 554l182 10l27 -884h18q85 164 139 381.5t58 492.5h214q-7 -342 -99 -606.5t-250 -453.5h-184zM800 1628l173 -380h-207l-71 226l-157 -226h-217l307 380h172z" />
    <glyph glyph-name="Ycircumflex" unicode="&#x176;" 
d="M402 0l81 460l-305 938l212 32l224 -804h18q106 137 192 259.5t158 251.5t136 283h214q-79 -195 -176 -360.5t-213.5 -318.5t-256.5 -310l-76 -431h-208zM436 1580l306 260h172l214 -260h-212l-95 144l-153 -144h-232z" />
    <glyph glyph-name="ycircumflex" unicode="&#x177;" 
d="M3 -472l-89 175q180 79 326 175t261 213q-232 369 -398 969l221 20q126 -516 321 -815q113 159 187.5 356t116.5 439h214q-75 -389 -221 -678.5t-376.5 -497.5t-562.5 -356zM810 1628l173 -380h-207l-71 226l-157 -226h-217l307 380h172z" />
    <glyph glyph-name="Ydieresis" unicode="&#x178;" 
d="M402 0l81 460l-305 938l212 32l224 -804h18q106 137 192 259.5t158 251.5t136 283h214q-79 -195 -176 -360.5t-213.5 -318.5t-256.5 -310l-76 -431h-208zM601 1580q-55 0 -94.5 39.5t-39.5 94.5q0 56 39.5 95t94.5 39q56 0 95 -39t39 -95q0 -55 -39 -94.5t-95 -39.5z
M1017 1580q-55 0 -94.5 39.5t-39.5 94.5q0 56 39.5 95t94.5 39q56 0 95 -39t39 -95q0 -55 -39 -94.5t-95 -39.5z" />
    <glyph glyph-name="Zacute" unicode="&#x179;" 
d="M145 0l-60 160l847 1070h-631l33 190h805l60 -160l-854 -1070h660l-33 -190h-827zM634 1580l210 251h284l-262 -251h-232z" />
    <glyph glyph-name="zacute" unicode="&#x17a;" 
d="M1096 874l-731 -688h613l-33 -186h-789l-50 217l718 657h-588l33 186h797zM597 1248l217 380h246l-267 -380h-196z" />
    <glyph glyph-name="Zdotaccent" unicode="&#x17b;" 
d="M145 0l-60 160l847 1070h-631l33 190h805l60 -160l-854 -1070h660l-33 -190h-827zM789 1580q-55 0 -94.5 39.5t-39.5 94.5q0 56 39.5 95t94.5 39q56 0 95 -39t39 -95q0 -55 -39 -94.5t-95 -39.5z" />
    <glyph glyph-name="zdotaccent" unicode="&#x17c;" 
d="M1096 874l-731 -688h613l-33 -186h-789l-50 217l718 657h-588l33 186h797zM719 1238q-55 0 -94.5 39.5t-39.5 94.5q0 56 39.5 95t94.5 39q56 0 95 -39t39 -95q0 -55 -39 -94.5t-95 -39.5z" />
    <glyph glyph-name="Zcaron" unicode="&#x17d;" 
d="M145 0l-60 160l847 1070h-631l33 190h805l60 -160l-854 -1070h660l-33 -190h-827zM679 1580l-214 260h217l98 -144l150 144h227l-306 -260h-172z" />
    <glyph glyph-name="zcaron" unicode="&#x17e;" 
d="M1096 874l-731 -688h613l-33 -186h-789l-50 217l718 657h-588l33 186h797zM606 1210l-173 380h207l71 -226l157 226h217l-307 -380h-172z" />
    <glyph glyph-name="longs" unicode="&#x17f;" 
d="M-56 -473l-9 190l73 8q192 21 278.5 135.5t103.5 331.5l49 448h-351l33 186h338l5 44q18 223 89.5 366.5t212 213.5t363.5 70q87 0 166 -20l-54 -184q-87 14 -151 14q-204 0 -296.5 -109.5t-112.5 -340.5l-81 -718q-25 -287 -158.5 -440.5t-426.5 -186.5z" />
    <glyph glyph-name="uni0186" unicode="&#x186;" 
d="M638 1440q541 0 541 -543q0 -202 -58.5 -370.5t-165.5 -290.5t-254.5 -189t-325.5 -67q-254 0 -394 159l143 147q119 -122 280 -122q162 0 288.5 94.5t199.5 258.5t73 373q0 366 -354 366q-163 0 -333 -60l-14 176q185 68 374 68z" />
    <glyph glyph-name="uni0189" unicode="&#x189;" 
d="M26 612l34 190h128l109 618q109 20 232 20q303 0 473 -155t170 -432q0 -268 -104 -459t-299 -292.5t-470 -101.5h-252l108 612h-129zM288 190h53q290 0 453.5 170.5t163.5 474.5q0 196 -120 305.5t-334 109.5h-29l-79 -448h303l-34 -190h-302z" />
    <glyph glyph-name="uni018E" unicode="&#x18e;" 
d="M7 0l33 190h731l75 424h-551l33 190h552l75 426h-731l33 190h940l-250 -1420h-940z" />
    <glyph glyph-name="uni018F" unicode="&#x18f;" 
d="M560 1256q-64 0 -138.5 -16t-142.5 -45l-54 181q80 30 171 47t173 17q286 0 446.5 -155.5t160.5 -433.5q0 -273 -84.5 -468t-242.5 -299t-380 -104q-184 0 -287 92.5t-103 257.5q0 171 104.5 295t301.5 193t474 75q-15 172 -119.5 267.5t-279.5 95.5zM956 708
q-314 -13 -488.5 -108.5t-174.5 -256.5q0 -85 53.5 -132t150.5 -47q195 0 314.5 143t144.5 401z" />
    <glyph glyph-name="uni0190" unicode="&#x190;" 
d="M851 1440q245 0 403 -159l-149 -152q-61 66 -127 96.5t-159 30.5q-144 0 -242.5 -57.5t-98.5 -175.5q0 -88 97.5 -132t317.5 -51l-34 -188h-171q-104 0 -189.5 -32.5t-136 -95.5t-50.5 -156q0 -96 77 -150t216 -54q82 0 142 5t118.5 17.5t134.5 35.5l15 -174
q-68 -26 -131 -41t-135.5 -21t-171.5 -6q-227 0 -353.5 95t-126.5 257q0 192 125 303.5t347 120.5l2 9q-155 26 -224 95t-69 169q0 141 75.5 232t205.5 135t292 44z" />
    <glyph glyph-name="uni0191" unicode="&#x191;" 
d="M296 8l-2 -14q-26 -152 -81 -247.5t-152 -147t-249 -71.5l-31 -4l-16 202l43 8q130 24 192 75.5t81 157.5l10 58l246 1395h939l-33 -190h-731l-86 -484h551l-33 -190h-551z" />
    <glyph glyph-name="florin" unicode="&#x192;" 
d="M627 -480q-190 0 -294 158t-104 445q0 286 37 520h-178l33 186h183q83 335 254 513t419 178q99 0 182 -46.5t135 -130.5l-147 -137q-74 124 -201 124q-152 0 -261.5 -129t-170.5 -372h531l-33 -186h-534q-35 -229 -35 -520q0 -197 51 -305t142 -108q139 0 139 168
q0 113 -54.5 234t-152.5 227l165 134q115 -116 178.5 -272t63.5 -323q0 -358 -348 -358z" />
    <glyph glyph-name="uni0194" unicode="&#x194;" 
d="M381 -462q-126 0 -202.5 63.5t-76.5 166.5q0 89 55 160.5t146 132.5l-101 1359l212 12l80 -1260h18q188 248 331.5 562t254.5 686h214q-112 -402 -275 -748.5t-391 -617.5q54 -62 76 -119t22 -112q0 -128 -99.5 -206.5t-263.5 -78.5zM305 -189q0 -40 30 -64.5t79 -24.5
q57 0 92 37.5t35 98.5q0 30 -15 68t-51 99q-101 -81 -135.5 -126t-34.5 -88z" />
    <glyph glyph-name="uni0196" unicode="&#x196;" 
d="M693 -20q-166 0 -244.5 76.5t-78.5 237.5q0 71 29 181l155 605q35 136 7.5 194.5t-161.5 58.5q-34 0 -69.5 -5.5t-70.5 -20.5l-31 182q50 14 101 22.5t102 8.5q232 0 314.5 -111t22.5 -341l-155 -593q-30 -113 -30 -172q0 -133 148 -133q61 0 107 15t110 50l69 -161
q-70 -40 -147.5 -67t-177.5 -27z" />
    <glyph glyph-name="uni019A" unicode="&#x19a;" 
d="M120 644l34 190h337l63 246q35 136 7.5 194.5t-161.5 58.5q-34 0 -69.5 -5.5t-70.5 -20.5l-31 182q50 14 101 22.5t102 8.5q232 0 314.5 -111t22.5 -341l-61 -233h285l-34 -190h-301l-44 -170q-30 -113 -30 -172q0 -133 148 -133q61 0 107 15t110 50l69 -161
q-70 -40 -147.5 -67t-177.5 -27q-166 0 -244.5 76.5t-78.5 237.5q0 71 29 181l43 169h-322z" />
    <glyph glyph-name="uni019B" unicode="&#x19b;" 
d="M127 866l-55 195l437 131l-5 24q-14 61 -52 87.5t-89 26.5q-46 0 -85.5 -12t-77.5 -26l-31 186q41 15 96 28.5t142 13.5q111 0 181.5 -48.5t95.5 -155.5l13 -67l275 82l53 -195l-289 -87l149 -765q14 -60 52 -87t93 -27q5 0 20 2t43 6l-9 -186q-55 -12 -108 -12
q-110 0 -178 52t-94 163l-106 543l-22 -7q4 -64 -3.5 -125.5t-39.5 -112.5l-318 -493h-241l588 918l-14 75z" />
    <glyph glyph-name="uni019D" unicode="&#x19d;" 
d="M716 0l-245 1080h-18l-189 -1072l-2 -14q-26 -152 -81 -247.5t-152 -147t-249 -71.5l-31 -4l-16 202l43 8q130 24 192 75.5t81 157.5l10 58l246 1395h243l245 -1080h18l190 1080h208l-250 -1420h-243z" />
    <glyph glyph-name="Ohorn" unicode="&#x1a0;" 
d="M513 -20q-195 0 -304 128.5t-109 357.5q0 306 77.5 524t223.5 334t351 116q194 0 303 -125.5t109 -349.5q0 -309 -77.5 -529.5t-223 -338t-350.5 -117.5zM539 164q194 0 302.5 205t108.5 571q0 149 -57.5 232.5t-161.5 83.5q-196 0 -306.5 -202t-110.5 -563
q0 -154 59.5 -240.5t165.5 -86.5zM974 1205l-21 165l61 10q211 34 253 273h192q-66 -380 -424 -438z" />
    <glyph glyph-name="ohorn" unicode="&#x1a1;" 
d="M502 -20q-177 0 -276.5 101.5t-99.5 282.5q0 338 151 527t419 189q177 0 276.5 -104t99.5 -290q0 -333 -150.5 -519.5t-419.5 -186.5zM539 169q150 0 234.5 125.5t84.5 348.5q0 116 -50 181.5t-141 65.5q-154 0 -240.5 -125t-86.5 -348q0 -117 52.5 -182.5t146.5 -65.5z
M852 895l-21 165l61 10q184 30 225 273h220q-66 -380 -424 -438z" />
    <glyph glyph-name="uni01A9" unicode="&#x1a9;" 
d="M57 0l33 190l529 523l-345 517l33 190h900l-33 -190h-649l355 -517l-519 -523h649l-33 -190h-920z" />
    <glyph glyph-name="Uhorn" unicode="&#x1af;" 
d="M539 -20q-246 0 -349.5 120.5t-62.5 355.5l170 964h208l-170 -964q-52 -292 221 -292q232 0 283 292l170 964h8l63 10q172 27 202 223h214q-50 -286 -303 -366l-146 -831q-84 -476 -508 -476z" />
    <glyph glyph-name="uhorn" unicode="&#x1b0;" 
d="M392 -21q-140 0 -217 83.5t-77 234.5q0 153 49.5 338.5t159.5 444.5l212 -39q-109 -265 -158 -435.5t-49 -283.5q0 -73 38 -113t107 -40q133 0 220 128.5t133 369.5v-1l70 394h217l-128 -721q-17 -96 9.5 -135t114.5 -39h43l-31 -175h-47q-158 0 -222.5 62t-48.5 199h-22
q-34 -84 -78.5 -145t-114.5 -94t-180 -33zM901 895l-21 165l61 10q184 30 225 273h220q-66 -380 -424 -438z" />
    <glyph glyph-name="uni01B1" unicode="&#x1b1;" 
d="M260 1420h427l-33 -186q-172 -94 -268 -296t-96 -468q0 -144 65 -225t180 -81q197 0 307.5 185t110.5 515q0 143 -42.5 241t-117.5 129l33 186h421l-33 -186h-214v-22q79 -37 123 -133.5t44 -231.5q0 -272 -79 -466.5t-227 -297.5t-357 -103q-202 0 -315 126.5
t-113 351.5q0 263 104 462.5t291 291.5v22h-244z" />
    <glyph glyph-name="uni01B2" unicode="&#x1b2;" 
d="M785 1420h108q153 0 224.5 -79t46.5 -221l-117 -664q-42 -238 -181 -357t-367 -119q-456 0 -372 476l170 964h208l-170 -964q-25 -142 23.5 -214t178.5 -72q251 0 302 286l108 614q16 89 -10 124.5t-106 35.5h-80z" />
    <glyph glyph-name="uni01B7" unicode="&#x1b7;" 
d="M459 -20q-142 0 -252 42.5t-190 118.5l137 153q77 -61 160 -95.5t182 -34.5q102 0 183.5 34t129 98.5t47.5 155.5q0 106 -92 163t-265 57h-115l-18 124l518 438h-597l33 186h783l35 -201l-471 -396q194 -16 298 -109.5t104 -252.5q0 -226 -161.5 -353.5t-448.5 -127.5z
" />
    <glyph glyph-name="uni01CD" unicode="&#x1cd;" 
d="M-48 0l630 1421h321q26 -113 49.5 -256.5t43 -300.5t34 -313.5t23 -298t9.5 -252.5h-212q1 69 -2.5 158t-10.5 188h-513l-150 -346h-222zM407 536h415q-12 131 -26.5 261.5t-30 247t-30.5 204.5h-18zM699 1580l-214 260h217l98 -144l150 144h227l-306 -260h-172z" />
    <glyph glyph-name="uni01CE" unicode="&#x1ce;" 
d="M347 -21q-136 0 -210 78t-74 220q0 180 76.5 326.5t214.5 250.5t323 160t402 56h20l-132 -753q-14 -80 12.5 -116t114.5 -36h41l-30 -175h-71q-147 0 -203 59t-43 202h-26q-61 -130 -168.5 -201t-246.5 -71zM412 169q144 0 251 130t150 368l37 204
q-164 -25 -293.5 -104.5t-204.5 -199t-75 -265.5q0 -64 35.5 -98.5t99.5 -34.5zM666 1210l-173 380h207l71 -226l157 226h217l-307 -380h-172z" />
    <glyph glyph-name="uni01DD" unicode="&#x1dd;" 
d="M629 890q-79 0 -169 -20t-173 -55l-72 161q98 49 209.5 76.5t213.5 27.5q206 0 321 -108t115 -301q0 -208 -78 -363t-219 -241.5t-329 -86.5q-147 0 -229.5 74t-82.5 206q0 190 196 301t544 118q-6 100 -71 155.5t-176 55.5zM861 507q-242 -9 -376.5 -70t-134.5 -164
q0 -48 33 -75.5t93 -27.5q146 0 248 91t137 246z" />
    <glyph glyph-name="uni01E4" unicode="&#x1e4;" 
d="M591 -20q-239 0 -373.5 141t-134.5 392q0 200 55.5 369t159.5 294.5t251 194.5t331 69q142 0 228.5 -50.5t140.5 -127.5l-155 -138q-45 56 -108 94t-146 38q-154 0 -277 -92t-194.5 -253.5t-71.5 -371.5q0 -375 340 -375q51 0 97 5t86 13l33 188h-242l33 190h243l26 150
h208l-26 -150h110l-33 -190h-111l-58 -330q-46 -13 -159 -36.5t-253 -23.5z" />
    <glyph glyph-name="uni01E5" unicode="&#x1e5;" 
d="M-83 -193l20 108h710q39 56 62 121t34 133l11 62h-14q-51 -121 -146.5 -186.5t-223.5 -65.5q-138 0 -213.5 78t-75.5 220q0 180 76.5 326.5t214.5 250.5t323.5 160t402.5 56h19l-154 -869q-14 -78 -34 -150t-49 -136h168l-20 -108h-207q-82 -121 -222.5 -195t-363.5 -84
l-180 -8l-10 186l210 13q90 6 160 29t123 59h-621zM867 871q-164 -24 -293 -103.5t-204 -199.5t-75 -266q0 -64 36.5 -98.5t103.5 -34.5q144 0 246 122.5t146 352.5z" />
    <glyph glyph-name="Gcaron" unicode="&#x1e6;" 
d="M591 -20q-239 0 -373.5 141t-134.5 392q0 200 55.5 369t159.5 294.5t251 194.5t331 69q142 0 228.5 -50.5t140.5 -127.5l-155 -138q-45 56 -108 94t-146 38q-154 0 -277 -92t-194.5 -253.5t-71.5 -371.5q0 -375 340 -375q51 0 97 5t86 13l60 338h-269l33 190h477
l-118 -670q-46 -13 -159 -36.5t-253 -23.5zM799 1580l-214 260h217l98 -144l150 144h227l-306 -260h-172z" />
    <glyph glyph-name="gcaron" unicode="&#x1e7;" 
d="M55 -480l-10 186l210 13q167 11 267.5 77t151.5 165t69 208l11 62h-14q-51 -121 -146.5 -186.5t-223.5 -65.5q-138 0 -213.5 78t-75.5 220q0 180 76.5 326.5t214.5 250.5t323.5 160t402.5 56h19l-154 -869q-25 -141 -72.5 -260t-129.5 -209t-210.5 -143t-315.5 -61z
M867 871q-164 -24 -293 -103.5t-204 -199.5t-75 -266q0 -64 36.5 -98.5t103.5 -34.5q144 0 246 122.5t146 352.5zM636 1210l-173 380h207l71 -226l157 226h217l-307 -380h-172z" />
    <glyph glyph-name="uni01EA" unicode="&#x1ea;" 
d="M501 -424q-220 0 -220 182q0 78 39.5 131.5t103.5 81.5v17q-154 28 -239 152.5t-85 325.5q0 306 77.5 524t223.5 334t351 116q194 0 303 -125.5t109 -349.5q0 -407 -133 -658.5t-374 -309.5q-52 -15 -104 -34t-87 -50.5t-35 -85.5q0 -83 96 -83q61 0 122 24l32 -159
q-87 -33 -180 -33zM539 164q194 0 302.5 205t108.5 571q0 149 -57.5 232.5t-161.5 83.5q-196 0 -306.5 -202t-110.5 -563q0 -154 59.5 -240.5t165.5 -86.5z" />
    <glyph glyph-name="uni01EB" unicode="&#x1eb;" 
d="M511 -424q-220 0 -220 192q0 74 39.5 125t103.5 78v13q-146 19 -227 118t-81 262q0 338 151 527t419 189q177 0 276.5 -104t99.5 -290q0 -281 -108.5 -459t-305.5 -228q-50 -17 -100 -36t-83.5 -50.5t-33.5 -85.5q0 -83 96 -83q61 0 122 24l32 -159q-87 -33 -180 -33z
M539 169q150 0 234.5 125.5t84.5 348.5q0 116 -50 181.5t-141 65.5q-154 0 -240.5 -125t-86.5 -348q0 -117 52.5 -182.5t146.5 -65.5z" />
    <glyph glyph-name="uni01F0" unicode="&#x1f0;" 
d="M27 -480l-10 188l220 18q128 11 198.5 53.5t106.5 122.5t57 200l115 645q14 77 -8 112t-83 35q-95 0 -191 -13t-191 -30l-21 187q107 20 216.5 31.5t218.5 11.5q174 0 238.5 -84t31.5 -270l-105 -593q-27 -150 -66 -259t-105 -182t-170.5 -112t-261.5 -49zM759 1210
l-173 380h207l71 -226l157 226h217l-307 -380h-172z" />
    <glyph glyph-name="Aringacute" unicode="&#x1fa;" 
d="M686 1820l210 251h284l-262 -251h-232zM-48 0l630 1421h321q26 -113 49.5 -256.5t43 -300.5t34 -313.5t23 -298t9.5 -252.5h-212q1 69 -2.5 158t-10.5 188h-513l-150 -346h-222zM407 536h415q-12 131 -26.5 261.5t-30 247t-30.5 204.5h-18zM769 1488q-93 0 -149.5 47
t-56.5 124q0 109 76.5 175t201.5 66q93 0 149.5 -47t56.5 -124q0 -109 -76.5 -175t-201.5 -66zM789 1604q51 0 82.5 31t31.5 81q0 31 -22.5 50t-59.5 19q-51 0 -82.5 -31t-31.5 -82q0 -31 22.5 -49.5t59.5 -18.5z" />
    <glyph glyph-name="aringacute" unicode="&#x1fb;" 
d="M347 -21q-136 0 -210 78t-74 220q0 180 76.5 326.5t214.5 250.5t323 160t402 56h20l-132 -753q-14 -80 12.5 -116t114.5 -36h41l-30 -175h-71q-147 0 -203 59t-43 202h-26q-61 -130 -168.5 -201t-246.5 -71zM412 169q144 0 251 130t150 368l37 204
q-164 -25 -293.5 -104.5t-204.5 -199t-75 -265.5q0 -64 35.5 -98.5t99.5 -34.5zM747 1198q-92 0 -148.5 49t-56.5 128q0 115 77 185t204 70q92 0 148 -48.5t56 -128.5q0 -115 -77 -185t-203 -70zM768 1314q52 0 83.5 32t31.5 84q0 38 -22 61t-59 23q-52 0 -84 -31.5
t-32 -84.5q0 -37 22.5 -60.5t59.5 -23.5zM696 1528l217 380h246l-267 -380h-196z" />
    <glyph glyph-name="AEacute" unicode="&#x1fc;" 
d="M491 0l42 237h-274l-100 -237h-210l628 1420h680l-35 -190h-316l-75 -424h256l-33 -190h-257l-75 -426h316l-33 -190h-514zM336 417h228l147 831h-23zM754 1580l210 251h284l-262 -251h-232z" />
    <glyph glyph-name="aeacute" unicode="&#x1fd;" 
d="M908 170q67 0 135 20l41 -176q-92 -34 -185 -34q-129 0 -214.5 66.5t-118.5 187.5h-18q-32 -133 -109.5 -193.5t-201.5 -60.5q-127 0 -194.5 66t-67.5 188q0 120 59 210t164.5 140t245.5 50q39 0 77 -6q15 110 -53.5 177.5t-197.5 71.5l-109 3l30 190l132 -3
q120 -3 202 -59t115 -157q55 109 138 169t186 60q104 0 161.5 -69t57.5 -191q0 -194 -127.5 -309.5t-355.5 -128.5q5 -100 59.5 -156t148.5 -56zM489 449q-17 4 -37.5 4.5t-43.5 0.5q-100 0 -159.5 -51t-59.5 -136q0 -97 104 -97q66 0 117 55t67 155zM707 545q130 14 202 78
t72 170q0 45 -19.5 71t-55.5 26q-76 0 -129 -93.5t-70 -251.5zM627 1248l217 380h246l-267 -380h-196z" />
    <glyph glyph-name="Oslashacute" unicode="&#x1fe;" 
d="M86 -142l-129 101l190 251q-47 108 -47 256q0 306 77.5 524t223.5 334t351 116q159 0 262 -85l140 185l129 -91l-169 -225q50 -109 50 -259q0 -309 -77.5 -529.5t-223 -338t-350.5 -117.5q-162 0 -267 91zM539 164q194 0 302.5 205t108.5 571q0 33 -3 63l-570 -758
q59 -81 162 -81zM316 434l568 749q-57 73 -153 73q-196 0 -306.5 -202t-110.5 -563q0 -30 2 -57zM654 1580l210 251h284l-262 -251h-232z" />
    <glyph glyph-name="oslashacute" unicode="&#x1ff;" 
d="M158 -120l-94 68l130 171q-68 97 -68 245q0 338 151 527t419 189q113 0 196 -43l115 151l94 -68l-118 -155q89 -104 89 -279q0 -333 -150.5 -519.5t-419.5 -186.5q-133 0 -223 58zM539 169q150 0 234.5 125.5t84.5 348.5q0 75 -21 129l-425 -558q50 -45 127 -45zM350 324
l412 542q-41 24 -95 24q-154 0 -240.5 -125t-86.5 -348q0 -51 10 -93zM627 1248l217 380h246l-267 -380h-196z" />
    <glyph glyph-name="uni0218" unicode="&#x218;" 
d="M486 -20q-259 0 -438 88l62 182q205 -86 395 -86q307 0 307 185q0 56 -22 97.5t-72 81.5l-286 232q-77 63 -112.5 145.5t-35.5 161.5q0 184 116.5 278.5t338.5 94.5q277 0 438 -169l-145 -152q-148 137 -305 137q-110 0 -169.5 -43.5t-59.5 -128.5q0 -45 24 -98t77 -96
l246 -198q95 -77 138 -150.5t43 -169.5q0 -193 -137 -292.5t-403 -99.5zM388 -568l-102 99q169 118 169 174q0 32 -67 32h-65l26 149h75q200 0 200 -128q0 -87 -71 -168t-165 -158z" />
    <glyph glyph-name="uni0219" unicode="&#x219;" 
d="M491 -20q-130 0 -239 16t-178 44l58 192q116 -29 218.5 -45.5t174.5 -16.5q131 0 203.5 34.5t72.5 97.5q0 68 -95 99l-300 101q-99 33 -152 93t-53 135q0 167 141.5 258.5t400.5 91.5q189 0 366 -30l-54 -184q-94 11 -183.5 17.5t-158.5 6.5q-142 0 -219.5 -36.5
t-77.5 -103.5q0 -51 75 -74l305 -97q106 -34 162.5 -100.5t56.5 -152.5q0 -165 -137 -255.5t-387 -90.5zM388 -568l-102 99q169 118 169 174q0 32 -67 32h-65l26 149h75q200 0 200 -128q0 -87 -71 -168t-165 -158z" />
    <glyph glyph-name="uni021A" unicode="&#x21a;" 
d="M402 0l217 1230h-415l33 190h1039l-33 -190h-416l-217 -1230h-208zM388 -568l-102 99q169 118 169 174q0 32 -67 32h-65l26 149h75q200 0 200 -128q0 -87 -71 -168t-165 -158z" />
    <glyph glyph-name="uni021B" unicode="&#x21b;" 
d="M649 -20q-184 0 -270.5 78.5t-86.5 244.5q0 62 9 121t28 164l50 286h-248l33 186h248l56 320h215l-56 -320h471l-33 -186h-471l-50 -286q-17 -100 -27.5 -154t-10.5 -111q0 -153 182 -153q73 0 128 12t131 43l39 -171q-72 -31 -152.5 -52.5t-184.5 -21.5zM468 -568
l-102 99q169 118 169 174q0 32 -67 32h-65l26 149h75q200 0 200 -128q0 -87 -71 -168t-165 -158z" />
    <glyph glyph-name="uni021E" unicode="&#x21e;" 
d="M759 0l108 612h-504l-108 -612h-208l250 1420h208l-109 -618h504l109 618h208l-250 -1420h-208zM699 1580l-214 260h217l98 -144l150 144h227l-306 -260h-172z" />
    <glyph glyph-name="uni021F" unicode="&#x21f;" 
d="M723 0l123 705q32 185 -119 185q-82 0 -152 -47t-125.5 -156.5t-95.5 -296.5l2 19l-72 -409h-215l210 1187q14 77 -8 112t-83 35q-25 0 -49.5 -2.5t-49.5 -8.5l-21 182q38 9 76 12.5t76 3.5q174 0 238.5 -84t31.5 -270l-61 -348h19q32 125 128.5 193t230.5 68
q322 0 254 -383l-123 -697h-215zM327 1660l-214 260h217l98 -144l150 144h227l-306 -260h-172z" />
    <glyph glyph-name="uni0232" unicode="&#x232;" 
d="M402 0l81 460l-305 938l212 32l224 -804h18q106 137 192 259.5t158 251.5t136 283h214q-79 -195 -176 -360.5t-213.5 -318.5t-256.5 -310l-76 -431h-208zM400 1580l34 188h773l-34 -188h-773z" />
    <glyph glyph-name="uni0233" unicode="&#x233;" 
d="M3 -472l-89 175q180 79 326 175t261 213q-232 369 -398 969l221 20q126 -516 321 -815q113 159 187.5 356t116.5 439h214q-75 -389 -221 -678.5t-376.5 -497.5t-562.5 -356zM227 1248l34 188h859l-34 -188h-859z" />
    <glyph glyph-name="uni0237" unicode="&#x237;" 
d="M27 -480l-10 188l220 18q128 11 198.5 53.5t106.5 122.5t57 200l115 645q14 77 -8 112t-83 35q-95 0 -191 -13t-191 -30l-21 187q107 20 216.5 31.5t218.5 11.5q174 0 238.5 -84t31.5 -270l-105 -593q-27 -150 -66 -259t-105 -182t-170.5 -112t-261.5 -49z" />
    <glyph glyph-name="uni023A" unicode="&#x23a;" 
d="M364 -338l-129 32l236 652h-147l-150 -346h-222l630 1421h278l107 295l128 -32l-157 -435q26 -145 48 -312.5t39 -337.5t26.5 -325t10.5 -274h-212q1 69 -2.5 158t-10.5 188h-227zM545 536l210 582q-10 73 -20 131h-18l-310 -713h138zM788 864l-118 -328h152
q-7 82 -16 165t-18 163z" />
    <glyph glyph-name="uni023B" unicode="&#x23b;" 
d="M394 -338l-129 32l120 333q-280 113 -280 496q0 201 57.5 368t163 289t250.5 190t321 70l100 276l128 -32l-93 -257q132 -31 221 -146l-143 -147q-66 83 -144 109l-387 -1069q52 -10 114 -10q170 0 347 60l14 -176q-192 -68 -388 -68q-82 0 -153 12zM456 221l374 1032
q-149 -15 -264 -112t-181 -255t-66 -356q0 -221 137 -309z" />
    <glyph glyph-name="uni023D" unicode="&#x23d;" 
d="M1 647l34 190h179l103 583h209l-103 -583h448l-34 -190h-447l-81 -457h731l-33 -190h-940l114 647h-180z" />
    <glyph glyph-name="uni023E" unicode="&#x23e;" 
d="M200 -352l-105 57l378 694l146 831h-415l33 190h791l167 308l117 -61l-136 -247h100l-33 -190h-172l-359 -652l-102 -578h-208l4 22zM781 966l143 264h-97z" />
    <glyph glyph-name="uni0245" unicode="&#x245;" 
d="M-16 0l609 1421h321q26 -115 46.5 -258t34.5 -299t23 -311.5t12 -297.5t0 -255h-212q5 111 3.5 249t-8 284t-17 284t-23 250.5t-24.5 181.5h-18l-525 -1249h-222z" />
    <glyph glyph-name="uni0251" unicode="&#x251;" 
d="M856 910l27 150h214l-130 -743q-14 -80 12.5 -116t114.5 -36h41l-30 -175h-71q-147 0 -203 59t-43 202h-29q-56 -130 -155 -201t-227 -71q-150 0 -232 104.5t-82 293.5q0 208 64.5 364t180.5 242.5t271 86.5q124 0 178 -44.5t85 -115.5h14zM596 880q-95 0 -167 -62.5
t-112 -170.5t-40 -245q0 -112 43.5 -172.5t121.5 -60.5q134 0 231.5 130.5t139.5 367.5l19 107q-32 40 -88 73t-148 33z" />
    <glyph glyph-name="uni0254" unicode="&#x254;" 
d="M634 890q-97 0 -190.5 -18.5t-166.5 -49.5l-35 179q86 36 196 57.5t225 21.5q197 0 305 -102t108 -287q0 -214 -80 -374t-224.5 -248.5t-338.5 -88.5q-227 0 -368 150l125 143q123 -103 271 -103q121 0 211 62t140 174.5t50 262.5q-1 105 -60.5 163t-167.5 58z" />
    <glyph glyph-name="uni0256" unicode="&#x256;" 
d="M305 -21q-115 0 -178.5 78t-63.5 220q0 216 105.5 382.5t290.5 271.5t425 136l19 109q27 152 -110 157q-27 2 -54.5 -1.5t-54.5 -9.5l-21 182q44 9 89.5 12.5t90.5 3.5q335 0 271 -364l-88 -511l-104 -583q-29 -163 13.5 -240t163.5 -96l46 -7l-44 -188l-16 1
q-247 16 -335.5 147.5t-38.5 414.5l23 128h-26q-57 -111 -161 -177t-242 -66zM851 881q-164 -26 -294 -106.5t-205 -202.5t-75 -270q0 -64 36.5 -98.5t103.5 -34.5q140 0 243.5 129t151.5 364z" />
    <glyph glyph-name="uni0259" unicode="&#x259;" 
d="M629 890q-79 0 -169 -20t-173 -55l-72 161q98 49 209.5 76.5t213.5 27.5q206 0 321 -108t115 -301q0 -208 -78 -363t-219 -241.5t-329 -86.5q-147 0 -229.5 74t-82.5 206q0 190 196 301t544 118q-6 100 -71 155.5t-176 55.5zM861 507q-242 -9 -376.5 -70t-134.5 -164
q0 -48 33 -75.5t93 -27.5q146 0 248 91t137 246z" />
    <glyph glyph-name="uni025B" unicode="&#x25b;" 
d="M529 -20q-413 0 -413 240q0 147 101 218t255 92l4 20q-233 61 -233 226q0 114 68 180.5t181 95t247 28.5q232 0 389 -72l-88 -167q-144 55 -311 55q-71 0 -133 -13t-100 -43.5t-38 -84.5q0 -124 379 -139l-24 -181h-52q-430 0 -430 -165q0 -106 238 -106
q125 0 210.5 15.5t152.5 29.5l19 -181q-84 -22 -190.5 -35t-231.5 -13z" />
    <glyph glyph-name="uni0262" unicode="&#x262;" 
d="M626 -15q-265 0 -406.5 121.5t-141.5 341.5q0 202 94 346.5t260 222t382 77.5q146 0 237.5 -27.5t152.5 -71.5l-131 -170q-129 79 -281 79q-146 0 -257.5 -52t-174 -150t-62.5 -236t90 -214.5t256 -76.5q54 0 102.5 4t90.5 10l34 191h-244l33 190h459l-95 -540
q-43 -10 -152 -27.5t-246 -17.5z" />
    <glyph glyph-name="uni0263" unicode="&#x263;" 
d="M391 -480q-126 0 -202.5 68t-76.5 180q0 92 59.5 166t155.5 136l-154 990l222 20l127 -894h18q410 326 429 874h214q-25 -644 -521 -1014q51 -63 71.5 -120.5t20.5 -112.5q0 -132 -99.5 -212.5t-263.5 -80.5zM315 -189q0 -49 30 -78t79 -29q57 0 92 39.5t35 104.5
q0 31 -15 71t-52 105q-100 -80 -134.5 -125t-34.5 -88z" />
    <glyph glyph-name="uni0269" unicode="&#x269;" 
d="M966 225l69 -161q-61 -35 -129 -59.5t-156 -24.5q-368 0 -347 334q5 75 29.5 146t53 138t43.5 129q43 166 -151 166q-95 0 -183 -23l-21 182q59 17 118 22.5t118 5.5q207 0 291 -94.5t39 -278.5q-17 -71 -44.5 -132.5t-50.5 -121.5t-28 -130q-11 -153 172 -153
q50 0 87.5 12.5t89.5 42.5z" />
    <glyph glyph-name="uni026A" unicode="&#x26a;" 
d="M75 0l30 174h326l124 712h-324l30 174h864l-30 -174h-326l-124 -712h324l-30 -174h-864z" />
    <glyph glyph-name="uni026B" unicode="&#x26b;" 
d="M88 586l17 94q20 109 79 172.5t186 63.5q37 0 70.5 -7.5t64.5 -19.5l49 191q35 136 7.5 194.5t-161.5 58.5q-34 0 -69.5 -5.5t-70.5 -20.5l-31 182q50 14 101 22.5t102 8.5q232 0 314.5 -111t22.5 -341l-70 -268q22 -4 50 -4q36 0 55 27t29 86l6 34h215l-15 -84
q-20 -115 -75.5 -179.5t-172.5 -64.5q-77 0 -135 19l-42 -159q-30 -113 -30 -172q0 -133 148 -133q61 0 107 15t110 50l69 -161q-70 -40 -147.5 -67t-177.5 -27q-166 0 -244.5 76.5t-78.5 237.5q0 71 29 181l64 251q-33 9 -69 9t-53.5 -27.5t-28.5 -87.5l-6 -34h-218z" />
    <glyph glyph-name="uni026C" unicode="&#x26c;" 
d="M693 -20q-166 0 -244.5 76.5t-78.5 237.5q0 71 29 181l2 9q-171 26 -265 106.5t-94 205.5q0 139 86 216.5t238 77.5q97 0 178 -48l10 38q35 136 7.5 194.5t-161.5 58.5q-34 0 -69.5 -5.5t-70.5 -20.5l-31 182q50 14 101 22.5t102 8.5q232 0 314.5 -111t22.5 -341
l-107 -411q162 23 363 124l70 -166q-128 -67 -253.5 -101t-227.5 -41q-30 -111 -30 -170q0 -133 148 -133q61 0 107 15t110 50l69 -161q-70 -40 -147.5 -67t-177.5 -27zM373 920q-60 0 -93.5 -28.5t-33.5 -79.5q0 -57 52.5 -95.5t148.5 -53.5l56 218q-77 39 -130 39z" />
    <glyph glyph-name="uni0272" unicode="&#x272;" 
d="M-268 -472l-10 188l70 10q105 15 162.5 58t87.5 120.5t51 197.5l169 958h177l-7 -241h20q32 125 127 193t228 68q322 0 254 -383l-123 -697h-215l123 705q32 185 -119 185q-79 0 -147 -45t-123 -149.5t-94 -282.5l-49 -279q-26 -150 -62 -258t-94.5 -179t-151.5 -111
t-234 -54z" />
    <glyph glyph-name="uni0283" unicode="&#x283;" 
d="M-56 -473l-9 190l73 8q192 21 278.5 135.5t103.5 331.5l74 678q18 223 89.5 366.5t212 213.5t363.5 70q87 0 166 -20l-54 -184q-87 14 -151 14q-204 0 -296.5 -109.5t-112.5 -340.5l-81 -718q-25 -287 -158.5 -440.5t-426.5 -186.5z" />
    <glyph glyph-name="uni028A" unicode="&#x28a;" 
d="M196 1059h428l-31 -176q-91 -22 -159 -88t-106.5 -162.5t-38.5 -210.5q0 -116 65.5 -181.5t182.5 -65.5q156 0 251 119.5t95 315.5q0 121 -34.5 187.5t-91.5 85.5l31 176h401l-30 -176h-226v-23q75 -33 120 -123t45 -196q0 -167 -74.5 -292t-208.5 -194.5t-314 -69.5
q-201 0 -313.5 107.5t-112.5 299.5q0 108 42 203.5t117 166t175 100.5v21h-243z" />
    <glyph glyph-name="uni028B" unicode="&#x28b;" 
d="M503 -20q-217 0 -310 109t-58 321l114 650h215l-114 -650q-43 -240 186 -240q230 0 273 240l56 320q14 77 -6 108.5t-82 31.5h-65l33 190h68q322 0 275 -280l-65 -370q-76 -430 -520 -430z" />
    <glyph glyph-name="uni028C" unicode="&#x28c;" 
d="M862 1060l165 -1060h-225l-124 874h-18q-410 -326 -429 -874h-214q27 684 586 1060h259z" />
    <glyph glyph-name="uni0292" unicode="&#x292;" 
d="M363 -480q-287 0 -427 199l166 148q65 -82 130 -119.5t165 -37.5q162 0 261.5 86t99.5 226q0 121 -75 186t-217 65h-147l-23 124l532 489h-588l30 174h771l17 -201l-470 -435q188 -12 287.5 -117t99.5 -288q0 -149 -76.5 -261.5t-214 -175t-321.5 -62.5z" />
    <glyph glyph-name="uni0294" unicode="&#x294;" 
d="M375 0l65 369q23 133 95.5 253.5t202.5 241.5q86 80 129.5 153.5t43.5 157.5q0 74 -52 114.5t-147 40.5q-165 0 -365 -165l-93 163q210 192 484 192q182 0 284.5 -89.5t102.5 -248.5q0 -112 -63 -222t-190 -237q-97 -97 -149.5 -181.5t-68.5 -176.5l-64 -365h-215z" />
    <glyph glyph-name="uni0295" unicode="&#x295;" 
d="M437 0l55 298q16 85 10 151t-33.5 130.5t-78.5 143.5q-68 107 -90 179.5t-22 136.5q0 143 66.5 251.5t185.5 169t276 60.5q141 0 252.5 -49t158.5 -130l-163 -143q-44 61 -119.5 96.5t-160.5 35.5q-124 0 -199.5 -75t-75.5 -200q0 -65 17 -114t55 -108
q66 -101 99.5 -184.5t39.5 -163.5t-11 -173l-57 -312h-205z" />
    <glyph glyph-name="uni029F" unicode="&#x29f;" 
d="M66 0l190 1079h213l-159 -905h730l-31 -174h-943z" />
    <glyph glyph-name="uni02A7" unicode="&#x2a7;" 
d="M265 -477l-7 190l80 12q176 27 263 101.5t105 213.5l107 834h-341l-62 -356q-16 -96 -24.5 -148t-8.5 -107q0 -93 89 -93q29 0 50.5 4.5t51.5 14.5l36 -171q-37 -16 -80 -27t-97 -11q-136 0 -200 64t-64 199q0 60 7 117t25 158l62 356h-186l33 186h186l56 320h215
l-56 -320h331l3 20q23 182 127.5 271t279.5 89q73 0 138 -13l-55 -184q-52 7 -92 7q-80 0 -129 -39.5t-60 -120.5l-134 -1046q-31 -238 -166 -359.5t-404 -152.5z" />
    <glyph glyph-name="uni02B7" unicode="&#x2b7;" 
d="M760 790l-20 190h-17l-73 -190h-191l-84 631l177 6l58 -526h11l67 166l-26 354l134 6l36 -526h10q51 98 78.5 227.5t29.5 292.5h177q-7 -404 -198 -631h-169z" />
    <glyph glyph-name="uni02B8" unicode="&#x2b8;" 
d="M332 506l-71 139q98 38 183.5 86t157.5 107q-122 224 -210 583l181 12q64 -292 157 -471q78 93 132 207t82 252h181q-57 -242 -170 -418.5t-271.5 -297.5t-351.5 -199z" />
    <glyph glyph-name="uni02BB" unicode="&#x2bb;" 
d="M778 1515l132 -157l-72 -65q-64 -58 -107 -112t-53 -109q-21 -117 124 -117h58l-33 -185h-88q-156 0 -224 77t-42 225q17 90 75 188.5t163 193.5z" />
    <glyph glyph-name="uni02BC" unicode="&#x2bc;" 
d="M611 675l-132 157l72 65q65 59 107.5 112.5t52.5 108.5q21 117 -124 117h-58l33 185h88q156 0 224 -76.5t42 -225.5q-16 -90 -74.5 -188.5t-163.5 -193.5z" />
    <glyph glyph-name="uni02C0" unicode="&#x2c0;" 
d="M518 790l15 90q13 76 54.5 135t124.5 119q123 87 123 165q0 93 -131 93q-126 0 -235 -82l-82 142q60 56 150 86t196 30q316 0 316 -248q0 -75 -54 -151.5t-159 -160.5q-52 -42 -80.5 -75.5t-38.5 -84.5l-11 -58h-188z" />
    <glyph glyph-name="circumflex" unicode="&#x2c6;" 
d="M880 1628l173 -380h-207l-71 226l-157 -226h-217l307 380h172z" />
    <glyph glyph-name="caron" unicode="&#x2c7;" 
d="M636 1210l-173 380h207l71 -226l157 226h217l-307 -380h-172z" />
    <glyph glyph-name="uni02C9" unicode="&#x2c9;" 
d="M297 1248l34 188h859l-34 -188h-859z" />
    <glyph glyph-name="uni02D0" unicode="&#x2d0;" 
d="M307 0l263 360l137 -360h-400zM630 700l-137 360h400z" />
    <glyph glyph-name="breve" unicode="&#x2d8;" 
d="M706 1220q-131 0 -206.5 66t-75.5 172q0 35 5 70.5t16 75.5l171 -15q-9 -26 -12 -49t-3 -42q0 -131 128 -131q77 0 152.5 73t121.5 175l143 -80q-83 -161 -200 -238t-240 -77z" />
    <glyph glyph-name="dotaccent" unicode="&#x2d9;" 
d="M749 1238q-55 0 -94.5 39.5t-39.5 94.5q0 56 39.5 95t94.5 39q56 0 95 -39t39 -95q0 -55 -39 -94.5t-95 -39.5z" />
    <glyph glyph-name="ring" unicode="&#x2da;" 
d="M717 1198q-92 0 -148.5 49t-56.5 128q0 115 77 185t204 70q92 0 148 -48.5t56 -128.5q0 -115 -77 -185t-203 -70zM738 1314q52 0 83.5 32t31.5 84q0 38 -22 61t-59 23q-52 0 -84 -31.5t-32 -84.5q0 -37 22.5 -60.5t59.5 -23.5z" />
    <glyph glyph-name="ogonek" unicode="&#x2db;" 
d="M514 -423q-215 0 -215 170q0 68 38.5 127.5t134.5 97.5v62h247v-34q-63 0 -125.5 -22t-103.5 -61.5t-41 -92.5q0 -80 78 -80q23 0 42 4.5t32 9.5l26 -163q-43 -18 -113 -18z" />
    <glyph glyph-name="tilde" unicode="&#x2dc;" 
d="M372 1256l6 30q26 133 79.5 201.5t174.5 68.5q46 0 85.5 -17t78.5 -34.5t83 -17.5q74 0 89 94l10 60h185l-6 -50q-34 -280 -260 -280q-51 0 -95.5 17.5t-82 34.5t-68.5 17q-71 0 -88 -84l-8 -40h-183z" />
    <glyph glyph-name="hungarumlaut" unicode="&#x2dd;" 
d="M383 1248l217 380h222l-237 -380h-202zM763 1248l217 380h222l-237 -380h-202z" />
    <glyph glyph-name="gravecomb" unicode="&#x300;" horiz-adv-x="0" 
d="M636 1248l-166 380h203l146 -380h-183z" />
    <glyph glyph-name="acutecomb" unicode="&#x301;" horiz-adv-x="0" 
d="M627 1248l217 380h246l-267 -380h-196z" />
    <glyph glyph-name="uni0302" unicode="&#x302;" horiz-adv-x="0" 
d="M880 1628l173 -380h-207l-71 226l-157 -226h-217l307 380h172z" />
    <glyph glyph-name="tildecomb" unicode="&#x303;" horiz-adv-x="0" 
d="M372 1256l6 30q26 133 79.5 201.5t174.5 68.5q46 0 85.5 -17t78.5 -34.5t83 -17.5q74 0 89 94l10 60h185l-6 -50q-34 -280 -260 -280q-51 0 -95.5 17.5t-82 34.5t-68.5 17q-71 0 -88 -84l-8 -40h-183z" />
    <glyph glyph-name="uni0304" unicode="&#x304;" horiz-adv-x="0" 
d="M297 1248l34 188h859l-34 -188h-859z" />
    <glyph glyph-name="uni0306" unicode="&#x306;" horiz-adv-x="0" 
d="M706 1220q-131 0 -206.5 66t-75.5 172q0 35 5 70.5t16 75.5l171 -15q-9 -26 -12 -49t-3 -42q0 -131 128 -131q77 0 152.5 73t121.5 175l143 -80q-83 -161 -200 -238t-240 -77z" />
    <glyph glyph-name="uni0307" unicode="&#x307;" horiz-adv-x="0" 
d="M749 1238q-55 0 -94.5 39.5t-39.5 94.5q0 56 39.5 95t94.5 39q56 0 95 -39t39 -95q0 -55 -39 -94.5t-95 -39.5z" />
    <glyph glyph-name="uni0308" unicode="&#x308;" horiz-adv-x="0" 
d="M538 1238q-55 0 -94.5 39.5t-39.5 94.5q0 56 39.5 95t94.5 39q56 0 95 -39t39 -95q0 -55 -39 -94.5t-95 -39.5zM958 1238q-55 0 -94.5 39.5t-39.5 94.5q0 56 39.5 95t94.5 39q56 0 95 -39t39 -95q0 -55 -39 -94.5t-95 -39.5z" />
    <glyph glyph-name="hookabovecomb" unicode="&#x309;" horiz-adv-x="0" 
d="M666 1338q83 50 106.5 88.5t23.5 59.5q0 55 -63 55q-31 0 -64.5 -10.5t-65.5 -28.5l-49 129q47 29 103 45t123 16q88 0 137.5 -49t49.5 -135q0 -59 -42 -136.5t-162 -154.5z" />
    <glyph glyph-name="uni030A" unicode="&#x30a;" horiz-adv-x="0" 
d="M717 1198q-92 0 -148.5 49t-56.5 128q0 115 77 185t204 70q92 0 148 -48.5t56 -128.5q0 -115 -77 -185t-203 -70zM738 1314q52 0 83.5 32t31.5 84q0 38 -22 61t-59 23q-52 0 -84 -31.5t-32 -84.5q0 -37 22.5 -60.5t59.5 -23.5z" />
    <glyph glyph-name="uni030B" unicode="&#x30b;" horiz-adv-x="0" 
d="M383 1248l217 380h222l-237 -380h-202zM763 1248l217 380h222l-237 -380h-202z" />
    <glyph glyph-name="uni030C" unicode="&#x30c;" horiz-adv-x="0" 
d="M636 1210l-173 380h207l71 -226l157 226h217l-307 -380h-172z" />
    <glyph glyph-name="uni0312" unicode="&#x312;" horiz-adv-x="0" 
d="M734 1201q-101 0 -150.5 31t-49.5 107q0 70 57.5 146.5t178.5 169.5l102 -99q-169 -118 -169 -174q0 -32 67 -32h65l-26 -149h-75z" />
    <glyph glyph-name="uni0313" unicode="&#x313;" horiz-adv-x="0" 
d="M776 1162l-102 99q169 118 169 174q0 32 -67 32h-65l26 149h75q200 0 200 -128q0 -87 -71 -168t-165 -158z" />
    <glyph glyph-name="uni0315" unicode="&#x315;" horiz-adv-x="0" 
d="M776 1162l-102 99q169 118 169 174q0 32 -67 32h-65l26 149h75q200 0 200 -128q0 -87 -71 -168t-165 -158z" />
    <glyph glyph-name="uni031B" unicode="&#x31b;" horiz-adv-x="0" 
d="M506 895l-21 165l61 10q184 30 225 273h220q-66 -380 -424 -438z" />
    <glyph glyph-name="dotbelowcomb" unicode="&#x323;" horiz-adv-x="0" 
d="M457 -420q-55 0 -94.5 39.5t-39.5 94.5q0 56 39.5 95t94.5 39q56 0 95 -39t39 -95q0 -55 -39 -94.5t-95 -39.5z" />
    <glyph glyph-name="uni0325" unicode="&#x325;" horiz-adv-x="0" 
d="M413 -500q-92 0 -148.5 49t-56.5 128q0 115 77 185t204 70q92 0 148 -48.5t56 -128.5q0 -115 -77 -185t-203 -70zM434 -384q52 0 83.5 32t31.5 84q0 38 -22 61t-59 23q-52 0 -84 -31.5t-32 -84.5q0 -37 22.5 -60.5t59.5 -23.5z" />
    <glyph glyph-name="uni0326" unicode="&#x326;" horiz-adv-x="0" 
d="M388 -568l-102 99q169 118 169 174q0 32 -67 32h-65l26 149h75q200 0 200 -128q0 -87 -71 -168t-165 -158z" />
    <glyph glyph-name="uni0327" unicode="&#x327;" horiz-adv-x="0" 
d="M237 -480l27 150q200 0 200 73q0 56 -143 82l125 224l107 -51l-44 -98q147 -39 147 -153q0 -227 -419 -227z" />
    <glyph glyph-name="uni0328" unicode="&#x328;" horiz-adv-x="0" 
d="M514 -423q-215 0 -215 170q0 68 38.5 127.5t134.5 97.5v62h247v-34q-63 0 -125.5 -22t-103.5 -61.5t-41 -92.5q0 -80 78 -80q23 0 42 4.5t32 9.5l26 -163q-43 -18 -113 -18z" />
    <glyph glyph-name="uni0331" unicode="&#x331;" horiz-adv-x="0" 
d="M7 -396l34 188h859l-34 -188h-859z" />
    <glyph glyph-name="uni0332" unicode="&#x332;" horiz-adv-x="0" 
d="M-213 -396l34 188h1299l-34 -188h-1299z" />
    <glyph glyph-name="uni0340" unicode="&#x340;" horiz-adv-x="0" 
d="M636 1248l-166 380h203l146 -380h-183z" />
    <glyph glyph-name="uni0341" unicode="&#x341;" horiz-adv-x="0" 
d="M627 1248l217 380h246l-267 -380h-196z" />
    <glyph glyph-name="uni0342" unicode="&#x342;" horiz-adv-x="0" 
d="M372 1256l6 30q26 133 79.5 201.5t174.5 68.5q46 0 85.5 -17t78.5 -34.5t83 -17.5q74 0 89 94l10 60h185l-6 -50q-34 -280 -260 -280q-51 0 -95.5 17.5t-82 34.5t-68.5 17q-71 0 -88 -84l-8 -40h-183z" />
    <glyph glyph-name="uni0374" unicode="&#x374;" 
d="M611 675l-132 157l72 65q65 59 107.5 112.5t52.5 108.5q21 117 -124 117h-58l33 185h88q156 0 224 -76.5t42 -225.5q-16 -90 -74.5 -188.5t-163.5 -193.5z" />
    <glyph glyph-name="uni0375" unicode="&#x375;" 
d="M266 -436l177 690h242l-232 -690h-187z" />
    <glyph glyph-name="uni037E" unicode="&#x37e;" 
d="M266 -436l177 690h242l-232 -690h-187zM670 784q-61 0 -104.5 43.5t-43.5 104.5q0 62 43.5 105t104.5 43q62 0 105 -43t43 -105q0 -61 -43 -104.5t-105 -43.5z" />
    <glyph glyph-name="tonos" unicode="&#x384;" 
d="M627 1248l217 380h246l-267 -380h-196z" />
    <glyph glyph-name="dieresistonos" unicode="&#x385;" 
d="M587 1248l167 380h236l-209 -380h-194zM416 1238q-55 0 -94.5 39.5t-39.5 94.5q0 56 39.5 95t94.5 39q56 0 95 -39t39 -95q0 -55 -39 -94.5t-95 -39.5zM1086 1238q-55 0 -94.5 39.5t-39.5 94.5q0 56 39.5 95t94.5 39q56 0 95 -39t39 -95q0 -55 -39 -94.5t-95 -39.5z" />
    <glyph glyph-name="Alphatonos" unicode="&#x386;" 
d="M376 0h-211q46 150 109 335.5t136 381t148.5 378t145.5 326.5h309l49 -1421h-210l-5 346h-360q-32 -96 -60 -184.5t-51 -161.5zM550 536h295l-10 713h-18q-60 -137 -130 -327.5t-137 -385.5zM89 1040l147 380h222l-167 -380h-202z" />
    <glyph glyph-name="anoteleia" unicode="&#x387;" 
d="M671 784q-61 0 -104.5 43.5t-43.5 104.5q0 62 43.5 105t104.5 43q62 0 105 -43t43 -105q0 -61 -43 -104.5t-105 -43.5z" />
    <glyph glyph-name="Epsilontonos" unicode="&#x388;" 
d="M266 0l33 190v0l75 426v0l28 156l114 648h740l-33 -190h-540l-75 -424h360l-34 -190h-360l-75 -426h540l-33 -190h-740zM84 1040l157 380h212l-177 -380h-192z" />
    <glyph glyph-name="Etatonos" unicode="&#x389;" 
d="M759 0l108 612h-305l-108 -612h-208l250 1420h208l-109 -618h305l109 618h208l-250 -1420h-208zM89 1040l157 380h212l-177 -380h-192z" />
    <glyph glyph-name="Iotatonos" unicode="&#x38a;" 
d="M275 0l33 190h228l184 1040h-228l33 190h663l-33 -190h-227l-184 -1040h227l-33 -190h-663zM89 1040l157 380h212l-177 -380h-192z" />
    <glyph glyph-name="Omicrontonos" unicode="&#x38c;" 
d="M613 -20q-157 0 -245 107.5t-88 298.5q0 331 68 567t196 361.5t308 125.5q157 0 244.5 -107t87.5 -299q0 -331 -68 -567t-195.5 -361.5t-307.5 -125.5zM639 164q156 0 243.5 223.5t87.5 621.5q0 116 -36.5 181.5t-102.5 65.5q-159 0 -248 -223.5t-89 -621.5
q0 -117 38.5 -182t106.5 -65zM89 1040l157 380h212l-177 -380h-192z" />
    <glyph glyph-name="Upsilontonos" unicode="&#x38e;" 
d="M557 0l91 517l-170 881l212 32l103 -698h18q67 119 121 225.5t100 218t86 244.5h214q-59 -176 -130.5 -326t-157 -288.5t-187.5 -279.5l-92 -526h-208zM89 1040l157 380h212l-177 -380h-192z" />
    <glyph glyph-name="Omegatonos" unicode="&#x38f;" 
d="M211 0l33 186h224l3 17q-178 44 -178 322q0 165 35 327.5t106 295.5t177.5 212.5t249.5 79.5q331 0 331 -412q0 -125 -22 -261t-68 -257t-117.5 -203.5t-169.5 -100.5l-3 -20h224l-33 -186h-354l33 186q57 25 104.5 90.5t83.5 157t61 194t37.5 201.5t12.5 179
q0 248 -152 248q-69 0 -122.5 -52t-93 -138t-65.5 -190.5t-38.5 -211.5t-12.5 -199q0 -223 101 -279l-33 -186h-354zM89 1040l147 380h222l-167 -380h-202z" />
    <glyph glyph-name="iotadieresistonos" unicode="&#x390;" 
d="M966 225l69 -161q-61 -35 -129 -59.5t-156 -24.5q-368 0 -347 334q5 75 29.5 146t53 138t43.5 129q43 166 -151 166q-95 0 -183 -23l-21 182q59 17 118 22.5t118 5.5q207 0 291 -94.5t39 -278.5q-17 -71 -44.5 -132.5t-50.5 -121.5t-28 -130q-11 -153 172 -153
q50 0 87.5 12.5t89.5 42.5zM589 1248l167 380h236l-209 -380h-194zM418 1238q-55 0 -94.5 39.5t-39.5 94.5q0 56 39.5 95t94.5 39q56 0 95 -39t39 -95q0 -55 -39 -94.5t-95 -39.5zM1088 1238q-55 0 -94.5 39.5t-39.5 94.5q0 56 39.5 95t94.5 39q56 0 95 -39t39 -95
q0 -55 -39 -94.5t-95 -39.5z" />
    <glyph glyph-name="Alpha" unicode="&#x391;" 
d="M-48 0l630 1421h321q26 -113 49.5 -256.5t43 -300.5t34 -313.5t23 -298t9.5 -252.5h-212q1 69 -2.5 158t-10.5 188h-513l-150 -346h-222zM407 536h415q-12 131 -26.5 261.5t-30 247t-30.5 204.5h-18z" />
    <glyph glyph-name="Beta" unicode="&#x392;" 
d="M67 0l250 1420q102 20 258 20q271 0 410.5 -86t139.5 -253q0 -293 -383 -331l-7 -35q176 -7 273.5 -89.5t97.5 -223.5q0 -217 -154.5 -319.5t-480.5 -102.5h-404zM308 190h143q227 0 334 62.5t107 195.5q0 98 -80.5 153t-223.5 55h-198zM424 846h176q307 0 307 212
q0 192 -335 192q-40 0 -77 -1z" />
    <glyph glyph-name="Gamma" unicode="&#x393;" 
d="M89 0l248 1420h909l-33 -190h-700l-217 -1230h-207z" />
    <glyph glyph-name="uni0394" unicode="&#x394;" 
d="M-48 0l630 1421h321q26 -113 49.5 -256.5t43 -300.5t34 -313.5t23 -298t9.5 -252.5h-1110zM257 190h589q-6 124 -17.5 267.5t-27 289t-33 275.5t-33.5 227h-18z" />
    <glyph glyph-name="Epsilon" unicode="&#x395;" 
d="M67 0l250 1420h939l-33 -190h-730l-75 -424h550l-33 -190h-551l-75 -426h730l-33 -190h-939z" />
    <glyph glyph-name="Zeta" unicode="&#x396;" 
d="M145 0l-60 160l847 1070h-631l33 190h805l60 -160l-854 -1070h660l-33 -190h-827z" />
    <glyph glyph-name="Eta" unicode="&#x397;" 
d="M759 0l108 612h-504l-108 -612h-208l250 1420h208l-109 -618h504l109 618h208l-250 -1420h-208z" />
    <glyph glyph-name="Theta" unicode="&#x398;" 
d="M513 -20q-195 0 -304 128.5t-109 357.5q0 306 77.5 524t223.5 334t351 116q194 0 303 -125.5t109 -349.5q0 -309 -77.5 -529.5t-223 -338t-350.5 -117.5zM340 802h606q4 66 4 138q0 149 -57.5 232.5t-161.5 83.5q-149 0 -249.5 -118.5t-141.5 -335.5zM539 164
q145 0 243 116.5t140 331.5h-605q-3 -58 -3 -121q0 -154 59.5 -240.5t165.5 -86.5z" />
    <glyph glyph-name="Iota" unicode="&#x399;" 
d="M75 0l33 190h328l184 1040h-328l33 190h863l-33 -190h-327l-184 -1040h327l-33 -190h-863z" />
    <glyph glyph-name="Kappa" unicode="&#x39a;" 
d="M57 0l250 1420h208l-152 -863q202 56 339.5 181.5t218.5 300.5t116 381h214q-40 -242 -142 -448.5t-263 -355.5l223 -616h-232l-166 484q-158 -95 -344 -135l-62 -349h-208z" />
    <glyph glyph-name="Lambda" unicode="&#x39b;" 
d="M-16 0l609 1421h321q26 -115 46.5 -258t34.5 -299t23 -311.5t12 -297.5t0 -255h-212q5 111 3.5 249t-8 284t-17 284t-23 250.5t-24.5 181.5h-18l-525 -1249h-222z" />
    <glyph glyph-name="Mu" unicode="&#x39c;" 
d="M40 0l245 1420h295l64 -610h16l254 610h315l-250 -1420h-205l206 1168h-26l-256 -588h-67l-104 -1l-50 589h-26l-206 -1168h-205z" />
    <glyph glyph-name="Nu" unicode="&#x39d;" 
d="M716 0l-245 1080h-18l-190 -1080h-208l250 1420h243l245 -1080h18l190 1080h208l-250 -1420h-243z" />
    <glyph glyph-name="Xi" unicode="&#x39e;" 
d="M7 0l33 190h999l-33 -190h-999zM224 1230l33 190h999l-33 -190h-999zM205 616l34 190h819l-34 -190h-819z" />
    <glyph glyph-name="Omicron" unicode="&#x39f;" 
d="M513 -20q-195 0 -304 128.5t-109 357.5q0 306 77.5 524t223.5 334t351 116q194 0 303 -125.5t109 -349.5q0 -309 -77.5 -529.5t-223 -338t-350.5 -117.5zM539 164q194 0 302.5 205t108.5 571q0 149 -57.5 232.5t-161.5 83.5q-196 0 -306.5 -202t-110.5 -563
q0 -154 59.5 -240.5t165.5 -86.5z" />
    <glyph glyph-name="Pi" unicode="&#x3a0;" 
d="M759 0l217 1230h-504l-217 -1230h-208l250 1420h920l-250 -1420h-208z" />
    <glyph glyph-name="Rho" unicode="&#x3a1;" 
d="M67 0l250 1420q128 20 328 20q269 0 407 -114t138 -335q0 -303 -215.5 -462.5t-636.5 -168.5l-63 -360h-208zM372 551q298 7 451 115.5t153 311.5q0 272 -364 272q-61 0 -117 -2z" />
    <glyph glyph-name="Sigma" unicode="&#x3a3;" 
d="M57 0l33 190l529 523l-345 517l33 190h900l-33 -190h-649l355 -517l-519 -523h649l-33 -190h-920z" />
    <glyph glyph-name="Tau" unicode="&#x3a4;" 
d="M402 0l217 1230h-415l33 190h1039l-33 -190h-416l-217 -1230h-208z" />
    <glyph glyph-name="Upsilon" unicode="&#x3a5;" 
d="M402 0l81 460l-305 938l212 32l224 -804h18q106 137 192 259.5t158 251.5t136 283h214q-79 -195 -176 -360.5t-213.5 -318.5t-256.5 -310l-76 -431h-208z" />
    <glyph glyph-name="Phi" unicode="&#x3a6;" 
d="M418 -20l29 167q-171 23 -264 128.5t-93 299.5q0 208 70 364.5t196 249t294 108.5l28 163h169l-29 -166q172 -23 265.5 -129t93.5 -300q0 -208 -70.5 -365t-197 -249.5t-293.5 -107.5l-29 -163h-169zM779 1128l-144 -819q154 25 248 169.5t94 365.5q0 246 -198 284z
M486 312l145 819q-101 -18 -177.5 -89t-120 -185t-43.5 -261q0 -246 196 -284z" />
    <glyph glyph-name="Chi" unicode="&#x3a7;" 
d="M161 -40l-156 140l527 608l-7 384q-1 83 -36.5 120.5t-76.5 37.5q-70 0 -137 -35l-59 171q131 54 225 54q69 0 128.5 -32t97 -100t39.5 -177l3 -185l343 494l166 -140l-504 -611l6 -361q2 -82 41.5 -120t91.5 -38q69 0 137 45l59 -171q-112 -64 -225 -64t-197.5 73
t-87.5 236l-3 172z" />
    <glyph glyph-name="Psi" unicode="&#x3a8;" 
d="M492 506l161 914h208l-161 -914q221 52 273 344l100 570h208l-100 -570q-85 -483 -515 -534l-55 -316h-208l55 316q-411 50 -325 534l100 570h208l-100 -570q-52 -292 151 -344z" />
    <glyph glyph-name="uni03A9" unicode="&#x3a9;" 
d="M11 0l33 186h236l3 17q-188 50 -188 375q0 174 41.5 329.5t124.5 275.5t208 188.5t292 68.5q426 0 426 -489q0 -113 -23 -236.5t-70 -233t-118.5 -184t-168.5 -91.5l-3 -20h232l-33 -186h-412l33 186q86 27 151.5 105.5t109.5 186t66.5 222.5t22.5 215q0 341 -245 341
q-113 0 -193.5 -60.5t-132 -161t-75.5 -223t-24 -247.5q0 -306 156 -378l-33 -186h-416z" />
    <glyph glyph-name="Iotadieresis" unicode="&#x3aa;" 
d="M75 0l33 190h328l184 1040h-328l33 190h863l-33 -190h-327l-184 -1040h327l-33 -190h-863zM601 1580q-55 0 -94.5 39.5t-39.5 94.5q0 56 39.5 95t94.5 39q56 0 95 -39t39 -95q0 -55 -39 -94.5t-95 -39.5zM1017 1580q-55 0 -94.5 39.5t-39.5 94.5q0 56 39.5 95t94.5 39
q56 0 95 -39t39 -95q0 -55 -39 -94.5t-95 -39.5z" />
    <glyph glyph-name="Upsilondieresis" unicode="&#x3ab;" 
d="M402 0l81 460l-305 938l212 32l224 -804h18q106 137 192 259.5t158 251.5t136 283h214q-79 -195 -176 -360.5t-213.5 -318.5t-256.5 -310l-76 -431h-208zM601 1580q-55 0 -94.5 39.5t-39.5 94.5q0 56 39.5 95t94.5 39q56 0 95 -39t39 -95q0 -55 -39 -94.5t-95 -39.5z
M1017 1580q-55 0 -94.5 39.5t-39.5 94.5q0 56 39.5 95t94.5 39q56 0 95 -39t39 -95q0 -55 -39 -94.5t-95 -39.5z" />
    <glyph glyph-name="alphatonos" unicode="&#x3ac;" 
d="M856 910l27 150h214l-130 -743q-14 -80 12.5 -116t114.5 -36h41l-30 -175h-71q-147 0 -203 59t-43 202h-29q-56 -130 -155 -201t-227 -71q-150 0 -232 104.5t-82 293.5q0 208 64.5 364t180.5 242.5t271 86.5q124 0 178 -44.5t85 -115.5h14zM596 880q-95 0 -167 -62.5
t-112 -170.5t-40 -245q0 -112 43.5 -172.5t121.5 -60.5q134 0 231.5 130.5t139.5 367.5l19 107q-32 40 -88 73t-148 33zM627 1248l217 380h246l-267 -380h-196z" />
    <glyph glyph-name="epsilontonos" unicode="&#x3ad;" 
d="M529 -20q-413 0 -413 240q0 147 101 218t255 92l4 20q-233 61 -233 226q0 114 68 180.5t181 95t247 28.5q232 0 389 -72l-88 -167q-144 55 -311 55q-71 0 -133 -13t-100 -43.5t-38 -84.5q0 -124 379 -139l-24 -181h-52q-430 0 -430 -165q0 -106 238 -106
q125 0 210.5 15.5t152.5 29.5l19 -181q-84 -22 -190.5 -35t-231.5 -13zM695 1248l217 380h246l-267 -380h-196z" />
    <glyph glyph-name="etatonos" unicode="&#x3ae;" 
d="M75 0l187 1060h177l-7 -241h20q32 125 127 193t228 68q321 0 254 -383l-54 -310q-36 -210 -96 -366.5t-151 -275t-223 -214.5l-141 155q113 84 190.5 182.5t127 224.5t77.5 292l55 320q32 185 -119 185q-80 0 -148.5 -45.5t-123 -151.5t-93.5 -286l-72 -407h-215z
M645 1248l217 380h246l-267 -380h-196z" />
    <glyph glyph-name="iotatonos" unicode="&#x3af;" 
d="M966 225l69 -161q-61 -35 -129 -59.5t-156 -24.5q-368 0 -347 334q5 75 29.5 146t53 138t43.5 129q43 166 -151 166q-95 0 -183 -23l-21 182q59 17 118 22.5t118 5.5q207 0 291 -94.5t39 -278.5q-17 -71 -44.5 -132.5t-50.5 -121.5t-28 -130q-11 -153 172 -153
q50 0 87.5 12.5t89.5 42.5zM591 1248l217 380h246l-267 -380h-196z" />
    <glyph glyph-name="upsilondieresistonos" unicode="&#x3b0;" 
d="M543 -20q-190 0 -277 114t-52 316l56 320q14 77 -5.5 108.5t-81.5 31.5h-118l33 190h118q176 0 238.5 -74t31.5 -246l-58 -330q-42 -240 148 -240q191 0 233 240l114 650h214l-114 -650q-76 -430 -480 -430zM589 1248l167 380h236l-209 -380h-194zM418 1238
q-55 0 -94.5 39.5t-39.5 94.5q0 56 39.5 95t94.5 39q56 0 95 -39t39 -95q0 -55 -39 -94.5t-95 -39.5zM1088 1238q-55 0 -94.5 39.5t-39.5 94.5q0 56 39.5 95t94.5 39q56 0 95 -39t39 -95q0 -55 -39 -94.5t-95 -39.5z" />
    <glyph glyph-name="alpha" unicode="&#x3b1;" 
d="M856 910l27 150h214l-130 -743q-14 -80 12.5 -116t114.5 -36h41l-30 -175h-71q-147 0 -203 59t-43 202h-29q-56 -130 -155 -201t-227 -71q-150 0 -232 104.5t-82 293.5q0 208 64.5 364t180.5 242.5t271 86.5q124 0 178 -44.5t85 -115.5h14zM596 880q-95 0 -167 -62.5
t-112 -170.5t-40 -245q0 -112 43.5 -172.5t121.5 -60.5q134 0 231.5 130.5t139.5 367.5l19 107q-32 40 -88 73t-148 33z" />
    <glyph glyph-name="beta" unicode="&#x3b2;" 
d="M575 -20q-244 0 -348 169t-50 477l69 397q86 497 548 497q170 0 260.5 -81.5t90.5 -231.5q0 -139 -74 -248t-207 -178v-17q122 -34 174 -117.5t52 -196.5q0 -158 -66 -262.5t-182 -156t-267 -51.5zM673 712q-126 -31 -275 -34l-18 -102q-33 -184 24.5 -285t196.5 -101
q122 -1 203.5 69t81.5 213q0 103 -55 165t-158 75zM432 865q227 8 365.5 96t138.5 233q0 136 -159 136q-136 0 -212.5 -77t-104.5 -233z" />
    <glyph glyph-name="gamma" unicode="&#x3b3;" 
d="M283 -460q77 421 33.5 785t-220.5 630l193 125q104 -158 167 -365.5t83 -446.5q114 75 193 181.5t130.5 256t85.5 354.5h215q-49 -288 -125 -486.5t-195 -328.5t-297 -212q-2 -243 -48 -493h-215z" />
    <glyph glyph-name="delta" unicode="&#x3b4;" 
d="M558 -20q-133 0 -233 46.5t-155.5 130.5t-55.5 195q0 184 114 311.5t300 232.5q-38 54 -62 125.5t-24 167.5q0 331 395 331q246 0 432 -157l-121 -173q-145 140 -314 140q-178 0 -178 -133q0 -86 46 -154.5t113.5 -130t134.5 -128t113 -147.5t46 -190
q0 -220 -145.5 -343.5t-405.5 -123.5zM661 758q-153 -91 -243 -182t-90 -207q0 -89 71.5 -144t189.5 -55q144 0 225 67.5t81 187.5q0 80 -34.5 136.5t-88 102t-111.5 94.5z" />
    <glyph glyph-name="epsilon" unicode="&#x3b5;" 
d="M529 -20q-413 0 -413 240q0 147 101 218t255 92l4 20q-233 61 -233 226q0 114 68 180.5t181 95t247 28.5q232 0 389 -72l-88 -167q-144 55 -311 55q-71 0 -133 -13t-100 -43.5t-38 -84.5q0 -124 379 -139l-24 -181h-52q-430 0 -430 -165q0 -106 238 -106
q125 0 210.5 15.5t152.5 29.5l19 -181q-84 -22 -190.5 -35t-231.5 -13z" />
    <glyph glyph-name="zeta" unicode="&#x3b6;" 
d="M485 -479q-51 0 -110.5 7t-145.5 23l49 184q129 -30 207 -30q110 0 172 32t62 108q0 53 -43 83t-121 52q-143 41 -228 94.5t-121.5 131t-36.5 191.5q0 100 51 186.5t160 174t282 186.5q149 86 213.5 158t64.5 134q0 94 -123 94q-124 0 -231.5 -31.5t-200.5 -71.5l-61 180
q119 54 237.5 83.5t237.5 29.5q182 0 268.5 -64t86.5 -201q0 -121 -87 -235.5t-281 -226.5q-211 -122 -307 -205.5t-96 -171.5q0 -90 57.5 -144.5t201.5 -101.5q138 -45 214.5 -110t76.5 -203q0 -168 -118 -252t-330 -84z" />
    <glyph glyph-name="eta" unicode="&#x3b7;" 
d="M75 0l187 1060h177l-7 -241h20q32 125 127 193t228 68q321 0 254 -383l-54 -310q-36 -210 -96 -366.5t-151 -275t-223 -214.5l-141 155q113 84 190.5 182.5t127 224.5t77.5 292l55 320q32 185 -119 185q-80 0 -148.5 -45.5t-123 -151.5t-93.5 -286l-72 -407h-215z" />
    <glyph glyph-name="theta" unicode="&#x3b8;" 
d="M503 -20q-175 0 -272.5 111.5t-97.5 310.5q0 44 3.5 89.5t7.5 91.5h217q-3 -40 -5.5 -80.5t-2.5 -80.5q0 -131 44.5 -191.5t138.5 -60.5q80 0 142.5 51.5t108.5 139t75 196.5q-287 0 -447.5 130t-160.5 361q0 223 129.5 347.5t361.5 124.5q204 0 300 -114.5t96 -357.5
q0 -152 -23 -305t-71.5 -290t-124 -243.5t-179.5 -168t-240 -61.5zM902 747q11 75 16.5 151.5t5.5 149.5q0 147 -50 214.5t-154 67.5q-117 0 -183 -73.5t-66 -204.5q0 -144 103.5 -224.5t288.5 -80.5h39z" />
    <glyph glyph-name="iota" unicode="&#x3b9;" 
d="M966 225l69 -161q-61 -35 -129 -59.5t-156 -24.5q-368 0 -347 334q5 75 29.5 146t53 138t43.5 129q43 166 -151 166q-95 0 -183 -23l-21 182q59 17 118 22.5t118 5.5q207 0 291 -94.5t39 -278.5q-17 -71 -44.5 -132.5t-50.5 -121.5t-28 -130q-11 -153 172 -153
q50 0 87.5 12.5t89.5 42.5z" />
    <glyph glyph-name="kappa" unicode="&#x3ba;" 
d="M65 0l187 1060h215l-77 -438l651 468l112 -159l-557 -398l159 -285q43 -78 110 -78q69 0 147 49l89 -155q-70 -45 -131.5 -64.5t-133.5 -19.5q-91 0 -155 41t-117 138l-138 253l-84 -60l-62 -352h-215z" />
    <glyph glyph-name="lambda" unicode="&#x3bb;" 
d="M976 -20q-110 0 -178 52t-94 163l-106 543l-22 -7q4 -64 -3.5 -125.5t-39.5 -112.5l-318 -493h-241l588 918l-58 298q-14 61 -52 87.5t-89 26.5q-46 0 -85.5 -12t-77.5 -26l-31 186q41 15 96 28.5t142 13.5q111 0 181.5 -48.5t95.5 -155.5l201 -1032q14 -60 52 -87
t93 -27q5 0 20 2t43 6l-9 -186q-55 -12 -108 -12z" />
    <glyph glyph-name="uni03BC" unicode="&#x3bc;" 
d="M478 -469l-16 1q-169 11 -255 70.5t-114 179.5t-22 312q4 129 23.5 272.5t53.5 318t80 395.5l204 -29q-60 -318 -97 -528t-49 -354h71q165 0 285 120t163 347l3 21l2 10v-1l70 393h217l-130 -730q-16 -91 14 -127.5t123 -36.5h29l-31 -175h-52q-159 0 -217.5 54.5
t-45.5 206.5h-21q-51 -127 -158.5 -201t-315.5 -71h-11q2 -79 15.5 -130.5t54 -80.5t125.5 -42l46 -7z" />
    <glyph glyph-name="nu" unicode="&#x3bd;" 
d="M558 0l-234 -1l-34 511q-12 177 -57.5 268.5t-137.5 126.5l103 175q131 -47 203.5 -173.5t88.5 -326.5l28 -383q132 74 214.5 184t131 275t77.5 404h222q-32 -230 -79.5 -401t-118 -294.5t-170.5 -211.5t-237 -153z" />
    <glyph glyph-name="xi" unicode="&#x3be;" 
d="M495 -479q-51 0 -110.5 7t-145.5 23l49 184q129 -30 207 -30q120 0 187 29.5t67 100.5q0 57 -62.5 85.5t-171.5 59.5q-142 41 -227 88.5t-122 116.5t-37 172q0 62 23.5 127.5t82.5 127t165.5 111.5t271.5 79v24q-163 0 -263 65.5t-100 171.5q0 134 88.5 226t280.5 150.5
t504 90.5l2 -189q-340 -37 -500.5 -104.5t-160.5 -174.5q0 -70 65 -107t179.5 -50.5t260.5 -13.5l-33 -188l-203 -27q-138 -20 -226 -57t-136.5 -81.5t-67.5 -87t-19 -74.5q0 -76 58.5 -117.5t200.5 -88.5q112 -36 193 -74.5t124.5 -96t43.5 -152.5q0 -163 -123.5 -244.5
t-344.5 -81.5z" />
    <glyph glyph-name="omicron" unicode="&#x3bf;" 
d="M502 -20q-177 0 -276.5 101.5t-99.5 282.5q0 338 151 527t419 189q177 0 276.5 -104t99.5 -290q0 -333 -150.5 -519.5t-419.5 -186.5zM539 169q150 0 234.5 125.5t84.5 348.5q0 116 -50 181.5t-141 65.5q-154 0 -240.5 -125t-86.5 -348q0 -117 52.5 -182.5t146.5 -65.5z
" />
    <glyph glyph-name="pi" unicode="&#x3c0;" 
d="M862 -20q-142 0 -194 71.5t-24 228.5l104 590h-248l-153 -870h-214l153 870h-166l33 190h1040l-33 -190h-198l-102 -580q-11 -63 0.5 -91.5t64.5 -28.5q24 0 51 6.5t64 16.5l20 -181q-52 -18 -93.5 -25t-104.5 -7z" />
    <glyph glyph-name="rho" unicode="&#x3c1;" 
d="M760 1080q177 0 274.5 -96.5t97.5 -273.5q0 -156 -57.5 -289t-161 -232t-242.5 -154t-303 -55q-39 0 -81 4l-78 -444h-219l171 973q51 292 196.5 429.5t402.5 137.5zM321 174q33 -3 69 -3q150 0 269 69.5t188.5 189.5t69.5 270q0 91 -49 140.5t-138 49.5
q-146 0 -231 -93.5t-120 -292.5z" />
    <glyph glyph-name="uni03C2" unicode="&#x3c2;" 
d="M435 -479q-47 0 -101.5 7t-134.5 23l49 184q129 -30 207 -30q110 0 172 32t62 108q0 53 -43.5 81.5t-120.5 53.5q-205 65 -302.5 185.5t-98.5 308.5q1 183 75.5 319.5t210 211.5t317.5 75q164 0 261 -52t147 -168l-155 -123q-52 80 -119 116.5t-162 36.5
q-163 0 -261.5 -107.5t-99.5 -286.5q0 -121 66.5 -200.5t207.5 -125.5q138 -45 214.5 -110t76.5 -203q0 -168 -123.5 -252t-344.5 -84z" />
    <glyph glyph-name="sigma" unicode="&#x3c3;" 
d="M515 -20q-205 0 -318 121t-113 341q0 187 78.5 326.5t220 217t330.5 77.5h520l-33 -190h-322q57 -92 85 -188.5t28 -192.5q0 -244 -124.5 -378t-351.5 -134zM655 870q-163 -19 -260 -135t-97 -297q0 -127 61 -197.5t171 -70.5q118 0 182.5 84t64.5 238q0 86 -29 183.5
t-93 194.5z" />
    <glyph glyph-name="tau" unicode="&#x3c4;" 
d="M707 -20q-203 0 -281 102t-40 318l83 470h-299l33 190h940l-33 -190h-427l-81 -460q-22 -124 16.5 -182t141.5 -58q76 0 203 38l-9 -186q-112 -42 -247 -42z" />
    <glyph glyph-name="upsilon" unicode="&#x3c5;" 
d="M543 -20q-190 0 -277 114t-52 316l56 320q14 77 -5.5 108.5t-81.5 31.5h-118l33 190h118q176 0 238.5 -74t31.5 -246l-58 -330q-42 -240 148 -240q191 0 233 240l114 650h214l-114 -650q-76 -430 -480 -430z" />
    <glyph glyph-name="phi" unicode="&#x3c6;" 
d="M534 -460h-215l81 448q-162 26 -248 134t-86 282q0 184 54.5 329t181.5 296l174 -122q-105 -114 -150.5 -223.5t-45.5 -246.5q0 -223 164 -275l124 699q21 117 78.5 168t169.5 51q149 0 232.5 -114.5t83.5 -319.5q0 -285 -137.5 -456.5t-385.5 -202.5zM629 160
q137 33 213 158t76 325q0 92 -32 165t-91 73q-39 0 -47 -50z" />
    <glyph glyph-name="chi" unicode="&#x3c7;" 
d="M13 -480l-146 140l579 654l-14 418q-3 85 -31 121.5t-90 36.5q-85 0 -155 -33l-51 174q74 26 128.5 37.5t106.5 11.5q149 0 215.5 -71.5t71.5 -237.5l7 -220l396 529l156 -140l-543 -646l14 -426q3 -85 31.5 -121.5t89.5 -36.5q85 0 173 40l54 -174q-70 -30 -129.5 -43
t-126.5 -13q-148 0 -215 71.5t-72 237.5l-8 236z" />
    <glyph glyph-name="psi" unicode="&#x3c8;" 
d="M318 -460l80 449q-178 32 -255 172.5t-37 368.5l93 530h214l-93 -530q-53 -307 130 -359l157 889h172l-157 -890q204 51 258 360l93 530h214l-93 -530q-86 -487 -483 -543l-79 -447h-214z" />
    <glyph glyph-name="omega" unicode="&#x3c9;" 
d="M730 -20q-108 0 -148 80.5t-22 259.5h-10q-46 -179 -114 -259.5t-172 -80.5q-124 0 -173.5 88.5t-21.5 251.5l130 740h214l-130 -740q-13 -76 3 -118t60 -42t74.5 36t46.5 124l95 540h180l-95 -540q-16 -89 -1 -124.5t66 -35.5q45 0 75.5 42t43.5 118l130 740h214
l-130 -740q-28 -163 -109 -251.5t-206 -88.5z" />
    <glyph glyph-name="iotadieresis" unicode="&#x3ca;" 
d="M966 225l69 -161q-61 -35 -129 -59.5t-156 -24.5q-368 0 -347 334q5 75 29.5 146t53 138t43.5 129q43 166 -151 166q-95 0 -183 -23l-21 182q59 17 118 22.5t118 5.5q207 0 291 -94.5t39 -278.5q-17 -71 -44.5 -132.5t-50.5 -121.5t-28 -130q-11 -153 172 -153
q50 0 87.5 12.5t89.5 42.5zM538 1238q-55 0 -94.5 39.5t-39.5 94.5q0 56 39.5 95t94.5 39q56 0 95 -39t39 -95q0 -55 -39 -94.5t-95 -39.5zM958 1238q-55 0 -94.5 39.5t-39.5 94.5q0 56 39.5 95t94.5 39q56 0 95 -39t39 -95q0 -55 -39 -94.5t-95 -39.5z" />
    <glyph glyph-name="upsilondieresis" unicode="&#x3cb;" 
d="M543 -20q-190 0 -277 114t-52 316l56 320q14 77 -5.5 108.5t-81.5 31.5h-118l33 190h118q176 0 238.5 -74t31.5 -246l-58 -330q-42 -240 148 -240q191 0 233 240l114 650h214l-114 -650q-76 -430 -480 -430zM538 1238q-55 0 -94.5 39.5t-39.5 94.5q0 56 39.5 95t94.5 39
q56 0 95 -39t39 -95q0 -55 -39 -94.5t-95 -39.5zM958 1238q-55 0 -94.5 39.5t-39.5 94.5q0 56 39.5 95t94.5 39q56 0 95 -39t39 -95q0 -55 -39 -94.5t-95 -39.5z" />
    <glyph glyph-name="omicrontonos" unicode="&#x3cc;" 
d="M502 -20q-177 0 -276.5 101.5t-99.5 282.5q0 338 151 527t419 189q177 0 276.5 -104t99.5 -290q0 -333 -150.5 -519.5t-419.5 -186.5zM539 169q150 0 234.5 125.5t84.5 348.5q0 116 -50 181.5t-141 65.5q-154 0 -240.5 -125t-86.5 -348q0 -117 52.5 -182.5t146.5 -65.5z
M627 1248l217 380h246l-267 -380h-196z" />
    <glyph glyph-name="upsilontonos" unicode="&#x3cd;" 
d="M543 -20q-190 0 -277 114t-52 316l56 320q14 77 -5.5 108.5t-81.5 31.5h-118l33 190h118q176 0 238.5 -74t31.5 -246l-58 -330q-42 -240 148 -240q191 0 233 240l114 650h214l-114 -650q-76 -430 -480 -430zM655 1248l217 380h246l-267 -380h-196z" />
    <glyph glyph-name="omegatonos" unicode="&#x3ce;" 
d="M730 -20q-108 0 -148 80.5t-22 259.5h-10q-46 -179 -114 -259.5t-172 -80.5q-124 0 -173.5 88.5t-21.5 251.5l130 740h214l-130 -740q-13 -76 3 -118t60 -42t74.5 36t46.5 124l95 540h180l-95 -540q-16 -89 -1 -124.5t66 -35.5q45 0 75.5 42t43.5 118l130 740h214
l-130 -740q-28 -163 -109 -251.5t-206 -88.5zM654 1248l217 380h246l-267 -380h-196z" />
    <glyph glyph-name="uni03CF" unicode="&#x3cf;" 
d="M57 0l250 1420h208l-152 -863q202 56 339.5 181.5t218.5 300.5t116 381h214q-42 -254 -152.5 -469t-285.5 -365l177 -418q35 -82 49 -153t14 -138q0 -184 -89.5 -270.5t-278.5 -86.5q-52 0 -111.5 3.5t-145.5 18.5l50 189q92 -21 153 -21q207 0 207 165q0 39 -10.5 86
t-35.5 108l-164 391q-140 -76 -301 -111l-62 -349h-208z" />
    <glyph glyph-name="uni03D7" unicode="&#x3d7;" 
d="M635 -480q-52 0 -111.5 3.5t-145.5 18.5l50 189q92 -21 153 -21q207 0 207 125q0 33 -16 71t-53 83l-340 424l-30 -20l-69 -393h-215l187 1060h215l-71 -404l645 434l112 -159l-598 -401l362 -442q86 -106 86 -251q0 -163 -89.5 -240t-278.5 -77z" />
    <glyph glyph-name="uni0400" unicode="&#x400;" 
d="M67 0l250 1420h939l-33 -190h-730l-75 -424h550l-33 -190h-551l-75 -426h730l-33 -190h-939zM699 1580l-216 250h292l166 -250h-242z" />
    <glyph glyph-name="uni0401" unicode="&#x401;" 
d="M67 0l250 1420h939l-33 -190h-730l-75 -424h550l-33 -190h-551l-75 -426h730l-33 -190h-939zM641 1580q-55 0 -94.5 39.5t-39.5 94.5q0 56 39.5 95t94.5 39q56 0 95 -39t39 -95q0 -55 -39 -94.5t-95 -39.5zM1057 1580q-55 0 -94.5 39.5t-39.5 94.5q0 56 39.5 95t94.5 39
q56 0 95 -39t39 -95q0 -55 -39 -94.5t-95 -39.5z" />
    <glyph glyph-name="uni0402" unicode="&#x402;" 
d="M526 -20l7 190h17q84 0 154 41.5t112 119.5t42 187q0 122 -59 178t-166 56q-70 0 -158 -44l-125 -708h-208l217 1230h-216l34 190h792l-34 -190h-368l-57 -321q85 30 169 30q181 0 287 -111.5t106 -299.5q0 -85 -29.5 -180.5t-92 -179t-162.5 -136t-241 -52.5h-21z" />
    <glyph glyph-name="uni0403" unicode="&#x403;" 
d="M89 0l248 1420h909l-33 -190h-700l-217 -1230h-207zM654 1580l210 251h284l-262 -251h-232z" />
    <glyph glyph-name="uni0404" unicode="&#x404;" 
d="M666 -20q-561 0 -561 543q0 203 58.5 371t165.5 290t254.5 189t325.5 67q221 0 344 -159l-143 -147q-97 122 -230 122q-187 0 -326.5 -119t-201.5 -315h515l-33 -190h-520q-5 -50 -5 -102q0 -366 384 -366q170 0 347 60l14 -176q-192 -68 -388 -68z" />
    <glyph glyph-name="uni0405" unicode="&#x405;" 
d="M486 -20q-259 0 -438 88l62 182q205 -86 395 -86q307 0 307 185q0 56 -22 97.5t-72 81.5l-286 232q-77 63 -112.5 145.5t-35.5 161.5q0 184 116.5 278.5t338.5 94.5q277 0 438 -169l-145 -152q-148 137 -305 137q-110 0 -169.5 -43.5t-59.5 -128.5q0 -45 24 -98t77 -96
l246 -198q95 -77 138 -150.5t43 -169.5q0 -193 -137 -292.5t-403 -99.5z" />
    <glyph glyph-name="uni0406" unicode="&#x406;" 
d="M75 0l33 190h328l184 1040h-328l33 190h863l-33 -190h-327l-184 -1040h327l-33 -190h-863z" />
    <glyph glyph-name="uni0407" unicode="&#x407;" 
d="M75 0l33 190h328l184 1040h-328l33 190h863l-33 -190h-327l-184 -1040h327l-33 -190h-863zM601 1580q-55 0 -94.5 39.5t-39.5 94.5q0 56 39.5 95t94.5 39q56 0 95 -39t39 -95q0 -55 -39 -94.5t-95 -39.5zM1017 1580q-55 0 -94.5 39.5t-39.5 94.5q0 56 39.5 95t94.5 39
q56 0 95 -39t39 -95q0 -55 -39 -94.5t-95 -39.5z" />
    <glyph glyph-name="uni0408" unicode="&#x408;" 
d="M498 -20q-244 0 -357 130.5t-64 365.5h208q-25 -148 34 -230t195 -82q140 0 221 76t109 236l133 754h-360l34 190h567l-166 -944q-45 -255 -178.5 -375.5t-375.5 -120.5z" />
    <glyph glyph-name="uni0409" unicode="&#x409;" 
d="M11 -20q-25 0 -54 6l36 200q14 -2 21 -2q69 3 114 85t83 247.5t84 416.5q23 122 45.5 244t44.5 243h518l-77 -437q147 -15 224 -106t77 -250q0 -121 -31 -233t-91 -200t-148.5 -140t-203.5 -54v0h-188l217 1230h-168l-30 -164t-31 -164q-37 -198 -73 -366t-83.5 -293
t-116 -194t-169.5 -69zM687 190q82 1 137.5 59.5t84 152.5t28.5 202q0 175 -144 190z" />
    <glyph glyph-name="uni040A" unicode="&#x40a;" 
d="M35 0l250 1420h208l-77 -435h222l77 435h188l-77 -437q147 -15 224 -106t77 -250q0 -121 -31 -233t-91 -200t-148.5 -140t-203.5 -54v0h-188l140 795h-222l-140 -795h-208zM793 794l-107 -604q82 1 138 59.5t84.5 152.5t28.5 202q0 175 -144 190z" />
    <glyph glyph-name="uni040B" unicode="&#x40b;" 
d="M147 0l217 1230h-221l34 190h791l-34 -190h-362l-60 -337q90 32 195 32q125 0 200 -48t108.5 -131t33.5 -189q0 -89 -17 -190.5t-34 -195.5l-31 -171h-205l29 171q17 98 34.5 191.5t17.5 158.5q0 103 -40.5 160t-141.5 57q-91 0 -184 -46l-122 -692h-208z" />
    <glyph glyph-name="uni040C" unicode="&#x40c;" 
d="M67 0l250 1420h208l-123 -699h228q80 67 151.5 161.5t129.5 196t99.5 192t61.5 149.5h217q-26 -84 -73 -190t-111.5 -218t-143.5 -216t-169 -184l247 -612h-234l-205 531h-232l-93 -531h-208zM654 1580l210 251h284l-262 -251h-232z" />
    <glyph glyph-name="uni040D" unicode="&#x40d;" 
d="M55 0l250 1420h200l-188 -1070h22l643 1070h227l-250 -1420h-200l188 1070h-21l-644 -1070h-227zM659 1580l-216 250h292l166 -250h-242z" />
    <glyph glyph-name="uni040E" unicode="&#x40e;" 
d="M208 -20q-42 0 -79.5 4t-74.5 16l32 186q23 -6 49 -11t70 -5q95 0 178 41t157 114l-327 1073l209 32l251 -915h17q81 124 153 274t130.5 311.5t99.5 318.5h214q-53 -201 -132 -399.5t-175.5 -376.5t-203.5 -318q-119 -157 -260 -251t-308 -94zM757 1568q-128 0 -199 58.5
t-71 147.5q0 59 30 119l177 -22q-22 -37 -22 -73q0 -37 26.5 -62.5t78.5 -25.5q65 0 137.5 45t117.5 126l10 18l141 -79l-14 -22q-84 -132 -197.5 -181t-214.5 -49z" />
    <glyph glyph-name="uni040F" unicode="&#x40f;" 
d="M509 -321l-187 40q33 68 61.5 142.5t41.5 138.5h-378l250 1420h208l-217 -1230h504l217 1230h208l-250 -1420h-356q-18 -87 -44 -173.5t-58 -147.5z" />
    <glyph glyph-name="uni0410" unicode="&#x410;" 
d="M-48 0l630 1421h321q26 -113 49.5 -256.5t43 -300.5t34 -313.5t23 -298t9.5 -252.5h-212q1 69 -2.5 158t-10.5 188h-513l-150 -346h-222zM407 536h415q-12 131 -26.5 261.5t-30 247t-30.5 204.5h-18z" />
    <glyph glyph-name="uni0411" unicode="&#x411;" 
d="M67 0l250 1420h854l-33 -190h-646l-55 -308q67 15 143 17q243 6 386.5 -104t143.5 -313q0 -157 -79 -274.5t-230.5 -182.5t-369.5 -65h-364zM403 728l-94 -538h169q196 0 307 90t111 236q0 121 -91.5 180t-252.5 52q-41 -2 -77.5 -7t-71.5 -13z" />
    <glyph glyph-name="uni0412" unicode="&#x412;" 
d="M67 0l250 1420q102 20 258 20q271 0 410.5 -86t139.5 -253q0 -293 -383 -331l-7 -35q176 -7 273.5 -89.5t97.5 -223.5q0 -217 -154.5 -319.5t-480.5 -102.5h-404zM308 190h143q227 0 334 62.5t107 195.5q0 98 -80.5 153t-223.5 55h-198zM424 846h176q307 0 307 212
q0 192 -335 192q-40 0 -77 -1z" />
    <glyph glyph-name="uni0413" unicode="&#x413;" 
d="M89 0l248 1420h909l-33 -190h-700l-217 -1230h-207z" />
    <glyph glyph-name="uni0414" unicode="&#x414;" 
d="M72 -321l-185 40q18 62 39 147.5t40.5 172.5t31.5 151h99q54 65 104.5 188.5t95 279t80.5 315.5l100 447h712l-217 -1230h132q-5 -56 -17 -128t-28 -146t-32.5 -136.5t-30.5 -100.5l-183 40q24 68 44 143t34 138h-741q-19 -86 -37.5 -166t-40.5 -155zM764 190l183 1040
h-317l-64 -284q-36 -161 -79 -307.5t-89 -262.5t-92 -186h458z" />
    <glyph glyph-name="uni0415" unicode="&#x415;" 
d="M67 0l250 1420h939l-33 -190h-730l-75 -424h550l-33 -190h-551l-75 -426h730l-33 -190h-939z" />
    <glyph glyph-name="uni0416" unicode="&#x416;" 
d="M412 0l99 561h-117q-79 -148 -134 -277.5t-118 -283.5h-208q42 100 82.5 195t96 208.5t141.5 271.5l-58 745h202l20 -669h127l118 669h188l-118 -669h119q41 76 81 168t76 185.5t65.5 176t48.5 139.5h188q-22 -78 -56.5 -175t-76.5 -199t-87.5 -198t-88.5 -171l78 -677
h-201l-49 561h-131l-99 -561h-188z" />
    <glyph glyph-name="uni0417" unicode="&#x417;" 
d="M470 -20q-164 0 -283.5 49.5t-193.5 122.5l115 155q50 -52 147.5 -97.5t236.5 -45.5q97 0 175.5 33t124.5 93.5t46 143.5q0 88 -86 137.5t-236 51.5h-61l-6 174q44 8 84.5 17.5t68.5 16.5q161 41 239 110t78 157q0 82 -57 120t-153 38q-90 0 -190.5 -39t-187.5 -106
l-107 144q122 98 246 141.5t266 43.5q190 0 293.5 -76t103.5 -209q0 -142 -99 -251t-295 -132l-2 -31h8q142 -16 224.5 -95.5t82.5 -207.5q0 -132 -76.5 -235.5t-208 -163t-297.5 -59.5z" />
    <glyph glyph-name="uni0418" unicode="&#x418;" 
d="M55 0l250 1420h200l-188 -1070h22l643 1070h227l-250 -1420h-200l188 1070h-21l-644 -1070h-227z" />
    <glyph glyph-name="uni0419" unicode="&#x419;" 
d="M55 0l250 1420h200l-188 -1070h22l643 1070h227l-250 -1420h-200l188 1070h-21l-644 -1070h-227zM757 1568q-128 0 -199 58.5t-71 147.5q0 59 30 119l177 -22q-22 -37 -22 -73q0 -37 26.5 -62.5t78.5 -25.5q65 0 137.5 45t117.5 126l10 18l141 -79l-14 -22
q-84 -132 -197.5 -181t-214.5 -49z" />
    <glyph glyph-name="uni041A" unicode="&#x41a;" 
d="M67 0l250 1420h208l-123 -699h228q80 67 151.5 161.5t129.5 196t99.5 192t61.5 149.5h217q-26 -84 -73 -190t-111.5 -218t-143.5 -216t-169 -184l247 -612h-234l-205 531h-232l-93 -531h-208z" />
    <glyph glyph-name="uni041B" unicode="&#x41b;" 
d="M16 -20q-39 0 -75 7l36 202q17 -4 37 -4q81 0 141 70t105 185t78 252t58 272q21 114 45 228t45 228h731l-250 -1420h-208l217 1230h-330q-15 -70 -27.5 -137t-24.5 -129q-27 -143 -60.5 -285t-78 -267.5t-106 -223t-143.5 -153t-190 -55.5z" />
    <glyph glyph-name="uni041C" unicode="&#x41c;" 
d="M40 0l245 1420h295l64 -610h16l254 610h315l-250 -1420h-205l206 1168h-26l-256 -588h-67l-104 -1l-50 589h-26l-206 -1168h-205z" />
    <glyph glyph-name="uni041D" unicode="&#x41d;" 
d="M759 0l108 612h-504l-108 -612h-208l250 1420h208l-109 -618h504l109 618h208l-250 -1420h-208z" />
    <glyph glyph-name="uni041E" unicode="&#x41e;" 
d="M513 -20q-195 0 -304 128.5t-109 357.5q0 306 77.5 524t223.5 334t351 116q194 0 303 -125.5t109 -349.5q0 -309 -77.5 -529.5t-223 -338t-350.5 -117.5zM539 164q194 0 302.5 205t108.5 571q0 149 -57.5 232.5t-161.5 83.5q-196 0 -306.5 -202t-110.5 -563
q0 -154 59.5 -240.5t165.5 -86.5z" />
    <glyph glyph-name="uni041F" unicode="&#x41f;" 
d="M759 0l217 1230h-504l-217 -1230h-208l250 1420h920l-250 -1420h-208z" />
    <glyph glyph-name="uni0420" unicode="&#x420;" 
d="M67 0l250 1420q128 20 328 20q269 0 407 -114t138 -335q0 -303 -215.5 -462.5t-636.5 -168.5l-63 -360h-208zM372 551q298 7 451 115.5t153 311.5q0 272 -364 272q-61 0 -117 -2z" />
    <glyph glyph-name="uni0421" unicode="&#x421;" 
d="M666 -20q-561 0 -561 543q0 203 58.5 371t165.5 290t254.5 189t325.5 67q221 0 344 -159l-143 -147q-97 122 -230 122q-161 0 -288 -94.5t-200 -258.5t-73 -373q0 -366 374 -366q170 0 347 60l14 -176q-192 -68 -388 -68z" />
    <glyph glyph-name="uni0422" unicode="&#x422;" 
d="M402 0l217 1230h-415l33 190h1039l-33 -190h-416l-217 -1230h-208z" />
    <glyph glyph-name="uni0423" unicode="&#x423;" 
d="M208 -20q-42 0 -79.5 4t-74.5 16l32 186q23 -6 49 -11t70 -5q95 0 178 41t157 114l-327 1073l209 32l251 -915h17q81 124 153 274t130.5 311.5t99.5 318.5h214q-53 -201 -132 -399.5t-175.5 -376.5t-203.5 -318q-119 -157 -260 -251t-308 -94z" />
    <glyph glyph-name="uni0424" unicode="&#x424;" 
d="M418 -20l29 167q-171 23 -264 128.5t-93 299.5q0 208 70 364.5t196 249t294 108.5l28 163h169l-29 -166q172 -23 265.5 -129t93.5 -300q0 -208 -70.5 -365t-197 -249.5t-293.5 -107.5l-29 -163h-169zM779 1128l-144 -819q154 25 248 169.5t94 365.5q0 246 -198 284z
M486 312l145 819q-101 -18 -177.5 -89t-120 -185t-43.5 -261q0 -246 196 -284z" />
    <glyph glyph-name="uni0425" unicode="&#x425;" 
d="M161 -40l-156 140l527 608l-7 384q-1 83 -36.5 120.5t-76.5 37.5q-70 0 -137 -35l-59 171q131 54 225 54q69 0 128.5 -32t97 -100t39.5 -177l3 -185l343 494l166 -140l-504 -611l6 -361q2 -82 41.5 -120t91.5 -38q69 0 137 45l59 -171q-112 -64 -225 -64t-197.5 73
t-87.5 236l-3 172z" />
    <glyph glyph-name="uni0426" unicode="&#x426;" 
d="M732 0h-685l250 1420h208l-217 -1230h477l217 1230h208l-217 -1230h121q-6 -74 -24.5 -168.5t-45.5 -186t-61 -156.5l-187 40q33 68 61.5 142.5t41.5 138.5h-147z" />
    <glyph glyph-name="uni0427" unicode="&#x427;" 
d="M637 493q-202 0 -320.5 115t-118.5 314q0 82 16 186.5t41 204.5l26 107h201l-25 -121q-20 -97 -37 -188t-17 -170q0 -256 262 -256q65 0 118 15.5t107 43.5l119 676h208l-250 -1420h-208l94 534q-48 -19 -102 -30t-114 -11z" />
    <glyph glyph-name="uni0428" unicode="&#x428;" 
d="M35 0l250 1420h208l-218 -1240h184l218 1240h160l-218 -1240h184l218 1240h208l-250 -1420h-944z" />
    <glyph glyph-name="uni0429" unicode="&#x429;" 
d="M779 0h-744l250 1420h200l-218 -1240h192l218 1240h160l-218 -1240h192l218 1240h200l-218 -1240h83q-6 -59 -24.5 -152t-45.5 -188.5t-61 -160.5l-187 40q33 68 61 142.5t41 138.5h-99z" />
    <glyph glyph-name="uni042A" unicode="&#x42a;" 
d="M147 0l217 1230h-251l34 190h458l-80 -452q59 15 130 15q64 0 143.5 -18.5t153 -64t121 -126.5t47.5 -206q0 -165 -62.5 -274.5t-162.5 -174t-215 -92t-220 -27.5h-313zM388 190h105q26 0 75 6.5t107 26.5t110.5 59.5t86.5 104t34 160.5t-46 149.5t-112 74.5t-125 21
q-70 0 -131 -16z" />
    <glyph glyph-name="uni042B" unicode="&#x42b;" 
d="M35 0l250 1420h198l-78 -441q21 3 48 3q125 0 210.5 -90.5t85.5 -266.5q0 -175 -60 -317t-174 -225t-277 -83h-203zM771 0l250 1420h208l-250 -1420h-208zM267 190h5q97 -1 160.5 60.5t95 155.5t31.5 191q0 101 -43 148t-115 47q-14 0 -29 -1z" />
    <glyph glyph-name="uni042C" unicode="&#x42c;" 
d="M385 0h-338l250 1420h208l-80 -454q35 7 75.5 11.5t86.5 4.5q154 0 271 -50t183 -147.5t66 -241.5q0 -168 -87.5 -289.5t-249 -187.5t-385.5 -66zM288 190h126q141 0 249 41t169 118.5t61 186.5q0 133 -91.5 195.5t-245.5 61.5q-46 0 -87.5 -4.5t-76.5 -10.5z" />
    <glyph glyph-name="uni042D" unicode="&#x42d;" 
d="M381 -20q-136 0 -223 38.5t-151 120.5l143 147q50 -63 109.5 -92.5t150.5 -29.5q121 0 223.5 58.5t177 164t111.5 245.5h-512l33 190h509q2 34 2 68q0 173 -88.5 267t-255.5 98q-100 3 -180.5 -18t-152.5 -51l-38 168q98 44 196.5 64.5t198.5 20.5q266 0 395 -142.5
t129 -399.5q0 -202 -57 -370.5t-161 -290.5t-246 -189t-313 -67z" />
    <glyph glyph-name="uni042E" unicode="&#x42e;" 
d="M688 -20q-143 0 -208.5 125t-50.5 361q5 76 12 146h-148l-108 -612h-198l250 1420h198l-109 -618h141q54 312 166.5 475t283.5 163q146 0 212.5 -125.5t51.5 -349.5q-31 -472 -158 -728.5t-335 -256.5zM707 164q95 0 168 205t104 571q13 149 -10.5 232.5t-85.5 83.5
q-97 0 -170 -202t-103 -563q-13 -154 10.5 -240.5t86.5 -86.5z" />
    <glyph glyph-name="uni042F" unicode="&#x42f;" 
d="M755 454q-100 0 -186 17l-342 -471h-248l404 539q-198 118 -198 367q0 166 88 285.5t246.5 184t368.5 64.5q211 0 331 -20l-14 -73l-238 -1347h-208l81 459q-45 -5 -85 -5zM874 653l106 595q-59 2 -121 2q-131 0 -235 -33.5t-164.5 -107t-60.5 -195.5q0 -136 97.5 -203
t284.5 -67q41 0 93 9z" />
    <glyph glyph-name="uni0430" unicode="&#x430;" 
d="M347 -21q-136 0 -210 78t-74 220q0 180 76.5 326.5t214.5 250.5t323 160t402 56h20l-132 -753q-14 -80 12.5 -116t114.5 -36h41l-30 -175h-71q-147 0 -203 59t-43 202h-26q-61 -130 -168.5 -201t-246.5 -71zM412 169q144 0 251 130t150 368l37 204
q-164 -25 -293.5 -104.5t-204.5 -199t-75 -265.5q0 -64 35.5 -98.5t99.5 -34.5z" />
    <glyph glyph-name="uni0431" unicode="&#x431;" 
d="M536 -20q-218 0 -313 132.5t-95 356.5q0 197 45 376.5t136 315.5q83 122 204.5 201.5t280.5 102.5q55 8 132 14t155.5 15t137.5 25l6 -195q-39 -18 -115 -26.5t-158.5 -14t-142.5 -15.5q-194 -31 -304.5 -165.5t-131.5 -334.5h21q35 92 93 144.5t127 74.5t136 22
q98 0 177 -44t124.5 -132.5t41.5 -222.5q-5 -187 -76 -329t-194.5 -221.5t-286.5 -79.5zM566 170q133 0 219.5 115t93.5 305q4 111 -46.5 170t-152.5 59q-89 0 -157 -42.5t-111 -97t-58 -89.5q-37 -226 26.5 -323t185.5 -97z" />
    <glyph glyph-name="uni0432" unicode="&#x432;" 
d="M883 678v-30q101 -27 147.5 -84.5t46.5 -165.5q0 -109 -61 -204.5t-172 -154.5t-261 -59q-136 0 -223 43t-135 118t-66.5 171.5t-18.5 203.5q0 135 15 232t34 181q39 166 120.5 299.5t206.5 212t294 78.5q187 0 285 -95t98 -255q0 -163 -84 -285.5t-226 -205.5zM360 698
q178 23 318 83.5t220.5 156t80.5 222.5q0 89 -48.5 129t-133.5 40q-109 0 -189 -58t-133 -156t-82 -219q-11 -47 -19.5 -97t-13.5 -101zM755 615q-90 -36 -192 -60.5t-212 -37.5q1 -173 59 -260t190 -87q84 0 143 36t90 93.5t31 122.5q0 83 -25.5 128.5t-83.5 64.5z" />
    <glyph glyph-name="uni0433" unicode="&#x433;" 
d="M516 -20q-109 0 -197.5 27t-140.5 85.5t-52 153.5q0 98 52 162t134 105.5t174.5 70t174.5 55.5t134 61.5t52 88.5q0 44 -45.5 72.5t-153.5 28.5q-92 0 -185 -37.5t-182 -80.5l-90 162q95 56 218 101t250 45q154 0 242.5 -39.5t126 -103t37.5 -134.5q0 -96 -52 -158.5
t-134 -103t-174.5 -68.5t-174.5 -54.5t-134 -61t-52 -88.5q0 -46 45 -72.5t142 -26.5q84 0 193 23.5t212 78.5l61 -162q-65 -50 -151.5 -78.5t-173.5 -40t-156 -11.5z" />
    <glyph glyph-name="uni0434" unicode="&#x434;" 
d="M459 -20q-109 0 -177 33t-104 86.5t-48.5 117.5t-11.5 126q4 189 79.5 339.5t211.5 238.5t320 88q79 0 162 -18q-8 180 -69.5 259.5t-198.5 79.5q-73 0 -137 -20t-146 -56l-53 174q79 36 160 64t199 28q152 0 254 -59.5t154 -193.5t52 -356q0 -274 -75.5 -484
t-219.5 -328.5t-352 -118.5zM890 810q-69 15 -135 15q-136 0 -230 -61t-143 -162t-50 -222q-1 -112 42.5 -161t125.5 -49q122 0 205 87t128.5 232.5t56.5 320.5z" />
    <glyph glyph-name="uni0435" unicode="&#x435;" 
d="M587 170q80 0 171 25t175 70l69 -171q-98 -54 -210 -84t-214 -30q-206 0 -321.5 108t-115.5 301q0 208 78.5 363t219.5 241.5t329 86.5q148 0 230.5 -74t82.5 -206q0 -193 -195.5 -306t-545.5 -123q9 -95 74 -148t173 -53zM350 532q245 10 381 76.5t136 178.5
q0 48 -33 75.5t-94 27.5q-151 0 -254.5 -97t-135.5 -261z" />
    <glyph glyph-name="uni0436" unicode="&#x436;" 
d="M-18 -2q-9 0 -18 0.5t-18 1.5l33 183q74 1 131 90.5t82 236.5l9 52q29 169 10 242t-88 73q-6 0 -12 -0.5t-13 -1.5l34 185q12 2 23.5 2h22.5q151 0 200 -115.5t19 -330.5l128 1l78 443h180l-78 -444h128q44 209 142.5 327.5t242.5 118.5q9 0 18 -0.5t18 -1.5l-33 -183
q-74 -1 -130.5 -90.5t-82.5 -236.5l-9 -52q-29 -169 -10 -242t88 -73q6 0 12 0.5t13 1.5l-34 -185q-12 -1 -23.5 -1.5t-22.5 -0.5q-151 0 -199.5 115t-19.5 329h-128l-78 -442h-180l78 442h-129q-43 -209 -142 -326.5t-242 -117.5z" />
    <glyph glyph-name="uni0437" unicode="&#x437;" 
d="M450 -480q-194 0 -307.5 71.5t-174.5 195.5l162 127q111 -206 346 -206q142 0 224 71.5t82 175.5q0 80 -46.5 140.5t-125 94t-174.5 33.5h-61l-3 122v0l-1 56q41 8 83 18.5t69 17.5q165 46 243 120.5t78 165.5q0 82 -56 125.5t-146 43.5t-186.5 -42t-184.5 -114l-105 147
q121 104 243 150.5t256 46.5q188 0 291 -81t103 -222q0 -91 -44.5 -176.5t-133 -146.5t-221.5 -79l-2 -32h8q147 -28 238.5 -127.5t91.5 -247.5q0 -125 -69 -226.5t-192 -161.5t-285 -60z" />
    <glyph glyph-name="uni0438" unicode="&#x438;" 
d="M392 -21q-140 0 -217 83.5t-77 234.5q0 153 49.5 338.5t159.5 444.5l212 -39q-109 -265 -158 -435.5t-49 -283.5q0 -73 38 -113t107 -40q133 0 220 128.5t133 369.5v-1l70 394h217l-128 -721q-17 -96 9.5 -135t114.5 -39h43l-31 -175h-47q-158 0 -222.5 62t-48.5 199h-22
q-34 -84 -78.5 -145t-114.5 -94t-180 -33z" />
    <glyph glyph-name="uni0439" unicode="&#x439;" 
d="M392 -21q-140 0 -217 83.5t-77 234.5q0 153 49.5 338.5t159.5 444.5l212 -39q-109 -265 -158 -435.5t-49 -283.5q0 -73 38 -113t107 -40q133 0 220 128.5t133 369.5v-1l70 394h217l-128 -721q-17 -96 9.5 -135t114.5 -39h43l-31 -175h-47q-158 0 -222.5 62t-48.5 199h-22
q-34 -84 -78.5 -145t-114.5 -94t-180 -33zM704 1220q-126 0 -206.5 67.5t-80.5 170.5q0 58 28 118l176 -16q-16 -43 -16 -78q0 -49 29 -82t90 -33q75 0 152 57t125 166l139 -84q-89 -160 -207.5 -223t-228.5 -63z" />
    <glyph glyph-name="uni043A" unicode="&#x43a;" 
d="M945 -20q-170 0 -303 132.5t-186 391.5q145 64 235.5 143t140.5 180t72 232l223 21q-29 -183 -94.5 -309.5t-154.5 -208.5t-188 -131q45 -143 124 -202t155 -59q33 0 51.5 1.5t40.5 3.5l19 -181q-31 -6 -62.5 -10t-72.5 -4zM65 0l186 1060h215l-186 -1060h-215z" />
    <glyph glyph-name="uni043B" unicode="&#x43b;" 
d="M731 0q24 88 49 189t42 204.5t17 197.5q0 146 -47.5 206.5t-151.5 78.5l-12 -61q-30 -160 -75 -310t-110 -268t-156.5 -187.5t-214.5 -69.5q-22 0 -40 3.5t-43 14.5l32 179q15 -4 19 -5.5t16 -1.5q75 0 135.5 61.5t107.5 160.5t80 216t54 228l10 53q-18 1 -37.5 1
t-39.5 1q-21 0 -44 0.5t-47 0.5l32 188q189 1 329 -12t233 -59t138.5 -140.5t45.5 -256.5q0 -97 -15 -205.5t-38.5 -213.5t-49.5 -193h-219z" />
    <glyph glyph-name="uni043C" unicode="&#x43c;" 
d="M35 0l186 1060h299l58 -610h16l272 610h299l-186 -1060h-205l142 808h-26l-260 -588h-170l-52 588h-26l-142 -808h-205z" />
    <glyph glyph-name="uni043D" unicode="&#x43d;" 
d="M75 0l186 1060h215l-78 -443h440l84 443h214l-146 -770q-13 -73 -0.5 -103t65.5 -30q28 0 62 3l-34 -175q-19 -3 -41.5 -4t-49.5 -1q-142 0 -195 71.5t-23 228.5l31 163h-437l-78 -443h-215z" />
    <glyph glyph-name="uni043E" unicode="&#x43e;" 
d="M502 -20q-177 0 -276.5 101.5t-99.5 282.5q0 338 151 527t419 189q177 0 276.5 -104t99.5 -290q0 -333 -150.5 -519.5t-419.5 -186.5zM539 169q150 0 234.5 125.5t84.5 348.5q0 116 -50 181.5t-141 65.5q-154 0 -240.5 -125t-86.5 -348q0 -117 52.5 -182.5t146.5 -65.5z
" />
    <glyph glyph-name="uni043F" unicode="&#x43f;" 
d="M75 0l187 1060h177l-7 -241h20q32 125 127 193t228 68q322 0 254 -383l-123 -697h-215l123 705q32 185 -119 185q-80 0 -148.5 -45.5t-123 -151.5t-93.5 -286l-72 -407h-215z" />
    <glyph glyph-name="uni0440" unicode="&#x440;" 
d="M209 -460h-215l267 1520h179l-7 -241h17q49 125 153.5 193t251.5 68q131 0 203.5 -83.5t72.5 -236.5q0 -167 -57.5 -309t-161.5 -248t-243.5 -164.5t-303.5 -58.5q-38 0 -78 2zM321 172q32 -2 66 -2q151 0 271 72t189.5 196.5t69.5 281.5q0 81 -37 125.5t-105 44.5
q-80 0 -161.5 -48.5t-148 -152t-100.5 -267.5z" />
    <glyph glyph-name="uni0441" unicode="&#x441;" 
d="M556 170q104 0 203.5 34t176.5 89l72 -164q-98 -67 -224 -108t-257 -41q-197 0 -305 102t-108 287q0 215 75 374.5t210.5 248t317.5 88.5q164 0 261 -52t147 -168l-155 -123q-52 80 -119 116.5t-162 36.5q-108 0 -189.5 -62t-126 -174t-45.5 -263q1 -105 60.5 -163
t167.5 -58z" />
    <glyph glyph-name="uni0442" unicode="&#x442;" 
d="M386 1060l-8 -161h19q25 98 76.5 139.5t124.5 41.5q75 0 114.5 -43.5t38.5 -137.5h16q27 99 83.5 140t136.5 41q198 0 149 -280l-141 -800h-215l146 828q14 82 -49 82q-56 0 -98.5 -78t-72.5 -223l-19 -106q-1 -3 -1 -6v1l-89 -498h-180l146 828q15 82 -52 82
q-55 0 -99.5 -86t-75.5 -245l-12 -70l-2 -12v2l-88 -499h-215l187 1060h180z" />
    <glyph glyph-name="uni0443" unicode="&#x443;" 
d="M3 -472l-89 175q180 79 326 175t261 213q-232 369 -398 969l221 20q126 -516 321 -815q113 159 187.5 356t116.5 439h214q-75 -389 -221 -678.5t-376.5 -497.5t-562.5 -356z" />
    <glyph glyph-name="uni0444" unicode="&#x444;" 
d="M611 -480q-172 0 -236.5 82.5t-11.5 271.5q2 8 16.5 59t33 115.5t32.5 113.5h-25q-22 -86 -72 -134t-126 -48q-100 0 -150.5 83t-50.5 239q0 128 34 264.5t101 253t165.5 188.5t228.5 72q31 0 69 -5l19 91q17 83 -19 125t-139 42q-24 0 -55 -2.5t-62 -7.5l-22 183
q44 8 89 11t79 3q221 0 292 -94.5t28 -279.5q-13 -56 -34 -122.5t-39 -125.5h24q23 86 72.5 134t125.5 48q100 0 150.5 -83t50.5 -239q0 -128 -34 -264.5t-101 -253t-165.5 -188.5t-228.5 -72q-36 0 -79 6l-23 -132q-13 -79 8.5 -113t88.5 -34q18 0 43 2.5t50 8.5l21 -182
q-37 -9 -75.5 -12.5t-72.5 -3.5zM680 511l-67 -343q24 -4 46 -4q80 0 138 55t95 141.5t55 184t18 183.5q0 182 -85 182q-58 0 -106.5 -89.5t-93.5 -309.5zM523 578l59 314q-21 4 -41 4q-80 0 -138 -55t-95 -141.5t-55 -184t-18 -183.5q0 -182 85 -182q60 0 109 96.5
t94 334.5v-3z" />
    <glyph glyph-name="uni0445" unicode="&#x445;" 
d="M177 -41l-136 150l454 433l-13 190q-6 83 -39 120.5t-82 37.5q-40 0 -77 -7.5t-78 -25.5l-51 174q138 49 235 49q119 0 192.5 -72t84.5 -237l3 -42l320 371l146 -150l-452 -436l13 -186q6 -83 38 -120.5t83 -37.5q84 0 173 40l54 -174q-129 -56 -256 -56q-120 0 -193 72
t-84 237l-3 39z" />
    <glyph glyph-name="uni0446" unicode="&#x446;" 
d="M575 -480l-11 190q140 6 222 54t123 139q19 42 31 98q-92 20 -128.5 81t-24.5 169h-22q-34 -84 -78.5 -145t-114.5 -94t-180 -33q-140 0 -217 83.5t-77 234.5q0 153 49.5 338.5t159.5 444.5l212 -39q-109 -265 -158 -435.5t-49 -283.5q0 -73 38 -113t107 -40
q133 0 220 128.5t133 369.5v-1l70 394h217l-128 -721q-17 -96 9.5 -135t114.5 -39h43l-31 -175h-1q-8 -42 -17.5 -79.5t-22.5 -70.5q-58 -148 -179.5 -234.5t-309.5 -85.5z" />
    <glyph glyph-name="uni0447" unicode="&#x447;" 
d="M463 317q-157 0 -239.5 93t-82.5 242q0 95 27.5 199.5t72.5 228.5l212 -39q-44 -117 -71 -205t-27 -156q0 -73 43.5 -124t147.5 -49q96 2 174 69.5t109 187.5l-1 -8l58 304h214l-146 -770q-13 -73 -0.5 -103t65.5 -30q28 0 62 3l-34 -175q-19 -3 -41.5 -4t-49.5 -1
q-142 0 -195 71.5t-23 228.5l42 219h-24q-21 -42 -60.5 -84t-97.5 -70t-135 -28z" />
    <glyph glyph-name="uni0448" unicode="&#x448;" 
d="M254 -20q-88 0 -144.5 66.5t-49.5 226.5q7 145 58.5 360t143.5 447l210 -39q-58 -152 -102 -299t-69 -268.5t-27 -199.5q0 -21 2.5 -50.5t15 -52t39.5 -22.5q47 0 82.5 68t54.5 162q28 141 46.5 231t34 155.5t34 132.5t46.5 162l168 -19q-4 -21 -24.5 -97.5t-46.5 -183
t-49 -220t-34 -208.5q-11 -102 0.5 -142.5t47.5 -40.5q112 0 173 340l102 571l217 -1l-128 -720q-17 -96 -3 -135t57 -39h26l-31 -175h-50q-52 0 -95 12.5t-68.5 49t-26.5 108.5h-21q-24 -95 -78 -137.5t-122 -42.5q-81 0 -120.5 52t-52.5 128h-18q-25 -95 -75.5 -137.5
t-122.5 -42.5z" />
    <glyph glyph-name="uni0449" unicode="&#x449;" 
d="M575 -480l-11 190q146 7 229 58.5t123 151.5q15 39 25 87q-36 16 -58 51.5t-22 101.5h-21q-24 -95 -78 -137.5t-122 -42.5q-81 0 -120.5 52t-52.5 128h-18q-25 -95 -75.5 -137.5t-122.5 -42.5q-88 0 -144.5 66.5t-49.5 226.5q7 145 58.5 360t143.5 447l210 -39
q-58 -152 -102 -299t-69 -268.5t-27 -199.5q0 -21 2.5 -50.5t15 -52t39.5 -22.5q47 0 82.5 68t54.5 162q28 141 46.5 231t34 155.5t34 132.5t46.5 162l168 -19q-4 -21 -24.5 -97.5t-46.5 -183t-49 -220t-34 -208.5q-11 -102 0.5 -142.5t47.5 -40.5q112 0 173 340l102 571
l217 -1l-128 -720q-17 -96 -3 -135t57 -39h29l-23 -132q-10 -55 -21 -103.5t-27 -89.5q-58 -148 -179.5 -234.5t-309.5 -85.5z" />
    <glyph glyph-name="uni044A" unicode="&#x44a;" 
d="M575 -20q-178 0 -277 89.5t-99 255.5q0 123 58.5 266t181.5 283h-378l33 186h549l54 -144q-36 -42 -82.5 -93t-88.5 -118q53 24 113 35t114 11q158 0 242.5 -86t84.5 -227q0 -119 -60.5 -224t-173.5 -169.5t-271 -64.5zM445 521q-20 -62 -27 -95.5t-7 -66.5
q0 -82 39 -137t141 -55q91 0 152.5 38.5t93 98.5t31.5 123q0 65 -39.5 112.5t-134.5 47.5q-49 0 -115 -15.5t-134 -50.5z" />
    <glyph glyph-name="uni044B" unicode="&#x44b;" 
d="M332 -20q-39 0 -84 9t-84.5 37t-64.5 85t-25 154q0 118 42.5 317.5t105.5 477.5h212q-18 -81 -34.5 -161.5t-34.5 -161.5q28 20 64.5 34.5t86.5 14.5q100 0 166.5 -63t66.5 -208q0 -79 -23.5 -171.5t-74 -175.5t-129.5 -135.5t-190 -52.5zM779 0l187 1060h215l-187 -1060
h-215zM320 581q-22 -77 -37 -160.5t-15 -130.5q0 -71 24 -95.5t75 -24.5q52 0 88 33.5t58.5 85t33 106t10.5 96.5q0 76 -30.5 105t-83.5 29q-27 0 -55.5 -8.5t-67.5 -35.5z" />
    <glyph glyph-name="uni044C" unicode="&#x44c;" 
d="M541 -20q-202 0 -301.5 102t-99.5 274q0 120 46 303t130 401h216q-35 -101 -63.5 -190t-49.5 -164q66 43 143 66.5t165 23.5q101 0 181.5 -40.5t127.5 -115.5t47 -178q0 -138 -69.5 -247t-192 -172t-280.5 -63zM374 527q-20 -94 -20 -153q0 -94 50 -149t163 -55
q141 0 221.5 82t80.5 197q0 61 -45.5 112t-152.5 51q-83 0 -154.5 -23t-142.5 -62z" />
    <glyph glyph-name="uni044D" unicode="&#x44d;" 
d="M472 -20q-172 0 -270.5 52.5t-148.5 167.5l155 123q53 -80 121 -116.5t171 -36.5q118 0 208.5 73.5t134.5 202.5h-399l30 174h402q2 24 2 49q-1 105 -69 163t-176 58q-96 0 -189 -29t-168 -79l-72 164q96 62 215 98t243 36q197 0 305 -102t108 -287q0 -214 -75 -374
t-210.5 -248.5t-317.5 -88.5z" />
    <glyph glyph-name="uni044E" unicode="&#x44e;" 
d="M688 -20q-130 0 -196 88.5t-66 248.5v23t1 24q2 39 6 76h-138l-78 -440h-200l187 1060h200l-79 -446h135q48 223 154 344.5t264 121.5q130 0 196.5 -91.5t66.5 -256.5v-22.5t-1 -23.5q-21 -333 -141 -519.5t-311 -186.5zM698 164q82 0 144 126t85 354q2 20 3 39.5t1 38.5
q0 72 -19.5 123t-72.5 51q-91 0 -154 -127.5t-86 -354.5q-1 -19 -2.5 -38t-1.5 -37q0 -73 21 -124t82 -51z" />
    <glyph glyph-name="uni044F" unicode="&#x44f;" 
d="M675 319q-57 -1 -109 4q-48 -95 -114.5 -172.5t-146 -124t-167.5 -46.5q-61 0 -105 20l31 179q15 -6 33 -7.5t33 -1.5q64 0 135 55.5t119 139.5q-95 39 -145.5 110.5t-50.5 172.5q0 72 36.5 145t117.5 133.5t213.5 97t324.5 36.5h240l-187 -1060h-215l58 331
q-47 -10 -101 -12zM810 519l61 351h-24q-179 0 -275.5 -35t-133 -85t-36.5 -95q0 -87 72.5 -127t178.5 -36q78 3 157 27z" />
    <glyph glyph-name="uni0450" unicode="&#x450;" 
d="M587 170q80 0 171 25t175 70l69 -171q-98 -54 -210 -84t-214 -30q-206 0 -321.5 108t-115.5 301q0 208 78.5 363t219.5 241.5t329 86.5q148 0 230.5 -74t82.5 -206q0 -193 -195.5 -306t-545.5 -123q9 -95 74 -148t173 -53zM350 532q245 10 381 76.5t136 178.5
q0 48 -33 75.5t-94 27.5q-151 0 -254.5 -97t-135.5 -261zM651 1248l-166 380h203l146 -380h-183z" />
    <glyph glyph-name="uni0451" unicode="&#x451;" 
d="M587 170q80 0 171 25t175 70l69 -171q-98 -54 -210 -84t-214 -30q-206 0 -321.5 108t-115.5 301q0 208 78.5 363t219.5 241.5t329 86.5q148 0 230.5 -74t82.5 -206q0 -193 -195.5 -306t-545.5 -123q9 -95 74 -148t173 -53zM350 532q245 10 381 76.5t136 178.5
q0 48 -33 75.5t-94 27.5q-151 0 -254.5 -97t-135.5 -261zM553 1238q-55 0 -94.5 39.5t-39.5 94.5q0 56 39.5 95t94.5 39q56 0 95 -39t39 -95q0 -55 -39 -94.5t-95 -39.5zM973 1238q-55 0 -94.5 39.5t-39.5 94.5q0 56 39.5 95t94.5 39q56 0 95 -39t39 -95q0 -55 -39 -94.5
t-95 -39.5z" />
    <glyph glyph-name="uni0452" unicode="&#x452;" 
d="M537 -469l-141 155q113 84 190.5 182.5t127 224.5t77.5 292l24 148q22 131 -7 184.5t-96 53.5q-61 0 -123.5 -47t-117.5 -156.5t-94 -296.5l1 8l-49 -279h-217l203 1146h-206l30 174h207l32 180h214l-32 -180h319l-30 -174h-319l-78 -446h18q32 125 116 193t196 68
q160 0 224 -103.5t23 -332.5l-24 -138q-37 -210 -96 -366.5t-149.5 -275t-222.5 -214.5z" />
    <glyph glyph-name="uni0453" unicode="&#x453;" 
d="M966 225l69 -161q-61 -35 -129 -59.5t-156 -24.5q-368 0 -347 334q5 75 29.5 146t53 138t43.5 129q43 166 -151 166q-95 0 -183 -23l-21 182q59 17 118 22.5t118 5.5q207 0 291 -94.5t39 -278.5q-17 -71 -44.5 -132.5t-50.5 -121.5t-28 -130q-11 -153 172 -153
q50 0 87.5 12.5t89.5 42.5zM627 1248l217 380h246l-267 -380h-196z" />
    <glyph glyph-name="uni0454" unicode="&#x454;" 
d="M537 -20q-197 0 -305 102t-108 287q0 215 75 374.5t210.5 248t317.5 88.5q164 0 261 -52t147 -168l-155 -123q-52 80 -119 116.5t-162 36.5q-126 0 -214 -72t-130 -198h400l-30 -174h-402q-2 -27 -2 -55q1 -105 62.5 -163t182.5 -58q104 0 203.5 34t176.5 89l72 -164
q-98 -67 -224 -108t-257 -41z" />
    <glyph glyph-name="uni0455" unicode="&#x455;" 
d="M491 -20q-130 0 -239 16t-178 44l58 192q116 -29 218.5 -45.5t174.5 -16.5q131 0 203.5 34.5t72.5 97.5q0 68 -95 99l-300 101q-99 33 -152 93t-53 135q0 167 141.5 258.5t400.5 91.5q189 0 366 -30l-54 -184q-94 11 -183.5 17.5t-158.5 6.5q-142 0 -219.5 -36.5
t-77.5 -103.5q0 -51 75 -74l305 -97q106 -34 162.5 -100.5t56.5 -152.5q0 -165 -137 -255.5t-387 -90.5z" />
    <glyph glyph-name="uni0456" unicode="&#x456;" 
d="M966 225l69 -161q-61 -35 -129 -59.5t-156 -24.5q-368 0 -347 334q5 75 29.5 146t53 138t43.5 129q43 166 -151 166q-95 0 -183 -23l-21 182q59 17 118 22.5t118 5.5q207 0 291 -94.5t39 -278.5q-17 -71 -44.5 -132.5t-50.5 -121.5t-28 -130q-11 -153 172 -153
q50 0 87.5 12.5t89.5 42.5zM731 1228q-61 0 -104.5 43.5t-43.5 104.5q0 62 43.5 105t104.5 43q62 0 105 -43t43 -105q0 -61 -43 -104.5t-105 -43.5z" />
    <glyph glyph-name="uni0457" unicode="&#x457;" 
d="M966 225l69 -161q-61 -35 -129 -59.5t-156 -24.5q-368 0 -347 334q5 75 29.5 146t53 138t43.5 129q43 166 -151 166q-95 0 -183 -23l-21 182q59 17 118 22.5t118 5.5q207 0 291 -94.5t39 -278.5q-17 -71 -44.5 -132.5t-50.5 -121.5t-28 -130q-11 -153 172 -153
q50 0 87.5 12.5t89.5 42.5zM538 1238q-55 0 -94.5 39.5t-39.5 94.5q0 56 39.5 95t94.5 39q56 0 95 -39t39 -95q0 -55 -39 -94.5t-95 -39.5zM958 1238q-55 0 -94.5 39.5t-39.5 94.5q0 56 39.5 95t94.5 39q56 0 95 -39t39 -95q0 -55 -39 -94.5t-95 -39.5z" />
    <glyph glyph-name="uni0458" unicode="&#x458;" 
d="M27 -480l-10 188l220 18q128 11 198.5 53.5t106.5 122.5t57 200l115 645q14 77 -8 111.5t-83 34.5q-95 0 -191 -13t-191 -30l-21 187q107 20 216.5 31.5t218.5 11.5q174 0 238.5 -84t31.5 -269l-105 -593q-27 -150 -66 -259t-105 -182t-170.5 -112t-261.5 -49zM901 1228
q-61 0 -104.5 43.5t-43.5 104.5q0 62 43.5 105t104.5 43q62 0 105 -43t43 -105q0 -61 -43 -104.5t-105 -43.5z" />
    <glyph glyph-name="uni0459" unicode="&#x459;" 
d="M739 -20q-88 0 -153.5 46t-64.5 155q1 40 12 103.5t24 127.5t20 104q29 153 34.5 228t-22 101.5t-95.5 33.5q-20 -116 -45.5 -240.5t-59 -241.5t-77.5 -209q-48 -100 -112.5 -154t-145.5 -54q-34 0 -54.5 7.5t-28.5 12.5l30 176q3 -1 13.5 -3.5t26.5 -2.5q30 0 57 28
t49 74q37 76 69 186t57.5 226t41.5 208q-27 2 -54.5 3.5t-54.5 3.5l33 181q10 0 27.5 -0.5t66.5 -3.5t151 -10q174 -11 261.5 -88.5t68.5 -234.5q27 20 62 31.5t63 11.5q94 0 158 -64.5t61 -217.5q-3 -138 -56.5 -257.5t-147 -193t-215.5 -73.5zM786 590q-14 -71 -29 -143
t-26 -127t-12 -76q-2 -43 14.5 -58.5t41.5 -15.5q54 0 97 53.5t68.5 129.5t25.5 143q0 72 -26.5 100.5t-59.5 28.5q-21 0 -45 -7t-49 -28z" />
    <glyph glyph-name="uni045A" unicode="&#x45a;" 
d="M739 -20q-56 0 -106 19.5t-81.5 63.5t-30.5 118q1 43 13.5 132t30.5 189l2 9h-235l-90 -511h-215l186 1060h215l-66 -375h236l67 375h195l-57 -315q54 41 127 41q103 0 167 -66t61 -216q-2 -135 -55.5 -255t-146.5 -194.5t-217 -74.5zM776 590q-5 -31 -14.5 -80.5
t-19 -103.5t-16.5 -98t-8 -64q-3 -42 14.5 -58t42.5 -16q54 0 97 53t68.5 129.5t25.5 144.5q0 71 -26.5 99.5t-64.5 28.5q-17 0 -44.5 -6.5t-54.5 -28.5z" />
    <glyph glyph-name="uni045B" unicode="&#x45b;" 
d="M723 0l101 580q33 191 -112 191q-61 0 -123.5 -47t-117.5 -156.5t-94 -296.5l1 8l-49 -279h-215l201 1146h-206l30 174h206l32 180h215l-32 -180h319l-30 -174h-319l-78 -446h18q32 125 116 193t196 68q167 0 229.5 -97.5t27.5 -291.5l-101 -572h-215z" />
    <glyph glyph-name="uni045C" unicode="&#x45c;" 
d="M945 -20q-170 0 -303 132.5t-186 391.5q145 64 235.5 143t140.5 180t72 232l223 21q-29 -183 -94.5 -309.5t-154.5 -208.5t-188 -131q45 -143 124 -202t155 -59q33 0 51.5 1.5t40.5 3.5l19 -181q-31 -6 -62.5 -10t-72.5 -4zM65 0l186 1060h215l-186 -1060h-215zM627 1248
l217 380h246l-267 -380h-196z" />
    <glyph glyph-name="uni045D" unicode="&#x45d;" 
d="M636 1248l-166 380h203l146 -380h-183zM392 -21q-140 0 -217 83.5t-77 234.5q0 153 49.5 338.5t159.5 444.5l212 -39q-109 -265 -158 -435.5t-49 -283.5q0 -73 38 -113t107 -40q133 0 220 128.5t133 369.5v-1l70 394h217l-128 -721q-17 -96 9.5 -135t114.5 -39h43
l-31 -175h-47q-158 0 -222.5 62t-48.5 199h-22q-34 -84 -78.5 -145t-114.5 -94t-180 -33z" />
    <glyph glyph-name="uni045E" unicode="&#x45e;" 
d="M3 -472l-89 175q180 79 326 175t261 213q-232 369 -398 969l221 20q126 -516 321 -815q113 159 187.5 356t116.5 439h214q-75 -389 -221 -678.5t-376.5 -497.5t-562.5 -356zM634 1220q-126 0 -206.5 67.5t-80.5 170.5q0 58 28 118l176 -16q-16 -43 -16 -78q0 -49 29 -82
t90 -33q75 0 152 57t125 166l139 -84q-89 -160 -207.5 -223t-228.5 -63z" />
    <glyph glyph-name="uni045F" unicode="&#x45f;" 
d="M392 -21q-140 0 -217 83.5t-77 234.5q0 153 49.5 338.5t159.5 444.5l212 -39q-109 -265 -158 -435.5t-49 -283.5q0 -73 38 -113t107 -40q133 0 220 128.5t133 369.5v-1l70 394h217l-128 -721q-17 -96 9.5 -135t114.5 -39h43l-31 -175h-47q-158 0 -222.5 62t-48.5 199h-22
q-34 -84 -78.5 -145t-114.5 -94t-180 -33zM447 -485l-202 25q18 38 43.5 105t49.5 139.5t37 125.5l181 -20q-19 -97 -49 -199t-60 -176z" />
    <glyph glyph-name="uni0490" unicode="&#x490;" 
d="M89 0l248 1420h721l54 310h209l-88 -500h-720l-217 -1230h-207z" />
    <glyph glyph-name="uni0491" unicode="&#x491;" 
d="M516 -20q-109 0 -197.5 27t-140.5 85.5t-52 153.5q0 98 52 162t134 105.5t174.5 70.5t174.5 55.5t134 60.5t52 87q0 46 -45.5 74.5t-142.5 28.5q-54 0 -106 -11t-116.5 -36.5t-155.5 -70.5l-130 51l85 497h200l-96 -356l20 -11q65 57 140.5 92t192.5 35q129 0 211.5 -40
t121.5 -104.5t39 -138.5q0 -93 -52 -154t-134 -100.5t-174.5 -68t-174.5 -55.5t-134 -61.5t-52 -88.5q0 -46 45 -72.5t142 -26.5q84 0 193 23.5t212 78.5l61 -162q-65 -50 -151.5 -78.5t-173.5 -40t-156 -11.5z" />
    <glyph glyph-name="uni0492" unicode="&#x492;" 
d="M127 0l103 585h-168l33 190h168l114 645h869l-33 -190h-661l-81 -455h336l-33 -190h-336l-103 -585h-208z" />
    <glyph glyph-name="uni0493" unicode="&#x493;" 
d="M510 -20q-195 0 -288 67.5t-93 164.5q0 60 28.5 101t70 66.5t80 39.5t57.5 21l4 19l-230 -25l30 169h405q68 26 130.5 54t102.5 61.5t40 75.5q0 43 -47 69.5t-133 26.5q-99 0 -191 -34t-195 -84l-90 162q99 61 223.5 103.5t262.5 42.5q177 0 280.5 -71.5t103.5 -181.5
q0 -65 -32 -107.5t-76.5 -68.5t-84.5 -40.5t-55 -24.5l-4 -17l247 27l-30 -169h-461q-121 -47 -171.5 -83.5t-50.5 -77.5q0 -46 53.5 -71t139.5 -25q79 0 183.5 23.5t216.5 78.5l61 -162q-86 -57 -179 -84.5t-174.5 -36.5t-133.5 -9z" />
    <glyph glyph-name="uni0496" unicode="&#x496;" 
d="M392 0l99 561h-117q-79 -148 -134 -277.5t-118 -283.5h-208q42 100 82.5 195t96 208.5t141.5 271.5l-58 745h202l20 -669h127l118 669h188l-118 -669h119q41 76 81 168t76 185.5t65.5 176t48.5 139.5h188q-22 -78 -56.5 -175t-76.5 -199t-87.5 -198t-88.5 -171l56 -487
h96q-5 -56 -17 -128t-28 -146t-32.5 -136.5t-30.5 -100.5l-183 40q25 68 45 142.5t33 138.5h-62l-49 561h-131l-99 -561h-188z" />
    <glyph glyph-name="uni0497" unicode="&#x497;" 
d="M988 -321l-182 40q18 53 31 97t25 94.5t27 121.5q-69 46 -88 150t2 260h-128l-78 -442h-180l78 442h-129q-43 -209 -142 -326.5t-242 -117.5q-9 0 -18 0.5t-18 1.5l33 183q74 1 131 90.5t82 236.5l9 52q29 169 10 242t-88 73q-6 0 -12 -0.5t-13 -1.5l34 185q12 2 23.5 2
h22.5q151 0 200 -115.5t19 -330.5l128 1l78 443h180l-78 -444h128q44 209 142.5 327.5t242.5 118.5q9 0 18 -0.5t18 -1.5l-33 -183q-74 -1 -130.5 -90.5t-82.5 -236.5l-9 -52q-29 -169 -10 -242t88 -73q6 0 12 0.5t13 1.5l-10 -55q-12 -75 -30 -162.5t-37.5 -165.5
t-36.5 -123z" />
    <glyph glyph-name="uni049A" unicode="&#x49a;" 
d="M986 -321l-183 40q25 68 45 142.5t33 138.5h-76l-205 531h-232l-93 -531h-208l250 1420h208l-123 -699h228q80 67 151.5 161.5t129.5 196t99.5 192t61.5 149.5h217q-26 -84 -73 -190t-111.5 -218t-143.5 -216t-169 -184l170 -422h132q-5 -56 -17 -128t-28 -146
t-32.5 -136.5t-30.5 -100.5z" />
    <glyph glyph-name="uni049B" unicode="&#x49b;" 
d="M982 -321l-183 40q23 65 42 135.5t33 131.5q-147 26 -258.5 156.5t-159.5 361.5q145 64 235.5 143t140.5 180t72 232l223 21q-29 -183 -94.5 -309.5t-154.5 -208.5t-188 -131q45 -143 124 -202t155 -59q33 0 55 0.5l66 1.5q-9 -79 -27.5 -175t-40 -182.5t-40.5 -135.5z
M65 0l186 1060h215l-186 -1060h-215z" />
    <glyph glyph-name="uni04A2" unicode="&#x4a2;" 
d="M986 -321l-183 40q25 68 45 142.5t33 138.5h-122l108 612h-504l-108 -612h-208l250 1420h208l-109 -618h504l109 618h208l-217 -1230h94q-5 -56 -17 -128t-28 -146t-32.5 -136.5t-30.5 -100.5z" />
    <glyph glyph-name="uni04A3" unicode="&#x4a3;" 
d="M1012 -321l-183 40q24 65 43 136t32 133q-92 20 -123.5 91t-6.5 201l31 163h-437l-78 -443h-215l186 1060h215l-78 -443h440l84 443h214l-146 -770q-13 -73 -0.5 -103t65.5 -30h17l45 3q-9 -77 -27.5 -171.5t-39.5 -178.5t-38 -131z" />
    <glyph glyph-name="uni04AE" unicode="&#x4ae;" 
d="M402 0l81 460l-305 938l212 32l224 -804h18q106 137 192 259.5t158 251.5t136 283h214q-79 -195 -176 -360.5t-213.5 -318.5t-256.5 -310l-76 -431h-208z" />
    <glyph glyph-name="uni04AF" unicode="&#x4af;" 
d="M318 -460l83 473l-228 1047l223 20l173 -849h14q180 182 277 379t112 450h214q-16 -319 -155 -574t-415 -473l-83 -473h-215z" />
    <glyph glyph-name="uni04B0" unicode="&#x4b0;" 
d="M183 250l34 190h263l3 20l-305 938l212 32l224 -804h18q106 137 192 259.5t158 251.5t136 283h214q-78 -193 -174 -357t-211.5 -316t-252.5 -307h251l-34 -190h-257l-44 -250h-208l44 250h-263z" />
    <glyph glyph-name="uni04B1" unicode="&#x4b1;" 
d="M92 -174l30 174h277l2 13l-228 1047l223 20l173 -849h14q180 182 277 379t112 450h214q-16 -319 -155 -574t-415 -473l-2 -13h279l-30 -174h-280l-50 -286h-215l50 286h-276z" />
    <glyph glyph-name="uni04B2" unicode="&#x4b2;" 
d="M965 -321l-183 40q23 63 42 132t32 130q-16 -1 -32 -1q-113 0 -197.5 73t-87.5 236l-3 172l-375 -501l-156 140l527 608l-7 384q-1 83 -36.5 120.5t-76.5 37.5q-70 0 -137 -35l-59 171q131 54 225 54q69 0 128.5 -32t97 -100t39.5 -177l3 -185l343 494l166 -140
l-504 -611l6 -361q2 -82 41.5 -120t91.5 -38q69 0 137 45l68 -75q0 -37 -9 -99t-23.5 -131.5t-30.5 -131t-30 -99.5z" />
    <glyph glyph-name="uni04B3" unicode="&#x4b3;" 
d="M177 -41l-136 150l454 438l-13 185q-6 83 -39 120.5t-82 37.5q-40 0 -77 -7.5t-78 -25.5l-51 174q138 49 235 49q119 0 192.5 -72t84.5 -237l3 -39l320 368l146 -150l-451 -448l12 -174q6 -83 38 -120.5t83 -37.5q84 0 162 35l58 -65q0 -37 -9 -99t-23.5 -131.5
t-30.5 -131t-30 -99.5l-183 40q23 63 42 132.5t32 130.5q-23 -2 -47 -2q-120 0 -193 72t-84 237l-2 29z" />
    <glyph glyph-name="uni04B6" unicode="&#x4b6;" 
d="M966 -321l-183 40q25 68 45 142.5t33 138.5h-102l94 534q-48 -19 -102 -30t-114 -11q-202 0 -320.5 115t-118.5 314q0 82 16 186.5t41 204.5l26 107h201l-25 -121q-20 -97 -37 -188t-17 -170q0 -256 262 -256q65 0 118 15.5t107 43.5l119 676h208l-217 -1230h74
q-5 -56 -17 -128t-28 -146t-32.5 -136.5t-30.5 -100.5z" />
    <glyph glyph-name="uni04B7" unicode="&#x4b7;" 
d="M976 -321l-183 40q24 65 43.5 136t32.5 133q-93 20 -124.5 91t-6.5 201l42 219h-24q-21 -42 -60.5 -84t-97.5 -70t-135 -28q-157 0 -239.5 93t-82.5 242q0 95 27.5 199.5t72.5 228.5l212 -39q-44 -117 -71 -205t-27 -156q0 -73 43.5 -124t147.5 -49q96 2 174 69.5
t109 187.5l-1 -8l58 304h214l-146 -770q-13 -73 -0.5 -103t65.5 -30h21q22 2 41 3q-9 -77 -27.5 -171.5t-39.5 -178.5t-38 -131z" />
    <glyph glyph-name="uni04BA" unicode="&#x4ba;" 
d="M781 0l25 121q20 98 37 188.5t17 169.5q0 256 -262 256q-64 0 -117 -15.5t-107 -42.5l-119 -677h-208l250 1420h208l-94 -534q48 19 101.5 30t113.5 11q203 0 321 -115t118 -314q0 -82 -16 -186t-41 -205l-26 -107h-201z" />
    <glyph glyph-name="uni04BB" unicode="&#x4bb;" 
d="M723 0l123 705q32 185 -119 185q-82 0 -152 -47t-125.5 -156.5t-95.5 -296.5l2 19l-72 -409h-215l210 1187q14 77 -8 112t-83 35q-25 0 -49.5 -2.5t-49.5 -8.5l-21 182q38 9 76 12.5t76 3.5q174 0 238.5 -84t31.5 -270l-61 -348h19q32 125 128.5 193t230.5 68
q322 0 254 -383l-123 -697h-215z" />
    <glyph glyph-name="uni04C0" unicode="&#x4c0;" 
d="M75 0l33 190h328l184 1040h-328l33 190h863l-33 -190h-327l-184 -1040h327l-33 -190h-863z" />
    <glyph glyph-name="uni04CF" unicode="&#x4cf;" 
d="M966 225l69 -161q-61 -35 -129 -59.5t-156 -24.5q-368 0 -347 334q5 75 29.5 146t53 138t43.5 129q43 166 -151 166q-95 0 -183 -23l-21 182q59 17 118 22.5t118 5.5q207 0 291 -94.5t39 -278.5q-17 -71 -44.5 -132.5t-50.5 -121.5t-28 -130q-11 -153 172 -153
q50 0 87.5 12.5t89.5 42.5z" />
    <glyph glyph-name="uni04D8" unicode="&#x4d8;" 
d="M491 -20q-195 0 -298.5 100.5t-103.5 271.5q0 165 89.5 287.5t243.5 190t347 67.5q91 0 186 -12q-9 193 -93 282t-262 89q-105 0 -186.5 -25t-155.5 -57l-40 168q104 51 209.5 74.5t212.5 23.5q276 0 398.5 -148t122.5 -434q0 -180 -44.5 -339t-130 -280t-210 -190
t-285.5 -69zM949 707q-29 2 -71 4t-87 2q-217 0 -352.5 -86.5t-135.5 -264.5q0 -94 46.5 -146t153.5 -52q132 0 225.5 74.5t149 198t71.5 270.5z" />
    <glyph glyph-name="uni04D9" unicode="&#x4d9;" 
d="M459 -20q-152 0 -238.5 75t-86.5 214q0 173 135.5 277.5t377.5 104.5q102 0 229 -22q1 15 1 30q-1 109 -65.5 170t-179.5 61q-83 0 -174 -23.5t-175 -71.5l-69 169q98 58 209.5 87t217.5 29q204 0 318.5 -108t114.5 -301q0 -208 -77.5 -363t-216 -241.5t-321.5 -86.5z
M849 469q-99 19 -184 19q-139 0 -229.5 -53.5t-87.5 -152.5q2 -55 39 -83.5t119 -28.5q112 0 206.5 80.5t136.5 218.5z" />
    <glyph glyph-name="uni04E2" unicode="&#x4e2;" 
d="M55 0l250 1420h200l-188 -1070h22l643 1070h227l-250 -1420h-200l188 1070h-21l-644 -1070h-227zM400 1580l34 188h773l-34 -188h-773z" />
    </font>
</defs>
</svg>
